M48
; DRILL file {KiCad 8.0.5} date 2025-03-17T19:47:00-0500
; FORMAT={-:-/ absolute / inch / decimal}
; #@! TF.CreationDate,2025-03-17T19:47:00-05:00
; #@! TF.GenerationSoftware,Kicad,Pcbnew,8.0.5
; #@! TF.FileFunction,Plated,1,2,PTH
FMAT,2
INCH
; #@! TA.AperFunction,Plated,PTH,ViaDrill
T1C0.0118
; #@! TA.AperFunction,Plated,PTH,ComponentDrill
T2C0.0236
; #@! TA.AperFunction,Plated,PTH,ComponentDrill
T3C0.0276
; #@! TA.AperFunction,Plated,PTH,ComponentDrill
T4C0.0315
; #@! TA.AperFunction,Plated,PTH,ComponentDrill
T5C0.0350
; #@! TA.AperFunction,Plated,PTH,ComponentDrill
T6C0.0354
; #@! TA.AperFunction,Plated,PTH,ComponentDrill
T7C0.0402
; #@! TA.AperFunction,Plated,PTH,ComponentDrill
T8C0.0472
; #@! TA.AperFunction,Plated,PTH,ComponentDrill
T9C0.0630
; #@! TA.AperFunction,Plated,PTH,ComponentDrill
T10C0.0787
; #@! TA.AperFunction,Plated,PTH,ComponentDrill
T11C0.1280
%
G90
G05
T1
X2.2Y-2.4
X2.2Y-2.6
X2.2Y-3.0
X2.2Y-3.4
X2.2Y-3.6
X2.2Y-3.8
X2.2Y-4.2
X2.2Y-4.4
X2.2Y-4.6
X2.4Y-1.6
X2.4Y-1.8
X2.4Y-2.4
X2.4Y-2.6
X2.4Y-2.8
X2.4Y-3.0
X2.4Y-3.4
X2.4Y-3.6
X2.4Y-3.8
X2.4Y-4.2
X2.4Y-4.4
X2.4Y-4.6
X2.4Y-4.8
X2.6Y-1.6
X2.6Y-1.8
X2.6Y-3.0
X2.6Y-3.4
X2.6Y-3.6
X2.6Y-3.8
X2.8Y-1.6
X2.8Y-1.8
X2.8Y-3.4
X2.8Y-3.6
X2.8Y-3.8
X2.95Y-4.397
X3.0Y-1.6
X3.0Y-1.8
X3.0Y-2.0
X3.0Y-2.2
X3.0Y-2.6
X3.0Y-2.92
X3.0Y-3.04
X3.0Y-3.96
X3.03Y-3.96
X3.03Y-4.2
X3.2Y-2.2
X3.2Y-2.6
X3.22Y-2.38
X3.29Y-3.3
X3.38Y-1.92
X3.4Y-2.6
X3.4Y-3.4
X3.4Y-3.6
X3.44Y-2.29
X3.58Y-2.28
X3.6Y-2.6
X3.6Y-2.8
X3.6Y-3.4
X3.6Y-3.6
X3.65Y-2.31
X3.68Y-2.28
X3.74Y-2.59
X3.74Y-3.23
X3.74Y-3.89
X3.74Y-4.25
X3.8Y-3.4
X3.8Y-3.6
X3.99Y-3.24
X3.99Y-3.69
X4.0Y-1.6
X4.0Y-1.8
X4.0Y-2.2
X4.02Y-3.69
X4.0483Y-3.69
X4.09Y-3.24
X4.1706Y-2.4864
X4.2Y-2.6
X4.2Y-2.8
X4.2Y-2.9
X4.2Y-3.4
X4.2Y-3.9
X4.2Y-4.4
X4.23Y-3.23
X4.3Y-2.9
X4.3Y-3.3
X4.3Y-3.4
X4.3Y-3.9
X4.3Y-4.4
X4.39Y-2.48
X4.4Y-1.6
X4.4Y-1.8
X4.4Y-2.9
X4.4Y-3.3
X4.4Y-3.4
X4.4Y-3.9
X4.4Y-4.4
X4.6Y-1.6
X4.6Y-1.8
X4.6Y-2.6
X4.6Y-2.8
X4.6Y-3.32
X4.69Y-3.23
X4.7Y-3.4
X4.7Y-3.9
X4.7Y-4.4
X4.77Y-2.44
X4.8Y-1.6
X4.8Y-1.8
X4.8Y-3.4
X4.8Y-3.9
X4.8Y-4.4
X4.9Y-3.4
X4.9Y-3.9
X4.9Y-4.4
X5.0Y-1.6
X5.0Y-1.8
X5.0Y-2.6
X5.0Y-2.8
X5.0Y-3.4
X5.0936Y-3.43
X5.13Y-3.17
X5.2Y-3.4
X5.2Y-3.9
X5.2Y-4.4
X5.28Y-3.1404
X5.29Y-3.23
X5.3Y-3.4
X5.3Y-3.9
X5.3Y-4.4
X5.4Y-3.2
X5.4Y-3.4
X5.4Y-3.9
X5.4Y-4.4
X5.44Y-2.47
X5.49Y-2.5
X5.5Y-2.56
X5.5Y-3.2
X5.5Y-3.4
X5.52Y-2.6
X5.53Y-2.63
X5.6Y-1.6
X5.6Y-1.8
X5.6Y-3.2
X5.6111Y-3.4311
X5.7Y-3.2
X5.79Y-2.94
X5.8Y-1.6
X5.8Y-1.8
X5.81Y-3.23
X5.89Y-3.2172
X5.98Y-3.1404
X6.0Y-1.6
X6.0Y-1.8
X6.0Y-3.2
X6.1Y-3.2
X6.136Y-2.624
X6.1383Y-2.5917
X6.18Y-2.52
X6.1885Y-3.2551
X6.2Y-2.82
X6.22Y-3.2536
X6.28Y-2.56
X6.2885Y-2.81
X6.32Y-2.81
X6.3515Y-2.81
X6.39Y-2.81
X6.4Y-2.4
X6.4Y-2.6
X6.4Y-3.4
X6.4Y-4.1
X6.4Y-4.2
X6.45Y-4.12
X6.46Y-2.8
X6.48Y-3.44
X6.5Y-3.6
X6.5Y-3.7
X6.51Y-2.79
X6.55Y-3.8506
X6.57Y-3.7
X6.6Y-1.6
X6.6Y-1.8
X6.6Y-2.4
X6.6Y-2.6
X6.6Y-3.2
X6.6Y-3.3
X6.6Y-3.4
X6.6036Y-4.2518
X6.6275Y-3.8506
X6.6336Y-4.195
X6.64Y-4.68
X6.65Y-3.69
X6.66Y-4.73
X6.695Y-2.985
X6.6964Y-4.28
X6.7Y-3.4
X6.727Y-2.983
X6.73Y-3.69
X6.7587Y-2.9813
X6.76Y-4.78
X6.79Y-3.7
X6.8Y-1.6
X6.8Y-1.8
X6.8Y-2.4
X6.8Y-2.6
X6.9Y-3.6
X6.9Y-3.8
X6.9Y-4.0
X6.9Y-4.1
X6.9Y-4.3
X7.0Y-1.6
X7.0Y-1.8
X7.0Y-2.4
X7.0Y-2.6
X7.0Y-4.8
X7.1Y-4.1
X7.2Y-2.4
X7.2Y-2.6
X7.2Y-4.8
X7.4Y-2.0
X7.4Y-2.2
X7.4Y-2.4
X7.4Y-2.6
X7.6Y-2.0
X7.6Y-2.2
X7.6Y-2.4
X7.6Y-2.6
T2
X5.7281Y-4.5325
X5.7281Y-4.6113
X5.7281Y-4.69
X5.73Y-3.5625
X5.73Y-3.6413
X5.73Y-3.72
X5.73Y-4.0425
X5.73Y-4.1213
X5.73Y-4.2
X5.95Y-3.5625
X5.95Y-3.6413
X5.95Y-3.72
X5.95Y-4.0425
X5.95Y-4.1213
X5.95Y-4.2
X5.95Y-4.5325
X5.95Y-4.6113
X5.95Y-4.69
X6.17Y-4.0425
X6.17Y-4.1213
X6.17Y-4.2
T3
X5.5606Y-2.7161
X5.5606Y-2.7948
X5.5606Y-2.8735
X5.6394Y-2.7161
X5.6394Y-2.7948
X5.6394Y-2.8735
T4
X3.17Y-3.13
X3.17Y-3.23
X3.17Y-3.33
X3.17Y-3.43
X3.17Y-3.53
X3.17Y-3.63
X3.17Y-3.73
X3.17Y-3.83
X3.85Y-2.37
X3.85Y-2.97
X3.95Y-2.37
X3.95Y-2.97
X4.05Y-2.37
X4.05Y-2.97
X4.15Y-2.37
X4.15Y-2.97
X4.25Y-2.37
X4.25Y-2.97
X4.35Y-2.37
X4.35Y-2.97
X4.45Y-2.37
X4.45Y-2.97
X4.55Y-2.37
X4.55Y-2.97
X4.65Y-2.37
X4.65Y-2.97
X4.75Y-2.37
X4.75Y-2.97
X4.85Y-2.37
X4.85Y-2.97
X4.95Y-2.37
X4.95Y-2.97
X5.05Y-2.37
X5.05Y-2.97
X5.15Y-2.37
X5.15Y-2.97
X5.25Y-2.37
X5.25Y-2.97
X5.35Y-2.37
X5.35Y-2.97
X5.45Y-2.37
X5.45Y-2.97
X5.55Y-2.37
X5.55Y-2.97
X5.65Y-2.37
X5.65Y-2.97
X5.75Y-2.37
X5.75Y-2.97
X5.85Y-2.37
X5.85Y-2.97
X5.95Y-2.37
X5.95Y-2.97
X6.05Y-2.37
X6.05Y-2.97
X6.15Y-2.37
X6.15Y-2.97
T5
X2.635Y-4.34
X2.635Y-4.44
X2.635Y-4.54
T6
X2.56Y-2.02
X2.56Y-2.12
X2.56Y-2.22
X2.56Y-2.32
X2.56Y-2.42
X2.56Y-2.52
X2.56Y-2.62
X2.56Y-2.72
X2.56Y-2.82
X2.59Y-4.85
X2.69Y-4.85
X2.79Y-4.85
X3.204Y-1.6622
X3.304Y-1.6622
X3.58Y-1.66
X3.68Y-1.66
X4.28Y-2.03
X4.38Y-2.03
X4.48Y-2.03
X4.58Y-2.03
X4.68Y-2.03
X4.78Y-2.03
X4.88Y-2.03
X4.98Y-2.03
X5.08Y-2.03
X5.3627Y-2.03
X5.4627Y-2.03
X5.5627Y-2.03
X5.6627Y-2.03
X5.7627Y-2.03
X5.8627Y-2.03
X5.9627Y-2.03
X6.0627Y-2.03
X6.1627Y-2.03
X6.45Y-2.03
X6.55Y-2.03
X6.65Y-2.03
X6.75Y-2.03
X6.85Y-2.03
X6.93Y-2.936
X6.93Y-3.036
X6.93Y-3.136
X6.93Y-3.236
X6.95Y-2.03
X7.03Y-2.986
X7.03Y-3.086
X7.03Y-3.186
X7.03Y-3.286
X7.05Y-2.03
X7.15Y-2.03
X7.2Y-3.76
X7.2Y-3.86
X7.2Y-3.96
X7.2Y-4.06
X7.2Y-4.16
X7.2Y-4.26
X7.2Y-4.36
X7.2Y-4.46
X7.2Y-4.56
X7.25Y-2.03
T7
X7.4095Y-2.862
X7.4095Y-3.26
X7.48Y-2.962
X7.48Y-3.36
T8
X2.1145Y-3.1957
X2.1145Y-3.9957
X2.4145Y-3.9957
X2.5145Y-3.1957
X2.6145Y-3.9957
X2.9145Y-3.1957
T9
X7.1599Y-2.8009
X7.1599Y-3.421
T11
X7.28Y-2.886
X7.28Y-3.336
T10
G00X3.1137Y-4.3026
M15
G01X3.1963Y-4.3026
M16
G05
G00X3.4237Y-4.3026
M15
G01X3.5063Y-4.3026
M16
G05
M30
