M48
; DRILL file {KiCad 9.0.8-9.0.8~ubuntu22.04.1} date 2026-03-23T17:56:06-0500
; FORMAT={-:-/ absolute / inch / decimal}
; #@! TF.CreationDate,2026-03-23T17:56:06-05:00
; #@! TF.GenerationSoftware,Kicad,Pcbnew,9.0.8-9.0.8~ubuntu22.04.1
; #@! TF.FileFunction,Plated,1,2,PTH
FMAT,2
INCH
; #@! TA.AperFunction,Plated,PTH,ViaDrill
T1C0.0118
; #@! TA.AperFunction,Plated,PTH,ComponentDrill
T2C0.0197
; #@! TA.AperFunction,Plated,PTH,ComponentDrill
T3C0.0276
; #@! TA.AperFunction,Plated,PTH,ComponentDrill
T4C0.0315
; #@! TA.AperFunction,Plated,PTH,ComponentDrill
T5C0.0335
; #@! TA.AperFunction,Plated,PTH,ComponentDrill
T6C0.0354
; #@! TA.AperFunction,Plated,PTH,ComponentDrill
T7C0.0394
; #@! TA.AperFunction,Plated,PTH,ComponentDrill
T8C0.0402
; #@! TA.AperFunction,Plated,PTH,ComponentDrill
T9C0.0630
; #@! TA.AperFunction,Plated,PTH,ComponentDrill
T10C0.0730
; #@! TA.AperFunction,Plated,PTH,ComponentDrill
T11C0.1160
; #@! TA.AperFunction,Plated,PTH,ComponentDrill
T12C0.1280
%
G90
G05
T1
X3.04Y-5.04
X3.12Y-2.62
X3.12Y-3.16
X3.33Y-2.21
X3.365Y-3.36
X3.555Y-3.315
X3.595Y-3.935
X3.6Y-2.98
X3.615Y-3.4
X3.63Y-3.63
X3.66Y-2.51
X3.66Y-2.645
X3.66Y-2.73
X3.6601Y-2.6001
X3.67Y-3.28
X3.68Y-2.78
X3.69Y-2.92
X3.69Y-2.97
X3.69Y-3.015
X3.715Y-3.22
X3.73Y-2.92
X3.73Y-2.97
X3.73Y-3.015
X3.765Y-3.22
X3.8Y-3.315
X3.83Y-2.48
X3.83Y-2.56
X3.835Y-3.315
X3.86Y-5.34
X3.875Y-3.075
X3.875Y-3.315
X3.895Y-2.91
X3.9274Y-3.1676
X3.945Y-2.95
X3.945Y-2.995
X3.95Y-3.1676
X3.955Y-4.79
X3.965Y-3.275
X4.005Y-3.095
X4.0495Y-3.05
X4.06Y-3.41
X4.065Y-4.72
X4.1508Y-4.32
X4.205Y-3.315
X4.23Y-3.41
X4.25Y-2.52
X4.34Y-2.91
X4.36Y-3.22
X4.437Y-3.053
X4.44Y-3.4
X4.443Y-2.733
X4.46Y-3.48
X4.46Y-3.91
X4.46Y-4.2
X4.46Y-4.42
X4.52Y-2.75
X4.55Y-3.11
X4.55Y-4.32
X4.6149Y-3.47
X4.6299Y-3.6899
X4.63Y-3.64
X4.67Y-2.75
X4.69Y-3.11
X4.69Y-3.43
X4.69Y-3.6647
X4.7164Y-3.3336
X4.742Y-3.36
X4.77Y-3.47
X4.81Y-3.22
X4.81Y-3.56
X4.82Y-2.52
X4.84Y-4.32
X4.85Y-3.48
X4.85Y-3.82
X4.88Y-4.1381
X4.92Y-3.27
X4.92Y-3.3028
X4.92Y-3.3357
X4.97Y-2.8
X4.97Y-4.2
X5.03Y-3.0
X5.07Y-3.6
X5.08Y-4.32
X5.16Y-4.01
X5.16Y-4.2
X5.17Y-2.8
X5.17Y-3.13
X5.25Y-4.32
X5.26Y-3.42
X5.29Y-3.74
X5.29Y-4.53
X5.29Y-4.88
X5.31Y-4.73
X5.34Y-4.43
X5.34Y-4.68
X5.35Y-4.32
X5.35Y-4.73
X5.4Y-3.38
X5.47Y-2.83
X5.48Y-4.73
X5.49Y-4.21
X5.495Y-2.52
X5.51Y-4.4
X5.51Y-4.68
X5.52Y-4.73
X5.54Y-3.61
X5.54Y-3.73
X5.54Y-3.83
X5.54Y-4.02
X5.61Y-4.35
X5.62Y-3.44
X5.65Y-3.51
X5.65Y-4.73
X5.68Y-4.68
X5.69Y-4.73
X5.7Y-3.4
X5.7Y-4.14
X5.71Y-3.08
X5.7153Y-4.41
X5.8Y-3.61
X5.81Y-4.32
X5.84Y-4.8
X5.8453Y-3.13
X5.848Y-2.732
X5.8647Y-4.77
X5.8699Y-2.983
X5.905Y-2.52
X5.94Y-3.83
X5.94Y-3.94
X5.97Y-2.67
X5.97Y-2.8
X5.97Y-3.17
X5.97Y-3.4
X6.01Y-2.4147
X6.02Y-3.07
X6.02Y-4.22
X6.07Y-4.29
X6.0706Y-2.4394
X6.08Y-4.02
X6.11Y-2.67
X6.11Y-3.12
X6.11Y-4.53
X6.133Y-2.4653
X6.14Y-3.32
X6.15Y-3.4
X6.15Y-3.56
X6.15Y-3.72
X6.1647Y-3.22
X6.19Y-3.92
X6.19Y-3.98
X6.19Y-4.18
X6.1905Y-2.4895
X6.21Y-4.29
X6.2147Y-3.82
X6.26Y-4.63
X6.33Y-2.2553
X6.33Y-2.3553
X6.33Y-2.4553
X6.33Y-4.5
X6.35Y-2.28
X6.35Y-2.38
X6.35Y-2.48
X6.36Y-2.6
X6.36Y-3.02
X6.36Y-3.21
X6.36Y-4.53
X6.36Y-4.73
X6.37Y-4.23
X6.41Y-4.32
X6.42Y-3.62
X6.42Y-3.7447
X6.4532Y-3.67
X6.48Y-4.02
X6.48Y-4.14
X6.4805Y-2.22
X6.4805Y-3.47
X6.5105Y-2.32
X6.5105Y-3.58
X6.52Y-3.63
X6.52Y-3.71
X6.5405Y-2.72
X6.5405Y-3.36
X6.56Y-4.62
X6.57Y-3.99
X6.5705Y-2.12
X6.5705Y-3.77
X6.6Y-2.62
X6.6005Y-4.07
X6.61Y-4.14
X6.61Y-4.32
X6.61Y-4.42
X6.62Y-2.55
X6.6305Y-2.67
X6.6305Y-3.82
X6.65Y-3.92
X6.65Y-4.47
X6.6605Y-2.48
X6.6605Y-3.62
X6.68Y-3.71
X6.68Y-3.87
X6.69Y-4.02
X6.69Y-4.5
X6.6905Y-2.45
X6.6905Y-3.52
X6.72Y-3.32
X6.72Y-4.53
X6.72Y-4.59
X6.7205Y-2.38
X6.7205Y-3.12
X6.75Y-3.42
X6.75Y-4.56
X6.7505Y-2.36
X6.7505Y-3.22
X6.77Y-4.83
X6.7805Y-2.28
X6.7805Y-4.12
X6.81Y-2.26
X6.81Y-3.72
X6.92Y-5.35
X6.98Y-2.42
X6.98Y-2.66
X6.9864Y-3.26
X6.9864Y-4.22
X7.01Y-3.16
X7.01Y-4.32
X7.04Y-4.37
X7.0564Y-4.6564
X7.13Y-4.32
X7.15Y-2.22
X7.2Y-4.2813
X7.29Y-4.32
X7.31Y-4.14
X7.35Y-3.69
X7.39Y-3.79
X7.39Y-4.14
X7.45Y-2.62
X7.45Y-3.15
X7.47Y-5.04
X7.54Y-4.32
T2
X2.9455Y-2.16
X2.9455Y-5.34
X2.9732Y-2.0932
X2.9732Y-2.2268
X2.9732Y-5.2732
X2.9732Y-5.4068
X3.04Y-2.0655
X3.04Y-2.2545
X3.04Y-5.2455
X3.04Y-5.4345
X3.1068Y-2.0932
X3.1068Y-2.2268
X3.1068Y-5.2732
X3.1068Y-5.4068
X3.1345Y-2.16
X3.1345Y-5.34
X6.5455Y-5.34
X6.5732Y-5.2732
X6.5732Y-5.4068
X6.64Y-5.2455
X6.64Y-5.4345
X6.7068Y-5.2732
X6.7068Y-5.4068
X6.7345Y-5.34
X7.4055Y-2.16
X7.4332Y-2.0932
X7.4332Y-2.2268
X7.5Y-2.0655
X7.5Y-2.2545
X7.5668Y-2.0932
X7.5668Y-2.2268
X7.5945Y-2.16
T3
X6.3859Y-3.8306
X6.3859Y-3.9094
X6.4647Y-3.8306
X6.4647Y-3.9094
X6.5434Y-3.8306
X6.5434Y-3.9094
T4
X4.228Y-4.019
X4.228Y-4.119
X4.228Y-4.219
X4.2283Y-3.5591
X4.2283Y-3.6591
X4.2283Y-3.7591
X4.2283Y-4.4791
X4.2283Y-4.5791
X4.2283Y-4.6791
X5.9383Y-4.019
X5.9383Y-4.119
X5.9383Y-4.219
X5.9383Y-4.4791
X5.9383Y-4.5791
X5.9383Y-4.6791
X5.939Y-3.559
X5.939Y-3.659
X5.939Y-3.759
X6.2895Y-2.12
X6.2895Y-2.22
X6.2895Y-2.32
X6.2895Y-2.42
X6.2895Y-2.52
X6.2895Y-2.62
X6.2895Y-2.72
X6.2895Y-2.82
X6.2895Y-2.92
X6.2895Y-3.02
X6.2895Y-3.12
X6.2895Y-3.22
X6.2895Y-3.32
X6.2895Y-3.42
X6.2895Y-3.52
X6.2895Y-3.62
X6.2895Y-3.72
X6.2895Y-3.82
X6.2895Y-3.92
X6.2895Y-4.02
X6.2895Y-4.12
X6.2895Y-4.22
X6.2895Y-4.32
X6.2895Y-4.42
X6.8895Y-2.12
X6.8895Y-2.22
X6.8895Y-2.32
X6.8895Y-2.42
X6.8895Y-2.52
X6.8895Y-2.62
X6.8895Y-2.72
X6.8895Y-2.82
X6.8895Y-2.92
X6.8895Y-3.02
X6.8895Y-3.12
X6.8895Y-3.22
X6.8895Y-3.32
X6.8895Y-3.42
X6.8895Y-3.52
X6.8895Y-3.62
X6.8895Y-3.72
X6.8895Y-3.82
X6.8895Y-3.92
X6.8895Y-4.02
X6.8895Y-4.12
X6.8895Y-4.22
X6.8895Y-4.32
X6.8895Y-4.42
X7.1217Y-3.484
X7.1217Y-3.584
X7.1217Y-3.684
X7.1217Y-3.784
X7.1217Y-3.884
X7.1217Y-3.984
X7.1217Y-4.084
X7.1217Y-4.184
T5
X5.4283Y-3.5596
X5.4283Y-3.6596
X5.4283Y-3.7596
X5.7283Y-3.5596
X5.7283Y-3.6596
X5.7283Y-3.7596
T6
X3.41Y-2.46
X3.41Y-2.56
X3.41Y-2.66
X3.41Y-2.76
X3.41Y-2.86
X3.41Y-2.96
X3.41Y-3.06
X3.41Y-3.16
X3.41Y-3.26
X3.7Y-2.22
X3.7273Y-4.97
X3.8Y-2.22
X3.8273Y-4.97
X3.9Y-2.22
X3.9273Y-4.97
X4.0Y-2.22
X4.0273Y-4.97
X4.4Y-2.22
X4.42Y-4.97
X4.5Y-2.22
X4.52Y-4.97
X4.6Y-2.22
X4.62Y-4.97
X4.7Y-2.22
X4.89Y-4.97
X4.99Y-4.97
X5.09Y-4.97
X5.1Y-2.22
X5.2Y-2.22
X5.3Y-2.22
X5.38Y-4.97
X5.4Y-2.22
X5.48Y-4.97
X5.58Y-4.97
X5.68Y-4.97
X5.8Y-2.22
X5.9Y-2.22
X6.0Y-2.22
X6.1Y-2.22
X6.965Y-4.832
X7.015Y-4.732
X7.065Y-4.832
X7.115Y-4.732
X7.13Y-2.46
X7.13Y-2.56
X7.13Y-2.66
X7.13Y-2.76
X7.13Y-2.86
X7.13Y-2.96
X7.13Y-3.06
X7.13Y-3.16
X7.13Y-3.26
X7.165Y-4.832
X7.196Y-4.448
X7.215Y-4.732
X7.265Y-4.832
X7.296Y-4.448
X7.315Y-4.732
X7.396Y-4.448
X7.496Y-4.448
T7
X3.53Y-2.11
X3.53Y-2.21
X3.53Y-2.31
X3.5348Y-3.56
X3.5348Y-3.66
X3.5348Y-3.76
X3.5348Y-4.1
X3.5348Y-4.2
X3.5348Y-4.3
X4.23Y-2.11
X4.23Y-2.21
X4.23Y-2.31
X4.93Y-2.11
X4.93Y-2.21
X4.93Y-2.31
X5.63Y-2.11
X5.63Y-2.21
X5.63Y-2.31
T8
X6.891Y-5.282
X6.991Y-5.2116
X7.289Y-5.282
X7.389Y-5.2116
T9
X6.83Y-4.9619
X7.45Y-4.9619
T10
X3.416Y-4.8358
X3.416Y-5.0524
T11
X3.04Y-2.16
X3.04Y-5.34
X6.64Y-5.34
X7.5Y-2.16
T12
X6.915Y-5.082
X7.365Y-5.082
M30
