%TF.GenerationSoftware,KiCad,Pcbnew,9.0.8-9.0.8~ubuntu22.04.1*%
%TF.CreationDate,2026-03-23T17:56:10-05:00*%
%TF.ProjectId,CoreBoard,436f7265-426f-4617-9264-2e6b69636164,rev?*%
%TF.SameCoordinates,Original*%
%TF.FileFunction,Soldermask,Bot*%
%TF.FilePolarity,Negative*%
%FSLAX46Y46*%
G04 Gerber Fmt 4.6, Leading zero omitted, Abs format (unit mm)*
G04 Created by KiCad (PCBNEW 9.0.8-9.0.8~ubuntu22.04.1) date 2026-03-23 17:56:10*
%MOMM*%
%LPD*%
G01*
G04 APERTURE LIST*
G04 Aperture macros list*
%AMRoundRect*
0 Rectangle with rounded corners*
0 $1 Rounding radius*
0 $2 $3 $4 $5 $6 $7 $8 $9 X,Y pos of 4 corners*
0 Add a 4 corners polygon primitive as box body*
4,1,4,$2,$3,$4,$5,$6,$7,$8,$9,$2,$3,0*
0 Add four circle primitives for the rounded corners*
1,1,$1+$1,$2,$3*
1,1,$1+$1,$4,$5*
1,1,$1+$1,$6,$7*
1,1,$1+$1,$8,$9*
0 Add four rect primitives between the rounded corners*
20,1,$1+$1,$2,$3,$4,$5,0*
20,1,$1+$1,$4,$5,$6,$7,0*
20,1,$1+$1,$6,$7,$8,$9,0*
20,1,$1+$1,$8,$9,$2,$3,0*%
G04 Aperture macros list end*
%ADD10C,1.524000*%
%ADD11C,1.100000*%
%ADD12C,1.400000*%
%ADD13C,4.000000*%
%ADD14C,2.000000*%
%ADD15C,3.450000*%
%ADD16C,1.308000*%
%ADD17C,1.208000*%
%ADD18R,1.700000X1.700000*%
%ADD19C,1.700000*%
%ADD20R,1.500000X1.500000*%
%ADD21C,1.600000*%
%ADD22R,1.800000X1.800000*%
%ADD23C,1.800000*%
%ADD24C,0.800000*%
%ADD25C,6.400000*%
%ADD26C,2.362200*%
%ADD27C,3.263900*%
%ADD28C,1.728000*%
%ADD29RoundRect,0.102000X-0.762000X-0.762000X0.762000X-0.762000X0.762000X0.762000X-0.762000X0.762000X0*%
%ADD30R,1.275000X1.275000*%
%ADD31C,1.275000*%
G04 APERTURE END LIST*
D10*
%TO.C,Conn6*%
X129540000Y-56388000D03*
X132080000Y-56388000D03*
X134620000Y-56388000D03*
X137160000Y-56388000D03*
%TD*%
D11*
%TO.C,J1*%
X176911000Y-122733500D03*
X178181000Y-120193500D03*
X179451000Y-122733500D03*
X180721000Y-120193500D03*
X181991000Y-122733500D03*
X183261000Y-120193500D03*
X184531000Y-122733500D03*
X185801000Y-120193500D03*
D12*
X175031000Y-134163500D03*
X177571000Y-132373500D03*
X185141000Y-134163500D03*
X187681000Y-132373500D03*
D13*
X175641000Y-129083500D03*
X187071000Y-129083500D03*
D14*
X173481000Y-126033500D03*
X189231000Y-126033500D03*
%TD*%
D15*
%TO.C,Conn3*%
X77978000Y-84074000D03*
X77978000Y-61214000D03*
D10*
X86614000Y-82804000D03*
X86614000Y-80264000D03*
X86614000Y-77724000D03*
X86614000Y-75184000D03*
X86614000Y-72644000D03*
X86614000Y-70104000D03*
X86614000Y-67564000D03*
X86614000Y-65024000D03*
X86614000Y-62484000D03*
%TD*%
D16*
%TO.C,U5*%
X174992500Y-109728000D03*
X174992500Y-107188000D03*
X174992500Y-104648000D03*
X174992500Y-102108000D03*
X174992500Y-76708000D03*
X159752500Y-107188000D03*
X174992500Y-99568000D03*
X174992500Y-97028000D03*
X174992500Y-94488000D03*
X174992500Y-91948000D03*
X174992500Y-89408000D03*
X174992500Y-86868000D03*
X174992500Y-84328000D03*
X174992500Y-81788000D03*
X174992500Y-79248000D03*
X159752500Y-79248000D03*
X159752500Y-81788000D03*
X159752500Y-84328000D03*
X159752500Y-86868000D03*
X159752500Y-89408000D03*
X159752500Y-91948000D03*
X159752500Y-94488000D03*
X159752500Y-97028000D03*
X159752500Y-99568000D03*
X159752500Y-102108000D03*
X159752500Y-104648000D03*
X174992500Y-74168000D03*
X174992500Y-71628000D03*
X174992500Y-69088000D03*
X174992500Y-66548000D03*
X174992500Y-64008000D03*
X174992500Y-61468000D03*
X174992500Y-58928000D03*
X174992500Y-56388000D03*
X174992500Y-53848000D03*
X159752500Y-53848000D03*
X159752500Y-56388000D03*
X159752500Y-58928000D03*
X159752500Y-61468000D03*
X159752500Y-64008000D03*
X159752500Y-66548000D03*
X159752500Y-69088000D03*
X159752500Y-71628000D03*
X159752500Y-74168000D03*
X174992500Y-112268000D03*
X159752500Y-76708000D03*
X159752500Y-109728000D03*
D17*
X164202500Y-97298000D03*
X164202500Y-99298000D03*
X162202500Y-99298000D03*
X162202500Y-97298000D03*
X166202500Y-97298000D03*
X166202500Y-99298000D03*
D16*
X159752500Y-112268000D03*
%TD*%
D18*
%TO.C,JP3*%
X143002000Y-53594000D03*
D19*
X143002000Y-56134000D03*
X143002000Y-58674000D03*
%TD*%
D20*
%TO.C,SW13*%
X107398000Y-116308000D03*
D21*
X107398000Y-118848000D03*
X107398000Y-113768000D03*
%TD*%
D22*
%TO.C,U7*%
X89784000Y-90424000D03*
D23*
X89784000Y-92964000D03*
X89784000Y-95504000D03*
%TD*%
D22*
%TO.C,U2*%
X89784000Y-104140000D03*
D23*
X89784000Y-106680000D03*
X89784000Y-109220000D03*
%TD*%
D20*
%TO.C,SW12*%
X107391200Y-104622600D03*
D21*
X107391200Y-107162600D03*
X107391200Y-102082600D03*
%TD*%
D18*
%TO.C,JP1*%
X107442000Y-53594000D03*
D19*
X107442000Y-56134000D03*
X107442000Y-58674000D03*
%TD*%
D15*
%TO.C,Conn2*%
X103564500Y-134874000D03*
X93404500Y-134874000D03*
D10*
X102294500Y-126238000D03*
X99754500Y-126238000D03*
X97214500Y-126238000D03*
X94674500Y-126238000D03*
%TD*%
D15*
%TO.C,Conn4*%
X189738000Y-61214000D03*
X189738000Y-84074000D03*
D10*
X181102000Y-62484000D03*
X181102000Y-65024000D03*
X181102000Y-67564000D03*
X181102000Y-70104000D03*
X181102000Y-72644000D03*
X181102000Y-75184000D03*
X181102000Y-77724000D03*
X181102000Y-80264000D03*
X181102000Y-82804000D03*
%TD*%
D24*
%TO.C,H1*%
X188100000Y-54864000D03*
X188802944Y-53166944D03*
X188802944Y-56561056D03*
X190500000Y-52464000D03*
D25*
X190500000Y-54864000D03*
D24*
X190500000Y-57264000D03*
X192197056Y-53166944D03*
X192197056Y-56561056D03*
X192900000Y-54864000D03*
%TD*%
%TO.C,H4*%
X166256000Y-135636000D03*
X166958944Y-133938944D03*
X166958944Y-137333056D03*
X168656000Y-133236000D03*
D25*
X168656000Y-135636000D03*
D24*
X168656000Y-138036000D03*
X170353056Y-133938944D03*
X170353056Y-137333056D03*
X171056000Y-135636000D03*
%TD*%
D10*
%TO.C,Conn5*%
X111760000Y-56388000D03*
X114300000Y-56388000D03*
X116840000Y-56388000D03*
X119380000Y-56388000D03*
%TD*%
D18*
%TO.C,JP4*%
X89662000Y-53594000D03*
D19*
X89662000Y-56134000D03*
X89662000Y-58674000D03*
%TD*%
D20*
%TO.C,SW15*%
X150832000Y-104622600D03*
D21*
X150832000Y-107162600D03*
X150832000Y-102082600D03*
%TD*%
D24*
%TO.C,H2*%
X74816000Y-54864000D03*
X75518944Y-53166944D03*
X75518944Y-56561056D03*
X77216000Y-52464000D03*
D25*
X77216000Y-54864000D03*
D24*
X77216000Y-57264000D03*
X78913056Y-53166944D03*
X78913056Y-56561056D03*
X79616000Y-54864000D03*
%TD*%
D26*
%TO.C,J2*%
X86766400Y-128330049D03*
X86766400Y-122830050D03*
%TD*%
D10*
%TO.C,Conn11*%
X182778400Y-112979200D03*
X185318400Y-112979200D03*
X187858400Y-112979200D03*
X190398400Y-112979200D03*
%TD*%
D15*
%TO.C,Conn1*%
X130556000Y-134874000D03*
X122936000Y-134874000D03*
D10*
X129286000Y-126238000D03*
X126746000Y-126238000D03*
X124206000Y-126238000D03*
%TD*%
D15*
%TO.C,Conn9*%
X145542000Y-134874000D03*
X135382000Y-134874000D03*
D10*
X144272000Y-126238000D03*
X141732000Y-126238000D03*
X139192000Y-126238000D03*
X136652000Y-126238000D03*
%TD*%
D27*
%TO.C,U4*%
X191516000Y-89490550D03*
X191516000Y-104641650D03*
D28*
X180892450Y-103733600D03*
X180892450Y-91033600D03*
X180892450Y-106273600D03*
X180892450Y-93573600D03*
X180892450Y-96113600D03*
D29*
X180892450Y-88493600D03*
D28*
X180892450Y-101193600D03*
X180892450Y-98653600D03*
%TD*%
D10*
%TO.C,Conn7*%
X147320000Y-56388000D03*
X149860000Y-56388000D03*
X152400000Y-56388000D03*
X154940000Y-56388000D03*
%TD*%
D20*
%TO.C,SW14*%
X150850600Y-92938600D03*
D21*
X150850600Y-95478600D03*
X150850600Y-90398600D03*
%TD*%
D10*
%TO.C,Conn8*%
X93980000Y-56388000D03*
X96520000Y-56388000D03*
X99060000Y-56388000D03*
X101600000Y-56388000D03*
%TD*%
D15*
%TO.C,Conn10*%
X118618000Y-134874000D03*
X110998000Y-134874000D03*
D10*
X117348000Y-126238000D03*
X114808000Y-126238000D03*
X112268000Y-126238000D03*
%TD*%
D20*
%TO.C,SW16*%
X150832000Y-116308000D03*
D21*
X150832000Y-118848000D03*
X150832000Y-113768000D03*
%TD*%
D20*
%TO.C,SW11*%
X107398000Y-92940000D03*
D21*
X107398000Y-95480000D03*
X107398000Y-90400000D03*
%TD*%
D30*
%TO.C,S1*%
X137878000Y-90414000D03*
D31*
X137878000Y-92954000D03*
X137878000Y-95494000D03*
X145498000Y-95494000D03*
X145498000Y-92954000D03*
X145498000Y-90414000D03*
%TD*%
D18*
%TO.C,JP2*%
X125222000Y-53594000D03*
D19*
X125222000Y-56134000D03*
X125222000Y-58674000D03*
%TD*%
D24*
%TO.C,H3*%
X74816000Y-135636000D03*
X75518944Y-133938944D03*
X75518944Y-137333056D03*
X77216000Y-133236000D03*
D25*
X77216000Y-135636000D03*
D24*
X77216000Y-138036000D03*
X78913056Y-133938944D03*
X78913056Y-137333056D03*
X79616000Y-135636000D03*
%TD*%
G36*
X190500571Y-50800007D02*
G01*
X190695745Y-50802401D01*
X190703283Y-50802817D01*
X191092378Y-50841140D01*
X191100910Y-50842406D01*
X191483830Y-50918573D01*
X191492198Y-50920669D01*
X191865812Y-51034004D01*
X191873934Y-51036910D01*
X192234640Y-51186318D01*
X192242438Y-51190006D01*
X192586766Y-51374054D01*
X192594165Y-51378489D01*
X192918790Y-51595396D01*
X192925718Y-51600534D01*
X193227520Y-51848217D01*
X193233912Y-51854010D01*
X193509989Y-52130087D01*
X193515782Y-52136479D01*
X193763465Y-52438281D01*
X193768603Y-52445209D01*
X193985510Y-52769834D01*
X193989945Y-52777233D01*
X194173993Y-53121561D01*
X194177681Y-53129359D01*
X194327089Y-53490065D01*
X194329995Y-53498187D01*
X194443330Y-53871801D01*
X194445426Y-53880169D01*
X194521593Y-54263089D01*
X194522859Y-54271621D01*
X194561182Y-54660716D01*
X194561598Y-54668253D01*
X194563993Y-54863428D01*
X194564000Y-54864507D01*
X194564000Y-135635492D01*
X194563993Y-135636571D01*
X194561598Y-135831746D01*
X194561182Y-135839283D01*
X194522859Y-136228378D01*
X194521593Y-136236910D01*
X194445426Y-136619830D01*
X194443330Y-136628198D01*
X194329995Y-137001812D01*
X194327089Y-137009934D01*
X194177681Y-137370640D01*
X194173993Y-137378438D01*
X193989945Y-137722766D01*
X193985510Y-137730165D01*
X193768603Y-138054790D01*
X193763465Y-138061718D01*
X193515782Y-138363520D01*
X193509989Y-138369912D01*
X193233912Y-138645989D01*
X193227520Y-138651782D01*
X192925718Y-138899465D01*
X192918790Y-138904603D01*
X192594165Y-139121510D01*
X192586766Y-139125945D01*
X192242438Y-139309993D01*
X192234640Y-139313681D01*
X191873934Y-139463089D01*
X191865812Y-139465995D01*
X191492198Y-139579330D01*
X191483830Y-139581426D01*
X191100910Y-139657593D01*
X191092378Y-139658859D01*
X190703283Y-139697182D01*
X190695746Y-139697598D01*
X190500572Y-139699993D01*
X190499493Y-139700000D01*
X77216507Y-139700000D01*
X77215428Y-139699993D01*
X77020253Y-139697598D01*
X77012716Y-139697182D01*
X76623621Y-139658859D01*
X76615089Y-139657593D01*
X76232169Y-139581426D01*
X76223801Y-139579330D01*
X75850187Y-139465995D01*
X75842065Y-139463089D01*
X75481359Y-139313681D01*
X75473561Y-139309993D01*
X75129233Y-139125945D01*
X75121834Y-139121510D01*
X74797209Y-138904603D01*
X74790281Y-138899465D01*
X74488479Y-138651782D01*
X74482087Y-138645989D01*
X74206010Y-138369912D01*
X74200217Y-138363520D01*
X73952534Y-138061718D01*
X73947396Y-138054790D01*
X73730489Y-137730165D01*
X73726054Y-137722766D01*
X73542006Y-137378438D01*
X73538318Y-137370640D01*
X73388910Y-137009934D01*
X73386004Y-137001812D01*
X73272669Y-136628198D01*
X73270573Y-136619830D01*
X73194406Y-136236910D01*
X73193140Y-136228378D01*
X73154817Y-135839283D01*
X73154401Y-135831745D01*
X73152007Y-135636570D01*
X73152000Y-135635492D01*
X73152000Y-54864507D01*
X73152007Y-54863429D01*
X73153570Y-54735978D01*
X74447000Y-54735978D01*
X74447000Y-135764020D01*
X74470622Y-136018955D01*
X74470626Y-136018981D01*
X74517668Y-136270635D01*
X74517671Y-136270648D01*
X74587733Y-136516888D01*
X74587735Y-136516894D01*
X74680225Y-136755643D01*
X74680230Y-136755652D01*
X74794353Y-136984845D01*
X74929137Y-137202528D01*
X75083439Y-137406856D01*
X75255926Y-137596065D01*
X75255933Y-137596072D01*
X75445142Y-137768559D01*
X75649470Y-137922861D01*
X75867153Y-138057645D01*
X76096346Y-138171768D01*
X76096355Y-138171773D01*
X76335104Y-138264263D01*
X76335110Y-138264265D01*
X76581350Y-138334327D01*
X76581363Y-138334330D01*
X76833030Y-138381374D01*
X76833032Y-138381375D01*
X77087979Y-138404999D01*
X77087991Y-138405000D01*
X190628009Y-138405000D01*
X190628020Y-138404999D01*
X190882966Y-138381375D01*
X190882968Y-138381374D01*
X191134635Y-138334330D01*
X191134648Y-138334327D01*
X191380888Y-138264265D01*
X191380894Y-138264263D01*
X191619643Y-138171773D01*
X191619652Y-138171768D01*
X191848845Y-138057645D01*
X192066528Y-137922861D01*
X192270856Y-137768559D01*
X192460065Y-137596072D01*
X192460072Y-137596065D01*
X192632559Y-137406856D01*
X192786861Y-137202528D01*
X192921645Y-136984845D01*
X193035768Y-136755652D01*
X193035773Y-136755643D01*
X193128263Y-136516894D01*
X193128265Y-136516888D01*
X193198327Y-136270648D01*
X193198330Y-136270635D01*
X193245374Y-136018968D01*
X193245375Y-136018966D01*
X193268999Y-135764020D01*
X193269000Y-135764009D01*
X193269000Y-54735989D01*
X193268999Y-54735978D01*
X193245375Y-54481032D01*
X193245374Y-54481030D01*
X193198330Y-54229363D01*
X193198327Y-54229350D01*
X193128265Y-53983110D01*
X193128263Y-53983104D01*
X193035773Y-53744355D01*
X193035768Y-53744346D01*
X192921645Y-53515153D01*
X192786861Y-53297470D01*
X192632559Y-53093142D01*
X192460072Y-52903933D01*
X192460065Y-52903926D01*
X192270856Y-52731439D01*
X192066528Y-52577137D01*
X191848845Y-52442353D01*
X191619652Y-52328230D01*
X191619643Y-52328225D01*
X191380894Y-52235735D01*
X191380888Y-52235733D01*
X191134648Y-52165671D01*
X191134635Y-52165668D01*
X190882981Y-52118626D01*
X190882955Y-52118622D01*
X190628020Y-52095000D01*
X77087979Y-52095000D01*
X76833043Y-52118622D01*
X76833017Y-52118626D01*
X76581363Y-52165668D01*
X76581350Y-52165671D01*
X76335110Y-52235733D01*
X76335104Y-52235735D01*
X76096355Y-52328225D01*
X76096346Y-52328230D01*
X75867153Y-52442353D01*
X75649470Y-52577137D01*
X75445142Y-52731439D01*
X75255933Y-52903926D01*
X75255926Y-52903933D01*
X75083439Y-53093142D01*
X74929137Y-53297470D01*
X74794353Y-53515153D01*
X74680230Y-53744346D01*
X74680225Y-53744355D01*
X74587735Y-53983104D01*
X74587733Y-53983110D01*
X74517671Y-54229350D01*
X74517668Y-54229363D01*
X74470626Y-54481017D01*
X74470622Y-54481043D01*
X74447000Y-54735978D01*
X73153570Y-54735978D01*
X73154401Y-54668254D01*
X73154817Y-54660716D01*
X73193140Y-54271621D01*
X73194406Y-54263089D01*
X73270573Y-53880169D01*
X73272669Y-53871801D01*
X73386004Y-53498187D01*
X73388910Y-53490065D01*
X73538318Y-53129359D01*
X73542006Y-53121561D01*
X73726054Y-52777233D01*
X73730489Y-52769834D01*
X73947396Y-52445209D01*
X73952534Y-52438281D01*
X74200217Y-52136479D01*
X74206010Y-52130087D01*
X74482087Y-51854010D01*
X74488479Y-51848217D01*
X74790281Y-51600534D01*
X74797209Y-51595396D01*
X75121834Y-51378489D01*
X75129233Y-51374054D01*
X75473561Y-51190006D01*
X75481359Y-51186318D01*
X75842065Y-51036910D01*
X75850187Y-51034004D01*
X76223801Y-50920669D01*
X76232169Y-50918573D01*
X76615089Y-50842406D01*
X76623621Y-50841140D01*
X77012716Y-50802817D01*
X77020254Y-50802401D01*
X77215429Y-50800007D01*
X77216507Y-50800000D01*
X190499493Y-50800000D01*
X190500571Y-50800007D01*
G37*
M02*
