%TF.GenerationSoftware,KiCad,Pcbnew,9.0.4*%
%TF.CreationDate,2026-03-23T12:19:41-05:00*%
%TF.ProjectId,CoreBoard,436f7265-426f-4617-9264-2e6b69636164,rev?*%
%TF.SameCoordinates,Original*%
%TF.FileFunction,Soldermask,Top*%
%TF.FilePolarity,Negative*%
%FSLAX46Y46*%
G04 Gerber Fmt 4.6, Leading zero omitted, Abs format (unit mm)*
G04 Created by KiCad (PCBNEW 9.0.4) date 2026-03-23 12:19:41*
%MOMM*%
%LPD*%
G01*
G04 APERTURE LIST*
G04 Aperture macros list*
%AMRoundRect*
0 Rectangle with rounded corners*
0 $1 Rounding radius*
0 $2 $3 $4 $5 $6 $7 $8 $9 X,Y pos of 4 corners*
0 Add a 4 corners polygon primitive as box body*
4,1,4,$2,$3,$4,$5,$6,$7,$8,$9,$2,$3,0*
0 Add four circle primitives for the rounded corners*
1,1,$1+$1,$2,$3*
1,1,$1+$1,$4,$5*
1,1,$1+$1,$6,$7*
1,1,$1+$1,$8,$9*
0 Add four rect primitives between the rounded corners*
20,1,$1+$1,$2,$3,$4,$5,0*
20,1,$1+$1,$4,$5,$6,$7,0*
20,1,$1+$1,$6,$7,$8,$9,0*
20,1,$1+$1,$8,$9,$2,$3,0*%
G04 Aperture macros list end*
%ADD10R,0.304800X1.168400*%
%ADD11C,1.524000*%
%ADD12RoundRect,0.150000X-0.587500X-0.150000X0.587500X-0.150000X0.587500X0.150000X-0.587500X0.150000X0*%
%ADD13RoundRect,0.237500X-0.237500X0.287500X-0.237500X-0.287500X0.237500X-0.287500X0.237500X0.287500X0*%
%ADD14C,1.100000*%
%ADD15C,1.400000*%
%ADD16C,4.000000*%
%ADD17C,2.000000*%
%ADD18C,3.450000*%
%ADD19R,1.600000X1.400000*%
%ADD20RoundRect,0.237500X0.287500X0.237500X-0.287500X0.237500X-0.287500X-0.237500X0.287500X-0.237500X0*%
%ADD21C,1.308000*%
%ADD22C,1.208000*%
%ADD23RoundRect,0.237500X0.250000X0.237500X-0.250000X0.237500X-0.250000X-0.237500X0.250000X-0.237500X0*%
%ADD24R,1.700000X1.700000*%
%ADD25C,1.700000*%
%ADD26R,1.500000X1.500000*%
%ADD27C,1.600000*%
%ADD28RoundRect,0.237500X-0.250000X-0.237500X0.250000X-0.237500X0.250000X0.237500X-0.250000X0.237500X0*%
%ADD29RoundRect,0.237500X-0.287500X-0.237500X0.287500X-0.237500X0.287500X0.237500X-0.287500X0.237500X0*%
%ADD30R,1.800000X1.800000*%
%ADD31C,1.800000*%
%ADD32R,0.406400X1.219200*%
%ADD33RoundRect,0.200000X-0.200000X-0.275000X0.200000X-0.275000X0.200000X0.275000X-0.200000X0.275000X0*%
%ADD34RoundRect,0.237500X0.237500X-0.287500X0.237500X0.287500X-0.237500X0.287500X-0.237500X-0.287500X0*%
%ADD35RoundRect,0.250000X-0.412500X-0.650000X0.412500X-0.650000X0.412500X0.650000X-0.412500X0.650000X0*%
%ADD36RoundRect,0.237500X-0.237500X0.250000X-0.237500X-0.250000X0.237500X-0.250000X0.237500X0.250000X0*%
%ADD37RoundRect,0.102000X1.200000X-0.750000X1.200000X0.750000X-1.200000X0.750000X-1.200000X-0.750000X0*%
%ADD38C,0.800000*%
%ADD39C,6.400000*%
%ADD40RoundRect,0.237500X0.237500X-0.300000X0.237500X0.300000X-0.237500X0.300000X-0.237500X-0.300000X0*%
%ADD41RoundRect,0.237500X0.237500X-0.250000X0.237500X0.250000X-0.237500X0.250000X-0.237500X-0.250000X0*%
%ADD42RoundRect,0.237500X-0.237500X0.300000X-0.237500X-0.300000X0.237500X-0.300000X0.237500X0.300000X0*%
%ADD43RoundRect,0.150000X-0.150000X0.825000X-0.150000X-0.825000X0.150000X-0.825000X0.150000X0.825000X0*%
%ADD44RoundRect,0.150000X-0.150000X0.587500X-0.150000X-0.587500X0.150000X-0.587500X0.150000X0.587500X0*%
%ADD45RoundRect,0.099250X-0.727750X-0.297750X0.727750X-0.297750X0.727750X0.297750X-0.727750X0.297750X0*%
%ADD46RoundRect,0.237500X0.300000X0.237500X-0.300000X0.237500X-0.300000X-0.237500X0.300000X-0.237500X0*%
%ADD47RoundRect,0.150000X0.587500X0.150000X-0.587500X0.150000X-0.587500X-0.150000X0.587500X-0.150000X0*%
%ADD48C,2.362200*%
%ADD49C,3.263900*%
%ADD50C,1.728000*%
%ADD51RoundRect,0.102000X-0.762000X-0.762000X0.762000X-0.762000X0.762000X0.762000X-0.762000X0.762000X0*%
%ADD52RoundRect,0.250000X0.475000X-0.337500X0.475000X0.337500X-0.475000X0.337500X-0.475000X-0.337500X0*%
%ADD53RoundRect,0.225000X-0.225000X-0.250000X0.225000X-0.250000X0.225000X0.250000X-0.225000X0.250000X0*%
%ADD54RoundRect,0.250000X-0.325000X-0.650000X0.325000X-0.650000X0.325000X0.650000X-0.325000X0.650000X0*%
%ADD55R,0.711200X0.914400*%
%ADD56R,1.275000X1.275000*%
%ADD57C,1.275000*%
%ADD58RoundRect,0.225000X0.225000X0.250000X-0.225000X0.250000X-0.225000X-0.250000X0.225000X-0.250000X0*%
G04 APERTURE END LIST*
D10*
%TO.C,U1*%
X116546201Y-96088200D03*
X117196199Y-96088200D03*
X117846201Y-96088200D03*
X118496199Y-96088200D03*
X119146198Y-96088200D03*
X119796199Y-96088200D03*
X120446198Y-96088200D03*
X121096199Y-96088200D03*
X121096199Y-90347800D03*
X120446201Y-90347800D03*
X119796199Y-90347800D03*
X119146201Y-90347800D03*
X118496202Y-90347800D03*
X117846201Y-90347800D03*
X117196202Y-90347800D03*
X116546201Y-90347800D03*
%TD*%
D11*
%TO.C,Conn6*%
X129540000Y-56388000D03*
X132080000Y-56388000D03*
X134620000Y-56388000D03*
X137160000Y-56388000D03*
%TD*%
D12*
%TO.C,Q3*%
X145366500Y-83444000D03*
X145366500Y-85344000D03*
X147241500Y-84394000D03*
%TD*%
%TO.C,Q5*%
X110647000Y-83632000D03*
X110647000Y-85532000D03*
X112522000Y-84582000D03*
%TD*%
D13*
%TO.C,D5*%
X142160000Y-81103500D03*
X142160000Y-82853500D03*
%TD*%
D14*
%TO.C,J1*%
X176911000Y-122733500D03*
X178181000Y-120193500D03*
X179451000Y-122733500D03*
X180721000Y-120193500D03*
X181991000Y-122733500D03*
X183261000Y-120193500D03*
X184531000Y-122733500D03*
X185801000Y-120193500D03*
D15*
X175031000Y-134163500D03*
X177571000Y-132373500D03*
X185141000Y-134163500D03*
X187681000Y-132373500D03*
D16*
X175641000Y-129083500D03*
X187071000Y-129083500D03*
D17*
X173481000Y-126033500D03*
X189231000Y-126033500D03*
%TD*%
D18*
%TO.C,Conn3*%
X77978000Y-84074000D03*
X77978000Y-61214000D03*
D11*
X86614000Y-82804000D03*
X86614000Y-80264000D03*
X86614000Y-77724000D03*
X86614000Y-75184000D03*
X86614000Y-72644000D03*
X86614000Y-70104000D03*
X86614000Y-67564000D03*
X86614000Y-65024000D03*
X86614000Y-62484000D03*
%TD*%
D19*
%TO.C,SW4*%
X125388000Y-112268000D03*
X132588000Y-112268000D03*
X125388000Y-115268000D03*
X132588000Y-115268000D03*
%TD*%
D20*
%TO.C,D7*%
X127464000Y-118340000D03*
X125714000Y-118340000D03*
%TD*%
D21*
%TO.C,U5*%
X174992500Y-109728000D03*
X174992500Y-107188000D03*
X174992500Y-104648000D03*
X174992500Y-102108000D03*
X174992500Y-76708000D03*
X159752500Y-107188000D03*
X174992500Y-99568000D03*
X174992500Y-97028000D03*
X174992500Y-94488000D03*
X174992500Y-91948000D03*
X174992500Y-89408000D03*
X174992500Y-86868000D03*
X174992500Y-84328000D03*
X174992500Y-81788000D03*
X174992500Y-79248000D03*
X159752500Y-79248000D03*
X159752500Y-81788000D03*
X159752500Y-84328000D03*
X159752500Y-86868000D03*
X159752500Y-89408000D03*
X159752500Y-91948000D03*
X159752500Y-94488000D03*
X159752500Y-97028000D03*
X159752500Y-99568000D03*
X159752500Y-102108000D03*
X159752500Y-104648000D03*
X174992500Y-74168000D03*
X174992500Y-71628000D03*
X174992500Y-69088000D03*
X174992500Y-66548000D03*
X174992500Y-64008000D03*
X174992500Y-61468000D03*
X174992500Y-58928000D03*
X174992500Y-56388000D03*
X174992500Y-53848000D03*
X159752500Y-53848000D03*
X159752500Y-56388000D03*
X159752500Y-58928000D03*
X159752500Y-61468000D03*
X159752500Y-64008000D03*
X159752500Y-66548000D03*
X159752500Y-69088000D03*
X159752500Y-71628000D03*
X159752500Y-74168000D03*
X174992500Y-112268000D03*
X159752500Y-76708000D03*
X159752500Y-109728000D03*
D22*
X164202500Y-97298000D03*
X164202500Y-99298000D03*
X162202500Y-99298000D03*
X162202500Y-97298000D03*
X166202500Y-97298000D03*
X166202500Y-99298000D03*
D21*
X159752500Y-112268000D03*
%TD*%
D23*
%TO.C,R8*%
X147718800Y-72390000D03*
X145893800Y-72390000D03*
%TD*%
D24*
%TO.C,JP3*%
X143002000Y-53594000D03*
D25*
X143002000Y-56134000D03*
X143002000Y-58674000D03*
%TD*%
D23*
%TO.C,R11*%
X132440500Y-118340000D03*
X130615500Y-118340000D03*
%TD*%
D26*
%TO.C,SW13*%
X107398000Y-116308000D03*
D27*
X107398000Y-118848000D03*
X107398000Y-113768000D03*
%TD*%
D28*
%TO.C,R14*%
X183745500Y-101701100D03*
X185570500Y-101701100D03*
%TD*%
D20*
%TO.C,D11*%
X127464000Y-98020000D03*
X125714000Y-98020000D03*
%TD*%
D29*
%TO.C,D14*%
X121680000Y-68820000D03*
X123430000Y-68820000D03*
%TD*%
D30*
%TO.C,U7*%
X89784000Y-90424000D03*
D31*
X89784000Y-92964000D03*
X89784000Y-95504000D03*
%TD*%
D30*
%TO.C,U2*%
X89784000Y-104140000D03*
D31*
X89784000Y-106680000D03*
X89784000Y-109220000D03*
%TD*%
D23*
%TO.C,R3*%
X103782500Y-71882000D03*
X101957500Y-71882000D03*
%TD*%
D32*
%TO.C,U6*%
X179232199Y-112864900D03*
X178582201Y-112864900D03*
X177932199Y-112864900D03*
X177282201Y-112864900D03*
X177282201Y-116852700D03*
X177932199Y-116852700D03*
X178582201Y-116852700D03*
X179232199Y-116852700D03*
%TD*%
D33*
%TO.C,R28*%
X101918000Y-84709000D03*
X103568000Y-84709000D03*
%TD*%
D29*
%TO.C,D1*%
X98439000Y-62734216D03*
X100189000Y-62734216D03*
%TD*%
D34*
%TO.C,D17*%
X135750300Y-75487500D03*
X135750300Y-73737500D03*
%TD*%
D13*
%TO.C,D8*%
X142160000Y-64897000D03*
X142160000Y-66647000D03*
%TD*%
%TO.C,D13*%
X115667800Y-64897000D03*
X115667800Y-66647000D03*
%TD*%
D23*
%TO.C,R30*%
X142704000Y-108180000D03*
X140879000Y-108180000D03*
%TD*%
D28*
%TO.C,R7*%
X110361100Y-64262000D03*
X112186100Y-64262000D03*
%TD*%
D29*
%TO.C,D21*%
X98425000Y-67183000D03*
X100175000Y-67183000D03*
%TD*%
D23*
%TO.C,R9*%
X147718800Y-64287400D03*
X145893800Y-64287400D03*
%TD*%
%TO.C,R31*%
X103782500Y-67183000D03*
X101957500Y-67183000D03*
%TD*%
D35*
%TO.C,C4*%
X87337500Y-86106000D03*
X90462500Y-86106000D03*
%TD*%
D12*
%TO.C,Q18*%
X144272000Y-116972000D03*
X144272000Y-118872000D03*
X146147000Y-117922000D03*
%TD*%
D23*
%TO.C,R18*%
X132544000Y-98020000D03*
X130719000Y-98020000D03*
%TD*%
D29*
%TO.C,D3*%
X98415500Y-69469000D03*
X100165500Y-69469000D03*
%TD*%
D36*
%TO.C,R22*%
X133223000Y-63603500D03*
X133223000Y-65428500D03*
%TD*%
D37*
%TO.C,L1*%
X94996000Y-81788000D03*
X94996000Y-78088000D03*
%TD*%
D26*
%TO.C,SW12*%
X107391200Y-104622600D03*
D27*
X107391200Y-107162600D03*
X107391200Y-102082600D03*
%TD*%
D23*
%TO.C,R15*%
X122384000Y-108180000D03*
X120559000Y-108180000D03*
%TD*%
D33*
%TO.C,R29*%
X105157000Y-83058000D03*
X106807000Y-83058000D03*
%TD*%
D24*
%TO.C,JP1*%
X107442000Y-53594000D03*
D25*
X107442000Y-56134000D03*
X107442000Y-58674000D03*
%TD*%
D18*
%TO.C,Conn2*%
X103564500Y-134874000D03*
X93404500Y-134874000D03*
D11*
X102294500Y-126238000D03*
X99754500Y-126238000D03*
X97214500Y-126238000D03*
X94674500Y-126238000D03*
%TD*%
D18*
%TO.C,Conn4*%
X189738000Y-61214000D03*
X189738000Y-84074000D03*
D11*
X181102000Y-62484000D03*
X181102000Y-65024000D03*
X181102000Y-67564000D03*
X181102000Y-70104000D03*
X181102000Y-72644000D03*
X181102000Y-75184000D03*
X181102000Y-77724000D03*
X181102000Y-80264000D03*
X181102000Y-82804000D03*
%TD*%
D38*
%TO.C,H1*%
X188100000Y-54864000D03*
X188802944Y-53166944D03*
X188802944Y-56561056D03*
X190500000Y-52464000D03*
D39*
X190500000Y-54864000D03*
D38*
X190500000Y-57264000D03*
X192197056Y-53166944D03*
X192197056Y-56561056D03*
X192900000Y-54864000D03*
%TD*%
D40*
%TO.C,C5*%
X92202000Y-95477500D03*
X92202000Y-93752500D03*
%TD*%
D41*
%TO.C,R19*%
X141260000Y-113880661D03*
X141260000Y-112055661D03*
%TD*%
D19*
%TO.C,SW6*%
X115228000Y-102108000D03*
X122428000Y-102108000D03*
X115228000Y-105108000D03*
X122428000Y-105108000D03*
%TD*%
D29*
%TO.C,D18*%
X134380000Y-68820000D03*
X136130000Y-68820000D03*
%TD*%
D42*
%TO.C,C2*%
X91186000Y-113157000D03*
X91186000Y-114882000D03*
%TD*%
D38*
%TO.C,H4*%
X166256000Y-135636000D03*
X166958944Y-133938944D03*
X166958944Y-137333056D03*
X168656000Y-133236000D03*
D39*
X168656000Y-135636000D03*
D38*
X168656000Y-138036000D03*
X170353056Y-133938944D03*
X170353056Y-137333056D03*
X171056000Y-135636000D03*
%TD*%
D43*
%TO.C,MOSFET1*%
X88265000Y-114372014D03*
X86995000Y-114372014D03*
X85725000Y-114372014D03*
X84455000Y-114372014D03*
X84455000Y-119322014D03*
X85725000Y-119322014D03*
X86995000Y-119322014D03*
X88265000Y-119322014D03*
%TD*%
D36*
%TO.C,R10*%
X77470000Y-114657500D03*
X77470000Y-116482500D03*
%TD*%
D28*
%TO.C,R25*%
X100283000Y-118745000D03*
X102108000Y-118745000D03*
%TD*%
D11*
%TO.C,Conn5*%
X111760000Y-56388000D03*
X114300000Y-56388000D03*
X116840000Y-56388000D03*
X119380000Y-56388000D03*
%TD*%
D44*
%TO.C,Q10*%
X138110000Y-63578500D03*
X136210000Y-63578500D03*
X137160000Y-65453500D03*
%TD*%
D28*
%TO.C,R13*%
X130659500Y-85742750D03*
X132484500Y-85742750D03*
%TD*%
D12*
%TO.C,Q1*%
X145366500Y-67122000D03*
X145366500Y-69022000D03*
X147241500Y-68072000D03*
%TD*%
D24*
%TO.C,JP4*%
X89662000Y-53594000D03*
D25*
X89662000Y-56134000D03*
X89662000Y-58674000D03*
%TD*%
D23*
%TO.C,R20*%
X123872000Y-77724000D03*
X122047000Y-77724000D03*
%TD*%
D26*
%TO.C,SW15*%
X150832000Y-104622600D03*
D27*
X150832000Y-107162600D03*
X150832000Y-102082600D03*
%TD*%
D45*
%TO.C,U3*%
X101727000Y-79507000D03*
X101727000Y-80457000D03*
X101727000Y-81407000D03*
X104037000Y-81407000D03*
X104037000Y-80457000D03*
X104037000Y-79507000D03*
%TD*%
D12*
%TO.C,Q16*%
X135636000Y-116972000D03*
X135636000Y-118872000D03*
X137511000Y-117922000D03*
%TD*%
D46*
%TO.C,C3*%
X175258900Y-115925600D03*
X173533900Y-115925600D03*
%TD*%
D20*
%TO.C,D15*%
X136130000Y-83552000D03*
X134380000Y-83552000D03*
%TD*%
D23*
%TO.C,R1*%
X103782500Y-69469000D03*
X101957500Y-69469000D03*
%TD*%
D29*
%TO.C,D2*%
X98439000Y-71882000D03*
X100189000Y-71882000D03*
%TD*%
D19*
%TO.C,SW8*%
X125388000Y-91948000D03*
X132588000Y-91948000D03*
X125388000Y-94948000D03*
X132588000Y-94948000D03*
%TD*%
D12*
%TO.C,Q6*%
X110568500Y-67376000D03*
X110568500Y-69276000D03*
X112443500Y-68326000D03*
%TD*%
D38*
%TO.C,H2*%
X74816000Y-54864000D03*
X75518944Y-53166944D03*
X75518944Y-56561056D03*
X77216000Y-52464000D03*
D39*
X77216000Y-54864000D03*
D38*
X77216000Y-57264000D03*
X78913056Y-53166944D03*
X78913056Y-56561056D03*
X79616000Y-54864000D03*
%TD*%
D47*
%TO.C,Q7*%
X133271500Y-74610000D03*
X133271500Y-72710000D03*
X131396500Y-73660000D03*
%TD*%
D48*
%TO.C,J2*%
X86766400Y-128330049D03*
X86766400Y-122830050D03*
%TD*%
D11*
%TO.C,Conn11*%
X182778400Y-112979200D03*
X185318400Y-112979200D03*
X187858400Y-112979200D03*
X190398400Y-112979200D03*
%TD*%
D18*
%TO.C,Conn1*%
X130556000Y-134874000D03*
X122936000Y-134874000D03*
D11*
X129286000Y-126238000D03*
X126746000Y-126238000D03*
X124206000Y-126238000D03*
%TD*%
D41*
%TO.C,R17*%
X138750000Y-113880661D03*
X138750000Y-112055661D03*
%TD*%
D13*
%TO.C,D6*%
X115667800Y-73025000D03*
X115667800Y-74775000D03*
%TD*%
D18*
%TO.C,Conn9*%
X145542000Y-134874000D03*
X135382000Y-134874000D03*
D11*
X144272000Y-126238000D03*
X141732000Y-126238000D03*
X139192000Y-126238000D03*
X136652000Y-126238000D03*
%TD*%
D20*
%TO.C,D10*%
X137624000Y-108180000D03*
X135874000Y-108180000D03*
%TD*%
D19*
%TO.C,SW7*%
X135548000Y-102108000D03*
X142748000Y-102108000D03*
X135548000Y-105108000D03*
X142748000Y-105108000D03*
%TD*%
D44*
%TO.C,Q9*%
X125410000Y-63578500D03*
X123510000Y-63578500D03*
X124460000Y-65453500D03*
%TD*%
D35*
%TO.C,C1*%
X86829500Y-99822000D03*
X89954500Y-99822000D03*
%TD*%
D49*
%TO.C,U4*%
X191516000Y-89490550D03*
X191516000Y-104641650D03*
D50*
X180892450Y-103733600D03*
X180892450Y-91033600D03*
X180892450Y-106273600D03*
X180892450Y-93573600D03*
X180892450Y-96113600D03*
D51*
X180892450Y-88493600D03*
D50*
X180892450Y-101193600D03*
X180892450Y-98653600D03*
%TD*%
D20*
%TO.C,D9*%
X117304000Y-108180000D03*
X115554000Y-108180000D03*
%TD*%
D12*
%TO.C,Q12*%
X126316500Y-84902000D03*
X126316500Y-86802000D03*
X128191500Y-85852000D03*
%TD*%
D23*
%TO.C,R23*%
X103782500Y-64897000D03*
X101957500Y-64897000D03*
%TD*%
D13*
%TO.C,D4*%
X115667800Y-81153000D03*
X115667800Y-82903000D03*
%TD*%
D28*
%TO.C,R5*%
X110363000Y-80504000D03*
X112188000Y-80504000D03*
%TD*%
D12*
%TO.C,Q17*%
X139954000Y-116972000D03*
X139954000Y-118872000D03*
X141829000Y-117922000D03*
%TD*%
D11*
%TO.C,Conn7*%
X147320000Y-56388000D03*
X149860000Y-56388000D03*
X152400000Y-56388000D03*
X154940000Y-56388000D03*
%TD*%
D41*
%TO.C,R27*%
X143770000Y-113880661D03*
X143770000Y-112055661D03*
%TD*%
D28*
%TO.C,R6*%
X110363000Y-72390000D03*
X112188000Y-72390000D03*
%TD*%
D29*
%TO.C,D19*%
X98411700Y-64897000D03*
X100161700Y-64897000D03*
%TD*%
D28*
%TO.C,R16*%
X183745500Y-105156000D03*
X185570500Y-105156000D03*
%TD*%
D52*
%TO.C,C6*%
X98425000Y-81428500D03*
X98425000Y-79353500D03*
%TD*%
D12*
%TO.C,Q4*%
X110568500Y-75316000D03*
X110568500Y-77216000D03*
X112443500Y-76266000D03*
%TD*%
D53*
%TO.C,C8*%
X101955000Y-83058000D03*
X103505000Y-83058000D03*
%TD*%
D26*
%TO.C,SW14*%
X150850600Y-92938600D03*
D27*
X150850600Y-95478600D03*
X150850600Y-90398600D03*
%TD*%
D54*
%TO.C,C9*%
X95934000Y-75565000D03*
X98884000Y-75565000D03*
%TD*%
D11*
%TO.C,Conn8*%
X93980000Y-56388000D03*
X96520000Y-56388000D03*
X99060000Y-56388000D03*
X101600000Y-56388000D03*
%TD*%
D41*
%TO.C,R24*%
X98298000Y-120419500D03*
X98298000Y-118594500D03*
%TD*%
D18*
%TO.C,Conn10*%
X118618000Y-134874000D03*
X110998000Y-134874000D03*
D11*
X117348000Y-126238000D03*
X114808000Y-126238000D03*
X112268000Y-126238000D03*
%TD*%
D23*
%TO.C,R2*%
X103782500Y-62734216D03*
X101957500Y-62734216D03*
%TD*%
D26*
%TO.C,SW16*%
X150832000Y-116308000D03*
D27*
X150832000Y-118848000D03*
X150832000Y-113768000D03*
%TD*%
D47*
%TO.C,Q8*%
X126667500Y-74610000D03*
X126667500Y-72710000D03*
X124792500Y-73660000D03*
%TD*%
D26*
%TO.C,SW11*%
X107398000Y-92940000D03*
D27*
X107398000Y-95480000D03*
X107398000Y-90400000D03*
%TD*%
D55*
%TO.C,D20*%
X81534000Y-113182400D03*
X81534000Y-116433600D03*
%TD*%
D13*
%TO.C,D12*%
X142160000Y-72848500D03*
X142160000Y-74598500D03*
%TD*%
D23*
%TO.C,R26*%
X102108000Y-120396000D03*
X100283000Y-120396000D03*
%TD*%
D56*
%TO.C,S1*%
X137878000Y-90414000D03*
D57*
X137878000Y-92954000D03*
X137878000Y-95494000D03*
X145498000Y-95494000D03*
X145498000Y-92954000D03*
X145498000Y-90414000D03*
%TD*%
D28*
%TO.C,R21*%
X133938000Y-77773500D03*
X135763000Y-77773500D03*
%TD*%
D23*
%TO.C,R4*%
X147464800Y-80518000D03*
X145639800Y-80518000D03*
%TD*%
D12*
%TO.C,Q2*%
X145366500Y-75316000D03*
X145366500Y-77216000D03*
X147241500Y-76266000D03*
%TD*%
D36*
%TO.C,R12*%
X120523000Y-63248500D03*
X120523000Y-65073500D03*
%TD*%
D34*
%TO.C,D16*%
X122047000Y-75424000D03*
X122047000Y-73674000D03*
%TD*%
D24*
%TO.C,JP2*%
X125222000Y-53594000D03*
D25*
X125222000Y-56134000D03*
X125222000Y-58674000D03*
%TD*%
D58*
%TO.C,C7*%
X104407000Y-77470000D03*
X102857000Y-77470000D03*
%TD*%
D38*
%TO.C,H3*%
X74816000Y-135636000D03*
X75518944Y-133938944D03*
X75518944Y-137333056D03*
X77216000Y-133236000D03*
D39*
X77216000Y-135636000D03*
D38*
X77216000Y-138036000D03*
X78913056Y-133938944D03*
X78913056Y-137333056D03*
X79616000Y-135636000D03*
%TD*%
G36*
X190500571Y-50800007D02*
G01*
X190695745Y-50802401D01*
X190703283Y-50802817D01*
X191092378Y-50841140D01*
X191100910Y-50842406D01*
X191483830Y-50918573D01*
X191492198Y-50920669D01*
X191865812Y-51034004D01*
X191873934Y-51036910D01*
X192234640Y-51186318D01*
X192242438Y-51190006D01*
X192586766Y-51374054D01*
X192594165Y-51378489D01*
X192918790Y-51595396D01*
X192925718Y-51600534D01*
X193227520Y-51848217D01*
X193233912Y-51854010D01*
X193509989Y-52130087D01*
X193515782Y-52136479D01*
X193763465Y-52438281D01*
X193768603Y-52445209D01*
X193985510Y-52769834D01*
X193989945Y-52777233D01*
X194173993Y-53121561D01*
X194177681Y-53129359D01*
X194327089Y-53490065D01*
X194329995Y-53498187D01*
X194443330Y-53871801D01*
X194445426Y-53880169D01*
X194521593Y-54263089D01*
X194522859Y-54271621D01*
X194561182Y-54660716D01*
X194561598Y-54668253D01*
X194563993Y-54863428D01*
X194564000Y-54864507D01*
X194564000Y-135635492D01*
X194563993Y-135636571D01*
X194561598Y-135831746D01*
X194561182Y-135839283D01*
X194522859Y-136228378D01*
X194521593Y-136236910D01*
X194445426Y-136619830D01*
X194443330Y-136628198D01*
X194329995Y-137001812D01*
X194327089Y-137009934D01*
X194177681Y-137370640D01*
X194173993Y-137378438D01*
X193989945Y-137722766D01*
X193985510Y-137730165D01*
X193768603Y-138054790D01*
X193763465Y-138061718D01*
X193515782Y-138363520D01*
X193509989Y-138369912D01*
X193233912Y-138645989D01*
X193227520Y-138651782D01*
X192925718Y-138899465D01*
X192918790Y-138904603D01*
X192594165Y-139121510D01*
X192586766Y-139125945D01*
X192242438Y-139309993D01*
X192234640Y-139313681D01*
X191873934Y-139463089D01*
X191865812Y-139465995D01*
X191492198Y-139579330D01*
X191483830Y-139581426D01*
X191100910Y-139657593D01*
X191092378Y-139658859D01*
X190703283Y-139697182D01*
X190695746Y-139697598D01*
X190500572Y-139699993D01*
X190499493Y-139700000D01*
X77216507Y-139700000D01*
X77215428Y-139699993D01*
X77020253Y-139697598D01*
X77012716Y-139697182D01*
X76623621Y-139658859D01*
X76615089Y-139657593D01*
X76232169Y-139581426D01*
X76223801Y-139579330D01*
X75850187Y-139465995D01*
X75842065Y-139463089D01*
X75481359Y-139313681D01*
X75473561Y-139309993D01*
X75129233Y-139125945D01*
X75121834Y-139121510D01*
X74797209Y-138904603D01*
X74790281Y-138899465D01*
X74488479Y-138651782D01*
X74482087Y-138645989D01*
X74206010Y-138369912D01*
X74200217Y-138363520D01*
X73952534Y-138061718D01*
X73947396Y-138054790D01*
X73730489Y-137730165D01*
X73726054Y-137722766D01*
X73542006Y-137378438D01*
X73538318Y-137370640D01*
X73388910Y-137009934D01*
X73386004Y-137001812D01*
X73272669Y-136628198D01*
X73270573Y-136619830D01*
X73194406Y-136236910D01*
X73193140Y-136228378D01*
X73154817Y-135839283D01*
X73154401Y-135831745D01*
X73152007Y-135636570D01*
X73152000Y-135635492D01*
X73152000Y-54864507D01*
X73152007Y-54863429D01*
X73153570Y-54735978D01*
X74447000Y-54735978D01*
X74447000Y-135764020D01*
X74470622Y-136018955D01*
X74470626Y-136018981D01*
X74517668Y-136270635D01*
X74517671Y-136270648D01*
X74587733Y-136516888D01*
X74587735Y-136516894D01*
X74680225Y-136755643D01*
X74680230Y-136755652D01*
X74794353Y-136984845D01*
X74929137Y-137202528D01*
X75083439Y-137406856D01*
X75255926Y-137596065D01*
X75255933Y-137596072D01*
X75445142Y-137768559D01*
X75649470Y-137922861D01*
X75867153Y-138057645D01*
X76096346Y-138171768D01*
X76096355Y-138171773D01*
X76335104Y-138264263D01*
X76335110Y-138264265D01*
X76581350Y-138334327D01*
X76581363Y-138334330D01*
X76833030Y-138381374D01*
X76833032Y-138381375D01*
X77087979Y-138404999D01*
X77087991Y-138405000D01*
X190628009Y-138405000D01*
X190628020Y-138404999D01*
X190882966Y-138381375D01*
X190882968Y-138381374D01*
X191134635Y-138334330D01*
X191134648Y-138334327D01*
X191380888Y-138264265D01*
X191380894Y-138264263D01*
X191619643Y-138171773D01*
X191619652Y-138171768D01*
X191848845Y-138057645D01*
X192066528Y-137922861D01*
X192270856Y-137768559D01*
X192460065Y-137596072D01*
X192460072Y-137596065D01*
X192632559Y-137406856D01*
X192786861Y-137202528D01*
X192921645Y-136984845D01*
X193035768Y-136755652D01*
X193035773Y-136755643D01*
X193128263Y-136516894D01*
X193128265Y-136516888D01*
X193198327Y-136270648D01*
X193198330Y-136270635D01*
X193245374Y-136018968D01*
X193245375Y-136018966D01*
X193268999Y-135764020D01*
X193269000Y-135764009D01*
X193269000Y-54735989D01*
X193268999Y-54735978D01*
X193245375Y-54481032D01*
X193245374Y-54481030D01*
X193198330Y-54229363D01*
X193198327Y-54229350D01*
X193128265Y-53983110D01*
X193128263Y-53983104D01*
X193035773Y-53744355D01*
X193035768Y-53744346D01*
X192921645Y-53515153D01*
X192786861Y-53297470D01*
X192632559Y-53093142D01*
X192460072Y-52903933D01*
X192460065Y-52903926D01*
X192270856Y-52731439D01*
X192066528Y-52577137D01*
X191848845Y-52442353D01*
X191619652Y-52328230D01*
X191619643Y-52328225D01*
X191380894Y-52235735D01*
X191380888Y-52235733D01*
X191134648Y-52165671D01*
X191134635Y-52165668D01*
X190882981Y-52118626D01*
X190882955Y-52118622D01*
X190628020Y-52095000D01*
X77087979Y-52095000D01*
X76833043Y-52118622D01*
X76833017Y-52118626D01*
X76581363Y-52165668D01*
X76581350Y-52165671D01*
X76335110Y-52235733D01*
X76335104Y-52235735D01*
X76096355Y-52328225D01*
X76096346Y-52328230D01*
X75867153Y-52442353D01*
X75649470Y-52577137D01*
X75445142Y-52731439D01*
X75255933Y-52903926D01*
X75255926Y-52903933D01*
X75083439Y-53093142D01*
X74929137Y-53297470D01*
X74794353Y-53515153D01*
X74680230Y-53744346D01*
X74680225Y-53744355D01*
X74587735Y-53983104D01*
X74587733Y-53983110D01*
X74517671Y-54229350D01*
X74517668Y-54229363D01*
X74470626Y-54481017D01*
X74470622Y-54481043D01*
X74447000Y-54735978D01*
X73153570Y-54735978D01*
X73154401Y-54668254D01*
X73154817Y-54660716D01*
X73193140Y-54271621D01*
X73194406Y-54263089D01*
X73270573Y-53880169D01*
X73272669Y-53871801D01*
X73386004Y-53498187D01*
X73388910Y-53490065D01*
X73538318Y-53129359D01*
X73542006Y-53121561D01*
X73726054Y-52777233D01*
X73730489Y-52769834D01*
X73947396Y-52445209D01*
X73952534Y-52438281D01*
X74200217Y-52136479D01*
X74206010Y-52130087D01*
X74482087Y-51854010D01*
X74488479Y-51848217D01*
X74790281Y-51600534D01*
X74797209Y-51595396D01*
X75121834Y-51378489D01*
X75129233Y-51374054D01*
X75473561Y-51190006D01*
X75481359Y-51186318D01*
X75842065Y-51036910D01*
X75850187Y-51034004D01*
X76223801Y-50920669D01*
X76232169Y-50918573D01*
X76615089Y-50842406D01*
X76623621Y-50841140D01*
X77012716Y-50802817D01*
X77020254Y-50802401D01*
X77215429Y-50800007D01*
X77216507Y-50800000D01*
X190499493Y-50800000D01*
X190500571Y-50800007D01*
G37*
M02*
