%TF.GenerationSoftware,KiCad,Pcbnew,9.0.4*%
%TF.CreationDate,2026-03-23T12:19:40-05:00*%
%TF.ProjectId,CoreBoard,436f7265-426f-4617-9264-2e6b69636164,rev?*%
%TF.SameCoordinates,Original*%
%TF.FileFunction,Paste,Top*%
%TF.FilePolarity,Positive*%
%FSLAX46Y46*%
G04 Gerber Fmt 4.6, Leading zero omitted, Abs format (unit mm)*
G04 Created by KiCad (PCBNEW 9.0.4) date 2026-03-23 12:19:40*
%MOMM*%
%LPD*%
G01*
G04 APERTURE LIST*
G04 Aperture macros list*
%AMRoundRect*
0 Rectangle with rounded corners*
0 $1 Rounding radius*
0 $2 $3 $4 $5 $6 $7 $8 $9 X,Y pos of 4 corners*
0 Add a 4 corners polygon primitive as box body*
4,1,4,$2,$3,$4,$5,$6,$7,$8,$9,$2,$3,0*
0 Add four circle primitives for the rounded corners*
1,1,$1+$1,$2,$3*
1,1,$1+$1,$4,$5*
1,1,$1+$1,$6,$7*
1,1,$1+$1,$8,$9*
0 Add four rect primitives between the rounded corners*
20,1,$1+$1,$2,$3,$4,$5,0*
20,1,$1+$1,$4,$5,$6,$7,0*
20,1,$1+$1,$6,$7,$8,$9,0*
20,1,$1+$1,$8,$9,$2,$3,0*%
G04 Aperture macros list end*
%ADD10R,0.304800X1.168400*%
%ADD11RoundRect,0.150000X-0.587500X-0.150000X0.587500X-0.150000X0.587500X0.150000X-0.587500X0.150000X0*%
%ADD12RoundRect,0.237500X-0.237500X0.287500X-0.237500X-0.287500X0.237500X-0.287500X0.237500X0.287500X0*%
%ADD13R,1.600000X1.400000*%
%ADD14RoundRect,0.237500X0.287500X0.237500X-0.287500X0.237500X-0.287500X-0.237500X0.287500X-0.237500X0*%
%ADD15RoundRect,0.237500X0.250000X0.237500X-0.250000X0.237500X-0.250000X-0.237500X0.250000X-0.237500X0*%
%ADD16RoundRect,0.237500X-0.250000X-0.237500X0.250000X-0.237500X0.250000X0.237500X-0.250000X0.237500X0*%
%ADD17RoundRect,0.237500X-0.287500X-0.237500X0.287500X-0.237500X0.287500X0.237500X-0.287500X0.237500X0*%
%ADD18R,0.406400X1.219200*%
%ADD19RoundRect,0.200000X-0.200000X-0.275000X0.200000X-0.275000X0.200000X0.275000X-0.200000X0.275000X0*%
%ADD20RoundRect,0.237500X0.237500X-0.287500X0.237500X0.287500X-0.237500X0.287500X-0.237500X-0.287500X0*%
%ADD21RoundRect,0.250000X-0.412500X-0.650000X0.412500X-0.650000X0.412500X0.650000X-0.412500X0.650000X0*%
%ADD22RoundRect,0.237500X-0.237500X0.250000X-0.237500X-0.250000X0.237500X-0.250000X0.237500X0.250000X0*%
%ADD23R,2.400000X1.500000*%
%ADD24RoundRect,0.237500X0.237500X-0.300000X0.237500X0.300000X-0.237500X0.300000X-0.237500X-0.300000X0*%
%ADD25RoundRect,0.237500X0.237500X-0.250000X0.237500X0.250000X-0.237500X0.250000X-0.237500X-0.250000X0*%
%ADD26RoundRect,0.237500X-0.237500X0.300000X-0.237500X-0.300000X0.237500X-0.300000X0.237500X0.300000X0*%
%ADD27RoundRect,0.150000X-0.150000X0.825000X-0.150000X-0.825000X0.150000X-0.825000X0.150000X0.825000X0*%
%ADD28RoundRect,0.150000X-0.150000X0.587500X-0.150000X-0.587500X0.150000X-0.587500X0.150000X0.587500X0*%
%ADD29RoundRect,0.073750X-0.651250X-0.221250X0.651250X-0.221250X0.651250X0.221250X-0.651250X0.221250X0*%
%ADD30RoundRect,0.237500X0.300000X0.237500X-0.300000X0.237500X-0.300000X-0.237500X0.300000X-0.237500X0*%
%ADD31RoundRect,0.150000X0.587500X0.150000X-0.587500X0.150000X-0.587500X-0.150000X0.587500X-0.150000X0*%
%ADD32RoundRect,0.250000X0.475000X-0.337500X0.475000X0.337500X-0.475000X0.337500X-0.475000X-0.337500X0*%
%ADD33RoundRect,0.225000X-0.225000X-0.250000X0.225000X-0.250000X0.225000X0.250000X-0.225000X0.250000X0*%
%ADD34RoundRect,0.250000X-0.325000X-0.650000X0.325000X-0.650000X0.325000X0.650000X-0.325000X0.650000X0*%
%ADD35R,0.711200X0.914400*%
%ADD36RoundRect,0.225000X0.225000X0.250000X-0.225000X0.250000X-0.225000X-0.250000X0.225000X-0.250000X0*%
G04 APERTURE END LIST*
D10*
%TO.C,U1*%
X116546201Y-96088200D03*
X117196199Y-96088200D03*
X117846201Y-96088200D03*
X118496199Y-96088200D03*
X119146198Y-96088200D03*
X119796199Y-96088200D03*
X120446198Y-96088200D03*
X121096199Y-96088200D03*
X121096199Y-90347800D03*
X120446201Y-90347800D03*
X119796199Y-90347800D03*
X119146201Y-90347800D03*
X118496202Y-90347800D03*
X117846201Y-90347800D03*
X117196202Y-90347800D03*
X116546201Y-90347800D03*
%TD*%
D11*
%TO.C,Q3*%
X145366500Y-83444000D03*
X145366500Y-85344000D03*
X147241500Y-84394000D03*
%TD*%
%TO.C,Q5*%
X110647000Y-83632000D03*
X110647000Y-85532000D03*
X112522000Y-84582000D03*
%TD*%
D12*
%TO.C,D5*%
X142160000Y-81103500D03*
X142160000Y-82853500D03*
%TD*%
D13*
%TO.C,SW4*%
X125388000Y-112268000D03*
X132588000Y-112268000D03*
X125388000Y-115268000D03*
X132588000Y-115268000D03*
%TD*%
D14*
%TO.C,D7*%
X127464000Y-118340000D03*
X125714000Y-118340000D03*
%TD*%
D15*
%TO.C,R8*%
X147718800Y-72390000D03*
X145893800Y-72390000D03*
%TD*%
%TO.C,R11*%
X132440500Y-118340000D03*
X130615500Y-118340000D03*
%TD*%
D16*
%TO.C,R14*%
X183745500Y-101701100D03*
X185570500Y-101701100D03*
%TD*%
D14*
%TO.C,D11*%
X127464000Y-98020000D03*
X125714000Y-98020000D03*
%TD*%
D17*
%TO.C,D14*%
X121680000Y-68820000D03*
X123430000Y-68820000D03*
%TD*%
D15*
%TO.C,R3*%
X103782500Y-71882000D03*
X101957500Y-71882000D03*
%TD*%
D18*
%TO.C,U6*%
X179232199Y-112864900D03*
X178582201Y-112864900D03*
X177932199Y-112864900D03*
X177282201Y-112864900D03*
X177282201Y-116852700D03*
X177932199Y-116852700D03*
X178582201Y-116852700D03*
X179232199Y-116852700D03*
%TD*%
D19*
%TO.C,R28*%
X101918000Y-84709000D03*
X103568000Y-84709000D03*
%TD*%
D17*
%TO.C,D1*%
X98439000Y-62734216D03*
X100189000Y-62734216D03*
%TD*%
D20*
%TO.C,D17*%
X135750300Y-75487500D03*
X135750300Y-73737500D03*
%TD*%
D12*
%TO.C,D8*%
X142160000Y-64897000D03*
X142160000Y-66647000D03*
%TD*%
%TO.C,D13*%
X115667800Y-64897000D03*
X115667800Y-66647000D03*
%TD*%
D15*
%TO.C,R30*%
X142704000Y-108180000D03*
X140879000Y-108180000D03*
%TD*%
D16*
%TO.C,R7*%
X110361100Y-64262000D03*
X112186100Y-64262000D03*
%TD*%
D17*
%TO.C,D21*%
X98425000Y-67183000D03*
X100175000Y-67183000D03*
%TD*%
D15*
%TO.C,R9*%
X147718800Y-64287400D03*
X145893800Y-64287400D03*
%TD*%
%TO.C,R31*%
X103782500Y-67183000D03*
X101957500Y-67183000D03*
%TD*%
D21*
%TO.C,C4*%
X87337500Y-86106000D03*
X90462500Y-86106000D03*
%TD*%
D11*
%TO.C,Q18*%
X144272000Y-116972000D03*
X144272000Y-118872000D03*
X146147000Y-117922000D03*
%TD*%
D15*
%TO.C,R18*%
X132544000Y-98020000D03*
X130719000Y-98020000D03*
%TD*%
D17*
%TO.C,D3*%
X98415500Y-69469000D03*
X100165500Y-69469000D03*
%TD*%
D22*
%TO.C,R22*%
X133223000Y-63603500D03*
X133223000Y-65428500D03*
%TD*%
D23*
%TO.C,L1*%
X94996000Y-81788000D03*
X94996000Y-78088000D03*
%TD*%
D15*
%TO.C,R15*%
X122384000Y-108180000D03*
X120559000Y-108180000D03*
%TD*%
D19*
%TO.C,R29*%
X105157000Y-83058000D03*
X106807000Y-83058000D03*
%TD*%
D24*
%TO.C,C5*%
X92202000Y-95477500D03*
X92202000Y-93752500D03*
%TD*%
D25*
%TO.C,R19*%
X141260000Y-113880661D03*
X141260000Y-112055661D03*
%TD*%
D13*
%TO.C,SW6*%
X115228000Y-102108000D03*
X122428000Y-102108000D03*
X115228000Y-105108000D03*
X122428000Y-105108000D03*
%TD*%
D17*
%TO.C,D18*%
X134380000Y-68820000D03*
X136130000Y-68820000D03*
%TD*%
D26*
%TO.C,C2*%
X91186000Y-113157000D03*
X91186000Y-114882000D03*
%TD*%
D27*
%TO.C,MOSFET1*%
X88265000Y-114372014D03*
X86995000Y-114372014D03*
X85725000Y-114372014D03*
X84455000Y-114372014D03*
X84455000Y-119322014D03*
X85725000Y-119322014D03*
X86995000Y-119322014D03*
X88265000Y-119322014D03*
%TD*%
D22*
%TO.C,R10*%
X77470000Y-114657500D03*
X77470000Y-116482500D03*
%TD*%
D16*
%TO.C,R25*%
X100283000Y-118745000D03*
X102108000Y-118745000D03*
%TD*%
D28*
%TO.C,Q10*%
X138110000Y-63578500D03*
X136210000Y-63578500D03*
X137160000Y-65453500D03*
%TD*%
D16*
%TO.C,R13*%
X130659500Y-85742750D03*
X132484500Y-85742750D03*
%TD*%
D11*
%TO.C,Q1*%
X145366500Y-67122000D03*
X145366500Y-69022000D03*
X147241500Y-68072000D03*
%TD*%
D15*
%TO.C,R20*%
X123872000Y-77724000D03*
X122047000Y-77724000D03*
%TD*%
D29*
%TO.C,U3*%
X101727000Y-79507000D03*
X101727000Y-80457000D03*
X101727000Y-81407000D03*
X104037000Y-81407000D03*
X104037000Y-80457000D03*
X104037000Y-79507000D03*
%TD*%
D11*
%TO.C,Q16*%
X135636000Y-116972000D03*
X135636000Y-118872000D03*
X137511000Y-117922000D03*
%TD*%
D30*
%TO.C,C3*%
X175258900Y-115925600D03*
X173533900Y-115925600D03*
%TD*%
D14*
%TO.C,D15*%
X136130000Y-83552000D03*
X134380000Y-83552000D03*
%TD*%
D15*
%TO.C,R1*%
X103782500Y-69469000D03*
X101957500Y-69469000D03*
%TD*%
D17*
%TO.C,D2*%
X98439000Y-71882000D03*
X100189000Y-71882000D03*
%TD*%
D13*
%TO.C,SW8*%
X125388000Y-91948000D03*
X132588000Y-91948000D03*
X125388000Y-94948000D03*
X132588000Y-94948000D03*
%TD*%
D11*
%TO.C,Q6*%
X110568500Y-67376000D03*
X110568500Y-69276000D03*
X112443500Y-68326000D03*
%TD*%
D31*
%TO.C,Q7*%
X133271500Y-74610000D03*
X133271500Y-72710000D03*
X131396500Y-73660000D03*
%TD*%
D25*
%TO.C,R17*%
X138750000Y-113880661D03*
X138750000Y-112055661D03*
%TD*%
D12*
%TO.C,D6*%
X115667800Y-73025000D03*
X115667800Y-74775000D03*
%TD*%
D14*
%TO.C,D10*%
X137624000Y-108180000D03*
X135874000Y-108180000D03*
%TD*%
D13*
%TO.C,SW7*%
X135548000Y-102108000D03*
X142748000Y-102108000D03*
X135548000Y-105108000D03*
X142748000Y-105108000D03*
%TD*%
D28*
%TO.C,Q9*%
X125410000Y-63578500D03*
X123510000Y-63578500D03*
X124460000Y-65453500D03*
%TD*%
D21*
%TO.C,C1*%
X86829500Y-99822000D03*
X89954500Y-99822000D03*
%TD*%
D14*
%TO.C,D9*%
X117304000Y-108180000D03*
X115554000Y-108180000D03*
%TD*%
D11*
%TO.C,Q12*%
X126316500Y-84902000D03*
X126316500Y-86802000D03*
X128191500Y-85852000D03*
%TD*%
D15*
%TO.C,R23*%
X103782500Y-64897000D03*
X101957500Y-64897000D03*
%TD*%
D12*
%TO.C,D4*%
X115667800Y-81153000D03*
X115667800Y-82903000D03*
%TD*%
D16*
%TO.C,R5*%
X110363000Y-80504000D03*
X112188000Y-80504000D03*
%TD*%
D11*
%TO.C,Q17*%
X139954000Y-116972000D03*
X139954000Y-118872000D03*
X141829000Y-117922000D03*
%TD*%
D25*
%TO.C,R27*%
X143770000Y-113880661D03*
X143770000Y-112055661D03*
%TD*%
D16*
%TO.C,R6*%
X110363000Y-72390000D03*
X112188000Y-72390000D03*
%TD*%
D17*
%TO.C,D19*%
X98411700Y-64897000D03*
X100161700Y-64897000D03*
%TD*%
D16*
%TO.C,R16*%
X183745500Y-105156000D03*
X185570500Y-105156000D03*
%TD*%
D32*
%TO.C,C6*%
X98425000Y-81428500D03*
X98425000Y-79353500D03*
%TD*%
D11*
%TO.C,Q4*%
X110568500Y-75316000D03*
X110568500Y-77216000D03*
X112443500Y-76266000D03*
%TD*%
D33*
%TO.C,C8*%
X101955000Y-83058000D03*
X103505000Y-83058000D03*
%TD*%
D34*
%TO.C,C9*%
X95934000Y-75565000D03*
X98884000Y-75565000D03*
%TD*%
D25*
%TO.C,R24*%
X98298000Y-120419500D03*
X98298000Y-118594500D03*
%TD*%
D15*
%TO.C,R2*%
X103782500Y-62734216D03*
X101957500Y-62734216D03*
%TD*%
D31*
%TO.C,Q8*%
X126667500Y-74610000D03*
X126667500Y-72710000D03*
X124792500Y-73660000D03*
%TD*%
D35*
%TO.C,D20*%
X81534000Y-113182400D03*
X81534000Y-116433600D03*
%TD*%
D12*
%TO.C,D12*%
X142160000Y-72848500D03*
X142160000Y-74598500D03*
%TD*%
D15*
%TO.C,R26*%
X102108000Y-120396000D03*
X100283000Y-120396000D03*
%TD*%
D16*
%TO.C,R21*%
X133938000Y-77773500D03*
X135763000Y-77773500D03*
%TD*%
D15*
%TO.C,R4*%
X147464800Y-80518000D03*
X145639800Y-80518000D03*
%TD*%
D11*
%TO.C,Q2*%
X145366500Y-75316000D03*
X145366500Y-77216000D03*
X147241500Y-76266000D03*
%TD*%
D22*
%TO.C,R12*%
X120523000Y-63248500D03*
X120523000Y-65073500D03*
%TD*%
D20*
%TO.C,D16*%
X122047000Y-75424000D03*
X122047000Y-73674000D03*
%TD*%
D36*
%TO.C,C7*%
X104407000Y-77470000D03*
X102857000Y-77470000D03*
%TD*%
M02*
