M48
; DRILL file {KiCad 9.0.4} date 2026-03-23T12:20:05-0500
; FORMAT={-:-/ absolute / metric / decimal}
; #@! TF.CreationDate,2026-03-23T12:20:05-05:00
; #@! TF.GenerationSoftware,Kicad,Pcbnew,9.0.4
; #@! TF.FileFunction,Plated,1,2,PTH
FMAT,2
METRIC
; #@! TA.AperFunction,Plated,PTH,ViaDrill
T1C0.300
; #@! TA.AperFunction,Plated,PTH,ComponentDrill
T2C0.500
; #@! TA.AperFunction,Plated,PTH,ComponentDrill
T3C0.700
; #@! TA.AperFunction,Plated,PTH,ComponentDrill
T4C0.800
; #@! TA.AperFunction,Plated,PTH,ComponentDrill
T5C0.850
; #@! TA.AperFunction,Plated,PTH,ComponentDrill
T6C0.900
; #@! TA.AperFunction,Plated,PTH,ComponentDrill
T7C1.000
; #@! TA.AperFunction,Plated,PTH,ComponentDrill
T8C1.020
; #@! TA.AperFunction,Plated,PTH,ComponentDrill
T9C1.600
; #@! TA.AperFunction,Plated,PTH,ComponentDrill
T10C1.854
; #@! TA.AperFunction,Plated,PTH,ComponentDrill
T11C2.946
; #@! TA.AperFunction,Plated,PTH,ComponentDrill
T12C3.250
%
G90
G05
T1
X77.216Y-128.016
X79.248Y-66.548
X79.248Y-80.264
X84.582Y-56.134
X85.471Y-85.344
X90.297Y-84.201
X91.313Y-99.949
X91.44Y-75.692
X91.821Y-86.36
X92.202Y-92.202
X92.964Y-63.754
X92.964Y-67.183
X92.964Y-69.342
X92.968Y-66.044
X93.218Y-83.312
X93.472Y-70.612
X93.726Y-74.168
X93.726Y-75.438
X93.726Y-76.581
X94.361Y-81.788
X94.742Y-74.168
X94.742Y-75.438
X94.742Y-76.581
X95.631Y-81.788
X96.52Y-84.201
X97.282Y-62.992
X97.282Y-65.024
X97.409Y-84.201
X98.044Y-135.636
X98.425Y-78.105
X98.425Y-84.201
X98.933Y-73.914
X99.756Y-80.457
X100.203Y-74.93
X100.203Y-76.073
X100.33Y-80.457
X100.457Y-121.666
X100.711Y-83.185
X101.727Y-78.613
X102.857Y-77.47
X103.124Y-86.614
X103.251Y-119.888
X105.431Y-109.728
X106.807Y-84.201
X107.442Y-86.614
X107.95Y-64.008
X110.236Y-73.914
X110.744Y-81.788
X112.7Y-77.546
X112.776Y-86.36
X112.852Y-69.418
X113.284Y-88.392
X113.284Y-99.314
X113.284Y-106.68
X113.284Y-112.268
X114.808Y-69.85
X115.57Y-78.994
X115.57Y-109.728
X117.219Y-88.138
X117.599Y-93.723
X117.602Y-92.456
X118.618Y-69.85
X119.126Y-78.994
X119.126Y-87.122
X119.126Y-93.083
X119.796Y-84.674
X120.446Y-85.344
X121.158Y-88.138
X122.174Y-81.788
X122.174Y-90.424
X122.428Y-64.008
X122.936Y-109.728
X123.19Y-88.392
X123.19Y-97.028
X123.952Y-105.108
X124.968Y-83.058
X124.968Y-83.891
X124.968Y-84.727
X126.238Y-71.12
X126.238Y-106.68
X127.762Y-76.2
X128.778Y-91.44
X129.032Y-109.728
X131.064Y-101.854
X131.064Y-106.68
X131.318Y-71.12
X131.318Y-79.502
X133.35Y-109.728
X133.604Y-86.868
X134.366Y-94.996
X134.366Y-115.062
X134.366Y-123.952
X134.874Y-120.142
X135.636Y-112.522
X135.636Y-118.872
X135.89Y-109.728
X135.89Y-120.142
X137.16Y-85.852
X138.938Y-71.882
X139.192Y-120.142
X139.446Y-106.934
X139.573Y-64.008
X139.954Y-111.76
X139.954Y-118.872
X140.208Y-120.142
X140.716Y-91.694
X140.716Y-94.742
X140.716Y-97.282
X140.716Y-102.108
X142.494Y-110.49
X142.748Y-87.376
X143.51Y-89.154
X143.51Y-120.142
X144.272Y-118.872
X144.526Y-120.142
X144.78Y-86.36
X144.78Y-105.156
X145.034Y-78.232
X145.169Y-112.014
X147.32Y-91.694
X147.574Y-109.728
X148.336Y-121.92
X148.471Y-79.502
X148.539Y-69.393
X148.963Y-121.158
X149.096Y-75.768
X149.987Y-64.008
X150.876Y-97.282
X150.876Y-100.076
X151.638Y-67.818
X151.638Y-71.12
X151.638Y-80.518
X151.638Y-86.36
X152.654Y-61.334
X152.908Y-77.978
X152.908Y-107.188
X154.178Y-108.966
X154.193Y-61.961
X154.432Y-102.108
X155.194Y-67.818
X155.194Y-79.248
X155.194Y-115.062
X155.779Y-62.619
X155.956Y-84.328
X156.21Y-86.36
X156.21Y-90.424
X156.21Y-94.488
X156.583Y-81.788
X157.226Y-99.568
X157.226Y-101.092
X157.226Y-106.172
X157.238Y-63.234
X157.734Y-108.966
X157.853Y-97.028
X159.004Y-117.602
X160.782Y-57.285
X160.782Y-59.825
X160.782Y-62.365
X160.782Y-114.3
X161.29Y-57.912
X161.29Y-60.452
X161.29Y-62.992
X161.544Y-66.04
X161.544Y-76.708
X161.544Y-81.534
X161.544Y-115.062
X161.544Y-120.142
X161.798Y-107.442
X162.814Y-109.728
X163.068Y-91.948
X163.068Y-95.116
X163.912Y-93.218
X164.592Y-102.108
X164.592Y-105.156
X164.606Y-56.388
X164.606Y-88.138
X165.367Y-58.928
X165.367Y-90.932
X165.608Y-92.202
X165.608Y-94.234
X166.129Y-69.088
X166.129Y-85.344
X166.624Y-117.348
X166.878Y-101.346
X166.891Y-53.848
X166.891Y-95.758
X167.64Y-66.548
X167.653Y-103.378
X167.894Y-105.156
X167.894Y-109.728
X167.894Y-112.268
X168.148Y-64.77
X168.415Y-67.818
X168.415Y-97.028
X168.91Y-99.568
X168.91Y-113.538
X169.177Y-62.992
X169.177Y-91.948
X169.672Y-94.234
X169.672Y-98.298
X169.926Y-102.108
X169.926Y-114.3
X169.939Y-62.23
X169.939Y-89.408
X170.688Y-84.328
X170.688Y-115.062
X170.688Y-116.586
X170.701Y-60.452
X170.701Y-79.248
X171.45Y-86.868
X171.45Y-115.824
X171.463Y-59.944
X171.463Y-81.788
X171.958Y-122.682
X172.225Y-57.912
X172.225Y-104.648
X172.974Y-57.404
X172.974Y-94.488
X175.768Y-135.89
X177.292Y-61.468
X177.292Y-67.564
X177.454Y-82.804
X177.454Y-107.188
X178.054Y-80.264
X178.054Y-109.728
X178.816Y-110.998
X179.232Y-118.272
X181.102Y-109.728
X181.61Y-56.388
X182.88Y-108.746
X185.166Y-109.728
X185.674Y-105.156
X186.69Y-93.726
X187.706Y-96.266
X187.706Y-105.156
X189.23Y-66.548
X189.23Y-80.01
X189.738Y-128.016
X191.516Y-109.728
T2
X74.816Y-54.864
X74.816Y-135.636
X75.519Y-53.167
X75.519Y-56.561
X75.519Y-133.939
X75.519Y-137.333
X77.216Y-52.464
X77.216Y-57.264
X77.216Y-133.236
X77.216Y-138.036
X78.913Y-53.167
X78.913Y-56.561
X78.913Y-133.939
X78.913Y-137.333
X79.616Y-54.864
X79.616Y-135.636
X166.256Y-135.636
X166.959Y-133.939
X166.959Y-137.333
X168.656Y-133.236
X168.656Y-138.036
X170.353Y-133.939
X170.353Y-137.333
X171.056Y-135.636
X188.1Y-54.864
X188.803Y-53.167
X188.803Y-56.561
X190.5Y-52.464
X190.5Y-57.264
X192.197Y-53.167
X192.197Y-56.561
X192.9Y-54.864
T3
X162.202Y-97.298
X162.202Y-99.298
X164.202Y-97.298
X164.202Y-99.298
X166.202Y-97.298
X166.202Y-99.298
T4
X107.391Y-102.083
X107.391Y-104.623
X107.391Y-107.163
X107.398Y-90.4
X107.398Y-92.94
X107.398Y-95.48
X107.398Y-113.768
X107.398Y-116.308
X107.398Y-118.848
X150.832Y-102.083
X150.832Y-104.623
X150.832Y-107.163
X150.832Y-113.768
X150.832Y-116.308
X150.832Y-118.848
X150.851Y-90.399
X150.851Y-92.939
X150.851Y-95.479
X159.752Y-53.848
X159.752Y-56.388
X159.752Y-58.928
X159.752Y-61.468
X159.752Y-64.008
X159.752Y-66.548
X159.752Y-69.088
X159.752Y-71.628
X159.752Y-74.168
X159.752Y-76.708
X159.752Y-79.248
X159.752Y-81.788
X159.752Y-84.328
X159.752Y-86.868
X159.752Y-89.408
X159.752Y-91.948
X159.752Y-94.488
X159.752Y-97.028
X159.752Y-99.568
X159.752Y-102.108
X159.752Y-104.648
X159.752Y-107.188
X159.752Y-109.728
X159.752Y-112.268
X174.992Y-53.848
X174.992Y-56.388
X174.992Y-58.928
X174.992Y-61.468
X174.992Y-64.008
X174.992Y-66.548
X174.992Y-69.088
X174.992Y-71.628
X174.992Y-74.168
X174.992Y-76.708
X174.992Y-79.248
X174.992Y-81.788
X174.992Y-84.328
X174.992Y-86.868
X174.992Y-89.408
X174.992Y-91.948
X174.992Y-94.488
X174.992Y-97.028
X174.992Y-99.568
X174.992Y-102.108
X174.992Y-104.648
X174.992Y-107.188
X174.992Y-109.728
X174.992Y-112.268
X180.892Y-88.494
X180.892Y-91.034
X180.892Y-93.574
X180.892Y-96.114
X180.892Y-98.654
X180.892Y-101.194
X180.892Y-103.734
X180.892Y-106.274
T5
X137.878Y-90.414
X137.878Y-92.954
X137.878Y-95.494
X145.498Y-90.414
X145.498Y-92.954
X145.498Y-95.494
T6
X86.614Y-62.484
X86.614Y-65.024
X86.614Y-67.564
X86.614Y-70.104
X86.614Y-72.644
X86.614Y-75.184
X86.614Y-77.724
X86.614Y-80.264
X86.614Y-82.804
X93.98Y-56.388
X94.674Y-126.238
X96.52Y-56.388
X97.215Y-126.238
X99.06Y-56.388
X99.754Y-126.238
X101.6Y-56.388
X102.294Y-126.238
X111.76Y-56.388
X112.268Y-126.238
X114.3Y-56.388
X114.808Y-126.238
X116.84Y-56.388
X117.348Y-126.238
X119.38Y-56.388
X124.206Y-126.238
X126.746Y-126.238
X129.286Y-126.238
X129.54Y-56.388
X132.08Y-56.388
X134.62Y-56.388
X136.652Y-126.238
X137.16Y-56.388
X139.192Y-126.238
X141.732Y-126.238
X144.272Y-126.238
X147.32Y-56.388
X149.86Y-56.388
X152.4Y-56.388
X154.94Y-56.388
X176.911Y-122.733
X178.181Y-120.194
X179.451Y-122.733
X180.721Y-120.194
X181.102Y-62.484
X181.102Y-65.024
X181.102Y-67.564
X181.102Y-70.104
X181.102Y-72.644
X181.102Y-75.184
X181.102Y-77.724
X181.102Y-80.264
X181.102Y-82.804
X181.991Y-122.733
X182.778Y-112.979
X183.261Y-120.194
X184.531Y-122.733
X185.318Y-112.979
X185.801Y-120.194
X187.858Y-112.979
X190.398Y-112.979
T7
X89.662Y-53.594
X89.662Y-56.134
X89.662Y-58.674
X89.784Y-90.424
X89.784Y-92.964
X89.784Y-95.504
X89.784Y-104.14
X89.784Y-106.68
X89.784Y-109.22
X107.442Y-53.594
X107.442Y-56.134
X107.442Y-58.674
X125.222Y-53.594
X125.222Y-56.134
X125.222Y-58.674
X143.002Y-53.594
X143.002Y-56.134
X143.002Y-58.674
T8
X175.031Y-134.163
X177.571Y-132.374
X185.141Y-134.163
X187.681Y-132.374
T9
X173.481Y-126.033
X189.231Y-126.033
T10
X86.766Y-122.83
X86.766Y-128.33
T11
X77.216Y-54.864
X77.216Y-135.636
X168.656Y-135.636
X190.5Y-54.864
T12
X175.641Y-129.083
X187.071Y-129.083
M30
