%TF.GenerationSoftware,KiCad,Pcbnew,7.0.7*%
%TF.CreationDate,2023-11-07T19:48:15-06:00*%
%TF.ProjectId,CoreBoard_Rev1,436f7265-426f-4617-9264-5f526576312e,rev?*%
%TF.SameCoordinates,Original*%
%TF.FileFunction,Soldermask,Bot*%
%TF.FilePolarity,Negative*%
%FSLAX46Y46*%
G04 Gerber Fmt 4.6, Leading zero omitted, Abs format (unit mm)*
G04 Created by KiCad (PCBNEW 7.0.7) date 2023-11-07 19:48:15*
%MOMM*%
%LPD*%
G01*
G04 APERTURE LIST*
%ADD10C,3.450000*%
%ADD11C,1.524000*%
%ADD12O,3.500000X2.200000*%
%ADD13R,2.500000X1.500000*%
%ADD14O,2.500000X1.500000*%
%ADD15C,2.946400*%
%ADD16C,1.308000*%
%ADD17C,1.208000*%
%ADD18C,1.100000*%
%ADD19C,1.400000*%
%ADD20C,4.000000*%
%ADD21C,2.000000*%
%ADD22O,5.100000X3.000000*%
G04 APERTURE END LIST*
D10*
%TO.C,Conn2*%
X196977000Y-42926000D03*
X196977000Y-65786000D03*
D11*
X188341000Y-44196000D03*
X188341000Y-46736000D03*
X188341000Y-49276000D03*
X188341000Y-51816000D03*
X188341000Y-54356000D03*
X188341000Y-56896000D03*
X188341000Y-59436000D03*
X188341000Y-61976000D03*
X188341000Y-64516000D03*
%TD*%
%TO.C,U7*%
X186309000Y-105410000D03*
X186309000Y-102870000D03*
X186309000Y-100330000D03*
%TD*%
D12*
%TO.C,SW16*%
X69131500Y-105446000D03*
X69131500Y-97246000D03*
D13*
X69131500Y-103346000D03*
D14*
X69131500Y-101346000D03*
X69131500Y-99346000D03*
%TD*%
D10*
%TO.C,Conn5*%
X131826000Y-111760000D03*
X108966000Y-111760000D03*
D11*
X130556000Y-103124000D03*
X128016000Y-103124000D03*
X125476000Y-103124000D03*
X122936000Y-103124000D03*
X120396000Y-103124000D03*
X117856000Y-103124000D03*
X115316000Y-103124000D03*
X112776000Y-103124000D03*
X110236000Y-103124000D03*
%TD*%
D15*
%TO.C,REF\u002A\u002A*%
X197866000Y-112522000D03*
%TD*%
%TO.C,REF\u002A\u002A*%
X70866000Y-112522000D03*
%TD*%
D10*
%TO.C,Conn4*%
X104140000Y-111760000D03*
X81280000Y-111760000D03*
D11*
X102870000Y-103124000D03*
X100330000Y-103124000D03*
X97790000Y-103124000D03*
X95250000Y-103124000D03*
X92710000Y-103124000D03*
X90170000Y-103124000D03*
X87630000Y-103124000D03*
X85090000Y-103124000D03*
X82550000Y-103124000D03*
%TD*%
D15*
%TO.C,REF\u002A\u002A*%
X197866000Y-36322000D03*
%TD*%
D16*
%TO.C,U1*%
X100076000Y-90678000D03*
X102616000Y-90678000D03*
X105156000Y-90678000D03*
X107696000Y-90678000D03*
X133096000Y-90678000D03*
X102616000Y-75438000D03*
X110236000Y-90678000D03*
X112776000Y-90678000D03*
X115316000Y-90678000D03*
X117856000Y-90678000D03*
X120396000Y-90678000D03*
X122936000Y-90678000D03*
X125476000Y-90678000D03*
X128016000Y-90678000D03*
X130556000Y-90678000D03*
X130556000Y-75438000D03*
X128016000Y-75438000D03*
X125476000Y-75438000D03*
X122936000Y-75438000D03*
X120396000Y-75438000D03*
X117856000Y-75438000D03*
X115316000Y-75438000D03*
X112776000Y-75438000D03*
X110236000Y-75438000D03*
X107696000Y-75438000D03*
X105156000Y-75438000D03*
X135636000Y-90678000D03*
X138176000Y-90678000D03*
X140716000Y-90678000D03*
X143256000Y-90678000D03*
X145796000Y-90678000D03*
X148336000Y-90678000D03*
X150876000Y-90678000D03*
X153416000Y-90678000D03*
X155956000Y-90678000D03*
X155956000Y-75438000D03*
X153416000Y-75438000D03*
X150876000Y-75438000D03*
X148336000Y-75438000D03*
X145796000Y-75438000D03*
X143256000Y-75438000D03*
X140716000Y-75438000D03*
X138176000Y-75438000D03*
X135636000Y-75438000D03*
X97536000Y-90678000D03*
X133096000Y-75438000D03*
X100076000Y-75438000D03*
D17*
X112506000Y-79888000D03*
X110506000Y-79888000D03*
X110506000Y-77888000D03*
X112506000Y-77888000D03*
X112506000Y-81888000D03*
X110506000Y-81888000D03*
D16*
X97536000Y-75438000D03*
%TD*%
D11*
%TO.C,Conn7*%
X190246000Y-112014000D03*
X187706000Y-112014000D03*
X185166000Y-112014000D03*
%TD*%
D18*
%TO.C,J1*%
X84328000Y-78740000D03*
X86868000Y-80010000D03*
X84328000Y-81280000D03*
X86868000Y-82550000D03*
X84328000Y-83820000D03*
X86868000Y-85090000D03*
X84328000Y-86360000D03*
X86868000Y-87630000D03*
D19*
X72898000Y-76860000D03*
X74688000Y-79400000D03*
X72898000Y-86970000D03*
X74688000Y-89510000D03*
D20*
X77978000Y-77470000D03*
X77978000Y-88900000D03*
D21*
X81028000Y-75310000D03*
X81028000Y-91060000D03*
%TD*%
D22*
%TO.C,Conn1*%
X168275000Y-98362800D03*
X176149000Y-98362800D03*
%TD*%
D10*
%TO.C,Conn6*%
X159512000Y-111760000D03*
X136652000Y-111760000D03*
D11*
X158242000Y-103124000D03*
X155702000Y-103124000D03*
X153162000Y-103124000D03*
X150622000Y-103124000D03*
X148082000Y-103124000D03*
X145542000Y-103124000D03*
X143002000Y-103124000D03*
X140462000Y-103124000D03*
X137922000Y-103124000D03*
%TD*%
D15*
%TO.C,REF\u002A\u002A*%
X70866000Y-36322000D03*
%TD*%
D10*
%TO.C,Conn3*%
X71882000Y-66040000D03*
X71882000Y-43180000D03*
D11*
X80518000Y-64770000D03*
X80518000Y-62230000D03*
X80518000Y-59690000D03*
X80518000Y-57150000D03*
X80518000Y-54610000D03*
X80518000Y-52070000D03*
X80518000Y-49530000D03*
X80518000Y-46990000D03*
X80518000Y-44450000D03*
%TD*%
M02*
