M48
; DRILL file {KiCad 7.0.7} date Thu Nov  2 11:28:49 2023
; FORMAT={-:-/ absolute / inch / decimal}
; #@! TF.CreationDate,2023-11-02T11:28:49-05:00
; #@! TF.GenerationSoftware,Kicad,Pcbnew,7.0.7
; #@! TF.FileFunction,Plated,1,2,PTH
FMAT,2
INCH
; #@! TA.AperFunction,Plated,PTH,ViaDrill
T1C0.0157
; #@! TA.AperFunction,Plated,PTH,ComponentDrill
T2C0.0276
; #@! TA.AperFunction,Plated,PTH,ComponentDrill
T3C0.0315
; #@! TA.AperFunction,Plated,PTH,ComponentDrill
T4C0.0350
; #@! TA.AperFunction,Plated,PTH,ComponentDrill
T5C0.0354
; #@! TA.AperFunction,Plated,PTH,ComponentDrill
T6C0.0402
; #@! TA.AperFunction,Plated,PTH,ComponentDrill
T7C0.0591
; #@! TA.AperFunction,Plated,PTH,ComponentDrill
T8C0.0630
; #@! TA.AperFunction,Plated,PTH,ComponentDrill
T9C0.0787
; #@! TA.AperFunction,Plated,PTH,ComponentDrill
T10C0.1280
%
G90
G05
T1
X2.745Y-3.675
X2.97Y-3.675
X3.1Y-3.285
X3.25Y-3.05
X3.515Y-3.15
X3.53Y-3.45
X3.54Y-1.68
X3.54Y-2.1
X3.55Y-2.51
X3.83Y-3.23
X3.84Y-3.68
X4.01Y-2.5815
X4.01Y-2.82
X4.15Y-3.715
X4.47Y-1.68
X4.47Y-2.1
X4.47Y-2.51
X4.5164Y-1.42
X4.621Y-1.5246
X4.6517Y-2.2417
X4.6517Y-2.53
X4.68Y-2.3014
X4.6803Y-2.13
X4.6803Y-2.45
X4.71Y-1.79
X4.79Y-2.57
X4.82Y-1.77
X4.82Y-2.31
X4.84Y-2.4714
X4.85Y-1.89
X4.85Y-2.21
X4.85Y-2.57
X4.852Y-2.84
X4.87Y-1.69
X4.88Y-2.31
X4.92Y-1.77
X4.93Y-1.97
X4.93Y-2.31
X4.94Y-2.57
X4.98Y-1.77
X4.98Y-2.31
X5.0Y-2.57
X5.002Y-2.84
X5.03Y-2.31
X5.09Y-2.31
X5.11Y-1.46
X5.11Y-1.9936
X5.11Y-2.26
X5.1198Y-2.8498
X5.1514Y-1.99
X5.1586Y-2.8111
X5.165Y-2.685
X5.175Y-1.8
X5.18Y-1.96
X5.22Y-2.72
X5.33Y-1.69
X5.33Y-2.1
X5.33Y-2.51
X5.78Y-2.6
X5.88Y-1.68
X5.88Y-2.1
X5.88Y-2.51
X6.12Y-2.8908
X6.33Y-2.61
X6.43Y-1.69
X6.44Y-2.1
X6.44Y-2.51
X6.88Y-2.62
X6.945Y-4.23
X7.13Y-4.01
X7.16Y-3.73
X7.18Y-3.98
X7.335Y-3.815
X7.64Y-3.25
T2
X4.3506Y-3.0665
X4.3506Y-3.1452
X4.3506Y-3.2239
X4.4294Y-3.0665
X4.4294Y-3.1452
X4.4294Y-3.2239
T3
X2.7217Y-3.9113
X2.7217Y-3.99
X2.7217Y-4.0687
X3.84Y-2.97
X3.84Y-3.57
X3.94Y-2.97
X3.94Y-3.57
X4.04Y-2.97
X4.04Y-3.57
X4.14Y-2.97
X4.14Y-3.57
X4.24Y-2.97
X4.24Y-3.57
X4.34Y-2.97
X4.34Y-3.57
X4.44Y-2.97
X4.44Y-3.57
X4.54Y-2.97
X4.54Y-3.57
X4.64Y-2.97
X4.64Y-3.57
X4.74Y-2.97
X4.74Y-3.57
X4.84Y-2.97
X4.84Y-3.57
X4.94Y-2.97
X4.94Y-3.57
X5.04Y-2.97
X5.04Y-3.57
X5.14Y-2.97
X5.14Y-3.57
X5.24Y-2.97
X5.24Y-3.57
X5.34Y-2.97
X5.34Y-3.57
X5.44Y-2.97
X5.44Y-3.57
X5.54Y-2.97
X5.54Y-3.57
X5.64Y-2.97
X5.64Y-3.57
X5.74Y-2.97
X5.74Y-3.57
X5.84Y-2.97
X5.84Y-3.57
X5.94Y-2.97
X5.94Y-3.57
X6.04Y-2.97
X6.04Y-3.57
X6.14Y-2.97
X6.14Y-3.57
T4
X7.335Y-3.95
X7.335Y-4.05
X7.335Y-4.15
T5
X3.17Y-1.75
X3.17Y-1.85
X3.17Y-1.95
X3.17Y-2.05
X3.17Y-2.15
X3.17Y-2.25
X3.17Y-2.35
X3.17Y-2.45
X3.17Y-2.55
X3.25Y-4.06
X3.32Y-3.1
X3.32Y-3.2
X3.32Y-3.3
X3.32Y-3.4
X3.35Y-4.06
X3.42Y-3.15
X3.42Y-3.25
X3.42Y-3.35
X3.42Y-3.45
X3.45Y-4.06
X3.55Y-4.06
X3.65Y-4.06
X3.75Y-4.06
X3.85Y-4.06
X3.95Y-4.06
X4.05Y-4.06
X4.34Y-4.06
X4.44Y-4.06
X4.54Y-4.06
X4.64Y-4.06
X4.74Y-4.06
X4.84Y-4.06
X4.94Y-4.06
X5.04Y-4.06
X5.14Y-4.06
X5.43Y-4.06
X5.53Y-4.06
X5.63Y-4.06
X5.73Y-4.06
X5.83Y-4.06
X5.93Y-4.06
X6.03Y-4.06
X6.13Y-4.06
X6.23Y-4.06
X7.29Y-4.41
X7.39Y-4.41
X7.415Y-1.74
X7.415Y-1.84
X7.415Y-1.94
X7.415Y-2.04
X7.415Y-2.14
X7.415Y-2.24
X7.415Y-2.34
X7.415Y-2.44
X7.415Y-2.54
X7.49Y-4.41
T6
X2.87Y-3.026
X2.87Y-3.424
X2.9405Y-3.126
X2.9405Y-3.524
T7
X2.7217Y-3.8286
X2.7217Y-4.1514
T8
X3.1901Y-2.965
X3.1901Y-3.585
T10
X3.07Y-3.05
X3.07Y-3.5
T9
G00X6.5837Y-3.8726
M15
G01X6.6663Y-3.8726
M16
G05
G00X6.8937Y-3.8726
M15
G01X6.9763Y-3.8726
M16
G05
T0
M30
