%TF.GenerationSoftware,KiCad,Pcbnew,7.0.7*%
%TF.CreationDate,2023-11-07T19:48:23-06:00*%
%TF.ProjectId,CoreBoard_Rev1,436f7265-426f-4617-9264-5f526576312e,rev?*%
%TF.SameCoordinates,Original*%
%TF.FileFunction,Drillmap*%
%TF.FilePolarity,Positive*%
%FSLAX45Y45*%
G04 Gerber Fmt 4.5, Leading zero omitted, Abs format (unit mm)*
G04 Created by KiCad (PCBNEW 7.0.7) date 2023-11-07 19:48:23*
%MOMM*%
%LPD*%
G01*
G04 APERTURE LIST*
%ADD10C,0.200000*%
%ADD11C,0.294640*%
%ADD12C,0.345000*%
G04 APERTURE END LIST*
D10*
X19786600Y-11658600D02*
X7086600Y-11658600D01*
X19778632Y-3225800D02*
X7086600Y-3225800D01*
X20193000Y-11252200D02*
X20193000Y-3640168D01*
X20193000Y-3640168D02*
G75*
G03*
X19778632Y-3225800I-414370J-2D01*
G01*
X19786600Y-11658600D02*
G75*
G03*
X20193000Y-11252200I0J406400D01*
G01*
X7086600Y-3225800D02*
G75*
G03*
X6680200Y-3632200I0J-406400D01*
G01*
X6680200Y-11252200D02*
X6680200Y-3632200D01*
X6680200Y-11252200D02*
G75*
G03*
X7086600Y-11658600I406400J0D01*
G01*
D11*
X6939280Y-3484880D02*
X7233920Y-3779520D01*
X7233920Y-3484880D02*
X6939280Y-3779520D01*
X6939280Y-11104880D02*
X7233920Y-11399520D01*
X7233920Y-11104880D02*
X6939280Y-11399520D01*
X19639280Y-3484880D02*
X19933920Y-3779520D01*
X19933920Y-3484880D02*
X19639280Y-3779520D01*
X19639280Y-11104880D02*
X19933920Y-11399520D01*
X19933920Y-11104880D02*
X19639280Y-11399520D01*
D12*
X7360700Y-4318000D02*
G75*
G03*
X7360700Y-4318000I-172500J0D01*
G01*
X7360700Y-6604000D02*
G75*
G03*
X7360700Y-6604000I-172500J0D01*
G01*
X8300500Y-11176000D02*
G75*
G03*
X8300500Y-11176000I-172500J0D01*
G01*
X10586500Y-11176000D02*
G75*
G03*
X10586500Y-11176000I-172500J0D01*
G01*
X11069100Y-11176000D02*
G75*
G03*
X11069100Y-11176000I-172500J0D01*
G01*
X13355100Y-11176000D02*
G75*
G03*
X13355100Y-11176000I-172500J0D01*
G01*
X13837700Y-11176000D02*
G75*
G03*
X13837700Y-11176000I-172500J0D01*
G01*
X16123700Y-11176000D02*
G75*
G03*
X16123700Y-11176000I-172500J0D01*
G01*
X19870200Y-4292600D02*
G75*
G03*
X19870200Y-4292600I-172500J0D01*
G01*
X19870200Y-6578600D02*
G75*
G03*
X19870200Y-6578600I-172500J0D01*
G01*
D10*
X6930977Y-11980084D02*
X6930977Y-11780084D01*
X6930977Y-11780084D02*
X6978596Y-11780084D01*
X6978596Y-11780084D02*
X7007167Y-11789608D01*
X7007167Y-11789608D02*
X7026215Y-11808655D01*
X7026215Y-11808655D02*
X7035739Y-11827703D01*
X7035739Y-11827703D02*
X7045262Y-11865798D01*
X7045262Y-11865798D02*
X7045262Y-11894369D01*
X7045262Y-11894369D02*
X7035739Y-11932465D01*
X7035739Y-11932465D02*
X7026215Y-11951512D01*
X7026215Y-11951512D02*
X7007167Y-11970560D01*
X7007167Y-11970560D02*
X6978596Y-11980084D01*
X6978596Y-11980084D02*
X6930977Y-11980084D01*
X7130977Y-11980084D02*
X7130977Y-11846750D01*
X7130977Y-11884846D02*
X7140501Y-11865798D01*
X7140501Y-11865798D02*
X7150024Y-11856274D01*
X7150024Y-11856274D02*
X7169072Y-11846750D01*
X7169072Y-11846750D02*
X7188120Y-11846750D01*
X7254786Y-11980084D02*
X7254786Y-11846750D01*
X7254786Y-11780084D02*
X7245262Y-11789608D01*
X7245262Y-11789608D02*
X7254786Y-11799131D01*
X7254786Y-11799131D02*
X7264310Y-11789608D01*
X7264310Y-11789608D02*
X7254786Y-11780084D01*
X7254786Y-11780084D02*
X7254786Y-11799131D01*
X7378596Y-11980084D02*
X7359548Y-11970560D01*
X7359548Y-11970560D02*
X7350024Y-11951512D01*
X7350024Y-11951512D02*
X7350024Y-11780084D01*
X7483358Y-11980084D02*
X7464310Y-11970560D01*
X7464310Y-11970560D02*
X7454786Y-11951512D01*
X7454786Y-11951512D02*
X7454786Y-11780084D01*
X7711929Y-11980084D02*
X7711929Y-11780084D01*
X7711929Y-11780084D02*
X7778596Y-11922941D01*
X7778596Y-11922941D02*
X7845262Y-11780084D01*
X7845262Y-11780084D02*
X7845262Y-11980084D01*
X8026215Y-11980084D02*
X8026215Y-11875322D01*
X8026215Y-11875322D02*
X8016691Y-11856274D01*
X8016691Y-11856274D02*
X7997643Y-11846750D01*
X7997643Y-11846750D02*
X7959548Y-11846750D01*
X7959548Y-11846750D02*
X7940501Y-11856274D01*
X8026215Y-11970560D02*
X8007167Y-11980084D01*
X8007167Y-11980084D02*
X7959548Y-11980084D01*
X7959548Y-11980084D02*
X7940501Y-11970560D01*
X7940501Y-11970560D02*
X7930977Y-11951512D01*
X7930977Y-11951512D02*
X7930977Y-11932465D01*
X7930977Y-11932465D02*
X7940501Y-11913417D01*
X7940501Y-11913417D02*
X7959548Y-11903893D01*
X7959548Y-11903893D02*
X8007167Y-11903893D01*
X8007167Y-11903893D02*
X8026215Y-11894369D01*
X8121453Y-11846750D02*
X8121453Y-12046750D01*
X8121453Y-11856274D02*
X8140501Y-11846750D01*
X8140501Y-11846750D02*
X8178596Y-11846750D01*
X8178596Y-11846750D02*
X8197643Y-11856274D01*
X8197643Y-11856274D02*
X8207167Y-11865798D01*
X8207167Y-11865798D02*
X8216691Y-11884846D01*
X8216691Y-11884846D02*
X8216691Y-11941988D01*
X8216691Y-11941988D02*
X8207167Y-11961036D01*
X8207167Y-11961036D02*
X8197643Y-11970560D01*
X8197643Y-11970560D02*
X8178596Y-11980084D01*
X8178596Y-11980084D02*
X8140501Y-11980084D01*
X8140501Y-11980084D02*
X8121453Y-11970560D01*
X8302405Y-11961036D02*
X8311929Y-11970560D01*
X8311929Y-11970560D02*
X8302405Y-11980084D01*
X8302405Y-11980084D02*
X8292882Y-11970560D01*
X8292882Y-11970560D02*
X8302405Y-11961036D01*
X8302405Y-11961036D02*
X8302405Y-11980084D01*
X8302405Y-11856274D02*
X8311929Y-11865798D01*
X8311929Y-11865798D02*
X8302405Y-11875322D01*
X8302405Y-11875322D02*
X8292882Y-11865798D01*
X8292882Y-11865798D02*
X8302405Y-11856274D01*
X8302405Y-11856274D02*
X8302405Y-11875322D01*
X6470200Y-12208600D02*
X6670200Y-12408600D01*
X6670200Y-12208600D02*
X6470200Y-12408600D01*
X6921453Y-12219131D02*
X6930977Y-12209608D01*
X6930977Y-12209608D02*
X6950024Y-12200084D01*
X6950024Y-12200084D02*
X6997643Y-12200084D01*
X6997643Y-12200084D02*
X7016691Y-12209608D01*
X7016691Y-12209608D02*
X7026215Y-12219131D01*
X7026215Y-12219131D02*
X7035739Y-12238179D01*
X7035739Y-12238179D02*
X7035739Y-12257227D01*
X7035739Y-12257227D02*
X7026215Y-12285798D01*
X7026215Y-12285798D02*
X6911929Y-12400084D01*
X6911929Y-12400084D02*
X7035739Y-12400084D01*
X7121453Y-12381036D02*
X7130977Y-12390560D01*
X7130977Y-12390560D02*
X7121453Y-12400084D01*
X7121453Y-12400084D02*
X7111929Y-12390560D01*
X7111929Y-12390560D02*
X7121453Y-12381036D01*
X7121453Y-12381036D02*
X7121453Y-12400084D01*
X7226215Y-12400084D02*
X7264310Y-12400084D01*
X7264310Y-12400084D02*
X7283358Y-12390560D01*
X7283358Y-12390560D02*
X7292882Y-12381036D01*
X7292882Y-12381036D02*
X7311929Y-12352465D01*
X7311929Y-12352465D02*
X7321453Y-12314369D01*
X7321453Y-12314369D02*
X7321453Y-12238179D01*
X7321453Y-12238179D02*
X7311929Y-12219131D01*
X7311929Y-12219131D02*
X7302405Y-12209608D01*
X7302405Y-12209608D02*
X7283358Y-12200084D01*
X7283358Y-12200084D02*
X7245262Y-12200084D01*
X7245262Y-12200084D02*
X7226215Y-12209608D01*
X7226215Y-12209608D02*
X7216691Y-12219131D01*
X7216691Y-12219131D02*
X7207167Y-12238179D01*
X7207167Y-12238179D02*
X7207167Y-12285798D01*
X7207167Y-12285798D02*
X7216691Y-12304846D01*
X7216691Y-12304846D02*
X7226215Y-12314369D01*
X7226215Y-12314369D02*
X7245262Y-12323893D01*
X7245262Y-12323893D02*
X7283358Y-12323893D01*
X7283358Y-12323893D02*
X7302405Y-12314369D01*
X7302405Y-12314369D02*
X7311929Y-12304846D01*
X7311929Y-12304846D02*
X7321453Y-12285798D01*
X7492882Y-12266750D02*
X7492882Y-12400084D01*
X7445262Y-12190560D02*
X7397643Y-12333417D01*
X7397643Y-12333417D02*
X7521453Y-12333417D01*
X7683358Y-12200084D02*
X7645262Y-12200084D01*
X7645262Y-12200084D02*
X7626215Y-12209608D01*
X7626215Y-12209608D02*
X7616691Y-12219131D01*
X7616691Y-12219131D02*
X7597643Y-12247703D01*
X7597643Y-12247703D02*
X7588120Y-12285798D01*
X7588120Y-12285798D02*
X7588120Y-12361988D01*
X7588120Y-12361988D02*
X7597643Y-12381036D01*
X7597643Y-12381036D02*
X7607167Y-12390560D01*
X7607167Y-12390560D02*
X7626215Y-12400084D01*
X7626215Y-12400084D02*
X7664310Y-12400084D01*
X7664310Y-12400084D02*
X7683358Y-12390560D01*
X7683358Y-12390560D02*
X7692882Y-12381036D01*
X7692882Y-12381036D02*
X7702405Y-12361988D01*
X7702405Y-12361988D02*
X7702405Y-12314369D01*
X7702405Y-12314369D02*
X7692882Y-12295322D01*
X7692882Y-12295322D02*
X7683358Y-12285798D01*
X7683358Y-12285798D02*
X7664310Y-12276274D01*
X7664310Y-12276274D02*
X7626215Y-12276274D01*
X7626215Y-12276274D02*
X7607167Y-12285798D01*
X7607167Y-12285798D02*
X7597643Y-12295322D01*
X7597643Y-12295322D02*
X7588120Y-12314369D01*
X7788120Y-12400084D02*
X7788120Y-12266750D01*
X7788120Y-12285798D02*
X7797643Y-12276274D01*
X7797643Y-12276274D02*
X7816691Y-12266750D01*
X7816691Y-12266750D02*
X7845263Y-12266750D01*
X7845263Y-12266750D02*
X7864310Y-12276274D01*
X7864310Y-12276274D02*
X7873834Y-12295322D01*
X7873834Y-12295322D02*
X7873834Y-12400084D01*
X7873834Y-12295322D02*
X7883358Y-12276274D01*
X7883358Y-12276274D02*
X7902405Y-12266750D01*
X7902405Y-12266750D02*
X7930977Y-12266750D01*
X7930977Y-12266750D02*
X7950024Y-12276274D01*
X7950024Y-12276274D02*
X7959548Y-12295322D01*
X7959548Y-12295322D02*
X7959548Y-12400084D01*
X8054786Y-12400084D02*
X8054786Y-12266750D01*
X8054786Y-12285798D02*
X8064310Y-12276274D01*
X8064310Y-12276274D02*
X8083358Y-12266750D01*
X8083358Y-12266750D02*
X8111929Y-12266750D01*
X8111929Y-12266750D02*
X8130977Y-12276274D01*
X8130977Y-12276274D02*
X8140501Y-12295322D01*
X8140501Y-12295322D02*
X8140501Y-12400084D01*
X8140501Y-12295322D02*
X8150024Y-12276274D01*
X8150024Y-12276274D02*
X8169072Y-12266750D01*
X8169072Y-12266750D02*
X8197643Y-12266750D01*
X8197643Y-12266750D02*
X8216691Y-12276274D01*
X8216691Y-12276274D02*
X8226215Y-12295322D01*
X8226215Y-12295322D02*
X8226215Y-12400084D01*
X8616691Y-12190560D02*
X8445263Y-12447703D01*
X8873834Y-12200084D02*
X8892882Y-12200084D01*
X8892882Y-12200084D02*
X8911929Y-12209608D01*
X8911929Y-12209608D02*
X8921453Y-12219131D01*
X8921453Y-12219131D02*
X8930977Y-12238179D01*
X8930977Y-12238179D02*
X8940501Y-12276274D01*
X8940501Y-12276274D02*
X8940501Y-12323893D01*
X8940501Y-12323893D02*
X8930977Y-12361988D01*
X8930977Y-12361988D02*
X8921453Y-12381036D01*
X8921453Y-12381036D02*
X8911929Y-12390560D01*
X8911929Y-12390560D02*
X8892882Y-12400084D01*
X8892882Y-12400084D02*
X8873834Y-12400084D01*
X8873834Y-12400084D02*
X8854787Y-12390560D01*
X8854787Y-12390560D02*
X8845263Y-12381036D01*
X8845263Y-12381036D02*
X8835739Y-12361988D01*
X8835739Y-12361988D02*
X8826215Y-12323893D01*
X8826215Y-12323893D02*
X8826215Y-12276274D01*
X8826215Y-12276274D02*
X8835739Y-12238179D01*
X8835739Y-12238179D02*
X8845263Y-12219131D01*
X8845263Y-12219131D02*
X8854787Y-12209608D01*
X8854787Y-12209608D02*
X8873834Y-12200084D01*
X9026215Y-12381036D02*
X9035739Y-12390560D01*
X9035739Y-12390560D02*
X9026215Y-12400084D01*
X9026215Y-12400084D02*
X9016691Y-12390560D01*
X9016691Y-12390560D02*
X9026215Y-12381036D01*
X9026215Y-12381036D02*
X9026215Y-12400084D01*
X9226215Y-12400084D02*
X9111929Y-12400084D01*
X9169072Y-12400084D02*
X9169072Y-12200084D01*
X9169072Y-12200084D02*
X9150025Y-12228655D01*
X9150025Y-12228655D02*
X9130977Y-12247703D01*
X9130977Y-12247703D02*
X9111929Y-12257227D01*
X9416691Y-12400084D02*
X9302406Y-12400084D01*
X9359548Y-12400084D02*
X9359548Y-12200084D01*
X9359548Y-12200084D02*
X9340501Y-12228655D01*
X9340501Y-12228655D02*
X9321453Y-12247703D01*
X9321453Y-12247703D02*
X9302406Y-12257227D01*
X9588120Y-12200084D02*
X9550025Y-12200084D01*
X9550025Y-12200084D02*
X9530977Y-12209608D01*
X9530977Y-12209608D02*
X9521453Y-12219131D01*
X9521453Y-12219131D02*
X9502406Y-12247703D01*
X9502406Y-12247703D02*
X9492882Y-12285798D01*
X9492882Y-12285798D02*
X9492882Y-12361988D01*
X9492882Y-12361988D02*
X9502406Y-12381036D01*
X9502406Y-12381036D02*
X9511929Y-12390560D01*
X9511929Y-12390560D02*
X9530977Y-12400084D01*
X9530977Y-12400084D02*
X9569072Y-12400084D01*
X9569072Y-12400084D02*
X9588120Y-12390560D01*
X9588120Y-12390560D02*
X9597644Y-12381036D01*
X9597644Y-12381036D02*
X9607168Y-12361988D01*
X9607168Y-12361988D02*
X9607168Y-12314369D01*
X9607168Y-12314369D02*
X9597644Y-12295322D01*
X9597644Y-12295322D02*
X9588120Y-12285798D01*
X9588120Y-12285798D02*
X9569072Y-12276274D01*
X9569072Y-12276274D02*
X9530977Y-12276274D01*
X9530977Y-12276274D02*
X9511929Y-12285798D01*
X9511929Y-12285798D02*
X9502406Y-12295322D01*
X9502406Y-12295322D02*
X9492882Y-12314369D01*
X9730977Y-12200084D02*
X9750025Y-12200084D01*
X9750025Y-12200084D02*
X9769072Y-12209608D01*
X9769072Y-12209608D02*
X9778596Y-12219131D01*
X9778596Y-12219131D02*
X9788120Y-12238179D01*
X9788120Y-12238179D02*
X9797644Y-12276274D01*
X9797644Y-12276274D02*
X9797644Y-12323893D01*
X9797644Y-12323893D02*
X9788120Y-12361988D01*
X9788120Y-12361988D02*
X9778596Y-12381036D01*
X9778596Y-12381036D02*
X9769072Y-12390560D01*
X9769072Y-12390560D02*
X9750025Y-12400084D01*
X9750025Y-12400084D02*
X9730977Y-12400084D01*
X9730977Y-12400084D02*
X9711929Y-12390560D01*
X9711929Y-12390560D02*
X9702406Y-12381036D01*
X9702406Y-12381036D02*
X9692882Y-12361988D01*
X9692882Y-12361988D02*
X9683358Y-12323893D01*
X9683358Y-12323893D02*
X9683358Y-12276274D01*
X9683358Y-12276274D02*
X9692882Y-12238179D01*
X9692882Y-12238179D02*
X9702406Y-12219131D01*
X9702406Y-12219131D02*
X9711929Y-12209608D01*
X9711929Y-12209608D02*
X9730977Y-12200084D01*
X9873834Y-12200084D02*
X9873834Y-12238179D01*
X9950025Y-12200084D02*
X9950025Y-12238179D01*
X10245263Y-12476274D02*
X10235739Y-12466750D01*
X10235739Y-12466750D02*
X10216691Y-12438179D01*
X10216691Y-12438179D02*
X10207168Y-12419131D01*
X10207168Y-12419131D02*
X10197644Y-12390560D01*
X10197644Y-12390560D02*
X10188120Y-12342941D01*
X10188120Y-12342941D02*
X10188120Y-12304846D01*
X10188120Y-12304846D02*
X10197644Y-12257227D01*
X10197644Y-12257227D02*
X10207168Y-12228655D01*
X10207168Y-12228655D02*
X10216691Y-12209608D01*
X10216691Y-12209608D02*
X10235739Y-12181036D01*
X10235739Y-12181036D02*
X10245263Y-12171512D01*
X10407168Y-12266750D02*
X10407168Y-12400084D01*
X10359549Y-12190560D02*
X10311930Y-12333417D01*
X10311930Y-12333417D02*
X10435739Y-12333417D01*
X10664311Y-12400084D02*
X10664311Y-12200084D01*
X10750025Y-12400084D02*
X10750025Y-12295322D01*
X10750025Y-12295322D02*
X10740501Y-12276274D01*
X10740501Y-12276274D02*
X10721453Y-12266750D01*
X10721453Y-12266750D02*
X10692882Y-12266750D01*
X10692882Y-12266750D02*
X10673834Y-12276274D01*
X10673834Y-12276274D02*
X10664311Y-12285798D01*
X10873834Y-12400084D02*
X10854787Y-12390560D01*
X10854787Y-12390560D02*
X10845263Y-12381036D01*
X10845263Y-12381036D02*
X10835739Y-12361988D01*
X10835739Y-12361988D02*
X10835739Y-12304846D01*
X10835739Y-12304846D02*
X10845263Y-12285798D01*
X10845263Y-12285798D02*
X10854787Y-12276274D01*
X10854787Y-12276274D02*
X10873834Y-12266750D01*
X10873834Y-12266750D02*
X10902406Y-12266750D01*
X10902406Y-12266750D02*
X10921453Y-12276274D01*
X10921453Y-12276274D02*
X10930977Y-12285798D01*
X10930977Y-12285798D02*
X10940501Y-12304846D01*
X10940501Y-12304846D02*
X10940501Y-12361988D01*
X10940501Y-12361988D02*
X10930977Y-12381036D01*
X10930977Y-12381036D02*
X10921453Y-12390560D01*
X10921453Y-12390560D02*
X10902406Y-12400084D01*
X10902406Y-12400084D02*
X10873834Y-12400084D01*
X11054787Y-12400084D02*
X11035739Y-12390560D01*
X11035739Y-12390560D02*
X11026215Y-12371512D01*
X11026215Y-12371512D02*
X11026215Y-12200084D01*
X11207168Y-12390560D02*
X11188120Y-12400084D01*
X11188120Y-12400084D02*
X11150025Y-12400084D01*
X11150025Y-12400084D02*
X11130977Y-12390560D01*
X11130977Y-12390560D02*
X11121453Y-12371512D01*
X11121453Y-12371512D02*
X11121453Y-12295322D01*
X11121453Y-12295322D02*
X11130977Y-12276274D01*
X11130977Y-12276274D02*
X11150025Y-12266750D01*
X11150025Y-12266750D02*
X11188120Y-12266750D01*
X11188120Y-12266750D02*
X11207168Y-12276274D01*
X11207168Y-12276274D02*
X11216691Y-12295322D01*
X11216691Y-12295322D02*
X11216691Y-12314369D01*
X11216691Y-12314369D02*
X11121453Y-12333417D01*
X11292882Y-12390560D02*
X11311930Y-12400084D01*
X11311930Y-12400084D02*
X11350025Y-12400084D01*
X11350025Y-12400084D02*
X11369072Y-12390560D01*
X11369072Y-12390560D02*
X11378596Y-12371512D01*
X11378596Y-12371512D02*
X11378596Y-12361988D01*
X11378596Y-12361988D02*
X11369072Y-12342941D01*
X11369072Y-12342941D02*
X11350025Y-12333417D01*
X11350025Y-12333417D02*
X11321453Y-12333417D01*
X11321453Y-12333417D02*
X11302406Y-12323893D01*
X11302406Y-12323893D02*
X11292882Y-12304846D01*
X11292882Y-12304846D02*
X11292882Y-12295322D01*
X11292882Y-12295322D02*
X11302406Y-12276274D01*
X11302406Y-12276274D02*
X11321453Y-12266750D01*
X11321453Y-12266750D02*
X11350025Y-12266750D01*
X11350025Y-12266750D02*
X11369072Y-12276274D01*
X11445263Y-12476274D02*
X11454787Y-12466750D01*
X11454787Y-12466750D02*
X11473834Y-12438179D01*
X11473834Y-12438179D02*
X11483358Y-12419131D01*
X11483358Y-12419131D02*
X11492882Y-12390560D01*
X11492882Y-12390560D02*
X11502406Y-12342941D01*
X11502406Y-12342941D02*
X11502406Y-12304846D01*
X11502406Y-12304846D02*
X11492882Y-12257227D01*
X11492882Y-12257227D02*
X11483358Y-12228655D01*
X11483358Y-12228655D02*
X11473834Y-12209608D01*
X11473834Y-12209608D02*
X11454787Y-12181036D01*
X11454787Y-12181036D02*
X11445263Y-12171512D01*
X11807168Y-12476274D02*
X11797644Y-12466750D01*
X11797644Y-12466750D02*
X11778596Y-12438179D01*
X11778596Y-12438179D02*
X11769072Y-12419131D01*
X11769072Y-12419131D02*
X11759549Y-12390560D01*
X11759549Y-12390560D02*
X11750025Y-12342941D01*
X11750025Y-12342941D02*
X11750025Y-12304846D01*
X11750025Y-12304846D02*
X11759549Y-12257227D01*
X11759549Y-12257227D02*
X11769072Y-12228655D01*
X11769072Y-12228655D02*
X11778596Y-12209608D01*
X11778596Y-12209608D02*
X11797644Y-12181036D01*
X11797644Y-12181036D02*
X11807168Y-12171512D01*
X11883358Y-12266750D02*
X11883358Y-12400084D01*
X11883358Y-12285798D02*
X11892882Y-12276274D01*
X11892882Y-12276274D02*
X11911930Y-12266750D01*
X11911930Y-12266750D02*
X11940501Y-12266750D01*
X11940501Y-12266750D02*
X11959549Y-12276274D01*
X11959549Y-12276274D02*
X11969072Y-12295322D01*
X11969072Y-12295322D02*
X11969072Y-12400084D01*
X12092882Y-12400084D02*
X12073834Y-12390560D01*
X12073834Y-12390560D02*
X12064311Y-12381036D01*
X12064311Y-12381036D02*
X12054787Y-12361988D01*
X12054787Y-12361988D02*
X12054787Y-12304846D01*
X12054787Y-12304846D02*
X12064311Y-12285798D01*
X12064311Y-12285798D02*
X12073834Y-12276274D01*
X12073834Y-12276274D02*
X12092882Y-12266750D01*
X12092882Y-12266750D02*
X12121453Y-12266750D01*
X12121453Y-12266750D02*
X12140501Y-12276274D01*
X12140501Y-12276274D02*
X12150025Y-12285798D01*
X12150025Y-12285798D02*
X12159549Y-12304846D01*
X12159549Y-12304846D02*
X12159549Y-12361988D01*
X12159549Y-12361988D02*
X12150025Y-12381036D01*
X12150025Y-12381036D02*
X12140501Y-12390560D01*
X12140501Y-12390560D02*
X12121453Y-12400084D01*
X12121453Y-12400084D02*
X12092882Y-12400084D01*
X12216692Y-12266750D02*
X12292882Y-12266750D01*
X12245263Y-12200084D02*
X12245263Y-12371512D01*
X12245263Y-12371512D02*
X12254787Y-12390560D01*
X12254787Y-12390560D02*
X12273834Y-12400084D01*
X12273834Y-12400084D02*
X12292882Y-12400084D01*
X12511930Y-12266750D02*
X12511930Y-12466750D01*
X12511930Y-12276274D02*
X12530977Y-12266750D01*
X12530977Y-12266750D02*
X12569073Y-12266750D01*
X12569073Y-12266750D02*
X12588120Y-12276274D01*
X12588120Y-12276274D02*
X12597644Y-12285798D01*
X12597644Y-12285798D02*
X12607168Y-12304846D01*
X12607168Y-12304846D02*
X12607168Y-12361988D01*
X12607168Y-12361988D02*
X12597644Y-12381036D01*
X12597644Y-12381036D02*
X12588120Y-12390560D01*
X12588120Y-12390560D02*
X12569073Y-12400084D01*
X12569073Y-12400084D02*
X12530977Y-12400084D01*
X12530977Y-12400084D02*
X12511930Y-12390560D01*
X12721453Y-12400084D02*
X12702406Y-12390560D01*
X12702406Y-12390560D02*
X12692882Y-12371512D01*
X12692882Y-12371512D02*
X12692882Y-12200084D01*
X12883358Y-12400084D02*
X12883358Y-12295322D01*
X12883358Y-12295322D02*
X12873834Y-12276274D01*
X12873834Y-12276274D02*
X12854787Y-12266750D01*
X12854787Y-12266750D02*
X12816692Y-12266750D01*
X12816692Y-12266750D02*
X12797644Y-12276274D01*
X12883358Y-12390560D02*
X12864311Y-12400084D01*
X12864311Y-12400084D02*
X12816692Y-12400084D01*
X12816692Y-12400084D02*
X12797644Y-12390560D01*
X12797644Y-12390560D02*
X12788120Y-12371512D01*
X12788120Y-12371512D02*
X12788120Y-12352465D01*
X12788120Y-12352465D02*
X12797644Y-12333417D01*
X12797644Y-12333417D02*
X12816692Y-12323893D01*
X12816692Y-12323893D02*
X12864311Y-12323893D01*
X12864311Y-12323893D02*
X12883358Y-12314369D01*
X12950025Y-12266750D02*
X13026215Y-12266750D01*
X12978596Y-12200084D02*
X12978596Y-12371512D01*
X12978596Y-12371512D02*
X12988120Y-12390560D01*
X12988120Y-12390560D02*
X13007168Y-12400084D01*
X13007168Y-12400084D02*
X13026215Y-12400084D01*
X13169073Y-12390560D02*
X13150025Y-12400084D01*
X13150025Y-12400084D02*
X13111930Y-12400084D01*
X13111930Y-12400084D02*
X13092882Y-12390560D01*
X13092882Y-12390560D02*
X13083358Y-12371512D01*
X13083358Y-12371512D02*
X13083358Y-12295322D01*
X13083358Y-12295322D02*
X13092882Y-12276274D01*
X13092882Y-12276274D02*
X13111930Y-12266750D01*
X13111930Y-12266750D02*
X13150025Y-12266750D01*
X13150025Y-12266750D02*
X13169073Y-12276274D01*
X13169073Y-12276274D02*
X13178596Y-12295322D01*
X13178596Y-12295322D02*
X13178596Y-12314369D01*
X13178596Y-12314369D02*
X13083358Y-12333417D01*
X13350025Y-12400084D02*
X13350025Y-12200084D01*
X13350025Y-12390560D02*
X13330977Y-12400084D01*
X13330977Y-12400084D02*
X13292882Y-12400084D01*
X13292882Y-12400084D02*
X13273834Y-12390560D01*
X13273834Y-12390560D02*
X13264311Y-12381036D01*
X13264311Y-12381036D02*
X13254787Y-12361988D01*
X13254787Y-12361988D02*
X13254787Y-12304846D01*
X13254787Y-12304846D02*
X13264311Y-12285798D01*
X13264311Y-12285798D02*
X13273834Y-12276274D01*
X13273834Y-12276274D02*
X13292882Y-12266750D01*
X13292882Y-12266750D02*
X13330977Y-12266750D01*
X13330977Y-12266750D02*
X13350025Y-12276274D01*
X13426215Y-12476274D02*
X13435739Y-12466750D01*
X13435739Y-12466750D02*
X13454787Y-12438179D01*
X13454787Y-12438179D02*
X13464311Y-12419131D01*
X13464311Y-12419131D02*
X13473834Y-12390560D01*
X13473834Y-12390560D02*
X13483358Y-12342941D01*
X13483358Y-12342941D02*
X13483358Y-12304846D01*
X13483358Y-12304846D02*
X13473834Y-12257227D01*
X13473834Y-12257227D02*
X13464311Y-12228655D01*
X13464311Y-12228655D02*
X13454787Y-12209608D01*
X13454787Y-12209608D02*
X13435739Y-12181036D01*
X13435739Y-12181036D02*
X13426215Y-12171512D01*
X6670200Y-12628600D02*
G75*
G03*
X6670200Y-12628600I-100000J0D01*
G01*
X6911929Y-12520084D02*
X7035739Y-12520084D01*
X7035739Y-12520084D02*
X6969072Y-12596274D01*
X6969072Y-12596274D02*
X6997643Y-12596274D01*
X6997643Y-12596274D02*
X7016691Y-12605798D01*
X7016691Y-12605798D02*
X7026215Y-12615322D01*
X7026215Y-12615322D02*
X7035739Y-12634369D01*
X7035739Y-12634369D02*
X7035739Y-12681988D01*
X7035739Y-12681988D02*
X7026215Y-12701036D01*
X7026215Y-12701036D02*
X7016691Y-12710560D01*
X7016691Y-12710560D02*
X6997643Y-12720084D01*
X6997643Y-12720084D02*
X6940501Y-12720084D01*
X6940501Y-12720084D02*
X6921453Y-12710560D01*
X6921453Y-12710560D02*
X6911929Y-12701036D01*
X7121453Y-12701036D02*
X7130977Y-12710560D01*
X7130977Y-12710560D02*
X7121453Y-12720084D01*
X7121453Y-12720084D02*
X7111929Y-12710560D01*
X7111929Y-12710560D02*
X7121453Y-12701036D01*
X7121453Y-12701036D02*
X7121453Y-12720084D01*
X7302405Y-12586750D02*
X7302405Y-12720084D01*
X7254786Y-12510560D02*
X7207167Y-12653417D01*
X7207167Y-12653417D02*
X7330977Y-12653417D01*
X7502405Y-12520084D02*
X7407167Y-12520084D01*
X7407167Y-12520084D02*
X7397643Y-12615322D01*
X7397643Y-12615322D02*
X7407167Y-12605798D01*
X7407167Y-12605798D02*
X7426215Y-12596274D01*
X7426215Y-12596274D02*
X7473834Y-12596274D01*
X7473834Y-12596274D02*
X7492882Y-12605798D01*
X7492882Y-12605798D02*
X7502405Y-12615322D01*
X7502405Y-12615322D02*
X7511929Y-12634369D01*
X7511929Y-12634369D02*
X7511929Y-12681988D01*
X7511929Y-12681988D02*
X7502405Y-12701036D01*
X7502405Y-12701036D02*
X7492882Y-12710560D01*
X7492882Y-12710560D02*
X7473834Y-12720084D01*
X7473834Y-12720084D02*
X7426215Y-12720084D01*
X7426215Y-12720084D02*
X7407167Y-12710560D01*
X7407167Y-12710560D02*
X7397643Y-12701036D01*
X7635739Y-12520084D02*
X7654786Y-12520084D01*
X7654786Y-12520084D02*
X7673834Y-12529608D01*
X7673834Y-12529608D02*
X7683358Y-12539131D01*
X7683358Y-12539131D02*
X7692882Y-12558179D01*
X7692882Y-12558179D02*
X7702405Y-12596274D01*
X7702405Y-12596274D02*
X7702405Y-12643893D01*
X7702405Y-12643893D02*
X7692882Y-12681988D01*
X7692882Y-12681988D02*
X7683358Y-12701036D01*
X7683358Y-12701036D02*
X7673834Y-12710560D01*
X7673834Y-12710560D02*
X7654786Y-12720084D01*
X7654786Y-12720084D02*
X7635739Y-12720084D01*
X7635739Y-12720084D02*
X7616691Y-12710560D01*
X7616691Y-12710560D02*
X7607167Y-12701036D01*
X7607167Y-12701036D02*
X7597643Y-12681988D01*
X7597643Y-12681988D02*
X7588120Y-12643893D01*
X7588120Y-12643893D02*
X7588120Y-12596274D01*
X7588120Y-12596274D02*
X7597643Y-12558179D01*
X7597643Y-12558179D02*
X7607167Y-12539131D01*
X7607167Y-12539131D02*
X7616691Y-12529608D01*
X7616691Y-12529608D02*
X7635739Y-12520084D01*
X7788120Y-12720084D02*
X7788120Y-12586750D01*
X7788120Y-12605798D02*
X7797643Y-12596274D01*
X7797643Y-12596274D02*
X7816691Y-12586750D01*
X7816691Y-12586750D02*
X7845263Y-12586750D01*
X7845263Y-12586750D02*
X7864310Y-12596274D01*
X7864310Y-12596274D02*
X7873834Y-12615322D01*
X7873834Y-12615322D02*
X7873834Y-12720084D01*
X7873834Y-12615322D02*
X7883358Y-12596274D01*
X7883358Y-12596274D02*
X7902405Y-12586750D01*
X7902405Y-12586750D02*
X7930977Y-12586750D01*
X7930977Y-12586750D02*
X7950024Y-12596274D01*
X7950024Y-12596274D02*
X7959548Y-12615322D01*
X7959548Y-12615322D02*
X7959548Y-12720084D01*
X8054786Y-12720084D02*
X8054786Y-12586750D01*
X8054786Y-12605798D02*
X8064310Y-12596274D01*
X8064310Y-12596274D02*
X8083358Y-12586750D01*
X8083358Y-12586750D02*
X8111929Y-12586750D01*
X8111929Y-12586750D02*
X8130977Y-12596274D01*
X8130977Y-12596274D02*
X8140501Y-12615322D01*
X8140501Y-12615322D02*
X8140501Y-12720084D01*
X8140501Y-12615322D02*
X8150024Y-12596274D01*
X8150024Y-12596274D02*
X8169072Y-12586750D01*
X8169072Y-12586750D02*
X8197643Y-12586750D01*
X8197643Y-12586750D02*
X8216691Y-12596274D01*
X8216691Y-12596274D02*
X8226215Y-12615322D01*
X8226215Y-12615322D02*
X8226215Y-12720084D01*
X8616691Y-12510560D02*
X8445263Y-12767703D01*
X8873834Y-12520084D02*
X8892882Y-12520084D01*
X8892882Y-12520084D02*
X8911929Y-12529608D01*
X8911929Y-12529608D02*
X8921453Y-12539131D01*
X8921453Y-12539131D02*
X8930977Y-12558179D01*
X8930977Y-12558179D02*
X8940501Y-12596274D01*
X8940501Y-12596274D02*
X8940501Y-12643893D01*
X8940501Y-12643893D02*
X8930977Y-12681988D01*
X8930977Y-12681988D02*
X8921453Y-12701036D01*
X8921453Y-12701036D02*
X8911929Y-12710560D01*
X8911929Y-12710560D02*
X8892882Y-12720084D01*
X8892882Y-12720084D02*
X8873834Y-12720084D01*
X8873834Y-12720084D02*
X8854787Y-12710560D01*
X8854787Y-12710560D02*
X8845263Y-12701036D01*
X8845263Y-12701036D02*
X8835739Y-12681988D01*
X8835739Y-12681988D02*
X8826215Y-12643893D01*
X8826215Y-12643893D02*
X8826215Y-12596274D01*
X8826215Y-12596274D02*
X8835739Y-12558179D01*
X8835739Y-12558179D02*
X8845263Y-12539131D01*
X8845263Y-12539131D02*
X8854787Y-12529608D01*
X8854787Y-12529608D02*
X8873834Y-12520084D01*
X9026215Y-12701036D02*
X9035739Y-12710560D01*
X9035739Y-12710560D02*
X9026215Y-12720084D01*
X9026215Y-12720084D02*
X9016691Y-12710560D01*
X9016691Y-12710560D02*
X9026215Y-12701036D01*
X9026215Y-12701036D02*
X9026215Y-12720084D01*
X9226215Y-12720084D02*
X9111929Y-12720084D01*
X9169072Y-12720084D02*
X9169072Y-12520084D01*
X9169072Y-12520084D02*
X9150025Y-12548655D01*
X9150025Y-12548655D02*
X9130977Y-12567703D01*
X9130977Y-12567703D02*
X9111929Y-12577227D01*
X9292882Y-12520084D02*
X9416691Y-12520084D01*
X9416691Y-12520084D02*
X9350025Y-12596274D01*
X9350025Y-12596274D02*
X9378596Y-12596274D01*
X9378596Y-12596274D02*
X9397644Y-12605798D01*
X9397644Y-12605798D02*
X9407168Y-12615322D01*
X9407168Y-12615322D02*
X9416691Y-12634369D01*
X9416691Y-12634369D02*
X9416691Y-12681988D01*
X9416691Y-12681988D02*
X9407168Y-12701036D01*
X9407168Y-12701036D02*
X9397644Y-12710560D01*
X9397644Y-12710560D02*
X9378596Y-12720084D01*
X9378596Y-12720084D02*
X9321453Y-12720084D01*
X9321453Y-12720084D02*
X9302406Y-12710560D01*
X9302406Y-12710560D02*
X9292882Y-12701036D01*
X9597644Y-12520084D02*
X9502406Y-12520084D01*
X9502406Y-12520084D02*
X9492882Y-12615322D01*
X9492882Y-12615322D02*
X9502406Y-12605798D01*
X9502406Y-12605798D02*
X9521453Y-12596274D01*
X9521453Y-12596274D02*
X9569072Y-12596274D01*
X9569072Y-12596274D02*
X9588120Y-12605798D01*
X9588120Y-12605798D02*
X9597644Y-12615322D01*
X9597644Y-12615322D02*
X9607168Y-12634369D01*
X9607168Y-12634369D02*
X9607168Y-12681988D01*
X9607168Y-12681988D02*
X9597644Y-12701036D01*
X9597644Y-12701036D02*
X9588120Y-12710560D01*
X9588120Y-12710560D02*
X9569072Y-12720084D01*
X9569072Y-12720084D02*
X9521453Y-12720084D01*
X9521453Y-12720084D02*
X9502406Y-12710560D01*
X9502406Y-12710560D02*
X9492882Y-12701036D01*
X9721453Y-12605798D02*
X9702406Y-12596274D01*
X9702406Y-12596274D02*
X9692882Y-12586750D01*
X9692882Y-12586750D02*
X9683358Y-12567703D01*
X9683358Y-12567703D02*
X9683358Y-12558179D01*
X9683358Y-12558179D02*
X9692882Y-12539131D01*
X9692882Y-12539131D02*
X9702406Y-12529608D01*
X9702406Y-12529608D02*
X9721453Y-12520084D01*
X9721453Y-12520084D02*
X9759549Y-12520084D01*
X9759549Y-12520084D02*
X9778596Y-12529608D01*
X9778596Y-12529608D02*
X9788120Y-12539131D01*
X9788120Y-12539131D02*
X9797644Y-12558179D01*
X9797644Y-12558179D02*
X9797644Y-12567703D01*
X9797644Y-12567703D02*
X9788120Y-12586750D01*
X9788120Y-12586750D02*
X9778596Y-12596274D01*
X9778596Y-12596274D02*
X9759549Y-12605798D01*
X9759549Y-12605798D02*
X9721453Y-12605798D01*
X9721453Y-12605798D02*
X9702406Y-12615322D01*
X9702406Y-12615322D02*
X9692882Y-12624846D01*
X9692882Y-12624846D02*
X9683358Y-12643893D01*
X9683358Y-12643893D02*
X9683358Y-12681988D01*
X9683358Y-12681988D02*
X9692882Y-12701036D01*
X9692882Y-12701036D02*
X9702406Y-12710560D01*
X9702406Y-12710560D02*
X9721453Y-12720084D01*
X9721453Y-12720084D02*
X9759549Y-12720084D01*
X9759549Y-12720084D02*
X9778596Y-12710560D01*
X9778596Y-12710560D02*
X9788120Y-12701036D01*
X9788120Y-12701036D02*
X9797644Y-12681988D01*
X9797644Y-12681988D02*
X9797644Y-12643893D01*
X9797644Y-12643893D02*
X9788120Y-12624846D01*
X9788120Y-12624846D02*
X9778596Y-12615322D01*
X9778596Y-12615322D02*
X9759549Y-12605798D01*
X9873834Y-12520084D02*
X9873834Y-12558179D01*
X9950025Y-12520084D02*
X9950025Y-12558179D01*
X10245263Y-12796274D02*
X10235739Y-12786750D01*
X10235739Y-12786750D02*
X10216691Y-12758179D01*
X10216691Y-12758179D02*
X10207168Y-12739131D01*
X10207168Y-12739131D02*
X10197644Y-12710560D01*
X10197644Y-12710560D02*
X10188120Y-12662941D01*
X10188120Y-12662941D02*
X10188120Y-12624846D01*
X10188120Y-12624846D02*
X10197644Y-12577227D01*
X10197644Y-12577227D02*
X10207168Y-12548655D01*
X10207168Y-12548655D02*
X10216691Y-12529608D01*
X10216691Y-12529608D02*
X10235739Y-12501036D01*
X10235739Y-12501036D02*
X10245263Y-12491512D01*
X10426215Y-12720084D02*
X10311930Y-12720084D01*
X10369072Y-12720084D02*
X10369072Y-12520084D01*
X10369072Y-12520084D02*
X10350025Y-12548655D01*
X10350025Y-12548655D02*
X10330977Y-12567703D01*
X10330977Y-12567703D02*
X10311930Y-12577227D01*
X10550025Y-12520084D02*
X10569072Y-12520084D01*
X10569072Y-12520084D02*
X10588120Y-12529608D01*
X10588120Y-12529608D02*
X10597644Y-12539131D01*
X10597644Y-12539131D02*
X10607168Y-12558179D01*
X10607168Y-12558179D02*
X10616691Y-12596274D01*
X10616691Y-12596274D02*
X10616691Y-12643893D01*
X10616691Y-12643893D02*
X10607168Y-12681988D01*
X10607168Y-12681988D02*
X10597644Y-12701036D01*
X10597644Y-12701036D02*
X10588120Y-12710560D01*
X10588120Y-12710560D02*
X10569072Y-12720084D01*
X10569072Y-12720084D02*
X10550025Y-12720084D01*
X10550025Y-12720084D02*
X10530977Y-12710560D01*
X10530977Y-12710560D02*
X10521453Y-12701036D01*
X10521453Y-12701036D02*
X10511930Y-12681988D01*
X10511930Y-12681988D02*
X10502406Y-12643893D01*
X10502406Y-12643893D02*
X10502406Y-12596274D01*
X10502406Y-12596274D02*
X10511930Y-12558179D01*
X10511930Y-12558179D02*
X10521453Y-12539131D01*
X10521453Y-12539131D02*
X10530977Y-12529608D01*
X10530977Y-12529608D02*
X10550025Y-12520084D01*
X10854787Y-12720084D02*
X10854787Y-12520084D01*
X10940501Y-12720084D02*
X10940501Y-12615322D01*
X10940501Y-12615322D02*
X10930977Y-12596274D01*
X10930977Y-12596274D02*
X10911930Y-12586750D01*
X10911930Y-12586750D02*
X10883358Y-12586750D01*
X10883358Y-12586750D02*
X10864311Y-12596274D01*
X10864311Y-12596274D02*
X10854787Y-12605798D01*
X11064311Y-12720084D02*
X11045263Y-12710560D01*
X11045263Y-12710560D02*
X11035739Y-12701036D01*
X11035739Y-12701036D02*
X11026215Y-12681988D01*
X11026215Y-12681988D02*
X11026215Y-12624846D01*
X11026215Y-12624846D02*
X11035739Y-12605798D01*
X11035739Y-12605798D02*
X11045263Y-12596274D01*
X11045263Y-12596274D02*
X11064311Y-12586750D01*
X11064311Y-12586750D02*
X11092882Y-12586750D01*
X11092882Y-12586750D02*
X11111930Y-12596274D01*
X11111930Y-12596274D02*
X11121453Y-12605798D01*
X11121453Y-12605798D02*
X11130977Y-12624846D01*
X11130977Y-12624846D02*
X11130977Y-12681988D01*
X11130977Y-12681988D02*
X11121453Y-12701036D01*
X11121453Y-12701036D02*
X11111930Y-12710560D01*
X11111930Y-12710560D02*
X11092882Y-12720084D01*
X11092882Y-12720084D02*
X11064311Y-12720084D01*
X11245263Y-12720084D02*
X11226215Y-12710560D01*
X11226215Y-12710560D02*
X11216691Y-12691512D01*
X11216691Y-12691512D02*
X11216691Y-12520084D01*
X11397644Y-12710560D02*
X11378596Y-12720084D01*
X11378596Y-12720084D02*
X11340501Y-12720084D01*
X11340501Y-12720084D02*
X11321453Y-12710560D01*
X11321453Y-12710560D02*
X11311930Y-12691512D01*
X11311930Y-12691512D02*
X11311930Y-12615322D01*
X11311930Y-12615322D02*
X11321453Y-12596274D01*
X11321453Y-12596274D02*
X11340501Y-12586750D01*
X11340501Y-12586750D02*
X11378596Y-12586750D01*
X11378596Y-12586750D02*
X11397644Y-12596274D01*
X11397644Y-12596274D02*
X11407168Y-12615322D01*
X11407168Y-12615322D02*
X11407168Y-12634369D01*
X11407168Y-12634369D02*
X11311930Y-12653417D01*
X11483358Y-12710560D02*
X11502406Y-12720084D01*
X11502406Y-12720084D02*
X11540501Y-12720084D01*
X11540501Y-12720084D02*
X11559549Y-12710560D01*
X11559549Y-12710560D02*
X11569072Y-12691512D01*
X11569072Y-12691512D02*
X11569072Y-12681988D01*
X11569072Y-12681988D02*
X11559549Y-12662941D01*
X11559549Y-12662941D02*
X11540501Y-12653417D01*
X11540501Y-12653417D02*
X11511930Y-12653417D01*
X11511930Y-12653417D02*
X11492882Y-12643893D01*
X11492882Y-12643893D02*
X11483358Y-12624846D01*
X11483358Y-12624846D02*
X11483358Y-12615322D01*
X11483358Y-12615322D02*
X11492882Y-12596274D01*
X11492882Y-12596274D02*
X11511930Y-12586750D01*
X11511930Y-12586750D02*
X11540501Y-12586750D01*
X11540501Y-12586750D02*
X11559549Y-12596274D01*
X11635739Y-12796274D02*
X11645263Y-12786750D01*
X11645263Y-12786750D02*
X11664311Y-12758179D01*
X11664311Y-12758179D02*
X11673834Y-12739131D01*
X11673834Y-12739131D02*
X11683358Y-12710560D01*
X11683358Y-12710560D02*
X11692882Y-12662941D01*
X11692882Y-12662941D02*
X11692882Y-12624846D01*
X11692882Y-12624846D02*
X11683358Y-12577227D01*
X11683358Y-12577227D02*
X11673834Y-12548655D01*
X11673834Y-12548655D02*
X11664311Y-12529608D01*
X11664311Y-12529608D02*
X11645263Y-12501036D01*
X11645263Y-12501036D02*
X11635739Y-12491512D01*
X11997644Y-12796274D02*
X11988120Y-12786750D01*
X11988120Y-12786750D02*
X11969072Y-12758179D01*
X11969072Y-12758179D02*
X11959549Y-12739131D01*
X11959549Y-12739131D02*
X11950025Y-12710560D01*
X11950025Y-12710560D02*
X11940501Y-12662941D01*
X11940501Y-12662941D02*
X11940501Y-12624846D01*
X11940501Y-12624846D02*
X11950025Y-12577227D01*
X11950025Y-12577227D02*
X11959549Y-12548655D01*
X11959549Y-12548655D02*
X11969072Y-12529608D01*
X11969072Y-12529608D02*
X11988120Y-12501036D01*
X11988120Y-12501036D02*
X11997644Y-12491512D01*
X12073834Y-12586750D02*
X12073834Y-12720084D01*
X12073834Y-12605798D02*
X12083358Y-12596274D01*
X12083358Y-12596274D02*
X12102406Y-12586750D01*
X12102406Y-12586750D02*
X12130977Y-12586750D01*
X12130977Y-12586750D02*
X12150025Y-12596274D01*
X12150025Y-12596274D02*
X12159549Y-12615322D01*
X12159549Y-12615322D02*
X12159549Y-12720084D01*
X12283358Y-12720084D02*
X12264311Y-12710560D01*
X12264311Y-12710560D02*
X12254787Y-12701036D01*
X12254787Y-12701036D02*
X12245263Y-12681988D01*
X12245263Y-12681988D02*
X12245263Y-12624846D01*
X12245263Y-12624846D02*
X12254787Y-12605798D01*
X12254787Y-12605798D02*
X12264311Y-12596274D01*
X12264311Y-12596274D02*
X12283358Y-12586750D01*
X12283358Y-12586750D02*
X12311930Y-12586750D01*
X12311930Y-12586750D02*
X12330977Y-12596274D01*
X12330977Y-12596274D02*
X12340501Y-12605798D01*
X12340501Y-12605798D02*
X12350025Y-12624846D01*
X12350025Y-12624846D02*
X12350025Y-12681988D01*
X12350025Y-12681988D02*
X12340501Y-12701036D01*
X12340501Y-12701036D02*
X12330977Y-12710560D01*
X12330977Y-12710560D02*
X12311930Y-12720084D01*
X12311930Y-12720084D02*
X12283358Y-12720084D01*
X12407168Y-12586750D02*
X12483358Y-12586750D01*
X12435739Y-12520084D02*
X12435739Y-12691512D01*
X12435739Y-12691512D02*
X12445263Y-12710560D01*
X12445263Y-12710560D02*
X12464311Y-12720084D01*
X12464311Y-12720084D02*
X12483358Y-12720084D01*
X12702406Y-12586750D02*
X12702406Y-12786750D01*
X12702406Y-12596274D02*
X12721453Y-12586750D01*
X12721453Y-12586750D02*
X12759549Y-12586750D01*
X12759549Y-12586750D02*
X12778596Y-12596274D01*
X12778596Y-12596274D02*
X12788120Y-12605798D01*
X12788120Y-12605798D02*
X12797644Y-12624846D01*
X12797644Y-12624846D02*
X12797644Y-12681988D01*
X12797644Y-12681988D02*
X12788120Y-12701036D01*
X12788120Y-12701036D02*
X12778596Y-12710560D01*
X12778596Y-12710560D02*
X12759549Y-12720084D01*
X12759549Y-12720084D02*
X12721453Y-12720084D01*
X12721453Y-12720084D02*
X12702406Y-12710560D01*
X12911930Y-12720084D02*
X12892882Y-12710560D01*
X12892882Y-12710560D02*
X12883358Y-12691512D01*
X12883358Y-12691512D02*
X12883358Y-12520084D01*
X13073834Y-12720084D02*
X13073834Y-12615322D01*
X13073834Y-12615322D02*
X13064311Y-12596274D01*
X13064311Y-12596274D02*
X13045263Y-12586750D01*
X13045263Y-12586750D02*
X13007168Y-12586750D01*
X13007168Y-12586750D02*
X12988120Y-12596274D01*
X13073834Y-12710560D02*
X13054787Y-12720084D01*
X13054787Y-12720084D02*
X13007168Y-12720084D01*
X13007168Y-12720084D02*
X12988120Y-12710560D01*
X12988120Y-12710560D02*
X12978596Y-12691512D01*
X12978596Y-12691512D02*
X12978596Y-12672465D01*
X12978596Y-12672465D02*
X12988120Y-12653417D01*
X12988120Y-12653417D02*
X13007168Y-12643893D01*
X13007168Y-12643893D02*
X13054787Y-12643893D01*
X13054787Y-12643893D02*
X13073834Y-12634369D01*
X13140501Y-12586750D02*
X13216692Y-12586750D01*
X13169073Y-12520084D02*
X13169073Y-12691512D01*
X13169073Y-12691512D02*
X13178596Y-12710560D01*
X13178596Y-12710560D02*
X13197644Y-12720084D01*
X13197644Y-12720084D02*
X13216692Y-12720084D01*
X13359549Y-12710560D02*
X13340501Y-12720084D01*
X13340501Y-12720084D02*
X13302406Y-12720084D01*
X13302406Y-12720084D02*
X13283358Y-12710560D01*
X13283358Y-12710560D02*
X13273834Y-12691512D01*
X13273834Y-12691512D02*
X13273834Y-12615322D01*
X13273834Y-12615322D02*
X13283358Y-12596274D01*
X13283358Y-12596274D02*
X13302406Y-12586750D01*
X13302406Y-12586750D02*
X13340501Y-12586750D01*
X13340501Y-12586750D02*
X13359549Y-12596274D01*
X13359549Y-12596274D02*
X13369073Y-12615322D01*
X13369073Y-12615322D02*
X13369073Y-12634369D01*
X13369073Y-12634369D02*
X13273834Y-12653417D01*
X13540501Y-12720084D02*
X13540501Y-12520084D01*
X13540501Y-12710560D02*
X13521454Y-12720084D01*
X13521454Y-12720084D02*
X13483358Y-12720084D01*
X13483358Y-12720084D02*
X13464311Y-12710560D01*
X13464311Y-12710560D02*
X13454787Y-12701036D01*
X13454787Y-12701036D02*
X13445263Y-12681988D01*
X13445263Y-12681988D02*
X13445263Y-12624846D01*
X13445263Y-12624846D02*
X13454787Y-12605798D01*
X13454787Y-12605798D02*
X13464311Y-12596274D01*
X13464311Y-12596274D02*
X13483358Y-12586750D01*
X13483358Y-12586750D02*
X13521454Y-12586750D01*
X13521454Y-12586750D02*
X13540501Y-12596274D01*
X13616692Y-12796274D02*
X13626215Y-12786750D01*
X13626215Y-12786750D02*
X13645263Y-12758179D01*
X13645263Y-12758179D02*
X13654787Y-12739131D01*
X13654787Y-12739131D02*
X13664311Y-12710560D01*
X13664311Y-12710560D02*
X13673834Y-12662941D01*
X13673834Y-12662941D02*
X13673834Y-12624846D01*
X13673834Y-12624846D02*
X13664311Y-12577227D01*
X13664311Y-12577227D02*
X13654787Y-12548655D01*
X13654787Y-12548655D02*
X13645263Y-12529608D01*
X13645263Y-12529608D02*
X13626215Y-12501036D01*
X13626215Y-12501036D02*
X13616692Y-12491512D01*
M02*
