%TF.GenerationSoftware,KiCad,Pcbnew,7.0.7*%
%TF.CreationDate,2023-11-07T19:48:23-06:00*%
%TF.ProjectId,CoreBoard_Rev1,436f7265-426f-4617-9264-5f526576312e,rev?*%
%TF.SameCoordinates,Original*%
%TF.FileFunction,Drillmap*%
%TF.FilePolarity,Positive*%
%FSLAX45Y45*%
G04 Gerber Fmt 4.5, Leading zero omitted, Abs format (unit mm)*
G04 Created by KiCad (PCBNEW 7.0.7) date 2023-11-07 19:48:23*
%MOMM*%
%LPD*%
G01*
G04 APERTURE LIST*
%ADD10C,0.200000*%
%ADD11C,0.040000*%
%ADD12C,0.070000*%
%ADD13C,0.080000*%
%ADD14C,0.088900*%
%ADD15C,0.090000*%
%ADD16C,0.102000*%
%ADD17C,0.150000*%
%ADD18C,0.160000*%
%ADD19C,0.325000*%
G04 APERTURE END LIST*
D10*
X19786600Y-11658600D02*
X7086600Y-11658600D01*
X19778632Y-3225800D02*
X7086600Y-3225800D01*
X20193000Y-11252200D02*
X20193000Y-3640168D01*
X20193000Y-3640168D02*
G75*
G03*
X19778632Y-3225800I-414370J-2D01*
G01*
X19786600Y-11658600D02*
G75*
G03*
X20193000Y-11252200I0J406400D01*
G01*
X7086600Y-3225800D02*
G75*
G03*
X6680200Y-3632200I0J-406400D01*
G01*
X6680200Y-11252200D02*
X6680200Y-3632200D01*
X6680200Y-11252200D02*
G75*
G03*
X7086600Y-11658600I406400J0D01*
G01*
D11*
X6952300Y-9314500D02*
X6992300Y-9354500D01*
X6992300Y-9314500D02*
X6952300Y-9354500D01*
X7523800Y-9314500D02*
X7563800Y-9354500D01*
X7563800Y-9314500D02*
X7523800Y-9354500D01*
X7854000Y-8323900D02*
X7894000Y-8363900D01*
X7894000Y-8323900D02*
X7854000Y-8363900D01*
X8235000Y-7727000D02*
X8275000Y-7767000D01*
X8275000Y-7727000D02*
X8235000Y-7767000D01*
X8908100Y-7981000D02*
X8948100Y-8021000D01*
X8948100Y-7981000D02*
X8908100Y-8021000D01*
X8946200Y-8743000D02*
X8986200Y-8783000D01*
X8986200Y-8743000D02*
X8946200Y-8783000D01*
X8971600Y-4247200D02*
X9011600Y-4287200D01*
X9011600Y-4247200D02*
X8971600Y-4287200D01*
X8971600Y-5314000D02*
X9011600Y-5354000D01*
X9011600Y-5314000D02*
X8971600Y-5354000D01*
X8997000Y-6355400D02*
X9037000Y-6395400D01*
X9037000Y-6355400D02*
X8997000Y-6395400D01*
X9708200Y-8184200D02*
X9748200Y-8224200D01*
X9748200Y-8184200D02*
X9708200Y-8224200D01*
X9733600Y-9327200D02*
X9773600Y-9367200D01*
X9773600Y-9327200D02*
X9733600Y-9367200D01*
X10165400Y-6536950D02*
X10205400Y-6576950D01*
X10205400Y-6536950D02*
X10165400Y-6576950D01*
X10165400Y-7142800D02*
X10205400Y-7182800D01*
X10205400Y-7142800D02*
X10165400Y-7182800D01*
X10521000Y-9416100D02*
X10561000Y-9456100D01*
X10561000Y-9416100D02*
X10521000Y-9456100D01*
X11333800Y-4247200D02*
X11373800Y-4287200D01*
X11373800Y-4247200D02*
X11333800Y-4287200D01*
X11333800Y-5314000D02*
X11373800Y-5354000D01*
X11373800Y-5314000D02*
X11333800Y-5354000D01*
X11333800Y-6355400D02*
X11373800Y-6395400D01*
X11373800Y-6355400D02*
X11333800Y-6395400D01*
X11371900Y-8679500D02*
X11411900Y-8719500D01*
X11411900Y-8679500D02*
X11371900Y-8719500D01*
X11451650Y-3586800D02*
X11491650Y-3626800D01*
X11491650Y-3586800D02*
X11451650Y-3626800D01*
X11587800Y-8870000D02*
X11627800Y-8910000D01*
X11627800Y-8870000D02*
X11587800Y-8910000D01*
X11717214Y-3852364D02*
X11757214Y-3892364D01*
X11757214Y-3852364D02*
X11717214Y-3892364D01*
X11795250Y-5673850D02*
X11835250Y-5713850D01*
X11835250Y-5673850D02*
X11795250Y-5713850D01*
X11795250Y-6406200D02*
X11835250Y-6446200D01*
X11835250Y-6406200D02*
X11795250Y-6446200D01*
X11867200Y-5825550D02*
X11907200Y-5865550D01*
X11907200Y-5825550D02*
X11867200Y-5865550D01*
X11867900Y-5390200D02*
X11907900Y-5430200D01*
X11907900Y-5390200D02*
X11867900Y-5430200D01*
X11867900Y-6203000D02*
X11907900Y-6243000D01*
X11907900Y-6203000D02*
X11867900Y-6243000D01*
X11943400Y-4526600D02*
X11983400Y-4566600D01*
X11983400Y-4526600D02*
X11943400Y-4566600D01*
X12146600Y-6507800D02*
X12186600Y-6547800D01*
X12186600Y-6507800D02*
X12146600Y-6547800D01*
X12222800Y-4475800D02*
X12262800Y-4515800D01*
X12262800Y-4475800D02*
X12222800Y-4515800D01*
X12222800Y-5847400D02*
X12262800Y-5887400D01*
X12262800Y-5847400D02*
X12222800Y-5887400D01*
X12273600Y-6257350D02*
X12313600Y-6297350D01*
X12313600Y-6257350D02*
X12273600Y-6297350D01*
X12299000Y-4780600D02*
X12339000Y-4820600D01*
X12339000Y-4780600D02*
X12299000Y-4820600D01*
X12299000Y-5593400D02*
X12339000Y-5633400D01*
X12339000Y-5593400D02*
X12299000Y-5633400D01*
X12299000Y-6507800D02*
X12339000Y-6547800D01*
X12339000Y-6507800D02*
X12299000Y-6547800D01*
X12304080Y-7193600D02*
X12344080Y-7233600D01*
X12344080Y-7193600D02*
X12304080Y-7233600D01*
X12349800Y-4272600D02*
X12389800Y-4312600D01*
X12389800Y-4272600D02*
X12349800Y-4312600D01*
X12375200Y-5847400D02*
X12415200Y-5887400D01*
X12415200Y-5847400D02*
X12375200Y-5887400D01*
X12476800Y-4475800D02*
X12516800Y-4515800D01*
X12516800Y-4475800D02*
X12476800Y-4515800D01*
X12502200Y-4983800D02*
X12542200Y-5023800D01*
X12542200Y-4983800D02*
X12502200Y-5023800D01*
X12502200Y-5847400D02*
X12542200Y-5887400D01*
X12542200Y-5847400D02*
X12502200Y-5887400D01*
X12527600Y-6507800D02*
X12567600Y-6547800D01*
X12567600Y-6507800D02*
X12527600Y-6547800D01*
X12629200Y-4475800D02*
X12669200Y-4515800D01*
X12669200Y-4475800D02*
X12629200Y-4515800D01*
X12629200Y-5847400D02*
X12669200Y-5887400D01*
X12669200Y-5847400D02*
X12629200Y-5887400D01*
X12680000Y-6507800D02*
X12720000Y-6547800D01*
X12720000Y-6507800D02*
X12680000Y-6547800D01*
X12685080Y-7193600D02*
X12725080Y-7233600D01*
X12725080Y-7193600D02*
X12685080Y-7233600D01*
X12756200Y-5847400D02*
X12796200Y-5887400D01*
X12796200Y-5847400D02*
X12756200Y-5887400D01*
X12908600Y-5847400D02*
X12948600Y-5887400D01*
X12948600Y-5847400D02*
X12908600Y-5887400D01*
X12959400Y-3688400D02*
X12999400Y-3728400D01*
X12999400Y-3688400D02*
X12959400Y-3728400D01*
X12959400Y-5043750D02*
X12999400Y-5083750D01*
X12999400Y-5043750D02*
X12959400Y-5083750D01*
X12959400Y-5720400D02*
X12999400Y-5760400D01*
X12999400Y-5720400D02*
X12959400Y-5760400D01*
X12984370Y-7218570D02*
X13024370Y-7258570D01*
X13024370Y-7218570D02*
X12984370Y-7258570D01*
X13064550Y-5034600D02*
X13104550Y-5074600D01*
X13104550Y-5034600D02*
X13064550Y-5074600D01*
X13082812Y-7120128D02*
X13122812Y-7160128D01*
X13122812Y-7120128D02*
X13082812Y-7160128D01*
X13099100Y-6799900D02*
X13139100Y-6839900D01*
X13139100Y-6799900D02*
X13099100Y-6839900D01*
X13124500Y-4552000D02*
X13164500Y-4592000D01*
X13164500Y-4552000D02*
X13124500Y-4592000D01*
X13137200Y-4958400D02*
X13177200Y-4998400D01*
X13177200Y-4958400D02*
X13137200Y-4998400D01*
X13162600Y-6999350D02*
X13202600Y-7039350D01*
X13202600Y-6999350D02*
X13162600Y-7039350D01*
X13188000Y-6850700D02*
X13228000Y-6890700D01*
X13228000Y-6850700D02*
X13188000Y-6890700D01*
X13518200Y-4272600D02*
X13558200Y-4312600D01*
X13558200Y-4272600D02*
X13518200Y-4312600D01*
X13518200Y-5314000D02*
X13558200Y-5354000D01*
X13558200Y-5314000D02*
X13518200Y-5354000D01*
X13518200Y-6355400D02*
X13558200Y-6395400D01*
X13558200Y-6355400D02*
X13518200Y-6395400D01*
X14661200Y-6584000D02*
X14701200Y-6624000D01*
X14701200Y-6584000D02*
X14661200Y-6624000D01*
X14915200Y-4247200D02*
X14955200Y-4287200D01*
X14955200Y-4247200D02*
X14915200Y-4287200D01*
X14915200Y-5314000D02*
X14955200Y-5354000D01*
X14955200Y-5314000D02*
X14915200Y-5354000D01*
X14915200Y-6355400D02*
X14955200Y-6395400D01*
X14955200Y-6355400D02*
X14915200Y-6395400D01*
X15524800Y-7322650D02*
X15564800Y-7362650D01*
X15564800Y-7322650D02*
X15524800Y-7362650D01*
X16058200Y-6609400D02*
X16098200Y-6649400D01*
X16098200Y-6609400D02*
X16058200Y-6649400D01*
X16236000Y-6926900D02*
X16276000Y-6966900D01*
X16276000Y-6926900D02*
X16236000Y-6966900D01*
X16312200Y-4272600D02*
X16352200Y-4312600D01*
X16352200Y-4272600D02*
X16312200Y-4312600D01*
X16337600Y-5314000D02*
X16377600Y-5354000D01*
X16377600Y-5314000D02*
X16337600Y-5354000D01*
X16337600Y-6355400D02*
X16377600Y-6395400D01*
X16377600Y-6355400D02*
X16337600Y-6395400D01*
X16521179Y-10324721D02*
X16561179Y-10364721D01*
X16561179Y-10324721D02*
X16521179Y-10364721D01*
X16769400Y-10571800D02*
X16809400Y-10611800D01*
X16809400Y-10571800D02*
X16769400Y-10611800D01*
X17620300Y-10724200D02*
X17660300Y-10764200D01*
X17660300Y-10724200D02*
X17620300Y-10764200D01*
X17988600Y-6997350D02*
X18028600Y-7037350D01*
X18028600Y-6997350D02*
X17988600Y-7037350D01*
X18090200Y-10165400D02*
X18130200Y-10205400D01*
X18130200Y-10165400D02*
X18090200Y-10205400D01*
X18166400Y-9454200D02*
X18206400Y-9494200D01*
X18206400Y-9454200D02*
X18166400Y-9494200D01*
X18217200Y-10089200D02*
X18257200Y-10129200D01*
X18257200Y-10089200D02*
X18217200Y-10129200D01*
X18610900Y-7409500D02*
X18650900Y-7449500D01*
X18650900Y-7409500D02*
X18610900Y-7449500D01*
X18610900Y-9060500D02*
X18650900Y-9100500D01*
X18650900Y-9060500D02*
X18610900Y-9100500D01*
X18610900Y-9670100D02*
X18650900Y-9710100D01*
X18650900Y-9670100D02*
X18610900Y-9710100D01*
X19385600Y-8235000D02*
X19425600Y-8275000D01*
X19425600Y-8235000D02*
X19385600Y-8275000D01*
D12*
X11085600Y-7788800D02*
G75*
G03*
X11085600Y-7788800I-35000J0D01*
G01*
X11085600Y-7988800D02*
G75*
G03*
X11085600Y-7988800I-35000J0D01*
G01*
X11085600Y-8188800D02*
G75*
G03*
X11085600Y-8188800I-35000J0D01*
G01*
X11285600Y-7788800D02*
G75*
G03*
X11285600Y-7788800I-35000J0D01*
G01*
X11285600Y-7988800D02*
G75*
G03*
X11285600Y-7988800I-35000J0D01*
G01*
X11285600Y-8188800D02*
G75*
G03*
X11285600Y-8188800I-35000J0D01*
G01*
D13*
X6913150Y-9894600D02*
X6913150Y-9974600D01*
X6873150Y-9934600D02*
X6953150Y-9934600D01*
X6913150Y-10094600D02*
X6913150Y-10174600D01*
X6873150Y-10134600D02*
X6953150Y-10134600D01*
X6913150Y-10294600D02*
X6913150Y-10374600D01*
X6873150Y-10334600D02*
X6953150Y-10334600D01*
X9753600Y-7503800D02*
X9753600Y-7583800D01*
X9713600Y-7543800D02*
X9793600Y-7543800D01*
X9753600Y-9027800D02*
X9753600Y-9107800D01*
X9713600Y-9067800D02*
X9793600Y-9067800D01*
X10007600Y-7503800D02*
X10007600Y-7583800D01*
X9967600Y-7543800D02*
X10047600Y-7543800D01*
X10007600Y-9027800D02*
X10007600Y-9107800D01*
X9967600Y-9067800D02*
X10047600Y-9067800D01*
X10261600Y-7503800D02*
X10261600Y-7583800D01*
X10221600Y-7543800D02*
X10301600Y-7543800D01*
X10261600Y-9027800D02*
X10261600Y-9107800D01*
X10221600Y-9067800D02*
X10301600Y-9067800D01*
X10515600Y-7503800D02*
X10515600Y-7583800D01*
X10475600Y-7543800D02*
X10555600Y-7543800D01*
X10515600Y-9027800D02*
X10515600Y-9107800D01*
X10475600Y-9067800D02*
X10555600Y-9067800D01*
X10769600Y-7503800D02*
X10769600Y-7583800D01*
X10729600Y-7543800D02*
X10809600Y-7543800D01*
X10769600Y-9027800D02*
X10769600Y-9107800D01*
X10729600Y-9067800D02*
X10809600Y-9067800D01*
X11023600Y-7503800D02*
X11023600Y-7583800D01*
X10983600Y-7543800D02*
X11063600Y-7543800D01*
X11023600Y-9027800D02*
X11023600Y-9107800D01*
X10983600Y-9067800D02*
X11063600Y-9067800D01*
X11277600Y-7503800D02*
X11277600Y-7583800D01*
X11237600Y-7543800D02*
X11317600Y-7543800D01*
X11277600Y-9027800D02*
X11277600Y-9107800D01*
X11237600Y-9067800D02*
X11317600Y-9067800D01*
X11531600Y-7503800D02*
X11531600Y-7583800D01*
X11491600Y-7543800D02*
X11571600Y-7543800D01*
X11531600Y-9027800D02*
X11531600Y-9107800D01*
X11491600Y-9067800D02*
X11571600Y-9067800D01*
X11785600Y-7503800D02*
X11785600Y-7583800D01*
X11745600Y-7543800D02*
X11825600Y-7543800D01*
X11785600Y-9027800D02*
X11785600Y-9107800D01*
X11745600Y-9067800D02*
X11825600Y-9067800D01*
X12039600Y-7503800D02*
X12039600Y-7583800D01*
X11999600Y-7543800D02*
X12079600Y-7543800D01*
X12039600Y-9027800D02*
X12039600Y-9107800D01*
X11999600Y-9067800D02*
X12079600Y-9067800D01*
X12293600Y-7503800D02*
X12293600Y-7583800D01*
X12253600Y-7543800D02*
X12333600Y-7543800D01*
X12293600Y-9027800D02*
X12293600Y-9107800D01*
X12253600Y-9067800D02*
X12333600Y-9067800D01*
X12547600Y-7503800D02*
X12547600Y-7583800D01*
X12507600Y-7543800D02*
X12587600Y-7543800D01*
X12547600Y-9027800D02*
X12547600Y-9107800D01*
X12507600Y-9067800D02*
X12587600Y-9067800D01*
X12801600Y-7503800D02*
X12801600Y-7583800D01*
X12761600Y-7543800D02*
X12841600Y-7543800D01*
X12801600Y-9027800D02*
X12801600Y-9107800D01*
X12761600Y-9067800D02*
X12841600Y-9067800D01*
X13055600Y-7503800D02*
X13055600Y-7583800D01*
X13015600Y-7543800D02*
X13095600Y-7543800D01*
X13055600Y-9027800D02*
X13055600Y-9107800D01*
X13015600Y-9067800D02*
X13095600Y-9067800D01*
X13309600Y-7503800D02*
X13309600Y-7583800D01*
X13269600Y-7543800D02*
X13349600Y-7543800D01*
X13309600Y-9027800D02*
X13309600Y-9107800D01*
X13269600Y-9067800D02*
X13349600Y-9067800D01*
X13563600Y-7503800D02*
X13563600Y-7583800D01*
X13523600Y-7543800D02*
X13603600Y-7543800D01*
X13563600Y-9027800D02*
X13563600Y-9107800D01*
X13523600Y-9067800D02*
X13603600Y-9067800D01*
X13817600Y-7503800D02*
X13817600Y-7583800D01*
X13777600Y-7543800D02*
X13857600Y-7543800D01*
X13817600Y-9027800D02*
X13817600Y-9107800D01*
X13777600Y-9067800D02*
X13857600Y-9067800D01*
X14071600Y-7503800D02*
X14071600Y-7583800D01*
X14031600Y-7543800D02*
X14111600Y-7543800D01*
X14071600Y-9027800D02*
X14071600Y-9107800D01*
X14031600Y-9067800D02*
X14111600Y-9067800D01*
X14325600Y-7503800D02*
X14325600Y-7583800D01*
X14285600Y-7543800D02*
X14365600Y-7543800D01*
X14325600Y-9027800D02*
X14325600Y-9107800D01*
X14285600Y-9067800D02*
X14365600Y-9067800D01*
X14579600Y-7503800D02*
X14579600Y-7583800D01*
X14539600Y-7543800D02*
X14619600Y-7543800D01*
X14579600Y-9027800D02*
X14579600Y-9107800D01*
X14539600Y-9067800D02*
X14619600Y-9067800D01*
X14833600Y-7503800D02*
X14833600Y-7583800D01*
X14793600Y-7543800D02*
X14873600Y-7543800D01*
X14833600Y-9027800D02*
X14833600Y-9107800D01*
X14793600Y-9067800D02*
X14873600Y-9067800D01*
X15087600Y-7503800D02*
X15087600Y-7583800D01*
X15047600Y-7543800D02*
X15127600Y-7543800D01*
X15087600Y-9027800D02*
X15087600Y-9107800D01*
X15047600Y-9067800D02*
X15127600Y-9067800D01*
X15341600Y-7503800D02*
X15341600Y-7583800D01*
X15301600Y-7543800D02*
X15381600Y-7543800D01*
X15341600Y-9027800D02*
X15341600Y-9107800D01*
X15301600Y-9067800D02*
X15381600Y-9067800D01*
X15595600Y-7503800D02*
X15595600Y-7583800D01*
X15555600Y-7543800D02*
X15635600Y-7543800D01*
X15595600Y-9027800D02*
X15595600Y-9107800D01*
X15555600Y-9067800D02*
X15635600Y-9067800D01*
D14*
X18662331Y-10064431D02*
X18662331Y-10001569D01*
X18599469Y-10001569D01*
X18599469Y-10064431D01*
X18662331Y-10064431D01*
X18662331Y-10318431D02*
X18662331Y-10255569D01*
X18599469Y-10255569D01*
X18599469Y-10318431D01*
X18662331Y-10318431D01*
X18662331Y-10572431D02*
X18662331Y-10509569D01*
X18599469Y-10509569D01*
X18599469Y-10572431D01*
X18662331Y-10572431D01*
D15*
X8051800Y-4490000D02*
X8096800Y-4445000D01*
X8051800Y-4400000D01*
X8006800Y-4445000D01*
X8051800Y-4490000D01*
X8051800Y-4744000D02*
X8096800Y-4699000D01*
X8051800Y-4654000D01*
X8006800Y-4699000D01*
X8051800Y-4744000D01*
X8051800Y-4998000D02*
X8096800Y-4953000D01*
X8051800Y-4908000D01*
X8006800Y-4953000D01*
X8051800Y-4998000D01*
X8051800Y-5252000D02*
X8096800Y-5207000D01*
X8051800Y-5162000D01*
X8006800Y-5207000D01*
X8051800Y-5252000D01*
X8051800Y-5506000D02*
X8096800Y-5461000D01*
X8051800Y-5416000D01*
X8006800Y-5461000D01*
X8051800Y-5506000D01*
X8051800Y-5760000D02*
X8096800Y-5715000D01*
X8051800Y-5670000D01*
X8006800Y-5715000D01*
X8051800Y-5760000D01*
X8051800Y-6014000D02*
X8096800Y-5969000D01*
X8051800Y-5924000D01*
X8006800Y-5969000D01*
X8051800Y-6014000D01*
X8051800Y-6268000D02*
X8096800Y-6223000D01*
X8051800Y-6178000D01*
X8006800Y-6223000D01*
X8051800Y-6268000D01*
X8051800Y-6522000D02*
X8096800Y-6477000D01*
X8051800Y-6432000D01*
X8006800Y-6477000D01*
X8051800Y-6522000D01*
X8255000Y-10357400D02*
X8300000Y-10312400D01*
X8255000Y-10267400D01*
X8210000Y-10312400D01*
X8255000Y-10357400D01*
X8432800Y-7919000D02*
X8477800Y-7874000D01*
X8432800Y-7829000D01*
X8387800Y-7874000D01*
X8432800Y-7919000D01*
X8432800Y-8173000D02*
X8477800Y-8128000D01*
X8432800Y-8083000D01*
X8387800Y-8128000D01*
X8432800Y-8173000D01*
X8432800Y-8427000D02*
X8477800Y-8382000D01*
X8432800Y-8337000D01*
X8387800Y-8382000D01*
X8432800Y-8427000D01*
X8432800Y-8681000D02*
X8477800Y-8636000D01*
X8432800Y-8591000D01*
X8387800Y-8636000D01*
X8432800Y-8681000D01*
X8509000Y-10357400D02*
X8554000Y-10312400D01*
X8509000Y-10267400D01*
X8464000Y-10312400D01*
X8509000Y-10357400D01*
X8686800Y-8046000D02*
X8731800Y-8001000D01*
X8686800Y-7956000D01*
X8641800Y-8001000D01*
X8686800Y-8046000D01*
X8686800Y-8300000D02*
X8731800Y-8255000D01*
X8686800Y-8210000D01*
X8641800Y-8255000D01*
X8686800Y-8300000D01*
X8686800Y-8554000D02*
X8731800Y-8509000D01*
X8686800Y-8464000D01*
X8641800Y-8509000D01*
X8686800Y-8554000D01*
X8686800Y-8808000D02*
X8731800Y-8763000D01*
X8686800Y-8718000D01*
X8641800Y-8763000D01*
X8686800Y-8808000D01*
X8763000Y-10357400D02*
X8808000Y-10312400D01*
X8763000Y-10267400D01*
X8718000Y-10312400D01*
X8763000Y-10357400D01*
X9017000Y-10357400D02*
X9062000Y-10312400D01*
X9017000Y-10267400D01*
X8972000Y-10312400D01*
X9017000Y-10357400D01*
X9271000Y-10357400D02*
X9316000Y-10312400D01*
X9271000Y-10267400D01*
X9226000Y-10312400D01*
X9271000Y-10357400D01*
X9525000Y-10357400D02*
X9570000Y-10312400D01*
X9525000Y-10267400D01*
X9480000Y-10312400D01*
X9525000Y-10357400D01*
X9779000Y-10357400D02*
X9824000Y-10312400D01*
X9779000Y-10267400D01*
X9734000Y-10312400D01*
X9779000Y-10357400D01*
X10033000Y-10357400D02*
X10078000Y-10312400D01*
X10033000Y-10267400D01*
X9988000Y-10312400D01*
X10033000Y-10357400D01*
X10287000Y-10357400D02*
X10332000Y-10312400D01*
X10287000Y-10267400D01*
X10242000Y-10312400D01*
X10287000Y-10357400D01*
X11023600Y-10357400D02*
X11068600Y-10312400D01*
X11023600Y-10267400D01*
X10978600Y-10312400D01*
X11023600Y-10357400D01*
X11277600Y-10357400D02*
X11322600Y-10312400D01*
X11277600Y-10267400D01*
X11232600Y-10312400D01*
X11277600Y-10357400D01*
X11531600Y-10357400D02*
X11576600Y-10312400D01*
X11531600Y-10267400D01*
X11486600Y-10312400D01*
X11531600Y-10357400D01*
X11785600Y-10357400D02*
X11830600Y-10312400D01*
X11785600Y-10267400D01*
X11740600Y-10312400D01*
X11785600Y-10357400D01*
X12039600Y-10357400D02*
X12084600Y-10312400D01*
X12039600Y-10267400D01*
X11994600Y-10312400D01*
X12039600Y-10357400D01*
X12293600Y-10357400D02*
X12338600Y-10312400D01*
X12293600Y-10267400D01*
X12248600Y-10312400D01*
X12293600Y-10357400D01*
X12547600Y-10357400D02*
X12592600Y-10312400D01*
X12547600Y-10267400D01*
X12502600Y-10312400D01*
X12547600Y-10357400D01*
X12801600Y-10357400D02*
X12846600Y-10312400D01*
X12801600Y-10267400D01*
X12756600Y-10312400D01*
X12801600Y-10357400D01*
X13055600Y-10357400D02*
X13100600Y-10312400D01*
X13055600Y-10267400D01*
X13010600Y-10312400D01*
X13055600Y-10357400D01*
X13792200Y-10357400D02*
X13837200Y-10312400D01*
X13792200Y-10267400D01*
X13747200Y-10312400D01*
X13792200Y-10357400D01*
X14046200Y-10357400D02*
X14091200Y-10312400D01*
X14046200Y-10267400D01*
X14001200Y-10312400D01*
X14046200Y-10357400D01*
X14300200Y-10357400D02*
X14345200Y-10312400D01*
X14300200Y-10267400D01*
X14255200Y-10312400D01*
X14300200Y-10357400D01*
X14554200Y-10357400D02*
X14599200Y-10312400D01*
X14554200Y-10267400D01*
X14509200Y-10312400D01*
X14554200Y-10357400D01*
X14808200Y-10357400D02*
X14853200Y-10312400D01*
X14808200Y-10267400D01*
X14763200Y-10312400D01*
X14808200Y-10357400D01*
X15062200Y-10357400D02*
X15107200Y-10312400D01*
X15062200Y-10267400D01*
X15017200Y-10312400D01*
X15062200Y-10357400D01*
X15316200Y-10357400D02*
X15361200Y-10312400D01*
X15316200Y-10267400D01*
X15271200Y-10312400D01*
X15316200Y-10357400D01*
X15570200Y-10357400D02*
X15615200Y-10312400D01*
X15570200Y-10267400D01*
X15525200Y-10312400D01*
X15570200Y-10357400D01*
X15824200Y-10357400D02*
X15869200Y-10312400D01*
X15824200Y-10267400D01*
X15779200Y-10312400D01*
X15824200Y-10357400D01*
X18516600Y-11246400D02*
X18561600Y-11201400D01*
X18516600Y-11156400D01*
X18471600Y-11201400D01*
X18516600Y-11246400D01*
X18770600Y-11246400D02*
X18815600Y-11201400D01*
X18770600Y-11156400D01*
X18725600Y-11201400D01*
X18770600Y-11246400D01*
X18834100Y-4464600D02*
X18879100Y-4419600D01*
X18834100Y-4374600D01*
X18789100Y-4419600D01*
X18834100Y-4464600D01*
X18834100Y-4718600D02*
X18879100Y-4673600D01*
X18834100Y-4628600D01*
X18789100Y-4673600D01*
X18834100Y-4718600D01*
X18834100Y-4972600D02*
X18879100Y-4927600D01*
X18834100Y-4882600D01*
X18789100Y-4927600D01*
X18834100Y-4972600D01*
X18834100Y-5226600D02*
X18879100Y-5181600D01*
X18834100Y-5136600D01*
X18789100Y-5181600D01*
X18834100Y-5226600D01*
X18834100Y-5480600D02*
X18879100Y-5435600D01*
X18834100Y-5390600D01*
X18789100Y-5435600D01*
X18834100Y-5480600D01*
X18834100Y-5734600D02*
X18879100Y-5689600D01*
X18834100Y-5644600D01*
X18789100Y-5689600D01*
X18834100Y-5734600D01*
X18834100Y-5988600D02*
X18879100Y-5943600D01*
X18834100Y-5898600D01*
X18789100Y-5943600D01*
X18834100Y-5988600D01*
X18834100Y-6242600D02*
X18879100Y-6197600D01*
X18834100Y-6152600D01*
X18789100Y-6197600D01*
X18834100Y-6242600D01*
X18834100Y-6496600D02*
X18879100Y-6451600D01*
X18834100Y-6406600D01*
X18789100Y-6451600D01*
X18834100Y-6496600D01*
X19024600Y-11246400D02*
X19069600Y-11201400D01*
X19024600Y-11156400D01*
X18979600Y-11201400D01*
X19024600Y-11246400D01*
D16*
X7238800Y-7635000D02*
X7340800Y-7737000D01*
X7340800Y-7635000D02*
X7238800Y-7737000D01*
X7340800Y-7686000D02*
G75*
G03*
X7340800Y-7686000I-51000J0D01*
G01*
X7238800Y-8646000D02*
X7340800Y-8748000D01*
X7340800Y-8646000D02*
X7238800Y-8748000D01*
X7340800Y-8697000D02*
G75*
G03*
X7340800Y-8697000I-51000J0D01*
G01*
X7417800Y-7889000D02*
X7519800Y-7991000D01*
X7519800Y-7889000D02*
X7417800Y-7991000D01*
X7519800Y-7940000D02*
G75*
G03*
X7519800Y-7940000I-51000J0D01*
G01*
X7417800Y-8900000D02*
X7519800Y-9002000D01*
X7519800Y-8900000D02*
X7417800Y-9002000D01*
X7519800Y-8951000D02*
G75*
G03*
X7519800Y-8951000I-51000J0D01*
G01*
D17*
X6838150Y-9649600D02*
X6988150Y-9799600D01*
X6988150Y-9649600D02*
X6838150Y-9799600D01*
X6913150Y-9649600D02*
X6913150Y-9799600D01*
X6838150Y-9724600D02*
X6988150Y-9724600D01*
X6838150Y-10469600D02*
X6988150Y-10619600D01*
X6988150Y-10469600D02*
X6838150Y-10619600D01*
X6913150Y-10469600D02*
X6913150Y-10619600D01*
X6838150Y-10544600D02*
X6988150Y-10544600D01*
D18*
X8022800Y-7451000D02*
X8182800Y-7611000D01*
X8182800Y-7451000D02*
X8022800Y-7611000D01*
X8159369Y-7587569D02*
X8159369Y-7474431D01*
X8046231Y-7474431D01*
X8046231Y-7587569D01*
X8159369Y-7587569D01*
X8022800Y-9026000D02*
X8182800Y-9186000D01*
X8182800Y-9026000D02*
X8022800Y-9186000D01*
X8159369Y-9162569D02*
X8159369Y-9049431D01*
X8046231Y-9049431D01*
X8046231Y-9162569D01*
X8159369Y-9162569D01*
D10*
X16727500Y-9736280D02*
X16927500Y-9936280D01*
X16927500Y-9736280D02*
X16727500Y-9936280D01*
X16827500Y-9936280D02*
X16927500Y-9836280D01*
X16827500Y-9736280D01*
X16727500Y-9836280D01*
X16827500Y-9936280D01*
X16722500Y-9936280D02*
X16932500Y-9936280D01*
X16932500Y-9936280D02*
G75*
G03*
X16932500Y-9736280I0J100000D01*
G01*
X16932500Y-9736280D02*
X16722500Y-9736280D01*
X16722500Y-9736280D02*
G75*
G03*
X16722500Y-9936280I0J-100000D01*
G01*
X17514900Y-9736280D02*
X17714900Y-9936280D01*
X17714900Y-9736280D02*
X17514900Y-9936280D01*
X17614900Y-9936280D02*
X17714900Y-9836280D01*
X17614900Y-9736280D01*
X17514900Y-9836280D01*
X17614900Y-9936280D01*
X17509900Y-9936280D02*
X17719900Y-9936280D01*
X17719900Y-9936280D02*
G75*
G03*
X17719900Y-9736280I0J100000D01*
G01*
X17719900Y-9736280D02*
X17509900Y-9736280D01*
X17509900Y-9736280D02*
G75*
G03*
X17509900Y-9936280I0J-100000D01*
G01*
D19*
X7797800Y-7584500D02*
X7797800Y-7909500D01*
X7635300Y-7747000D02*
X7960300Y-7747000D01*
X7960300Y-7747000D02*
G75*
G03*
X7960300Y-7747000I-162500J0D01*
G01*
X7797800Y-8727500D02*
X7797800Y-9052500D01*
X7635300Y-8890000D02*
X7960300Y-8890000D01*
X7960300Y-8890000D02*
G75*
G03*
X7960300Y-8890000I-162500J0D01*
G01*
D10*
X6930977Y-11980084D02*
X6930977Y-11780084D01*
X6930977Y-11780084D02*
X6978596Y-11780084D01*
X6978596Y-11780084D02*
X7007167Y-11789608D01*
X7007167Y-11789608D02*
X7026215Y-11808655D01*
X7026215Y-11808655D02*
X7035739Y-11827703D01*
X7035739Y-11827703D02*
X7045262Y-11865798D01*
X7045262Y-11865798D02*
X7045262Y-11894369D01*
X7045262Y-11894369D02*
X7035739Y-11932465D01*
X7035739Y-11932465D02*
X7026215Y-11951512D01*
X7026215Y-11951512D02*
X7007167Y-11970560D01*
X7007167Y-11970560D02*
X6978596Y-11980084D01*
X6978596Y-11980084D02*
X6930977Y-11980084D01*
X7130977Y-11980084D02*
X7130977Y-11846750D01*
X7130977Y-11884846D02*
X7140501Y-11865798D01*
X7140501Y-11865798D02*
X7150024Y-11856274D01*
X7150024Y-11856274D02*
X7169072Y-11846750D01*
X7169072Y-11846750D02*
X7188120Y-11846750D01*
X7254786Y-11980084D02*
X7254786Y-11846750D01*
X7254786Y-11780084D02*
X7245262Y-11789608D01*
X7245262Y-11789608D02*
X7254786Y-11799131D01*
X7254786Y-11799131D02*
X7264310Y-11789608D01*
X7264310Y-11789608D02*
X7254786Y-11780084D01*
X7254786Y-11780084D02*
X7254786Y-11799131D01*
X7378596Y-11980084D02*
X7359548Y-11970560D01*
X7359548Y-11970560D02*
X7350024Y-11951512D01*
X7350024Y-11951512D02*
X7350024Y-11780084D01*
X7483358Y-11980084D02*
X7464310Y-11970560D01*
X7464310Y-11970560D02*
X7454786Y-11951512D01*
X7454786Y-11951512D02*
X7454786Y-11780084D01*
X7711929Y-11980084D02*
X7711929Y-11780084D01*
X7711929Y-11780084D02*
X7778596Y-11922941D01*
X7778596Y-11922941D02*
X7845262Y-11780084D01*
X7845262Y-11780084D02*
X7845262Y-11980084D01*
X8026215Y-11980084D02*
X8026215Y-11875322D01*
X8026215Y-11875322D02*
X8016691Y-11856274D01*
X8016691Y-11856274D02*
X7997643Y-11846750D01*
X7997643Y-11846750D02*
X7959548Y-11846750D01*
X7959548Y-11846750D02*
X7940501Y-11856274D01*
X8026215Y-11970560D02*
X8007167Y-11980084D01*
X8007167Y-11980084D02*
X7959548Y-11980084D01*
X7959548Y-11980084D02*
X7940501Y-11970560D01*
X7940501Y-11970560D02*
X7930977Y-11951512D01*
X7930977Y-11951512D02*
X7930977Y-11932465D01*
X7930977Y-11932465D02*
X7940501Y-11913417D01*
X7940501Y-11913417D02*
X7959548Y-11903893D01*
X7959548Y-11903893D02*
X8007167Y-11903893D01*
X8007167Y-11903893D02*
X8026215Y-11894369D01*
X8121453Y-11846750D02*
X8121453Y-12046750D01*
X8121453Y-11856274D02*
X8140501Y-11846750D01*
X8140501Y-11846750D02*
X8178596Y-11846750D01*
X8178596Y-11846750D02*
X8197643Y-11856274D01*
X8197643Y-11856274D02*
X8207167Y-11865798D01*
X8207167Y-11865798D02*
X8216691Y-11884846D01*
X8216691Y-11884846D02*
X8216691Y-11941988D01*
X8216691Y-11941988D02*
X8207167Y-11961036D01*
X8207167Y-11961036D02*
X8197643Y-11970560D01*
X8197643Y-11970560D02*
X8178596Y-11980084D01*
X8178596Y-11980084D02*
X8140501Y-11980084D01*
X8140501Y-11980084D02*
X8121453Y-11970560D01*
X8302405Y-11961036D02*
X8311929Y-11970560D01*
X8311929Y-11970560D02*
X8302405Y-11980084D01*
X8302405Y-11980084D02*
X8292882Y-11970560D01*
X8292882Y-11970560D02*
X8302405Y-11961036D01*
X8302405Y-11961036D02*
X8302405Y-11980084D01*
X8302405Y-11856274D02*
X8311929Y-11865798D01*
X8311929Y-11865798D02*
X8302405Y-11875322D01*
X8302405Y-11875322D02*
X8292882Y-11865798D01*
X8292882Y-11865798D02*
X8302405Y-11856274D01*
X8302405Y-11856274D02*
X8302405Y-11875322D01*
D11*
X6630200Y-12288600D02*
X6670200Y-12328600D01*
X6670200Y-12288600D02*
X6630200Y-12328600D01*
D10*
X6969072Y-12200084D02*
X6988120Y-12200084D01*
X6988120Y-12200084D02*
X7007167Y-12209608D01*
X7007167Y-12209608D02*
X7016691Y-12219131D01*
X7016691Y-12219131D02*
X7026215Y-12238179D01*
X7026215Y-12238179D02*
X7035739Y-12276274D01*
X7035739Y-12276274D02*
X7035739Y-12323893D01*
X7035739Y-12323893D02*
X7026215Y-12361988D01*
X7026215Y-12361988D02*
X7016691Y-12381036D01*
X7016691Y-12381036D02*
X7007167Y-12390560D01*
X7007167Y-12390560D02*
X6988120Y-12400084D01*
X6988120Y-12400084D02*
X6969072Y-12400084D01*
X6969072Y-12400084D02*
X6950024Y-12390560D01*
X6950024Y-12390560D02*
X6940501Y-12381036D01*
X6940501Y-12381036D02*
X6930977Y-12361988D01*
X6930977Y-12361988D02*
X6921453Y-12323893D01*
X6921453Y-12323893D02*
X6921453Y-12276274D01*
X6921453Y-12276274D02*
X6930977Y-12238179D01*
X6930977Y-12238179D02*
X6940501Y-12219131D01*
X6940501Y-12219131D02*
X6950024Y-12209608D01*
X6950024Y-12209608D02*
X6969072Y-12200084D01*
X7121453Y-12381036D02*
X7130977Y-12390560D01*
X7130977Y-12390560D02*
X7121453Y-12400084D01*
X7121453Y-12400084D02*
X7111929Y-12390560D01*
X7111929Y-12390560D02*
X7121453Y-12381036D01*
X7121453Y-12381036D02*
X7121453Y-12400084D01*
X7302405Y-12266750D02*
X7302405Y-12400084D01*
X7254786Y-12190560D02*
X7207167Y-12333417D01*
X7207167Y-12333417D02*
X7330977Y-12333417D01*
X7445262Y-12200084D02*
X7464310Y-12200084D01*
X7464310Y-12200084D02*
X7483358Y-12209608D01*
X7483358Y-12209608D02*
X7492882Y-12219131D01*
X7492882Y-12219131D02*
X7502405Y-12238179D01*
X7502405Y-12238179D02*
X7511929Y-12276274D01*
X7511929Y-12276274D02*
X7511929Y-12323893D01*
X7511929Y-12323893D02*
X7502405Y-12361988D01*
X7502405Y-12361988D02*
X7492882Y-12381036D01*
X7492882Y-12381036D02*
X7483358Y-12390560D01*
X7483358Y-12390560D02*
X7464310Y-12400084D01*
X7464310Y-12400084D02*
X7445262Y-12400084D01*
X7445262Y-12400084D02*
X7426215Y-12390560D01*
X7426215Y-12390560D02*
X7416691Y-12381036D01*
X7416691Y-12381036D02*
X7407167Y-12361988D01*
X7407167Y-12361988D02*
X7397643Y-12323893D01*
X7397643Y-12323893D02*
X7397643Y-12276274D01*
X7397643Y-12276274D02*
X7407167Y-12238179D01*
X7407167Y-12238179D02*
X7416691Y-12219131D01*
X7416691Y-12219131D02*
X7426215Y-12209608D01*
X7426215Y-12209608D02*
X7445262Y-12200084D01*
X7635739Y-12200084D02*
X7654786Y-12200084D01*
X7654786Y-12200084D02*
X7673834Y-12209608D01*
X7673834Y-12209608D02*
X7683358Y-12219131D01*
X7683358Y-12219131D02*
X7692882Y-12238179D01*
X7692882Y-12238179D02*
X7702405Y-12276274D01*
X7702405Y-12276274D02*
X7702405Y-12323893D01*
X7702405Y-12323893D02*
X7692882Y-12361988D01*
X7692882Y-12361988D02*
X7683358Y-12381036D01*
X7683358Y-12381036D02*
X7673834Y-12390560D01*
X7673834Y-12390560D02*
X7654786Y-12400084D01*
X7654786Y-12400084D02*
X7635739Y-12400084D01*
X7635739Y-12400084D02*
X7616691Y-12390560D01*
X7616691Y-12390560D02*
X7607167Y-12381036D01*
X7607167Y-12381036D02*
X7597643Y-12361988D01*
X7597643Y-12361988D02*
X7588120Y-12323893D01*
X7588120Y-12323893D02*
X7588120Y-12276274D01*
X7588120Y-12276274D02*
X7597643Y-12238179D01*
X7597643Y-12238179D02*
X7607167Y-12219131D01*
X7607167Y-12219131D02*
X7616691Y-12209608D01*
X7616691Y-12209608D02*
X7635739Y-12200084D01*
X7788120Y-12400084D02*
X7788120Y-12266750D01*
X7788120Y-12285798D02*
X7797643Y-12276274D01*
X7797643Y-12276274D02*
X7816691Y-12266750D01*
X7816691Y-12266750D02*
X7845263Y-12266750D01*
X7845263Y-12266750D02*
X7864310Y-12276274D01*
X7864310Y-12276274D02*
X7873834Y-12295322D01*
X7873834Y-12295322D02*
X7873834Y-12400084D01*
X7873834Y-12295322D02*
X7883358Y-12276274D01*
X7883358Y-12276274D02*
X7902405Y-12266750D01*
X7902405Y-12266750D02*
X7930977Y-12266750D01*
X7930977Y-12266750D02*
X7950024Y-12276274D01*
X7950024Y-12276274D02*
X7959548Y-12295322D01*
X7959548Y-12295322D02*
X7959548Y-12400084D01*
X8054786Y-12400084D02*
X8054786Y-12266750D01*
X8054786Y-12285798D02*
X8064310Y-12276274D01*
X8064310Y-12276274D02*
X8083358Y-12266750D01*
X8083358Y-12266750D02*
X8111929Y-12266750D01*
X8111929Y-12266750D02*
X8130977Y-12276274D01*
X8130977Y-12276274D02*
X8140501Y-12295322D01*
X8140501Y-12295322D02*
X8140501Y-12400084D01*
X8140501Y-12295322D02*
X8150024Y-12276274D01*
X8150024Y-12276274D02*
X8169072Y-12266750D01*
X8169072Y-12266750D02*
X8197643Y-12266750D01*
X8197643Y-12266750D02*
X8216691Y-12276274D01*
X8216691Y-12276274D02*
X8226215Y-12295322D01*
X8226215Y-12295322D02*
X8226215Y-12400084D01*
X8616691Y-12190560D02*
X8445263Y-12447703D01*
X8873834Y-12200084D02*
X8892882Y-12200084D01*
X8892882Y-12200084D02*
X8911929Y-12209608D01*
X8911929Y-12209608D02*
X8921453Y-12219131D01*
X8921453Y-12219131D02*
X8930977Y-12238179D01*
X8930977Y-12238179D02*
X8940501Y-12276274D01*
X8940501Y-12276274D02*
X8940501Y-12323893D01*
X8940501Y-12323893D02*
X8930977Y-12361988D01*
X8930977Y-12361988D02*
X8921453Y-12381036D01*
X8921453Y-12381036D02*
X8911929Y-12390560D01*
X8911929Y-12390560D02*
X8892882Y-12400084D01*
X8892882Y-12400084D02*
X8873834Y-12400084D01*
X8873834Y-12400084D02*
X8854787Y-12390560D01*
X8854787Y-12390560D02*
X8845263Y-12381036D01*
X8845263Y-12381036D02*
X8835739Y-12361988D01*
X8835739Y-12361988D02*
X8826215Y-12323893D01*
X8826215Y-12323893D02*
X8826215Y-12276274D01*
X8826215Y-12276274D02*
X8835739Y-12238179D01*
X8835739Y-12238179D02*
X8845263Y-12219131D01*
X8845263Y-12219131D02*
X8854787Y-12209608D01*
X8854787Y-12209608D02*
X8873834Y-12200084D01*
X9026215Y-12381036D02*
X9035739Y-12390560D01*
X9035739Y-12390560D02*
X9026215Y-12400084D01*
X9026215Y-12400084D02*
X9016691Y-12390560D01*
X9016691Y-12390560D02*
X9026215Y-12381036D01*
X9026215Y-12381036D02*
X9026215Y-12400084D01*
X9159548Y-12200084D02*
X9178596Y-12200084D01*
X9178596Y-12200084D02*
X9197644Y-12209608D01*
X9197644Y-12209608D02*
X9207168Y-12219131D01*
X9207168Y-12219131D02*
X9216691Y-12238179D01*
X9216691Y-12238179D02*
X9226215Y-12276274D01*
X9226215Y-12276274D02*
X9226215Y-12323893D01*
X9226215Y-12323893D02*
X9216691Y-12361988D01*
X9216691Y-12361988D02*
X9207168Y-12381036D01*
X9207168Y-12381036D02*
X9197644Y-12390560D01*
X9197644Y-12390560D02*
X9178596Y-12400084D01*
X9178596Y-12400084D02*
X9159548Y-12400084D01*
X9159548Y-12400084D02*
X9140501Y-12390560D01*
X9140501Y-12390560D02*
X9130977Y-12381036D01*
X9130977Y-12381036D02*
X9121453Y-12361988D01*
X9121453Y-12361988D02*
X9111929Y-12323893D01*
X9111929Y-12323893D02*
X9111929Y-12276274D01*
X9111929Y-12276274D02*
X9121453Y-12238179D01*
X9121453Y-12238179D02*
X9130977Y-12219131D01*
X9130977Y-12219131D02*
X9140501Y-12209608D01*
X9140501Y-12209608D02*
X9159548Y-12200084D01*
X9416691Y-12400084D02*
X9302406Y-12400084D01*
X9359548Y-12400084D02*
X9359548Y-12200084D01*
X9359548Y-12200084D02*
X9340501Y-12228655D01*
X9340501Y-12228655D02*
X9321453Y-12247703D01*
X9321453Y-12247703D02*
X9302406Y-12257227D01*
X9597644Y-12200084D02*
X9502406Y-12200084D01*
X9502406Y-12200084D02*
X9492882Y-12295322D01*
X9492882Y-12295322D02*
X9502406Y-12285798D01*
X9502406Y-12285798D02*
X9521453Y-12276274D01*
X9521453Y-12276274D02*
X9569072Y-12276274D01*
X9569072Y-12276274D02*
X9588120Y-12285798D01*
X9588120Y-12285798D02*
X9597644Y-12295322D01*
X9597644Y-12295322D02*
X9607168Y-12314369D01*
X9607168Y-12314369D02*
X9607168Y-12361988D01*
X9607168Y-12361988D02*
X9597644Y-12381036D01*
X9597644Y-12381036D02*
X9588120Y-12390560D01*
X9588120Y-12390560D02*
X9569072Y-12400084D01*
X9569072Y-12400084D02*
X9521453Y-12400084D01*
X9521453Y-12400084D02*
X9502406Y-12390560D01*
X9502406Y-12390560D02*
X9492882Y-12381036D01*
X9673834Y-12200084D02*
X9807168Y-12200084D01*
X9807168Y-12200084D02*
X9721453Y-12400084D01*
X9873834Y-12200084D02*
X9873834Y-12238179D01*
X9950025Y-12200084D02*
X9950025Y-12238179D01*
X10245263Y-12476274D02*
X10235739Y-12466750D01*
X10235739Y-12466750D02*
X10216691Y-12438179D01*
X10216691Y-12438179D02*
X10207168Y-12419131D01*
X10207168Y-12419131D02*
X10197644Y-12390560D01*
X10197644Y-12390560D02*
X10188120Y-12342941D01*
X10188120Y-12342941D02*
X10188120Y-12304846D01*
X10188120Y-12304846D02*
X10197644Y-12257227D01*
X10197644Y-12257227D02*
X10207168Y-12228655D01*
X10207168Y-12228655D02*
X10216691Y-12209608D01*
X10216691Y-12209608D02*
X10235739Y-12181036D01*
X10235739Y-12181036D02*
X10245263Y-12171512D01*
X10350025Y-12285798D02*
X10330977Y-12276274D01*
X10330977Y-12276274D02*
X10321453Y-12266750D01*
X10321453Y-12266750D02*
X10311930Y-12247703D01*
X10311930Y-12247703D02*
X10311930Y-12238179D01*
X10311930Y-12238179D02*
X10321453Y-12219131D01*
X10321453Y-12219131D02*
X10330977Y-12209608D01*
X10330977Y-12209608D02*
X10350025Y-12200084D01*
X10350025Y-12200084D02*
X10388120Y-12200084D01*
X10388120Y-12200084D02*
X10407168Y-12209608D01*
X10407168Y-12209608D02*
X10416691Y-12219131D01*
X10416691Y-12219131D02*
X10426215Y-12238179D01*
X10426215Y-12238179D02*
X10426215Y-12247703D01*
X10426215Y-12247703D02*
X10416691Y-12266750D01*
X10416691Y-12266750D02*
X10407168Y-12276274D01*
X10407168Y-12276274D02*
X10388120Y-12285798D01*
X10388120Y-12285798D02*
X10350025Y-12285798D01*
X10350025Y-12285798D02*
X10330977Y-12295322D01*
X10330977Y-12295322D02*
X10321453Y-12304846D01*
X10321453Y-12304846D02*
X10311930Y-12323893D01*
X10311930Y-12323893D02*
X10311930Y-12361988D01*
X10311930Y-12361988D02*
X10321453Y-12381036D01*
X10321453Y-12381036D02*
X10330977Y-12390560D01*
X10330977Y-12390560D02*
X10350025Y-12400084D01*
X10350025Y-12400084D02*
X10388120Y-12400084D01*
X10388120Y-12400084D02*
X10407168Y-12390560D01*
X10407168Y-12390560D02*
X10416691Y-12381036D01*
X10416691Y-12381036D02*
X10426215Y-12361988D01*
X10426215Y-12361988D02*
X10426215Y-12323893D01*
X10426215Y-12323893D02*
X10416691Y-12304846D01*
X10416691Y-12304846D02*
X10407168Y-12295322D01*
X10407168Y-12295322D02*
X10388120Y-12285798D01*
X10502406Y-12219131D02*
X10511930Y-12209608D01*
X10511930Y-12209608D02*
X10530977Y-12200084D01*
X10530977Y-12200084D02*
X10578596Y-12200084D01*
X10578596Y-12200084D02*
X10597644Y-12209608D01*
X10597644Y-12209608D02*
X10607168Y-12219131D01*
X10607168Y-12219131D02*
X10616691Y-12238179D01*
X10616691Y-12238179D02*
X10616691Y-12257227D01*
X10616691Y-12257227D02*
X10607168Y-12285798D01*
X10607168Y-12285798D02*
X10492882Y-12400084D01*
X10492882Y-12400084D02*
X10616691Y-12400084D01*
X10854787Y-12400084D02*
X10854787Y-12200084D01*
X10940501Y-12400084D02*
X10940501Y-12295322D01*
X10940501Y-12295322D02*
X10930977Y-12276274D01*
X10930977Y-12276274D02*
X10911930Y-12266750D01*
X10911930Y-12266750D02*
X10883358Y-12266750D01*
X10883358Y-12266750D02*
X10864311Y-12276274D01*
X10864311Y-12276274D02*
X10854787Y-12285798D01*
X11064311Y-12400084D02*
X11045263Y-12390560D01*
X11045263Y-12390560D02*
X11035739Y-12381036D01*
X11035739Y-12381036D02*
X11026215Y-12361988D01*
X11026215Y-12361988D02*
X11026215Y-12304846D01*
X11026215Y-12304846D02*
X11035739Y-12285798D01*
X11035739Y-12285798D02*
X11045263Y-12276274D01*
X11045263Y-12276274D02*
X11064311Y-12266750D01*
X11064311Y-12266750D02*
X11092882Y-12266750D01*
X11092882Y-12266750D02*
X11111930Y-12276274D01*
X11111930Y-12276274D02*
X11121453Y-12285798D01*
X11121453Y-12285798D02*
X11130977Y-12304846D01*
X11130977Y-12304846D02*
X11130977Y-12361988D01*
X11130977Y-12361988D02*
X11121453Y-12381036D01*
X11121453Y-12381036D02*
X11111930Y-12390560D01*
X11111930Y-12390560D02*
X11092882Y-12400084D01*
X11092882Y-12400084D02*
X11064311Y-12400084D01*
X11245263Y-12400084D02*
X11226215Y-12390560D01*
X11226215Y-12390560D02*
X11216691Y-12371512D01*
X11216691Y-12371512D02*
X11216691Y-12200084D01*
X11397644Y-12390560D02*
X11378596Y-12400084D01*
X11378596Y-12400084D02*
X11340501Y-12400084D01*
X11340501Y-12400084D02*
X11321453Y-12390560D01*
X11321453Y-12390560D02*
X11311930Y-12371512D01*
X11311930Y-12371512D02*
X11311930Y-12295322D01*
X11311930Y-12295322D02*
X11321453Y-12276274D01*
X11321453Y-12276274D02*
X11340501Y-12266750D01*
X11340501Y-12266750D02*
X11378596Y-12266750D01*
X11378596Y-12266750D02*
X11397644Y-12276274D01*
X11397644Y-12276274D02*
X11407168Y-12295322D01*
X11407168Y-12295322D02*
X11407168Y-12314369D01*
X11407168Y-12314369D02*
X11311930Y-12333417D01*
X11483358Y-12390560D02*
X11502406Y-12400084D01*
X11502406Y-12400084D02*
X11540501Y-12400084D01*
X11540501Y-12400084D02*
X11559549Y-12390560D01*
X11559549Y-12390560D02*
X11569072Y-12371512D01*
X11569072Y-12371512D02*
X11569072Y-12361988D01*
X11569072Y-12361988D02*
X11559549Y-12342941D01*
X11559549Y-12342941D02*
X11540501Y-12333417D01*
X11540501Y-12333417D02*
X11511930Y-12333417D01*
X11511930Y-12333417D02*
X11492882Y-12323893D01*
X11492882Y-12323893D02*
X11483358Y-12304846D01*
X11483358Y-12304846D02*
X11483358Y-12295322D01*
X11483358Y-12295322D02*
X11492882Y-12276274D01*
X11492882Y-12276274D02*
X11511930Y-12266750D01*
X11511930Y-12266750D02*
X11540501Y-12266750D01*
X11540501Y-12266750D02*
X11559549Y-12276274D01*
X11635739Y-12476274D02*
X11645263Y-12466750D01*
X11645263Y-12466750D02*
X11664311Y-12438179D01*
X11664311Y-12438179D02*
X11673834Y-12419131D01*
X11673834Y-12419131D02*
X11683358Y-12390560D01*
X11683358Y-12390560D02*
X11692882Y-12342941D01*
X11692882Y-12342941D02*
X11692882Y-12304846D01*
X11692882Y-12304846D02*
X11683358Y-12257227D01*
X11683358Y-12257227D02*
X11673834Y-12228655D01*
X11673834Y-12228655D02*
X11664311Y-12209608D01*
X11664311Y-12209608D02*
X11645263Y-12181036D01*
X11645263Y-12181036D02*
X11635739Y-12171512D01*
D12*
X6670200Y-12572600D02*
G75*
G03*
X6670200Y-12572600I-35000J0D01*
G01*
D10*
X6969072Y-12464084D02*
X6988120Y-12464084D01*
X6988120Y-12464084D02*
X7007167Y-12473608D01*
X7007167Y-12473608D02*
X7016691Y-12483131D01*
X7016691Y-12483131D02*
X7026215Y-12502179D01*
X7026215Y-12502179D02*
X7035739Y-12540274D01*
X7035739Y-12540274D02*
X7035739Y-12587893D01*
X7035739Y-12587893D02*
X7026215Y-12625988D01*
X7026215Y-12625988D02*
X7016691Y-12645036D01*
X7016691Y-12645036D02*
X7007167Y-12654560D01*
X7007167Y-12654560D02*
X6988120Y-12664084D01*
X6988120Y-12664084D02*
X6969072Y-12664084D01*
X6969072Y-12664084D02*
X6950024Y-12654560D01*
X6950024Y-12654560D02*
X6940501Y-12645036D01*
X6940501Y-12645036D02*
X6930977Y-12625988D01*
X6930977Y-12625988D02*
X6921453Y-12587893D01*
X6921453Y-12587893D02*
X6921453Y-12540274D01*
X6921453Y-12540274D02*
X6930977Y-12502179D01*
X6930977Y-12502179D02*
X6940501Y-12483131D01*
X6940501Y-12483131D02*
X6950024Y-12473608D01*
X6950024Y-12473608D02*
X6969072Y-12464084D01*
X7121453Y-12645036D02*
X7130977Y-12654560D01*
X7130977Y-12654560D02*
X7121453Y-12664084D01*
X7121453Y-12664084D02*
X7111929Y-12654560D01*
X7111929Y-12654560D02*
X7121453Y-12645036D01*
X7121453Y-12645036D02*
X7121453Y-12664084D01*
X7197643Y-12464084D02*
X7330977Y-12464084D01*
X7330977Y-12464084D02*
X7245262Y-12664084D01*
X7445262Y-12464084D02*
X7464310Y-12464084D01*
X7464310Y-12464084D02*
X7483358Y-12473608D01*
X7483358Y-12473608D02*
X7492882Y-12483131D01*
X7492882Y-12483131D02*
X7502405Y-12502179D01*
X7502405Y-12502179D02*
X7511929Y-12540274D01*
X7511929Y-12540274D02*
X7511929Y-12587893D01*
X7511929Y-12587893D02*
X7502405Y-12625988D01*
X7502405Y-12625988D02*
X7492882Y-12645036D01*
X7492882Y-12645036D02*
X7483358Y-12654560D01*
X7483358Y-12654560D02*
X7464310Y-12664084D01*
X7464310Y-12664084D02*
X7445262Y-12664084D01*
X7445262Y-12664084D02*
X7426215Y-12654560D01*
X7426215Y-12654560D02*
X7416691Y-12645036D01*
X7416691Y-12645036D02*
X7407167Y-12625988D01*
X7407167Y-12625988D02*
X7397643Y-12587893D01*
X7397643Y-12587893D02*
X7397643Y-12540274D01*
X7397643Y-12540274D02*
X7407167Y-12502179D01*
X7407167Y-12502179D02*
X7416691Y-12483131D01*
X7416691Y-12483131D02*
X7426215Y-12473608D01*
X7426215Y-12473608D02*
X7445262Y-12464084D01*
X7635739Y-12464084D02*
X7654786Y-12464084D01*
X7654786Y-12464084D02*
X7673834Y-12473608D01*
X7673834Y-12473608D02*
X7683358Y-12483131D01*
X7683358Y-12483131D02*
X7692882Y-12502179D01*
X7692882Y-12502179D02*
X7702405Y-12540274D01*
X7702405Y-12540274D02*
X7702405Y-12587893D01*
X7702405Y-12587893D02*
X7692882Y-12625988D01*
X7692882Y-12625988D02*
X7683358Y-12645036D01*
X7683358Y-12645036D02*
X7673834Y-12654560D01*
X7673834Y-12654560D02*
X7654786Y-12664084D01*
X7654786Y-12664084D02*
X7635739Y-12664084D01*
X7635739Y-12664084D02*
X7616691Y-12654560D01*
X7616691Y-12654560D02*
X7607167Y-12645036D01*
X7607167Y-12645036D02*
X7597643Y-12625988D01*
X7597643Y-12625988D02*
X7588120Y-12587893D01*
X7588120Y-12587893D02*
X7588120Y-12540274D01*
X7588120Y-12540274D02*
X7597643Y-12502179D01*
X7597643Y-12502179D02*
X7607167Y-12483131D01*
X7607167Y-12483131D02*
X7616691Y-12473608D01*
X7616691Y-12473608D02*
X7635739Y-12464084D01*
X7788120Y-12664084D02*
X7788120Y-12530750D01*
X7788120Y-12549798D02*
X7797643Y-12540274D01*
X7797643Y-12540274D02*
X7816691Y-12530750D01*
X7816691Y-12530750D02*
X7845263Y-12530750D01*
X7845263Y-12530750D02*
X7864310Y-12540274D01*
X7864310Y-12540274D02*
X7873834Y-12559322D01*
X7873834Y-12559322D02*
X7873834Y-12664084D01*
X7873834Y-12559322D02*
X7883358Y-12540274D01*
X7883358Y-12540274D02*
X7902405Y-12530750D01*
X7902405Y-12530750D02*
X7930977Y-12530750D01*
X7930977Y-12530750D02*
X7950024Y-12540274D01*
X7950024Y-12540274D02*
X7959548Y-12559322D01*
X7959548Y-12559322D02*
X7959548Y-12664084D01*
X8054786Y-12664084D02*
X8054786Y-12530750D01*
X8054786Y-12549798D02*
X8064310Y-12540274D01*
X8064310Y-12540274D02*
X8083358Y-12530750D01*
X8083358Y-12530750D02*
X8111929Y-12530750D01*
X8111929Y-12530750D02*
X8130977Y-12540274D01*
X8130977Y-12540274D02*
X8140501Y-12559322D01*
X8140501Y-12559322D02*
X8140501Y-12664084D01*
X8140501Y-12559322D02*
X8150024Y-12540274D01*
X8150024Y-12540274D02*
X8169072Y-12530750D01*
X8169072Y-12530750D02*
X8197643Y-12530750D01*
X8197643Y-12530750D02*
X8216691Y-12540274D01*
X8216691Y-12540274D02*
X8226215Y-12559322D01*
X8226215Y-12559322D02*
X8226215Y-12664084D01*
X8616691Y-12454560D02*
X8445263Y-12711703D01*
X8873834Y-12464084D02*
X8892882Y-12464084D01*
X8892882Y-12464084D02*
X8911929Y-12473608D01*
X8911929Y-12473608D02*
X8921453Y-12483131D01*
X8921453Y-12483131D02*
X8930977Y-12502179D01*
X8930977Y-12502179D02*
X8940501Y-12540274D01*
X8940501Y-12540274D02*
X8940501Y-12587893D01*
X8940501Y-12587893D02*
X8930977Y-12625988D01*
X8930977Y-12625988D02*
X8921453Y-12645036D01*
X8921453Y-12645036D02*
X8911929Y-12654560D01*
X8911929Y-12654560D02*
X8892882Y-12664084D01*
X8892882Y-12664084D02*
X8873834Y-12664084D01*
X8873834Y-12664084D02*
X8854787Y-12654560D01*
X8854787Y-12654560D02*
X8845263Y-12645036D01*
X8845263Y-12645036D02*
X8835739Y-12625988D01*
X8835739Y-12625988D02*
X8826215Y-12587893D01*
X8826215Y-12587893D02*
X8826215Y-12540274D01*
X8826215Y-12540274D02*
X8835739Y-12502179D01*
X8835739Y-12502179D02*
X8845263Y-12483131D01*
X8845263Y-12483131D02*
X8854787Y-12473608D01*
X8854787Y-12473608D02*
X8873834Y-12464084D01*
X9026215Y-12645036D02*
X9035739Y-12654560D01*
X9035739Y-12654560D02*
X9026215Y-12664084D01*
X9026215Y-12664084D02*
X9016691Y-12654560D01*
X9016691Y-12654560D02*
X9026215Y-12645036D01*
X9026215Y-12645036D02*
X9026215Y-12664084D01*
X9159548Y-12464084D02*
X9178596Y-12464084D01*
X9178596Y-12464084D02*
X9197644Y-12473608D01*
X9197644Y-12473608D02*
X9207168Y-12483131D01*
X9207168Y-12483131D02*
X9216691Y-12502179D01*
X9216691Y-12502179D02*
X9226215Y-12540274D01*
X9226215Y-12540274D02*
X9226215Y-12587893D01*
X9226215Y-12587893D02*
X9216691Y-12625988D01*
X9216691Y-12625988D02*
X9207168Y-12645036D01*
X9207168Y-12645036D02*
X9197644Y-12654560D01*
X9197644Y-12654560D02*
X9178596Y-12664084D01*
X9178596Y-12664084D02*
X9159548Y-12664084D01*
X9159548Y-12664084D02*
X9140501Y-12654560D01*
X9140501Y-12654560D02*
X9130977Y-12645036D01*
X9130977Y-12645036D02*
X9121453Y-12625988D01*
X9121453Y-12625988D02*
X9111929Y-12587893D01*
X9111929Y-12587893D02*
X9111929Y-12540274D01*
X9111929Y-12540274D02*
X9121453Y-12502179D01*
X9121453Y-12502179D02*
X9130977Y-12483131D01*
X9130977Y-12483131D02*
X9140501Y-12473608D01*
X9140501Y-12473608D02*
X9159548Y-12464084D01*
X9302406Y-12483131D02*
X9311929Y-12473608D01*
X9311929Y-12473608D02*
X9330977Y-12464084D01*
X9330977Y-12464084D02*
X9378596Y-12464084D01*
X9378596Y-12464084D02*
X9397644Y-12473608D01*
X9397644Y-12473608D02*
X9407168Y-12483131D01*
X9407168Y-12483131D02*
X9416691Y-12502179D01*
X9416691Y-12502179D02*
X9416691Y-12521227D01*
X9416691Y-12521227D02*
X9407168Y-12549798D01*
X9407168Y-12549798D02*
X9292882Y-12664084D01*
X9292882Y-12664084D02*
X9416691Y-12664084D01*
X9483358Y-12464084D02*
X9616691Y-12464084D01*
X9616691Y-12464084D02*
X9530977Y-12664084D01*
X9778596Y-12464084D02*
X9740501Y-12464084D01*
X9740501Y-12464084D02*
X9721453Y-12473608D01*
X9721453Y-12473608D02*
X9711929Y-12483131D01*
X9711929Y-12483131D02*
X9692882Y-12511703D01*
X9692882Y-12511703D02*
X9683358Y-12549798D01*
X9683358Y-12549798D02*
X9683358Y-12625988D01*
X9683358Y-12625988D02*
X9692882Y-12645036D01*
X9692882Y-12645036D02*
X9702406Y-12654560D01*
X9702406Y-12654560D02*
X9721453Y-12664084D01*
X9721453Y-12664084D02*
X9759549Y-12664084D01*
X9759549Y-12664084D02*
X9778596Y-12654560D01*
X9778596Y-12654560D02*
X9788120Y-12645036D01*
X9788120Y-12645036D02*
X9797644Y-12625988D01*
X9797644Y-12625988D02*
X9797644Y-12578369D01*
X9797644Y-12578369D02*
X9788120Y-12559322D01*
X9788120Y-12559322D02*
X9778596Y-12549798D01*
X9778596Y-12549798D02*
X9759549Y-12540274D01*
X9759549Y-12540274D02*
X9721453Y-12540274D01*
X9721453Y-12540274D02*
X9702406Y-12549798D01*
X9702406Y-12549798D02*
X9692882Y-12559322D01*
X9692882Y-12559322D02*
X9683358Y-12578369D01*
X9873834Y-12464084D02*
X9873834Y-12502179D01*
X9950025Y-12464084D02*
X9950025Y-12502179D01*
X10245263Y-12740274D02*
X10235739Y-12730750D01*
X10235739Y-12730750D02*
X10216691Y-12702179D01*
X10216691Y-12702179D02*
X10207168Y-12683131D01*
X10207168Y-12683131D02*
X10197644Y-12654560D01*
X10197644Y-12654560D02*
X10188120Y-12606941D01*
X10188120Y-12606941D02*
X10188120Y-12568846D01*
X10188120Y-12568846D02*
X10197644Y-12521227D01*
X10197644Y-12521227D02*
X10207168Y-12492655D01*
X10207168Y-12492655D02*
X10216691Y-12473608D01*
X10216691Y-12473608D02*
X10235739Y-12445036D01*
X10235739Y-12445036D02*
X10245263Y-12435512D01*
X10407168Y-12464084D02*
X10369072Y-12464084D01*
X10369072Y-12464084D02*
X10350025Y-12473608D01*
X10350025Y-12473608D02*
X10340501Y-12483131D01*
X10340501Y-12483131D02*
X10321453Y-12511703D01*
X10321453Y-12511703D02*
X10311930Y-12549798D01*
X10311930Y-12549798D02*
X10311930Y-12625988D01*
X10311930Y-12625988D02*
X10321453Y-12645036D01*
X10321453Y-12645036D02*
X10330977Y-12654560D01*
X10330977Y-12654560D02*
X10350025Y-12664084D01*
X10350025Y-12664084D02*
X10388120Y-12664084D01*
X10388120Y-12664084D02*
X10407168Y-12654560D01*
X10407168Y-12654560D02*
X10416691Y-12645036D01*
X10416691Y-12645036D02*
X10426215Y-12625988D01*
X10426215Y-12625988D02*
X10426215Y-12578369D01*
X10426215Y-12578369D02*
X10416691Y-12559322D01*
X10416691Y-12559322D02*
X10407168Y-12549798D01*
X10407168Y-12549798D02*
X10388120Y-12540274D01*
X10388120Y-12540274D02*
X10350025Y-12540274D01*
X10350025Y-12540274D02*
X10330977Y-12549798D01*
X10330977Y-12549798D02*
X10321453Y-12559322D01*
X10321453Y-12559322D02*
X10311930Y-12578369D01*
X10664311Y-12664084D02*
X10664311Y-12464084D01*
X10750025Y-12664084D02*
X10750025Y-12559322D01*
X10750025Y-12559322D02*
X10740501Y-12540274D01*
X10740501Y-12540274D02*
X10721453Y-12530750D01*
X10721453Y-12530750D02*
X10692882Y-12530750D01*
X10692882Y-12530750D02*
X10673834Y-12540274D01*
X10673834Y-12540274D02*
X10664311Y-12549798D01*
X10873834Y-12664084D02*
X10854787Y-12654560D01*
X10854787Y-12654560D02*
X10845263Y-12645036D01*
X10845263Y-12645036D02*
X10835739Y-12625988D01*
X10835739Y-12625988D02*
X10835739Y-12568846D01*
X10835739Y-12568846D02*
X10845263Y-12549798D01*
X10845263Y-12549798D02*
X10854787Y-12540274D01*
X10854787Y-12540274D02*
X10873834Y-12530750D01*
X10873834Y-12530750D02*
X10902406Y-12530750D01*
X10902406Y-12530750D02*
X10921453Y-12540274D01*
X10921453Y-12540274D02*
X10930977Y-12549798D01*
X10930977Y-12549798D02*
X10940501Y-12568846D01*
X10940501Y-12568846D02*
X10940501Y-12625988D01*
X10940501Y-12625988D02*
X10930977Y-12645036D01*
X10930977Y-12645036D02*
X10921453Y-12654560D01*
X10921453Y-12654560D02*
X10902406Y-12664084D01*
X10902406Y-12664084D02*
X10873834Y-12664084D01*
X11054787Y-12664084D02*
X11035739Y-12654560D01*
X11035739Y-12654560D02*
X11026215Y-12635512D01*
X11026215Y-12635512D02*
X11026215Y-12464084D01*
X11207168Y-12654560D02*
X11188120Y-12664084D01*
X11188120Y-12664084D02*
X11150025Y-12664084D01*
X11150025Y-12664084D02*
X11130977Y-12654560D01*
X11130977Y-12654560D02*
X11121453Y-12635512D01*
X11121453Y-12635512D02*
X11121453Y-12559322D01*
X11121453Y-12559322D02*
X11130977Y-12540274D01*
X11130977Y-12540274D02*
X11150025Y-12530750D01*
X11150025Y-12530750D02*
X11188120Y-12530750D01*
X11188120Y-12530750D02*
X11207168Y-12540274D01*
X11207168Y-12540274D02*
X11216691Y-12559322D01*
X11216691Y-12559322D02*
X11216691Y-12578369D01*
X11216691Y-12578369D02*
X11121453Y-12597417D01*
X11292882Y-12654560D02*
X11311930Y-12664084D01*
X11311930Y-12664084D02*
X11350025Y-12664084D01*
X11350025Y-12664084D02*
X11369072Y-12654560D01*
X11369072Y-12654560D02*
X11378596Y-12635512D01*
X11378596Y-12635512D02*
X11378596Y-12625988D01*
X11378596Y-12625988D02*
X11369072Y-12606941D01*
X11369072Y-12606941D02*
X11350025Y-12597417D01*
X11350025Y-12597417D02*
X11321453Y-12597417D01*
X11321453Y-12597417D02*
X11302406Y-12587893D01*
X11302406Y-12587893D02*
X11292882Y-12568846D01*
X11292882Y-12568846D02*
X11292882Y-12559322D01*
X11292882Y-12559322D02*
X11302406Y-12540274D01*
X11302406Y-12540274D02*
X11321453Y-12530750D01*
X11321453Y-12530750D02*
X11350025Y-12530750D01*
X11350025Y-12530750D02*
X11369072Y-12540274D01*
X11445263Y-12740274D02*
X11454787Y-12730750D01*
X11454787Y-12730750D02*
X11473834Y-12702179D01*
X11473834Y-12702179D02*
X11483358Y-12683131D01*
X11483358Y-12683131D02*
X11492882Y-12654560D01*
X11492882Y-12654560D02*
X11502406Y-12606941D01*
X11502406Y-12606941D02*
X11502406Y-12568846D01*
X11502406Y-12568846D02*
X11492882Y-12521227D01*
X11492882Y-12521227D02*
X11483358Y-12492655D01*
X11483358Y-12492655D02*
X11473834Y-12473608D01*
X11473834Y-12473608D02*
X11454787Y-12445036D01*
X11454787Y-12445036D02*
X11445263Y-12435512D01*
D13*
X6630200Y-12796600D02*
X6630200Y-12876600D01*
X6590200Y-12836600D02*
X6670200Y-12836600D01*
D10*
X6969072Y-12728084D02*
X6988120Y-12728084D01*
X6988120Y-12728084D02*
X7007167Y-12737608D01*
X7007167Y-12737608D02*
X7016691Y-12747131D01*
X7016691Y-12747131D02*
X7026215Y-12766179D01*
X7026215Y-12766179D02*
X7035739Y-12804274D01*
X7035739Y-12804274D02*
X7035739Y-12851893D01*
X7035739Y-12851893D02*
X7026215Y-12889988D01*
X7026215Y-12889988D02*
X7016691Y-12909036D01*
X7016691Y-12909036D02*
X7007167Y-12918560D01*
X7007167Y-12918560D02*
X6988120Y-12928084D01*
X6988120Y-12928084D02*
X6969072Y-12928084D01*
X6969072Y-12928084D02*
X6950024Y-12918560D01*
X6950024Y-12918560D02*
X6940501Y-12909036D01*
X6940501Y-12909036D02*
X6930977Y-12889988D01*
X6930977Y-12889988D02*
X6921453Y-12851893D01*
X6921453Y-12851893D02*
X6921453Y-12804274D01*
X6921453Y-12804274D02*
X6930977Y-12766179D01*
X6930977Y-12766179D02*
X6940501Y-12747131D01*
X6940501Y-12747131D02*
X6950024Y-12737608D01*
X6950024Y-12737608D02*
X6969072Y-12728084D01*
X7121453Y-12909036D02*
X7130977Y-12918560D01*
X7130977Y-12918560D02*
X7121453Y-12928084D01*
X7121453Y-12928084D02*
X7111929Y-12918560D01*
X7111929Y-12918560D02*
X7121453Y-12909036D01*
X7121453Y-12909036D02*
X7121453Y-12928084D01*
X7245262Y-12813798D02*
X7226215Y-12804274D01*
X7226215Y-12804274D02*
X7216691Y-12794750D01*
X7216691Y-12794750D02*
X7207167Y-12775703D01*
X7207167Y-12775703D02*
X7207167Y-12766179D01*
X7207167Y-12766179D02*
X7216691Y-12747131D01*
X7216691Y-12747131D02*
X7226215Y-12737608D01*
X7226215Y-12737608D02*
X7245262Y-12728084D01*
X7245262Y-12728084D02*
X7283358Y-12728084D01*
X7283358Y-12728084D02*
X7302405Y-12737608D01*
X7302405Y-12737608D02*
X7311929Y-12747131D01*
X7311929Y-12747131D02*
X7321453Y-12766179D01*
X7321453Y-12766179D02*
X7321453Y-12775703D01*
X7321453Y-12775703D02*
X7311929Y-12794750D01*
X7311929Y-12794750D02*
X7302405Y-12804274D01*
X7302405Y-12804274D02*
X7283358Y-12813798D01*
X7283358Y-12813798D02*
X7245262Y-12813798D01*
X7245262Y-12813798D02*
X7226215Y-12823322D01*
X7226215Y-12823322D02*
X7216691Y-12832846D01*
X7216691Y-12832846D02*
X7207167Y-12851893D01*
X7207167Y-12851893D02*
X7207167Y-12889988D01*
X7207167Y-12889988D02*
X7216691Y-12909036D01*
X7216691Y-12909036D02*
X7226215Y-12918560D01*
X7226215Y-12918560D02*
X7245262Y-12928084D01*
X7245262Y-12928084D02*
X7283358Y-12928084D01*
X7283358Y-12928084D02*
X7302405Y-12918560D01*
X7302405Y-12918560D02*
X7311929Y-12909036D01*
X7311929Y-12909036D02*
X7321453Y-12889988D01*
X7321453Y-12889988D02*
X7321453Y-12851893D01*
X7321453Y-12851893D02*
X7311929Y-12832846D01*
X7311929Y-12832846D02*
X7302405Y-12823322D01*
X7302405Y-12823322D02*
X7283358Y-12813798D01*
X7445262Y-12728084D02*
X7464310Y-12728084D01*
X7464310Y-12728084D02*
X7483358Y-12737608D01*
X7483358Y-12737608D02*
X7492882Y-12747131D01*
X7492882Y-12747131D02*
X7502405Y-12766179D01*
X7502405Y-12766179D02*
X7511929Y-12804274D01*
X7511929Y-12804274D02*
X7511929Y-12851893D01*
X7511929Y-12851893D02*
X7502405Y-12889988D01*
X7502405Y-12889988D02*
X7492882Y-12909036D01*
X7492882Y-12909036D02*
X7483358Y-12918560D01*
X7483358Y-12918560D02*
X7464310Y-12928084D01*
X7464310Y-12928084D02*
X7445262Y-12928084D01*
X7445262Y-12928084D02*
X7426215Y-12918560D01*
X7426215Y-12918560D02*
X7416691Y-12909036D01*
X7416691Y-12909036D02*
X7407167Y-12889988D01*
X7407167Y-12889988D02*
X7397643Y-12851893D01*
X7397643Y-12851893D02*
X7397643Y-12804274D01*
X7397643Y-12804274D02*
X7407167Y-12766179D01*
X7407167Y-12766179D02*
X7416691Y-12747131D01*
X7416691Y-12747131D02*
X7426215Y-12737608D01*
X7426215Y-12737608D02*
X7445262Y-12728084D01*
X7635739Y-12728084D02*
X7654786Y-12728084D01*
X7654786Y-12728084D02*
X7673834Y-12737608D01*
X7673834Y-12737608D02*
X7683358Y-12747131D01*
X7683358Y-12747131D02*
X7692882Y-12766179D01*
X7692882Y-12766179D02*
X7702405Y-12804274D01*
X7702405Y-12804274D02*
X7702405Y-12851893D01*
X7702405Y-12851893D02*
X7692882Y-12889988D01*
X7692882Y-12889988D02*
X7683358Y-12909036D01*
X7683358Y-12909036D02*
X7673834Y-12918560D01*
X7673834Y-12918560D02*
X7654786Y-12928084D01*
X7654786Y-12928084D02*
X7635739Y-12928084D01*
X7635739Y-12928084D02*
X7616691Y-12918560D01*
X7616691Y-12918560D02*
X7607167Y-12909036D01*
X7607167Y-12909036D02*
X7597643Y-12889988D01*
X7597643Y-12889988D02*
X7588120Y-12851893D01*
X7588120Y-12851893D02*
X7588120Y-12804274D01*
X7588120Y-12804274D02*
X7597643Y-12766179D01*
X7597643Y-12766179D02*
X7607167Y-12747131D01*
X7607167Y-12747131D02*
X7616691Y-12737608D01*
X7616691Y-12737608D02*
X7635739Y-12728084D01*
X7788120Y-12928084D02*
X7788120Y-12794750D01*
X7788120Y-12813798D02*
X7797643Y-12804274D01*
X7797643Y-12804274D02*
X7816691Y-12794750D01*
X7816691Y-12794750D02*
X7845263Y-12794750D01*
X7845263Y-12794750D02*
X7864310Y-12804274D01*
X7864310Y-12804274D02*
X7873834Y-12823322D01*
X7873834Y-12823322D02*
X7873834Y-12928084D01*
X7873834Y-12823322D02*
X7883358Y-12804274D01*
X7883358Y-12804274D02*
X7902405Y-12794750D01*
X7902405Y-12794750D02*
X7930977Y-12794750D01*
X7930977Y-12794750D02*
X7950024Y-12804274D01*
X7950024Y-12804274D02*
X7959548Y-12823322D01*
X7959548Y-12823322D02*
X7959548Y-12928084D01*
X8054786Y-12928084D02*
X8054786Y-12794750D01*
X8054786Y-12813798D02*
X8064310Y-12804274D01*
X8064310Y-12804274D02*
X8083358Y-12794750D01*
X8083358Y-12794750D02*
X8111929Y-12794750D01*
X8111929Y-12794750D02*
X8130977Y-12804274D01*
X8130977Y-12804274D02*
X8140501Y-12823322D01*
X8140501Y-12823322D02*
X8140501Y-12928084D01*
X8140501Y-12823322D02*
X8150024Y-12804274D01*
X8150024Y-12804274D02*
X8169072Y-12794750D01*
X8169072Y-12794750D02*
X8197643Y-12794750D01*
X8197643Y-12794750D02*
X8216691Y-12804274D01*
X8216691Y-12804274D02*
X8226215Y-12823322D01*
X8226215Y-12823322D02*
X8226215Y-12928084D01*
X8616691Y-12718560D02*
X8445263Y-12975703D01*
X8873834Y-12728084D02*
X8892882Y-12728084D01*
X8892882Y-12728084D02*
X8911929Y-12737608D01*
X8911929Y-12737608D02*
X8921453Y-12747131D01*
X8921453Y-12747131D02*
X8930977Y-12766179D01*
X8930977Y-12766179D02*
X8940501Y-12804274D01*
X8940501Y-12804274D02*
X8940501Y-12851893D01*
X8940501Y-12851893D02*
X8930977Y-12889988D01*
X8930977Y-12889988D02*
X8921453Y-12909036D01*
X8921453Y-12909036D02*
X8911929Y-12918560D01*
X8911929Y-12918560D02*
X8892882Y-12928084D01*
X8892882Y-12928084D02*
X8873834Y-12928084D01*
X8873834Y-12928084D02*
X8854787Y-12918560D01*
X8854787Y-12918560D02*
X8845263Y-12909036D01*
X8845263Y-12909036D02*
X8835739Y-12889988D01*
X8835739Y-12889988D02*
X8826215Y-12851893D01*
X8826215Y-12851893D02*
X8826215Y-12804274D01*
X8826215Y-12804274D02*
X8835739Y-12766179D01*
X8835739Y-12766179D02*
X8845263Y-12747131D01*
X8845263Y-12747131D02*
X8854787Y-12737608D01*
X8854787Y-12737608D02*
X8873834Y-12728084D01*
X9026215Y-12909036D02*
X9035739Y-12918560D01*
X9035739Y-12918560D02*
X9026215Y-12928084D01*
X9026215Y-12928084D02*
X9016691Y-12918560D01*
X9016691Y-12918560D02*
X9026215Y-12909036D01*
X9026215Y-12909036D02*
X9026215Y-12928084D01*
X9159548Y-12728084D02*
X9178596Y-12728084D01*
X9178596Y-12728084D02*
X9197644Y-12737608D01*
X9197644Y-12737608D02*
X9207168Y-12747131D01*
X9207168Y-12747131D02*
X9216691Y-12766179D01*
X9216691Y-12766179D02*
X9226215Y-12804274D01*
X9226215Y-12804274D02*
X9226215Y-12851893D01*
X9226215Y-12851893D02*
X9216691Y-12889988D01*
X9216691Y-12889988D02*
X9207168Y-12909036D01*
X9207168Y-12909036D02*
X9197644Y-12918560D01*
X9197644Y-12918560D02*
X9178596Y-12928084D01*
X9178596Y-12928084D02*
X9159548Y-12928084D01*
X9159548Y-12928084D02*
X9140501Y-12918560D01*
X9140501Y-12918560D02*
X9130977Y-12909036D01*
X9130977Y-12909036D02*
X9121453Y-12889988D01*
X9121453Y-12889988D02*
X9111929Y-12851893D01*
X9111929Y-12851893D02*
X9111929Y-12804274D01*
X9111929Y-12804274D02*
X9121453Y-12766179D01*
X9121453Y-12766179D02*
X9130977Y-12747131D01*
X9130977Y-12747131D02*
X9140501Y-12737608D01*
X9140501Y-12737608D02*
X9159548Y-12728084D01*
X9292882Y-12728084D02*
X9416691Y-12728084D01*
X9416691Y-12728084D02*
X9350025Y-12804274D01*
X9350025Y-12804274D02*
X9378596Y-12804274D01*
X9378596Y-12804274D02*
X9397644Y-12813798D01*
X9397644Y-12813798D02*
X9407168Y-12823322D01*
X9407168Y-12823322D02*
X9416691Y-12842369D01*
X9416691Y-12842369D02*
X9416691Y-12889988D01*
X9416691Y-12889988D02*
X9407168Y-12909036D01*
X9407168Y-12909036D02*
X9397644Y-12918560D01*
X9397644Y-12918560D02*
X9378596Y-12928084D01*
X9378596Y-12928084D02*
X9321453Y-12928084D01*
X9321453Y-12928084D02*
X9302406Y-12918560D01*
X9302406Y-12918560D02*
X9292882Y-12909036D01*
X9607168Y-12928084D02*
X9492882Y-12928084D01*
X9550025Y-12928084D02*
X9550025Y-12728084D01*
X9550025Y-12728084D02*
X9530977Y-12756655D01*
X9530977Y-12756655D02*
X9511929Y-12775703D01*
X9511929Y-12775703D02*
X9492882Y-12785227D01*
X9788120Y-12728084D02*
X9692882Y-12728084D01*
X9692882Y-12728084D02*
X9683358Y-12823322D01*
X9683358Y-12823322D02*
X9692882Y-12813798D01*
X9692882Y-12813798D02*
X9711929Y-12804274D01*
X9711929Y-12804274D02*
X9759549Y-12804274D01*
X9759549Y-12804274D02*
X9778596Y-12813798D01*
X9778596Y-12813798D02*
X9788120Y-12823322D01*
X9788120Y-12823322D02*
X9797644Y-12842369D01*
X9797644Y-12842369D02*
X9797644Y-12889988D01*
X9797644Y-12889988D02*
X9788120Y-12909036D01*
X9788120Y-12909036D02*
X9778596Y-12918560D01*
X9778596Y-12918560D02*
X9759549Y-12928084D01*
X9759549Y-12928084D02*
X9711929Y-12928084D01*
X9711929Y-12928084D02*
X9692882Y-12918560D01*
X9692882Y-12918560D02*
X9683358Y-12909036D01*
X9873834Y-12728084D02*
X9873834Y-12766179D01*
X9950025Y-12728084D02*
X9950025Y-12766179D01*
X10245263Y-13004274D02*
X10235739Y-12994750D01*
X10235739Y-12994750D02*
X10216691Y-12966179D01*
X10216691Y-12966179D02*
X10207168Y-12947131D01*
X10207168Y-12947131D02*
X10197644Y-12918560D01*
X10197644Y-12918560D02*
X10188120Y-12870941D01*
X10188120Y-12870941D02*
X10188120Y-12832846D01*
X10188120Y-12832846D02*
X10197644Y-12785227D01*
X10197644Y-12785227D02*
X10207168Y-12756655D01*
X10207168Y-12756655D02*
X10216691Y-12737608D01*
X10216691Y-12737608D02*
X10235739Y-12709036D01*
X10235739Y-12709036D02*
X10245263Y-12699512D01*
X10416691Y-12728084D02*
X10321453Y-12728084D01*
X10321453Y-12728084D02*
X10311930Y-12823322D01*
X10311930Y-12823322D02*
X10321453Y-12813798D01*
X10321453Y-12813798D02*
X10340501Y-12804274D01*
X10340501Y-12804274D02*
X10388120Y-12804274D01*
X10388120Y-12804274D02*
X10407168Y-12813798D01*
X10407168Y-12813798D02*
X10416691Y-12823322D01*
X10416691Y-12823322D02*
X10426215Y-12842369D01*
X10426215Y-12842369D02*
X10426215Y-12889988D01*
X10426215Y-12889988D02*
X10416691Y-12909036D01*
X10416691Y-12909036D02*
X10407168Y-12918560D01*
X10407168Y-12918560D02*
X10388120Y-12928084D01*
X10388120Y-12928084D02*
X10340501Y-12928084D01*
X10340501Y-12928084D02*
X10321453Y-12918560D01*
X10321453Y-12918560D02*
X10311930Y-12909036D01*
X10616691Y-12928084D02*
X10502406Y-12928084D01*
X10559549Y-12928084D02*
X10559549Y-12728084D01*
X10559549Y-12728084D02*
X10540501Y-12756655D01*
X10540501Y-12756655D02*
X10521453Y-12775703D01*
X10521453Y-12775703D02*
X10502406Y-12785227D01*
X10854787Y-12928084D02*
X10854787Y-12728084D01*
X10940501Y-12928084D02*
X10940501Y-12823322D01*
X10940501Y-12823322D02*
X10930977Y-12804274D01*
X10930977Y-12804274D02*
X10911930Y-12794750D01*
X10911930Y-12794750D02*
X10883358Y-12794750D01*
X10883358Y-12794750D02*
X10864311Y-12804274D01*
X10864311Y-12804274D02*
X10854787Y-12813798D01*
X11064311Y-12928084D02*
X11045263Y-12918560D01*
X11045263Y-12918560D02*
X11035739Y-12909036D01*
X11035739Y-12909036D02*
X11026215Y-12889988D01*
X11026215Y-12889988D02*
X11026215Y-12832846D01*
X11026215Y-12832846D02*
X11035739Y-12813798D01*
X11035739Y-12813798D02*
X11045263Y-12804274D01*
X11045263Y-12804274D02*
X11064311Y-12794750D01*
X11064311Y-12794750D02*
X11092882Y-12794750D01*
X11092882Y-12794750D02*
X11111930Y-12804274D01*
X11111930Y-12804274D02*
X11121453Y-12813798D01*
X11121453Y-12813798D02*
X11130977Y-12832846D01*
X11130977Y-12832846D02*
X11130977Y-12889988D01*
X11130977Y-12889988D02*
X11121453Y-12909036D01*
X11121453Y-12909036D02*
X11111930Y-12918560D01*
X11111930Y-12918560D02*
X11092882Y-12928084D01*
X11092882Y-12928084D02*
X11064311Y-12928084D01*
X11245263Y-12928084D02*
X11226215Y-12918560D01*
X11226215Y-12918560D02*
X11216691Y-12899512D01*
X11216691Y-12899512D02*
X11216691Y-12728084D01*
X11397644Y-12918560D02*
X11378596Y-12928084D01*
X11378596Y-12928084D02*
X11340501Y-12928084D01*
X11340501Y-12928084D02*
X11321453Y-12918560D01*
X11321453Y-12918560D02*
X11311930Y-12899512D01*
X11311930Y-12899512D02*
X11311930Y-12823322D01*
X11311930Y-12823322D02*
X11321453Y-12804274D01*
X11321453Y-12804274D02*
X11340501Y-12794750D01*
X11340501Y-12794750D02*
X11378596Y-12794750D01*
X11378596Y-12794750D02*
X11397644Y-12804274D01*
X11397644Y-12804274D02*
X11407168Y-12823322D01*
X11407168Y-12823322D02*
X11407168Y-12842369D01*
X11407168Y-12842369D02*
X11311930Y-12861417D01*
X11483358Y-12918560D02*
X11502406Y-12928084D01*
X11502406Y-12928084D02*
X11540501Y-12928084D01*
X11540501Y-12928084D02*
X11559549Y-12918560D01*
X11559549Y-12918560D02*
X11569072Y-12899512D01*
X11569072Y-12899512D02*
X11569072Y-12889988D01*
X11569072Y-12889988D02*
X11559549Y-12870941D01*
X11559549Y-12870941D02*
X11540501Y-12861417D01*
X11540501Y-12861417D02*
X11511930Y-12861417D01*
X11511930Y-12861417D02*
X11492882Y-12851893D01*
X11492882Y-12851893D02*
X11483358Y-12832846D01*
X11483358Y-12832846D02*
X11483358Y-12823322D01*
X11483358Y-12823322D02*
X11492882Y-12804274D01*
X11492882Y-12804274D02*
X11511930Y-12794750D01*
X11511930Y-12794750D02*
X11540501Y-12794750D01*
X11540501Y-12794750D02*
X11559549Y-12804274D01*
X11635739Y-13004274D02*
X11645263Y-12994750D01*
X11645263Y-12994750D02*
X11664311Y-12966179D01*
X11664311Y-12966179D02*
X11673834Y-12947131D01*
X11673834Y-12947131D02*
X11683358Y-12918560D01*
X11683358Y-12918560D02*
X11692882Y-12870941D01*
X11692882Y-12870941D02*
X11692882Y-12832846D01*
X11692882Y-12832846D02*
X11683358Y-12785227D01*
X11683358Y-12785227D02*
X11673834Y-12756655D01*
X11673834Y-12756655D02*
X11664311Y-12737608D01*
X11664311Y-12737608D02*
X11645263Y-12709036D01*
X11645263Y-12709036D02*
X11635739Y-12699512D01*
D14*
X6657181Y-13132031D02*
X6657181Y-13069169D01*
X6594319Y-13069169D01*
X6594319Y-13132031D01*
X6657181Y-13132031D01*
D10*
X6969072Y-12992084D02*
X6988120Y-12992084D01*
X6988120Y-12992084D02*
X7007167Y-13001608D01*
X7007167Y-13001608D02*
X7016691Y-13011131D01*
X7016691Y-13011131D02*
X7026215Y-13030179D01*
X7026215Y-13030179D02*
X7035739Y-13068274D01*
X7035739Y-13068274D02*
X7035739Y-13115893D01*
X7035739Y-13115893D02*
X7026215Y-13153988D01*
X7026215Y-13153988D02*
X7016691Y-13173036D01*
X7016691Y-13173036D02*
X7007167Y-13182560D01*
X7007167Y-13182560D02*
X6988120Y-13192084D01*
X6988120Y-13192084D02*
X6969072Y-13192084D01*
X6969072Y-13192084D02*
X6950024Y-13182560D01*
X6950024Y-13182560D02*
X6940501Y-13173036D01*
X6940501Y-13173036D02*
X6930977Y-13153988D01*
X6930977Y-13153988D02*
X6921453Y-13115893D01*
X6921453Y-13115893D02*
X6921453Y-13068274D01*
X6921453Y-13068274D02*
X6930977Y-13030179D01*
X6930977Y-13030179D02*
X6940501Y-13011131D01*
X6940501Y-13011131D02*
X6950024Y-13001608D01*
X6950024Y-13001608D02*
X6969072Y-12992084D01*
X7121453Y-13173036D02*
X7130977Y-13182560D01*
X7130977Y-13182560D02*
X7121453Y-13192084D01*
X7121453Y-13192084D02*
X7111929Y-13182560D01*
X7111929Y-13182560D02*
X7121453Y-13173036D01*
X7121453Y-13173036D02*
X7121453Y-13192084D01*
X7245262Y-13077798D02*
X7226215Y-13068274D01*
X7226215Y-13068274D02*
X7216691Y-13058750D01*
X7216691Y-13058750D02*
X7207167Y-13039703D01*
X7207167Y-13039703D02*
X7207167Y-13030179D01*
X7207167Y-13030179D02*
X7216691Y-13011131D01*
X7216691Y-13011131D02*
X7226215Y-13001608D01*
X7226215Y-13001608D02*
X7245262Y-12992084D01*
X7245262Y-12992084D02*
X7283358Y-12992084D01*
X7283358Y-12992084D02*
X7302405Y-13001608D01*
X7302405Y-13001608D02*
X7311929Y-13011131D01*
X7311929Y-13011131D02*
X7321453Y-13030179D01*
X7321453Y-13030179D02*
X7321453Y-13039703D01*
X7321453Y-13039703D02*
X7311929Y-13058750D01*
X7311929Y-13058750D02*
X7302405Y-13068274D01*
X7302405Y-13068274D02*
X7283358Y-13077798D01*
X7283358Y-13077798D02*
X7245262Y-13077798D01*
X7245262Y-13077798D02*
X7226215Y-13087322D01*
X7226215Y-13087322D02*
X7216691Y-13096846D01*
X7216691Y-13096846D02*
X7207167Y-13115893D01*
X7207167Y-13115893D02*
X7207167Y-13153988D01*
X7207167Y-13153988D02*
X7216691Y-13173036D01*
X7216691Y-13173036D02*
X7226215Y-13182560D01*
X7226215Y-13182560D02*
X7245262Y-13192084D01*
X7245262Y-13192084D02*
X7283358Y-13192084D01*
X7283358Y-13192084D02*
X7302405Y-13182560D01*
X7302405Y-13182560D02*
X7311929Y-13173036D01*
X7311929Y-13173036D02*
X7321453Y-13153988D01*
X7321453Y-13153988D02*
X7321453Y-13115893D01*
X7321453Y-13115893D02*
X7311929Y-13096846D01*
X7311929Y-13096846D02*
X7302405Y-13087322D01*
X7302405Y-13087322D02*
X7283358Y-13077798D01*
X7435739Y-13077798D02*
X7416691Y-13068274D01*
X7416691Y-13068274D02*
X7407167Y-13058750D01*
X7407167Y-13058750D02*
X7397643Y-13039703D01*
X7397643Y-13039703D02*
X7397643Y-13030179D01*
X7397643Y-13030179D02*
X7407167Y-13011131D01*
X7407167Y-13011131D02*
X7416691Y-13001608D01*
X7416691Y-13001608D02*
X7435739Y-12992084D01*
X7435739Y-12992084D02*
X7473834Y-12992084D01*
X7473834Y-12992084D02*
X7492882Y-13001608D01*
X7492882Y-13001608D02*
X7502405Y-13011131D01*
X7502405Y-13011131D02*
X7511929Y-13030179D01*
X7511929Y-13030179D02*
X7511929Y-13039703D01*
X7511929Y-13039703D02*
X7502405Y-13058750D01*
X7502405Y-13058750D02*
X7492882Y-13068274D01*
X7492882Y-13068274D02*
X7473834Y-13077798D01*
X7473834Y-13077798D02*
X7435739Y-13077798D01*
X7435739Y-13077798D02*
X7416691Y-13087322D01*
X7416691Y-13087322D02*
X7407167Y-13096846D01*
X7407167Y-13096846D02*
X7397643Y-13115893D01*
X7397643Y-13115893D02*
X7397643Y-13153988D01*
X7397643Y-13153988D02*
X7407167Y-13173036D01*
X7407167Y-13173036D02*
X7416691Y-13182560D01*
X7416691Y-13182560D02*
X7435739Y-13192084D01*
X7435739Y-13192084D02*
X7473834Y-13192084D01*
X7473834Y-13192084D02*
X7492882Y-13182560D01*
X7492882Y-13182560D02*
X7502405Y-13173036D01*
X7502405Y-13173036D02*
X7511929Y-13153988D01*
X7511929Y-13153988D02*
X7511929Y-13115893D01*
X7511929Y-13115893D02*
X7502405Y-13096846D01*
X7502405Y-13096846D02*
X7492882Y-13087322D01*
X7492882Y-13087322D02*
X7473834Y-13077798D01*
X7607167Y-13192084D02*
X7645262Y-13192084D01*
X7645262Y-13192084D02*
X7664310Y-13182560D01*
X7664310Y-13182560D02*
X7673834Y-13173036D01*
X7673834Y-13173036D02*
X7692882Y-13144465D01*
X7692882Y-13144465D02*
X7702405Y-13106369D01*
X7702405Y-13106369D02*
X7702405Y-13030179D01*
X7702405Y-13030179D02*
X7692882Y-13011131D01*
X7692882Y-13011131D02*
X7683358Y-13001608D01*
X7683358Y-13001608D02*
X7664310Y-12992084D01*
X7664310Y-12992084D02*
X7626215Y-12992084D01*
X7626215Y-12992084D02*
X7607167Y-13001608D01*
X7607167Y-13001608D02*
X7597643Y-13011131D01*
X7597643Y-13011131D02*
X7588120Y-13030179D01*
X7588120Y-13030179D02*
X7588120Y-13077798D01*
X7588120Y-13077798D02*
X7597643Y-13096846D01*
X7597643Y-13096846D02*
X7607167Y-13106369D01*
X7607167Y-13106369D02*
X7626215Y-13115893D01*
X7626215Y-13115893D02*
X7664310Y-13115893D01*
X7664310Y-13115893D02*
X7683358Y-13106369D01*
X7683358Y-13106369D02*
X7692882Y-13096846D01*
X7692882Y-13096846D02*
X7702405Y-13077798D01*
X7788120Y-13192084D02*
X7788120Y-13058750D01*
X7788120Y-13077798D02*
X7797643Y-13068274D01*
X7797643Y-13068274D02*
X7816691Y-13058750D01*
X7816691Y-13058750D02*
X7845263Y-13058750D01*
X7845263Y-13058750D02*
X7864310Y-13068274D01*
X7864310Y-13068274D02*
X7873834Y-13087322D01*
X7873834Y-13087322D02*
X7873834Y-13192084D01*
X7873834Y-13087322D02*
X7883358Y-13068274D01*
X7883358Y-13068274D02*
X7902405Y-13058750D01*
X7902405Y-13058750D02*
X7930977Y-13058750D01*
X7930977Y-13058750D02*
X7950024Y-13068274D01*
X7950024Y-13068274D02*
X7959548Y-13087322D01*
X7959548Y-13087322D02*
X7959548Y-13192084D01*
X8054786Y-13192084D02*
X8054786Y-13058750D01*
X8054786Y-13077798D02*
X8064310Y-13068274D01*
X8064310Y-13068274D02*
X8083358Y-13058750D01*
X8083358Y-13058750D02*
X8111929Y-13058750D01*
X8111929Y-13058750D02*
X8130977Y-13068274D01*
X8130977Y-13068274D02*
X8140501Y-13087322D01*
X8140501Y-13087322D02*
X8140501Y-13192084D01*
X8140501Y-13087322D02*
X8150024Y-13068274D01*
X8150024Y-13068274D02*
X8169072Y-13058750D01*
X8169072Y-13058750D02*
X8197643Y-13058750D01*
X8197643Y-13058750D02*
X8216691Y-13068274D01*
X8216691Y-13068274D02*
X8226215Y-13087322D01*
X8226215Y-13087322D02*
X8226215Y-13192084D01*
X8616691Y-12982560D02*
X8445263Y-13239703D01*
X8873834Y-12992084D02*
X8892882Y-12992084D01*
X8892882Y-12992084D02*
X8911929Y-13001608D01*
X8911929Y-13001608D02*
X8921453Y-13011131D01*
X8921453Y-13011131D02*
X8930977Y-13030179D01*
X8930977Y-13030179D02*
X8940501Y-13068274D01*
X8940501Y-13068274D02*
X8940501Y-13115893D01*
X8940501Y-13115893D02*
X8930977Y-13153988D01*
X8930977Y-13153988D02*
X8921453Y-13173036D01*
X8921453Y-13173036D02*
X8911929Y-13182560D01*
X8911929Y-13182560D02*
X8892882Y-13192084D01*
X8892882Y-13192084D02*
X8873834Y-13192084D01*
X8873834Y-13192084D02*
X8854787Y-13182560D01*
X8854787Y-13182560D02*
X8845263Y-13173036D01*
X8845263Y-13173036D02*
X8835739Y-13153988D01*
X8835739Y-13153988D02*
X8826215Y-13115893D01*
X8826215Y-13115893D02*
X8826215Y-13068274D01*
X8826215Y-13068274D02*
X8835739Y-13030179D01*
X8835739Y-13030179D02*
X8845263Y-13011131D01*
X8845263Y-13011131D02*
X8854787Y-13001608D01*
X8854787Y-13001608D02*
X8873834Y-12992084D01*
X9026215Y-13173036D02*
X9035739Y-13182560D01*
X9035739Y-13182560D02*
X9026215Y-13192084D01*
X9026215Y-13192084D02*
X9016691Y-13182560D01*
X9016691Y-13182560D02*
X9026215Y-13173036D01*
X9026215Y-13173036D02*
X9026215Y-13192084D01*
X9159548Y-12992084D02*
X9178596Y-12992084D01*
X9178596Y-12992084D02*
X9197644Y-13001608D01*
X9197644Y-13001608D02*
X9207168Y-13011131D01*
X9207168Y-13011131D02*
X9216691Y-13030179D01*
X9216691Y-13030179D02*
X9226215Y-13068274D01*
X9226215Y-13068274D02*
X9226215Y-13115893D01*
X9226215Y-13115893D02*
X9216691Y-13153988D01*
X9216691Y-13153988D02*
X9207168Y-13173036D01*
X9207168Y-13173036D02*
X9197644Y-13182560D01*
X9197644Y-13182560D02*
X9178596Y-13192084D01*
X9178596Y-13192084D02*
X9159548Y-13192084D01*
X9159548Y-13192084D02*
X9140501Y-13182560D01*
X9140501Y-13182560D02*
X9130977Y-13173036D01*
X9130977Y-13173036D02*
X9121453Y-13153988D01*
X9121453Y-13153988D02*
X9111929Y-13115893D01*
X9111929Y-13115893D02*
X9111929Y-13068274D01*
X9111929Y-13068274D02*
X9121453Y-13030179D01*
X9121453Y-13030179D02*
X9130977Y-13011131D01*
X9130977Y-13011131D02*
X9140501Y-13001608D01*
X9140501Y-13001608D02*
X9159548Y-12992084D01*
X9292882Y-12992084D02*
X9416691Y-12992084D01*
X9416691Y-12992084D02*
X9350025Y-13068274D01*
X9350025Y-13068274D02*
X9378596Y-13068274D01*
X9378596Y-13068274D02*
X9397644Y-13077798D01*
X9397644Y-13077798D02*
X9407168Y-13087322D01*
X9407168Y-13087322D02*
X9416691Y-13106369D01*
X9416691Y-13106369D02*
X9416691Y-13153988D01*
X9416691Y-13153988D02*
X9407168Y-13173036D01*
X9407168Y-13173036D02*
X9397644Y-13182560D01*
X9397644Y-13182560D02*
X9378596Y-13192084D01*
X9378596Y-13192084D02*
X9321453Y-13192084D01*
X9321453Y-13192084D02*
X9302406Y-13182560D01*
X9302406Y-13182560D02*
X9292882Y-13173036D01*
X9597644Y-12992084D02*
X9502406Y-12992084D01*
X9502406Y-12992084D02*
X9492882Y-13087322D01*
X9492882Y-13087322D02*
X9502406Y-13077798D01*
X9502406Y-13077798D02*
X9521453Y-13068274D01*
X9521453Y-13068274D02*
X9569072Y-13068274D01*
X9569072Y-13068274D02*
X9588120Y-13077798D01*
X9588120Y-13077798D02*
X9597644Y-13087322D01*
X9597644Y-13087322D02*
X9607168Y-13106369D01*
X9607168Y-13106369D02*
X9607168Y-13153988D01*
X9607168Y-13153988D02*
X9597644Y-13173036D01*
X9597644Y-13173036D02*
X9588120Y-13182560D01*
X9588120Y-13182560D02*
X9569072Y-13192084D01*
X9569072Y-13192084D02*
X9521453Y-13192084D01*
X9521453Y-13192084D02*
X9502406Y-13182560D01*
X9502406Y-13182560D02*
X9492882Y-13173036D01*
X9730977Y-12992084D02*
X9750025Y-12992084D01*
X9750025Y-12992084D02*
X9769072Y-13001608D01*
X9769072Y-13001608D02*
X9778596Y-13011131D01*
X9778596Y-13011131D02*
X9788120Y-13030179D01*
X9788120Y-13030179D02*
X9797644Y-13068274D01*
X9797644Y-13068274D02*
X9797644Y-13115893D01*
X9797644Y-13115893D02*
X9788120Y-13153988D01*
X9788120Y-13153988D02*
X9778596Y-13173036D01*
X9778596Y-13173036D02*
X9769072Y-13182560D01*
X9769072Y-13182560D02*
X9750025Y-13192084D01*
X9750025Y-13192084D02*
X9730977Y-13192084D01*
X9730977Y-13192084D02*
X9711929Y-13182560D01*
X9711929Y-13182560D02*
X9702406Y-13173036D01*
X9702406Y-13173036D02*
X9692882Y-13153988D01*
X9692882Y-13153988D02*
X9683358Y-13115893D01*
X9683358Y-13115893D02*
X9683358Y-13068274D01*
X9683358Y-13068274D02*
X9692882Y-13030179D01*
X9692882Y-13030179D02*
X9702406Y-13011131D01*
X9702406Y-13011131D02*
X9711929Y-13001608D01*
X9711929Y-13001608D02*
X9730977Y-12992084D01*
X9873834Y-12992084D02*
X9873834Y-13030179D01*
X9950025Y-12992084D02*
X9950025Y-13030179D01*
X10245263Y-13268274D02*
X10235739Y-13258750D01*
X10235739Y-13258750D02*
X10216691Y-13230179D01*
X10216691Y-13230179D02*
X10207168Y-13211131D01*
X10207168Y-13211131D02*
X10197644Y-13182560D01*
X10197644Y-13182560D02*
X10188120Y-13134941D01*
X10188120Y-13134941D02*
X10188120Y-13096846D01*
X10188120Y-13096846D02*
X10197644Y-13049227D01*
X10197644Y-13049227D02*
X10207168Y-13020655D01*
X10207168Y-13020655D02*
X10216691Y-13001608D01*
X10216691Y-13001608D02*
X10235739Y-12973036D01*
X10235739Y-12973036D02*
X10245263Y-12963512D01*
X10302406Y-12992084D02*
X10426215Y-12992084D01*
X10426215Y-12992084D02*
X10359549Y-13068274D01*
X10359549Y-13068274D02*
X10388120Y-13068274D01*
X10388120Y-13068274D02*
X10407168Y-13077798D01*
X10407168Y-13077798D02*
X10416691Y-13087322D01*
X10416691Y-13087322D02*
X10426215Y-13106369D01*
X10426215Y-13106369D02*
X10426215Y-13153988D01*
X10426215Y-13153988D02*
X10416691Y-13173036D01*
X10416691Y-13173036D02*
X10407168Y-13182560D01*
X10407168Y-13182560D02*
X10388120Y-13192084D01*
X10388120Y-13192084D02*
X10330977Y-13192084D01*
X10330977Y-13192084D02*
X10311930Y-13182560D01*
X10311930Y-13182560D02*
X10302406Y-13173036D01*
X10664311Y-13192084D02*
X10664311Y-12992084D01*
X10750025Y-13192084D02*
X10750025Y-13087322D01*
X10750025Y-13087322D02*
X10740501Y-13068274D01*
X10740501Y-13068274D02*
X10721453Y-13058750D01*
X10721453Y-13058750D02*
X10692882Y-13058750D01*
X10692882Y-13058750D02*
X10673834Y-13068274D01*
X10673834Y-13068274D02*
X10664311Y-13077798D01*
X10873834Y-13192084D02*
X10854787Y-13182560D01*
X10854787Y-13182560D02*
X10845263Y-13173036D01*
X10845263Y-13173036D02*
X10835739Y-13153988D01*
X10835739Y-13153988D02*
X10835739Y-13096846D01*
X10835739Y-13096846D02*
X10845263Y-13077798D01*
X10845263Y-13077798D02*
X10854787Y-13068274D01*
X10854787Y-13068274D02*
X10873834Y-13058750D01*
X10873834Y-13058750D02*
X10902406Y-13058750D01*
X10902406Y-13058750D02*
X10921453Y-13068274D01*
X10921453Y-13068274D02*
X10930977Y-13077798D01*
X10930977Y-13077798D02*
X10940501Y-13096846D01*
X10940501Y-13096846D02*
X10940501Y-13153988D01*
X10940501Y-13153988D02*
X10930977Y-13173036D01*
X10930977Y-13173036D02*
X10921453Y-13182560D01*
X10921453Y-13182560D02*
X10902406Y-13192084D01*
X10902406Y-13192084D02*
X10873834Y-13192084D01*
X11054787Y-13192084D02*
X11035739Y-13182560D01*
X11035739Y-13182560D02*
X11026215Y-13163512D01*
X11026215Y-13163512D02*
X11026215Y-12992084D01*
X11207168Y-13182560D02*
X11188120Y-13192084D01*
X11188120Y-13192084D02*
X11150025Y-13192084D01*
X11150025Y-13192084D02*
X11130977Y-13182560D01*
X11130977Y-13182560D02*
X11121453Y-13163512D01*
X11121453Y-13163512D02*
X11121453Y-13087322D01*
X11121453Y-13087322D02*
X11130977Y-13068274D01*
X11130977Y-13068274D02*
X11150025Y-13058750D01*
X11150025Y-13058750D02*
X11188120Y-13058750D01*
X11188120Y-13058750D02*
X11207168Y-13068274D01*
X11207168Y-13068274D02*
X11216691Y-13087322D01*
X11216691Y-13087322D02*
X11216691Y-13106369D01*
X11216691Y-13106369D02*
X11121453Y-13125417D01*
X11292882Y-13182560D02*
X11311930Y-13192084D01*
X11311930Y-13192084D02*
X11350025Y-13192084D01*
X11350025Y-13192084D02*
X11369072Y-13182560D01*
X11369072Y-13182560D02*
X11378596Y-13163512D01*
X11378596Y-13163512D02*
X11378596Y-13153988D01*
X11378596Y-13153988D02*
X11369072Y-13134941D01*
X11369072Y-13134941D02*
X11350025Y-13125417D01*
X11350025Y-13125417D02*
X11321453Y-13125417D01*
X11321453Y-13125417D02*
X11302406Y-13115893D01*
X11302406Y-13115893D02*
X11292882Y-13096846D01*
X11292882Y-13096846D02*
X11292882Y-13087322D01*
X11292882Y-13087322D02*
X11302406Y-13068274D01*
X11302406Y-13068274D02*
X11321453Y-13058750D01*
X11321453Y-13058750D02*
X11350025Y-13058750D01*
X11350025Y-13058750D02*
X11369072Y-13068274D01*
X11445263Y-13268274D02*
X11454787Y-13258750D01*
X11454787Y-13258750D02*
X11473834Y-13230179D01*
X11473834Y-13230179D02*
X11483358Y-13211131D01*
X11483358Y-13211131D02*
X11492882Y-13182560D01*
X11492882Y-13182560D02*
X11502406Y-13134941D01*
X11502406Y-13134941D02*
X11502406Y-13096846D01*
X11502406Y-13096846D02*
X11492882Y-13049227D01*
X11492882Y-13049227D02*
X11483358Y-13020655D01*
X11483358Y-13020655D02*
X11473834Y-13001608D01*
X11473834Y-13001608D02*
X11454787Y-12973036D01*
X11454787Y-12973036D02*
X11445263Y-12963512D01*
D15*
X6625200Y-13409600D02*
X6670200Y-13364600D01*
X6625200Y-13319600D01*
X6580200Y-13364600D01*
X6625200Y-13409600D01*
D10*
X6969072Y-13256084D02*
X6988120Y-13256084D01*
X6988120Y-13256084D02*
X7007167Y-13265608D01*
X7007167Y-13265608D02*
X7016691Y-13275131D01*
X7016691Y-13275131D02*
X7026215Y-13294179D01*
X7026215Y-13294179D02*
X7035739Y-13332274D01*
X7035739Y-13332274D02*
X7035739Y-13379893D01*
X7035739Y-13379893D02*
X7026215Y-13417988D01*
X7026215Y-13417988D02*
X7016691Y-13437036D01*
X7016691Y-13437036D02*
X7007167Y-13446560D01*
X7007167Y-13446560D02*
X6988120Y-13456084D01*
X6988120Y-13456084D02*
X6969072Y-13456084D01*
X6969072Y-13456084D02*
X6950024Y-13446560D01*
X6950024Y-13446560D02*
X6940501Y-13437036D01*
X6940501Y-13437036D02*
X6930977Y-13417988D01*
X6930977Y-13417988D02*
X6921453Y-13379893D01*
X6921453Y-13379893D02*
X6921453Y-13332274D01*
X6921453Y-13332274D02*
X6930977Y-13294179D01*
X6930977Y-13294179D02*
X6940501Y-13275131D01*
X6940501Y-13275131D02*
X6950024Y-13265608D01*
X6950024Y-13265608D02*
X6969072Y-13256084D01*
X7121453Y-13437036D02*
X7130977Y-13446560D01*
X7130977Y-13446560D02*
X7121453Y-13456084D01*
X7121453Y-13456084D02*
X7111929Y-13446560D01*
X7111929Y-13446560D02*
X7121453Y-13437036D01*
X7121453Y-13437036D02*
X7121453Y-13456084D01*
X7226215Y-13456084D02*
X7264310Y-13456084D01*
X7264310Y-13456084D02*
X7283358Y-13446560D01*
X7283358Y-13446560D02*
X7292882Y-13437036D01*
X7292882Y-13437036D02*
X7311929Y-13408465D01*
X7311929Y-13408465D02*
X7321453Y-13370369D01*
X7321453Y-13370369D02*
X7321453Y-13294179D01*
X7321453Y-13294179D02*
X7311929Y-13275131D01*
X7311929Y-13275131D02*
X7302405Y-13265608D01*
X7302405Y-13265608D02*
X7283358Y-13256084D01*
X7283358Y-13256084D02*
X7245262Y-13256084D01*
X7245262Y-13256084D02*
X7226215Y-13265608D01*
X7226215Y-13265608D02*
X7216691Y-13275131D01*
X7216691Y-13275131D02*
X7207167Y-13294179D01*
X7207167Y-13294179D02*
X7207167Y-13341798D01*
X7207167Y-13341798D02*
X7216691Y-13360846D01*
X7216691Y-13360846D02*
X7226215Y-13370369D01*
X7226215Y-13370369D02*
X7245262Y-13379893D01*
X7245262Y-13379893D02*
X7283358Y-13379893D01*
X7283358Y-13379893D02*
X7302405Y-13370369D01*
X7302405Y-13370369D02*
X7311929Y-13360846D01*
X7311929Y-13360846D02*
X7321453Y-13341798D01*
X7445262Y-13256084D02*
X7464310Y-13256084D01*
X7464310Y-13256084D02*
X7483358Y-13265608D01*
X7483358Y-13265608D02*
X7492882Y-13275131D01*
X7492882Y-13275131D02*
X7502405Y-13294179D01*
X7502405Y-13294179D02*
X7511929Y-13332274D01*
X7511929Y-13332274D02*
X7511929Y-13379893D01*
X7511929Y-13379893D02*
X7502405Y-13417988D01*
X7502405Y-13417988D02*
X7492882Y-13437036D01*
X7492882Y-13437036D02*
X7483358Y-13446560D01*
X7483358Y-13446560D02*
X7464310Y-13456084D01*
X7464310Y-13456084D02*
X7445262Y-13456084D01*
X7445262Y-13456084D02*
X7426215Y-13446560D01*
X7426215Y-13446560D02*
X7416691Y-13437036D01*
X7416691Y-13437036D02*
X7407167Y-13417988D01*
X7407167Y-13417988D02*
X7397643Y-13379893D01*
X7397643Y-13379893D02*
X7397643Y-13332274D01*
X7397643Y-13332274D02*
X7407167Y-13294179D01*
X7407167Y-13294179D02*
X7416691Y-13275131D01*
X7416691Y-13275131D02*
X7426215Y-13265608D01*
X7426215Y-13265608D02*
X7445262Y-13256084D01*
X7635739Y-13256084D02*
X7654786Y-13256084D01*
X7654786Y-13256084D02*
X7673834Y-13265608D01*
X7673834Y-13265608D02*
X7683358Y-13275131D01*
X7683358Y-13275131D02*
X7692882Y-13294179D01*
X7692882Y-13294179D02*
X7702405Y-13332274D01*
X7702405Y-13332274D02*
X7702405Y-13379893D01*
X7702405Y-13379893D02*
X7692882Y-13417988D01*
X7692882Y-13417988D02*
X7683358Y-13437036D01*
X7683358Y-13437036D02*
X7673834Y-13446560D01*
X7673834Y-13446560D02*
X7654786Y-13456084D01*
X7654786Y-13456084D02*
X7635739Y-13456084D01*
X7635739Y-13456084D02*
X7616691Y-13446560D01*
X7616691Y-13446560D02*
X7607167Y-13437036D01*
X7607167Y-13437036D02*
X7597643Y-13417988D01*
X7597643Y-13417988D02*
X7588120Y-13379893D01*
X7588120Y-13379893D02*
X7588120Y-13332274D01*
X7588120Y-13332274D02*
X7597643Y-13294179D01*
X7597643Y-13294179D02*
X7607167Y-13275131D01*
X7607167Y-13275131D02*
X7616691Y-13265608D01*
X7616691Y-13265608D02*
X7635739Y-13256084D01*
X7788120Y-13456084D02*
X7788120Y-13322750D01*
X7788120Y-13341798D02*
X7797643Y-13332274D01*
X7797643Y-13332274D02*
X7816691Y-13322750D01*
X7816691Y-13322750D02*
X7845263Y-13322750D01*
X7845263Y-13322750D02*
X7864310Y-13332274D01*
X7864310Y-13332274D02*
X7873834Y-13351322D01*
X7873834Y-13351322D02*
X7873834Y-13456084D01*
X7873834Y-13351322D02*
X7883358Y-13332274D01*
X7883358Y-13332274D02*
X7902405Y-13322750D01*
X7902405Y-13322750D02*
X7930977Y-13322750D01*
X7930977Y-13322750D02*
X7950024Y-13332274D01*
X7950024Y-13332274D02*
X7959548Y-13351322D01*
X7959548Y-13351322D02*
X7959548Y-13456084D01*
X8054786Y-13456084D02*
X8054786Y-13322750D01*
X8054786Y-13341798D02*
X8064310Y-13332274D01*
X8064310Y-13332274D02*
X8083358Y-13322750D01*
X8083358Y-13322750D02*
X8111929Y-13322750D01*
X8111929Y-13322750D02*
X8130977Y-13332274D01*
X8130977Y-13332274D02*
X8140501Y-13351322D01*
X8140501Y-13351322D02*
X8140501Y-13456084D01*
X8140501Y-13351322D02*
X8150024Y-13332274D01*
X8150024Y-13332274D02*
X8169072Y-13322750D01*
X8169072Y-13322750D02*
X8197643Y-13322750D01*
X8197643Y-13322750D02*
X8216691Y-13332274D01*
X8216691Y-13332274D02*
X8226215Y-13351322D01*
X8226215Y-13351322D02*
X8226215Y-13456084D01*
X8616691Y-13246560D02*
X8445263Y-13503703D01*
X8873834Y-13256084D02*
X8892882Y-13256084D01*
X8892882Y-13256084D02*
X8911929Y-13265608D01*
X8911929Y-13265608D02*
X8921453Y-13275131D01*
X8921453Y-13275131D02*
X8930977Y-13294179D01*
X8930977Y-13294179D02*
X8940501Y-13332274D01*
X8940501Y-13332274D02*
X8940501Y-13379893D01*
X8940501Y-13379893D02*
X8930977Y-13417988D01*
X8930977Y-13417988D02*
X8921453Y-13437036D01*
X8921453Y-13437036D02*
X8911929Y-13446560D01*
X8911929Y-13446560D02*
X8892882Y-13456084D01*
X8892882Y-13456084D02*
X8873834Y-13456084D01*
X8873834Y-13456084D02*
X8854787Y-13446560D01*
X8854787Y-13446560D02*
X8845263Y-13437036D01*
X8845263Y-13437036D02*
X8835739Y-13417988D01*
X8835739Y-13417988D02*
X8826215Y-13379893D01*
X8826215Y-13379893D02*
X8826215Y-13332274D01*
X8826215Y-13332274D02*
X8835739Y-13294179D01*
X8835739Y-13294179D02*
X8845263Y-13275131D01*
X8845263Y-13275131D02*
X8854787Y-13265608D01*
X8854787Y-13265608D02*
X8873834Y-13256084D01*
X9026215Y-13437036D02*
X9035739Y-13446560D01*
X9035739Y-13446560D02*
X9026215Y-13456084D01*
X9026215Y-13456084D02*
X9016691Y-13446560D01*
X9016691Y-13446560D02*
X9026215Y-13437036D01*
X9026215Y-13437036D02*
X9026215Y-13456084D01*
X9159548Y-13256084D02*
X9178596Y-13256084D01*
X9178596Y-13256084D02*
X9197644Y-13265608D01*
X9197644Y-13265608D02*
X9207168Y-13275131D01*
X9207168Y-13275131D02*
X9216691Y-13294179D01*
X9216691Y-13294179D02*
X9226215Y-13332274D01*
X9226215Y-13332274D02*
X9226215Y-13379893D01*
X9226215Y-13379893D02*
X9216691Y-13417988D01*
X9216691Y-13417988D02*
X9207168Y-13437036D01*
X9207168Y-13437036D02*
X9197644Y-13446560D01*
X9197644Y-13446560D02*
X9178596Y-13456084D01*
X9178596Y-13456084D02*
X9159548Y-13456084D01*
X9159548Y-13456084D02*
X9140501Y-13446560D01*
X9140501Y-13446560D02*
X9130977Y-13437036D01*
X9130977Y-13437036D02*
X9121453Y-13417988D01*
X9121453Y-13417988D02*
X9111929Y-13379893D01*
X9111929Y-13379893D02*
X9111929Y-13332274D01*
X9111929Y-13332274D02*
X9121453Y-13294179D01*
X9121453Y-13294179D02*
X9130977Y-13275131D01*
X9130977Y-13275131D02*
X9140501Y-13265608D01*
X9140501Y-13265608D02*
X9159548Y-13256084D01*
X9292882Y-13256084D02*
X9416691Y-13256084D01*
X9416691Y-13256084D02*
X9350025Y-13332274D01*
X9350025Y-13332274D02*
X9378596Y-13332274D01*
X9378596Y-13332274D02*
X9397644Y-13341798D01*
X9397644Y-13341798D02*
X9407168Y-13351322D01*
X9407168Y-13351322D02*
X9416691Y-13370369D01*
X9416691Y-13370369D02*
X9416691Y-13417988D01*
X9416691Y-13417988D02*
X9407168Y-13437036D01*
X9407168Y-13437036D02*
X9397644Y-13446560D01*
X9397644Y-13446560D02*
X9378596Y-13456084D01*
X9378596Y-13456084D02*
X9321453Y-13456084D01*
X9321453Y-13456084D02*
X9302406Y-13446560D01*
X9302406Y-13446560D02*
X9292882Y-13437036D01*
X9597644Y-13256084D02*
X9502406Y-13256084D01*
X9502406Y-13256084D02*
X9492882Y-13351322D01*
X9492882Y-13351322D02*
X9502406Y-13341798D01*
X9502406Y-13341798D02*
X9521453Y-13332274D01*
X9521453Y-13332274D02*
X9569072Y-13332274D01*
X9569072Y-13332274D02*
X9588120Y-13341798D01*
X9588120Y-13341798D02*
X9597644Y-13351322D01*
X9597644Y-13351322D02*
X9607168Y-13370369D01*
X9607168Y-13370369D02*
X9607168Y-13417988D01*
X9607168Y-13417988D02*
X9597644Y-13437036D01*
X9597644Y-13437036D02*
X9588120Y-13446560D01*
X9588120Y-13446560D02*
X9569072Y-13456084D01*
X9569072Y-13456084D02*
X9521453Y-13456084D01*
X9521453Y-13456084D02*
X9502406Y-13446560D01*
X9502406Y-13446560D02*
X9492882Y-13437036D01*
X9778596Y-13322750D02*
X9778596Y-13456084D01*
X9730977Y-13246560D02*
X9683358Y-13389417D01*
X9683358Y-13389417D02*
X9807168Y-13389417D01*
X9873834Y-13256084D02*
X9873834Y-13294179D01*
X9950025Y-13256084D02*
X9950025Y-13294179D01*
X10245263Y-13532274D02*
X10235739Y-13522750D01*
X10235739Y-13522750D02*
X10216691Y-13494179D01*
X10216691Y-13494179D02*
X10207168Y-13475131D01*
X10207168Y-13475131D02*
X10197644Y-13446560D01*
X10197644Y-13446560D02*
X10188120Y-13398941D01*
X10188120Y-13398941D02*
X10188120Y-13360846D01*
X10188120Y-13360846D02*
X10197644Y-13313227D01*
X10197644Y-13313227D02*
X10207168Y-13284655D01*
X10207168Y-13284655D02*
X10216691Y-13265608D01*
X10216691Y-13265608D02*
X10235739Y-13237036D01*
X10235739Y-13237036D02*
X10245263Y-13227512D01*
X10416691Y-13256084D02*
X10321453Y-13256084D01*
X10321453Y-13256084D02*
X10311930Y-13351322D01*
X10311930Y-13351322D02*
X10321453Y-13341798D01*
X10321453Y-13341798D02*
X10340501Y-13332274D01*
X10340501Y-13332274D02*
X10388120Y-13332274D01*
X10388120Y-13332274D02*
X10407168Y-13341798D01*
X10407168Y-13341798D02*
X10416691Y-13351322D01*
X10416691Y-13351322D02*
X10426215Y-13370369D01*
X10426215Y-13370369D02*
X10426215Y-13417988D01*
X10426215Y-13417988D02*
X10416691Y-13437036D01*
X10416691Y-13437036D02*
X10407168Y-13446560D01*
X10407168Y-13446560D02*
X10388120Y-13456084D01*
X10388120Y-13456084D02*
X10340501Y-13456084D01*
X10340501Y-13456084D02*
X10321453Y-13446560D01*
X10321453Y-13446560D02*
X10311930Y-13437036D01*
X10597644Y-13256084D02*
X10559549Y-13256084D01*
X10559549Y-13256084D02*
X10540501Y-13265608D01*
X10540501Y-13265608D02*
X10530977Y-13275131D01*
X10530977Y-13275131D02*
X10511930Y-13303703D01*
X10511930Y-13303703D02*
X10502406Y-13341798D01*
X10502406Y-13341798D02*
X10502406Y-13417988D01*
X10502406Y-13417988D02*
X10511930Y-13437036D01*
X10511930Y-13437036D02*
X10521453Y-13446560D01*
X10521453Y-13446560D02*
X10540501Y-13456084D01*
X10540501Y-13456084D02*
X10578596Y-13456084D01*
X10578596Y-13456084D02*
X10597644Y-13446560D01*
X10597644Y-13446560D02*
X10607168Y-13437036D01*
X10607168Y-13437036D02*
X10616691Y-13417988D01*
X10616691Y-13417988D02*
X10616691Y-13370369D01*
X10616691Y-13370369D02*
X10607168Y-13351322D01*
X10607168Y-13351322D02*
X10597644Y-13341798D01*
X10597644Y-13341798D02*
X10578596Y-13332274D01*
X10578596Y-13332274D02*
X10540501Y-13332274D01*
X10540501Y-13332274D02*
X10521453Y-13341798D01*
X10521453Y-13341798D02*
X10511930Y-13351322D01*
X10511930Y-13351322D02*
X10502406Y-13370369D01*
X10854787Y-13456084D02*
X10854787Y-13256084D01*
X10940501Y-13456084D02*
X10940501Y-13351322D01*
X10940501Y-13351322D02*
X10930977Y-13332274D01*
X10930977Y-13332274D02*
X10911930Y-13322750D01*
X10911930Y-13322750D02*
X10883358Y-13322750D01*
X10883358Y-13322750D02*
X10864311Y-13332274D01*
X10864311Y-13332274D02*
X10854787Y-13341798D01*
X11064311Y-13456084D02*
X11045263Y-13446560D01*
X11045263Y-13446560D02*
X11035739Y-13437036D01*
X11035739Y-13437036D02*
X11026215Y-13417988D01*
X11026215Y-13417988D02*
X11026215Y-13360846D01*
X11026215Y-13360846D02*
X11035739Y-13341798D01*
X11035739Y-13341798D02*
X11045263Y-13332274D01*
X11045263Y-13332274D02*
X11064311Y-13322750D01*
X11064311Y-13322750D02*
X11092882Y-13322750D01*
X11092882Y-13322750D02*
X11111930Y-13332274D01*
X11111930Y-13332274D02*
X11121453Y-13341798D01*
X11121453Y-13341798D02*
X11130977Y-13360846D01*
X11130977Y-13360846D02*
X11130977Y-13417988D01*
X11130977Y-13417988D02*
X11121453Y-13437036D01*
X11121453Y-13437036D02*
X11111930Y-13446560D01*
X11111930Y-13446560D02*
X11092882Y-13456084D01*
X11092882Y-13456084D02*
X11064311Y-13456084D01*
X11245263Y-13456084D02*
X11226215Y-13446560D01*
X11226215Y-13446560D02*
X11216691Y-13427512D01*
X11216691Y-13427512D02*
X11216691Y-13256084D01*
X11397644Y-13446560D02*
X11378596Y-13456084D01*
X11378596Y-13456084D02*
X11340501Y-13456084D01*
X11340501Y-13456084D02*
X11321453Y-13446560D01*
X11321453Y-13446560D02*
X11311930Y-13427512D01*
X11311930Y-13427512D02*
X11311930Y-13351322D01*
X11311930Y-13351322D02*
X11321453Y-13332274D01*
X11321453Y-13332274D02*
X11340501Y-13322750D01*
X11340501Y-13322750D02*
X11378596Y-13322750D01*
X11378596Y-13322750D02*
X11397644Y-13332274D01*
X11397644Y-13332274D02*
X11407168Y-13351322D01*
X11407168Y-13351322D02*
X11407168Y-13370369D01*
X11407168Y-13370369D02*
X11311930Y-13389417D01*
X11483358Y-13446560D02*
X11502406Y-13456084D01*
X11502406Y-13456084D02*
X11540501Y-13456084D01*
X11540501Y-13456084D02*
X11559549Y-13446560D01*
X11559549Y-13446560D02*
X11569072Y-13427512D01*
X11569072Y-13427512D02*
X11569072Y-13417988D01*
X11569072Y-13417988D02*
X11559549Y-13398941D01*
X11559549Y-13398941D02*
X11540501Y-13389417D01*
X11540501Y-13389417D02*
X11511930Y-13389417D01*
X11511930Y-13389417D02*
X11492882Y-13379893D01*
X11492882Y-13379893D02*
X11483358Y-13360846D01*
X11483358Y-13360846D02*
X11483358Y-13351322D01*
X11483358Y-13351322D02*
X11492882Y-13332274D01*
X11492882Y-13332274D02*
X11511930Y-13322750D01*
X11511930Y-13322750D02*
X11540501Y-13322750D01*
X11540501Y-13322750D02*
X11559549Y-13332274D01*
X11635739Y-13532274D02*
X11645263Y-13522750D01*
X11645263Y-13522750D02*
X11664311Y-13494179D01*
X11664311Y-13494179D02*
X11673834Y-13475131D01*
X11673834Y-13475131D02*
X11683358Y-13446560D01*
X11683358Y-13446560D02*
X11692882Y-13398941D01*
X11692882Y-13398941D02*
X11692882Y-13360846D01*
X11692882Y-13360846D02*
X11683358Y-13313227D01*
X11683358Y-13313227D02*
X11673834Y-13284655D01*
X11673834Y-13284655D02*
X11664311Y-13265608D01*
X11664311Y-13265608D02*
X11645263Y-13237036D01*
X11645263Y-13237036D02*
X11635739Y-13227512D01*
D16*
X6568200Y-13577600D02*
X6670200Y-13679600D01*
X6670200Y-13577600D02*
X6568200Y-13679600D01*
X6670200Y-13628600D02*
G75*
G03*
X6670200Y-13628600I-51000J0D01*
G01*
D10*
X7035739Y-13720084D02*
X6921453Y-13720084D01*
X6978596Y-13720084D02*
X6978596Y-13520084D01*
X6978596Y-13520084D02*
X6959548Y-13548655D01*
X6959548Y-13548655D02*
X6940501Y-13567703D01*
X6940501Y-13567703D02*
X6921453Y-13577227D01*
X7121453Y-13701036D02*
X7130977Y-13710560D01*
X7130977Y-13710560D02*
X7121453Y-13720084D01*
X7121453Y-13720084D02*
X7111929Y-13710560D01*
X7111929Y-13710560D02*
X7121453Y-13701036D01*
X7121453Y-13701036D02*
X7121453Y-13720084D01*
X7254786Y-13520084D02*
X7273834Y-13520084D01*
X7273834Y-13520084D02*
X7292882Y-13529608D01*
X7292882Y-13529608D02*
X7302405Y-13539131D01*
X7302405Y-13539131D02*
X7311929Y-13558179D01*
X7311929Y-13558179D02*
X7321453Y-13596274D01*
X7321453Y-13596274D02*
X7321453Y-13643893D01*
X7321453Y-13643893D02*
X7311929Y-13681988D01*
X7311929Y-13681988D02*
X7302405Y-13701036D01*
X7302405Y-13701036D02*
X7292882Y-13710560D01*
X7292882Y-13710560D02*
X7273834Y-13720084D01*
X7273834Y-13720084D02*
X7254786Y-13720084D01*
X7254786Y-13720084D02*
X7235739Y-13710560D01*
X7235739Y-13710560D02*
X7226215Y-13701036D01*
X7226215Y-13701036D02*
X7216691Y-13681988D01*
X7216691Y-13681988D02*
X7207167Y-13643893D01*
X7207167Y-13643893D02*
X7207167Y-13596274D01*
X7207167Y-13596274D02*
X7216691Y-13558179D01*
X7216691Y-13558179D02*
X7226215Y-13539131D01*
X7226215Y-13539131D02*
X7235739Y-13529608D01*
X7235739Y-13529608D02*
X7254786Y-13520084D01*
X7397643Y-13539131D02*
X7407167Y-13529608D01*
X7407167Y-13529608D02*
X7426215Y-13520084D01*
X7426215Y-13520084D02*
X7473834Y-13520084D01*
X7473834Y-13520084D02*
X7492882Y-13529608D01*
X7492882Y-13529608D02*
X7502405Y-13539131D01*
X7502405Y-13539131D02*
X7511929Y-13558179D01*
X7511929Y-13558179D02*
X7511929Y-13577227D01*
X7511929Y-13577227D02*
X7502405Y-13605798D01*
X7502405Y-13605798D02*
X7388120Y-13720084D01*
X7388120Y-13720084D02*
X7511929Y-13720084D01*
X7635739Y-13520084D02*
X7654786Y-13520084D01*
X7654786Y-13520084D02*
X7673834Y-13529608D01*
X7673834Y-13529608D02*
X7683358Y-13539131D01*
X7683358Y-13539131D02*
X7692882Y-13558179D01*
X7692882Y-13558179D02*
X7702405Y-13596274D01*
X7702405Y-13596274D02*
X7702405Y-13643893D01*
X7702405Y-13643893D02*
X7692882Y-13681988D01*
X7692882Y-13681988D02*
X7683358Y-13701036D01*
X7683358Y-13701036D02*
X7673834Y-13710560D01*
X7673834Y-13710560D02*
X7654786Y-13720084D01*
X7654786Y-13720084D02*
X7635739Y-13720084D01*
X7635739Y-13720084D02*
X7616691Y-13710560D01*
X7616691Y-13710560D02*
X7607167Y-13701036D01*
X7607167Y-13701036D02*
X7597643Y-13681988D01*
X7597643Y-13681988D02*
X7588120Y-13643893D01*
X7588120Y-13643893D02*
X7588120Y-13596274D01*
X7588120Y-13596274D02*
X7597643Y-13558179D01*
X7597643Y-13558179D02*
X7607167Y-13539131D01*
X7607167Y-13539131D02*
X7616691Y-13529608D01*
X7616691Y-13529608D02*
X7635739Y-13520084D01*
X7788120Y-13720084D02*
X7788120Y-13586750D01*
X7788120Y-13605798D02*
X7797643Y-13596274D01*
X7797643Y-13596274D02*
X7816691Y-13586750D01*
X7816691Y-13586750D02*
X7845263Y-13586750D01*
X7845263Y-13586750D02*
X7864310Y-13596274D01*
X7864310Y-13596274D02*
X7873834Y-13615322D01*
X7873834Y-13615322D02*
X7873834Y-13720084D01*
X7873834Y-13615322D02*
X7883358Y-13596274D01*
X7883358Y-13596274D02*
X7902405Y-13586750D01*
X7902405Y-13586750D02*
X7930977Y-13586750D01*
X7930977Y-13586750D02*
X7950024Y-13596274D01*
X7950024Y-13596274D02*
X7959548Y-13615322D01*
X7959548Y-13615322D02*
X7959548Y-13720084D01*
X8054786Y-13720084D02*
X8054786Y-13586750D01*
X8054786Y-13605798D02*
X8064310Y-13596274D01*
X8064310Y-13596274D02*
X8083358Y-13586750D01*
X8083358Y-13586750D02*
X8111929Y-13586750D01*
X8111929Y-13586750D02*
X8130977Y-13596274D01*
X8130977Y-13596274D02*
X8140501Y-13615322D01*
X8140501Y-13615322D02*
X8140501Y-13720084D01*
X8140501Y-13615322D02*
X8150024Y-13596274D01*
X8150024Y-13596274D02*
X8169072Y-13586750D01*
X8169072Y-13586750D02*
X8197643Y-13586750D01*
X8197643Y-13586750D02*
X8216691Y-13596274D01*
X8216691Y-13596274D02*
X8226215Y-13615322D01*
X8226215Y-13615322D02*
X8226215Y-13720084D01*
X8616691Y-13510560D02*
X8445263Y-13767703D01*
X8873834Y-13520084D02*
X8892882Y-13520084D01*
X8892882Y-13520084D02*
X8911929Y-13529608D01*
X8911929Y-13529608D02*
X8921453Y-13539131D01*
X8921453Y-13539131D02*
X8930977Y-13558179D01*
X8930977Y-13558179D02*
X8940501Y-13596274D01*
X8940501Y-13596274D02*
X8940501Y-13643893D01*
X8940501Y-13643893D02*
X8930977Y-13681988D01*
X8930977Y-13681988D02*
X8921453Y-13701036D01*
X8921453Y-13701036D02*
X8911929Y-13710560D01*
X8911929Y-13710560D02*
X8892882Y-13720084D01*
X8892882Y-13720084D02*
X8873834Y-13720084D01*
X8873834Y-13720084D02*
X8854787Y-13710560D01*
X8854787Y-13710560D02*
X8845263Y-13701036D01*
X8845263Y-13701036D02*
X8835739Y-13681988D01*
X8835739Y-13681988D02*
X8826215Y-13643893D01*
X8826215Y-13643893D02*
X8826215Y-13596274D01*
X8826215Y-13596274D02*
X8835739Y-13558179D01*
X8835739Y-13558179D02*
X8845263Y-13539131D01*
X8845263Y-13539131D02*
X8854787Y-13529608D01*
X8854787Y-13529608D02*
X8873834Y-13520084D01*
X9026215Y-13701036D02*
X9035739Y-13710560D01*
X9035739Y-13710560D02*
X9026215Y-13720084D01*
X9026215Y-13720084D02*
X9016691Y-13710560D01*
X9016691Y-13710560D02*
X9026215Y-13701036D01*
X9026215Y-13701036D02*
X9026215Y-13720084D01*
X9159548Y-13520084D02*
X9178596Y-13520084D01*
X9178596Y-13520084D02*
X9197644Y-13529608D01*
X9197644Y-13529608D02*
X9207168Y-13539131D01*
X9207168Y-13539131D02*
X9216691Y-13558179D01*
X9216691Y-13558179D02*
X9226215Y-13596274D01*
X9226215Y-13596274D02*
X9226215Y-13643893D01*
X9226215Y-13643893D02*
X9216691Y-13681988D01*
X9216691Y-13681988D02*
X9207168Y-13701036D01*
X9207168Y-13701036D02*
X9197644Y-13710560D01*
X9197644Y-13710560D02*
X9178596Y-13720084D01*
X9178596Y-13720084D02*
X9159548Y-13720084D01*
X9159548Y-13720084D02*
X9140501Y-13710560D01*
X9140501Y-13710560D02*
X9130977Y-13701036D01*
X9130977Y-13701036D02*
X9121453Y-13681988D01*
X9121453Y-13681988D02*
X9111929Y-13643893D01*
X9111929Y-13643893D02*
X9111929Y-13596274D01*
X9111929Y-13596274D02*
X9121453Y-13558179D01*
X9121453Y-13558179D02*
X9130977Y-13539131D01*
X9130977Y-13539131D02*
X9140501Y-13529608D01*
X9140501Y-13529608D02*
X9159548Y-13520084D01*
X9397644Y-13586750D02*
X9397644Y-13720084D01*
X9350025Y-13510560D02*
X9302406Y-13653417D01*
X9302406Y-13653417D02*
X9426215Y-13653417D01*
X9540501Y-13520084D02*
X9559549Y-13520084D01*
X9559549Y-13520084D02*
X9578596Y-13529608D01*
X9578596Y-13529608D02*
X9588120Y-13539131D01*
X9588120Y-13539131D02*
X9597644Y-13558179D01*
X9597644Y-13558179D02*
X9607168Y-13596274D01*
X9607168Y-13596274D02*
X9607168Y-13643893D01*
X9607168Y-13643893D02*
X9597644Y-13681988D01*
X9597644Y-13681988D02*
X9588120Y-13701036D01*
X9588120Y-13701036D02*
X9578596Y-13710560D01*
X9578596Y-13710560D02*
X9559549Y-13720084D01*
X9559549Y-13720084D02*
X9540501Y-13720084D01*
X9540501Y-13720084D02*
X9521453Y-13710560D01*
X9521453Y-13710560D02*
X9511929Y-13701036D01*
X9511929Y-13701036D02*
X9502406Y-13681988D01*
X9502406Y-13681988D02*
X9492882Y-13643893D01*
X9492882Y-13643893D02*
X9492882Y-13596274D01*
X9492882Y-13596274D02*
X9502406Y-13558179D01*
X9502406Y-13558179D02*
X9511929Y-13539131D01*
X9511929Y-13539131D02*
X9521453Y-13529608D01*
X9521453Y-13529608D02*
X9540501Y-13520084D01*
X9683358Y-13539131D02*
X9692882Y-13529608D01*
X9692882Y-13529608D02*
X9711929Y-13520084D01*
X9711929Y-13520084D02*
X9759549Y-13520084D01*
X9759549Y-13520084D02*
X9778596Y-13529608D01*
X9778596Y-13529608D02*
X9788120Y-13539131D01*
X9788120Y-13539131D02*
X9797644Y-13558179D01*
X9797644Y-13558179D02*
X9797644Y-13577227D01*
X9797644Y-13577227D02*
X9788120Y-13605798D01*
X9788120Y-13605798D02*
X9673834Y-13720084D01*
X9673834Y-13720084D02*
X9797644Y-13720084D01*
X9873834Y-13520084D02*
X9873834Y-13558179D01*
X9950025Y-13520084D02*
X9950025Y-13558179D01*
X10245263Y-13796274D02*
X10235739Y-13786750D01*
X10235739Y-13786750D02*
X10216691Y-13758179D01*
X10216691Y-13758179D02*
X10207168Y-13739131D01*
X10207168Y-13739131D02*
X10197644Y-13710560D01*
X10197644Y-13710560D02*
X10188120Y-13662941D01*
X10188120Y-13662941D02*
X10188120Y-13624846D01*
X10188120Y-13624846D02*
X10197644Y-13577227D01*
X10197644Y-13577227D02*
X10207168Y-13548655D01*
X10207168Y-13548655D02*
X10216691Y-13529608D01*
X10216691Y-13529608D02*
X10235739Y-13501036D01*
X10235739Y-13501036D02*
X10245263Y-13491512D01*
X10407168Y-13586750D02*
X10407168Y-13720084D01*
X10359549Y-13510560D02*
X10311930Y-13653417D01*
X10311930Y-13653417D02*
X10435739Y-13653417D01*
X10664311Y-13720084D02*
X10664311Y-13520084D01*
X10750025Y-13720084D02*
X10750025Y-13615322D01*
X10750025Y-13615322D02*
X10740501Y-13596274D01*
X10740501Y-13596274D02*
X10721453Y-13586750D01*
X10721453Y-13586750D02*
X10692882Y-13586750D01*
X10692882Y-13586750D02*
X10673834Y-13596274D01*
X10673834Y-13596274D02*
X10664311Y-13605798D01*
X10873834Y-13720084D02*
X10854787Y-13710560D01*
X10854787Y-13710560D02*
X10845263Y-13701036D01*
X10845263Y-13701036D02*
X10835739Y-13681988D01*
X10835739Y-13681988D02*
X10835739Y-13624846D01*
X10835739Y-13624846D02*
X10845263Y-13605798D01*
X10845263Y-13605798D02*
X10854787Y-13596274D01*
X10854787Y-13596274D02*
X10873834Y-13586750D01*
X10873834Y-13586750D02*
X10902406Y-13586750D01*
X10902406Y-13586750D02*
X10921453Y-13596274D01*
X10921453Y-13596274D02*
X10930977Y-13605798D01*
X10930977Y-13605798D02*
X10940501Y-13624846D01*
X10940501Y-13624846D02*
X10940501Y-13681988D01*
X10940501Y-13681988D02*
X10930977Y-13701036D01*
X10930977Y-13701036D02*
X10921453Y-13710560D01*
X10921453Y-13710560D02*
X10902406Y-13720084D01*
X10902406Y-13720084D02*
X10873834Y-13720084D01*
X11054787Y-13720084D02*
X11035739Y-13710560D01*
X11035739Y-13710560D02*
X11026215Y-13691512D01*
X11026215Y-13691512D02*
X11026215Y-13520084D01*
X11207168Y-13710560D02*
X11188120Y-13720084D01*
X11188120Y-13720084D02*
X11150025Y-13720084D01*
X11150025Y-13720084D02*
X11130977Y-13710560D01*
X11130977Y-13710560D02*
X11121453Y-13691512D01*
X11121453Y-13691512D02*
X11121453Y-13615322D01*
X11121453Y-13615322D02*
X11130977Y-13596274D01*
X11130977Y-13596274D02*
X11150025Y-13586750D01*
X11150025Y-13586750D02*
X11188120Y-13586750D01*
X11188120Y-13586750D02*
X11207168Y-13596274D01*
X11207168Y-13596274D02*
X11216691Y-13615322D01*
X11216691Y-13615322D02*
X11216691Y-13634369D01*
X11216691Y-13634369D02*
X11121453Y-13653417D01*
X11292882Y-13710560D02*
X11311930Y-13720084D01*
X11311930Y-13720084D02*
X11350025Y-13720084D01*
X11350025Y-13720084D02*
X11369072Y-13710560D01*
X11369072Y-13710560D02*
X11378596Y-13691512D01*
X11378596Y-13691512D02*
X11378596Y-13681988D01*
X11378596Y-13681988D02*
X11369072Y-13662941D01*
X11369072Y-13662941D02*
X11350025Y-13653417D01*
X11350025Y-13653417D02*
X11321453Y-13653417D01*
X11321453Y-13653417D02*
X11302406Y-13643893D01*
X11302406Y-13643893D02*
X11292882Y-13624846D01*
X11292882Y-13624846D02*
X11292882Y-13615322D01*
X11292882Y-13615322D02*
X11302406Y-13596274D01*
X11302406Y-13596274D02*
X11321453Y-13586750D01*
X11321453Y-13586750D02*
X11350025Y-13586750D01*
X11350025Y-13586750D02*
X11369072Y-13596274D01*
X11445263Y-13796274D02*
X11454787Y-13786750D01*
X11454787Y-13786750D02*
X11473834Y-13758179D01*
X11473834Y-13758179D02*
X11483358Y-13739131D01*
X11483358Y-13739131D02*
X11492882Y-13710560D01*
X11492882Y-13710560D02*
X11502406Y-13662941D01*
X11502406Y-13662941D02*
X11502406Y-13624846D01*
X11502406Y-13624846D02*
X11492882Y-13577227D01*
X11492882Y-13577227D02*
X11483358Y-13548655D01*
X11483358Y-13548655D02*
X11473834Y-13529608D01*
X11473834Y-13529608D02*
X11454787Y-13501036D01*
X11454787Y-13501036D02*
X11445263Y-13491512D01*
D17*
X6520200Y-13817600D02*
X6670200Y-13967600D01*
X6670200Y-13817600D02*
X6520200Y-13967600D01*
X6595200Y-13817600D02*
X6595200Y-13967600D01*
X6520200Y-13892600D02*
X6670200Y-13892600D01*
D10*
X7035739Y-13984084D02*
X6921453Y-13984084D01*
X6978596Y-13984084D02*
X6978596Y-13784084D01*
X6978596Y-13784084D02*
X6959548Y-13812655D01*
X6959548Y-13812655D02*
X6940501Y-13831703D01*
X6940501Y-13831703D02*
X6921453Y-13841227D01*
X7121453Y-13965036D02*
X7130977Y-13974560D01*
X7130977Y-13974560D02*
X7121453Y-13984084D01*
X7121453Y-13984084D02*
X7111929Y-13974560D01*
X7111929Y-13974560D02*
X7121453Y-13965036D01*
X7121453Y-13965036D02*
X7121453Y-13984084D01*
X7311929Y-13784084D02*
X7216691Y-13784084D01*
X7216691Y-13784084D02*
X7207167Y-13879322D01*
X7207167Y-13879322D02*
X7216691Y-13869798D01*
X7216691Y-13869798D02*
X7235739Y-13860274D01*
X7235739Y-13860274D02*
X7283358Y-13860274D01*
X7283358Y-13860274D02*
X7302405Y-13869798D01*
X7302405Y-13869798D02*
X7311929Y-13879322D01*
X7311929Y-13879322D02*
X7321453Y-13898369D01*
X7321453Y-13898369D02*
X7321453Y-13945988D01*
X7321453Y-13945988D02*
X7311929Y-13965036D01*
X7311929Y-13965036D02*
X7302405Y-13974560D01*
X7302405Y-13974560D02*
X7283358Y-13984084D01*
X7283358Y-13984084D02*
X7235739Y-13984084D01*
X7235739Y-13984084D02*
X7216691Y-13974560D01*
X7216691Y-13974560D02*
X7207167Y-13965036D01*
X7445262Y-13784084D02*
X7464310Y-13784084D01*
X7464310Y-13784084D02*
X7483358Y-13793608D01*
X7483358Y-13793608D02*
X7492882Y-13803131D01*
X7492882Y-13803131D02*
X7502405Y-13822179D01*
X7502405Y-13822179D02*
X7511929Y-13860274D01*
X7511929Y-13860274D02*
X7511929Y-13907893D01*
X7511929Y-13907893D02*
X7502405Y-13945988D01*
X7502405Y-13945988D02*
X7492882Y-13965036D01*
X7492882Y-13965036D02*
X7483358Y-13974560D01*
X7483358Y-13974560D02*
X7464310Y-13984084D01*
X7464310Y-13984084D02*
X7445262Y-13984084D01*
X7445262Y-13984084D02*
X7426215Y-13974560D01*
X7426215Y-13974560D02*
X7416691Y-13965036D01*
X7416691Y-13965036D02*
X7407167Y-13945988D01*
X7407167Y-13945988D02*
X7397643Y-13907893D01*
X7397643Y-13907893D02*
X7397643Y-13860274D01*
X7397643Y-13860274D02*
X7407167Y-13822179D01*
X7407167Y-13822179D02*
X7416691Y-13803131D01*
X7416691Y-13803131D02*
X7426215Y-13793608D01*
X7426215Y-13793608D02*
X7445262Y-13784084D01*
X7635739Y-13784084D02*
X7654786Y-13784084D01*
X7654786Y-13784084D02*
X7673834Y-13793608D01*
X7673834Y-13793608D02*
X7683358Y-13803131D01*
X7683358Y-13803131D02*
X7692882Y-13822179D01*
X7692882Y-13822179D02*
X7702405Y-13860274D01*
X7702405Y-13860274D02*
X7702405Y-13907893D01*
X7702405Y-13907893D02*
X7692882Y-13945988D01*
X7692882Y-13945988D02*
X7683358Y-13965036D01*
X7683358Y-13965036D02*
X7673834Y-13974560D01*
X7673834Y-13974560D02*
X7654786Y-13984084D01*
X7654786Y-13984084D02*
X7635739Y-13984084D01*
X7635739Y-13984084D02*
X7616691Y-13974560D01*
X7616691Y-13974560D02*
X7607167Y-13965036D01*
X7607167Y-13965036D02*
X7597643Y-13945988D01*
X7597643Y-13945988D02*
X7588120Y-13907893D01*
X7588120Y-13907893D02*
X7588120Y-13860274D01*
X7588120Y-13860274D02*
X7597643Y-13822179D01*
X7597643Y-13822179D02*
X7607167Y-13803131D01*
X7607167Y-13803131D02*
X7616691Y-13793608D01*
X7616691Y-13793608D02*
X7635739Y-13784084D01*
X7788120Y-13984084D02*
X7788120Y-13850750D01*
X7788120Y-13869798D02*
X7797643Y-13860274D01*
X7797643Y-13860274D02*
X7816691Y-13850750D01*
X7816691Y-13850750D02*
X7845263Y-13850750D01*
X7845263Y-13850750D02*
X7864310Y-13860274D01*
X7864310Y-13860274D02*
X7873834Y-13879322D01*
X7873834Y-13879322D02*
X7873834Y-13984084D01*
X7873834Y-13879322D02*
X7883358Y-13860274D01*
X7883358Y-13860274D02*
X7902405Y-13850750D01*
X7902405Y-13850750D02*
X7930977Y-13850750D01*
X7930977Y-13850750D02*
X7950024Y-13860274D01*
X7950024Y-13860274D02*
X7959548Y-13879322D01*
X7959548Y-13879322D02*
X7959548Y-13984084D01*
X8054786Y-13984084D02*
X8054786Y-13850750D01*
X8054786Y-13869798D02*
X8064310Y-13860274D01*
X8064310Y-13860274D02*
X8083358Y-13850750D01*
X8083358Y-13850750D02*
X8111929Y-13850750D01*
X8111929Y-13850750D02*
X8130977Y-13860274D01*
X8130977Y-13860274D02*
X8140501Y-13879322D01*
X8140501Y-13879322D02*
X8140501Y-13984084D01*
X8140501Y-13879322D02*
X8150024Y-13860274D01*
X8150024Y-13860274D02*
X8169072Y-13850750D01*
X8169072Y-13850750D02*
X8197643Y-13850750D01*
X8197643Y-13850750D02*
X8216691Y-13860274D01*
X8216691Y-13860274D02*
X8226215Y-13879322D01*
X8226215Y-13879322D02*
X8226215Y-13984084D01*
X8616691Y-13774560D02*
X8445263Y-14031703D01*
X8873834Y-13784084D02*
X8892882Y-13784084D01*
X8892882Y-13784084D02*
X8911929Y-13793608D01*
X8911929Y-13793608D02*
X8921453Y-13803131D01*
X8921453Y-13803131D02*
X8930977Y-13822179D01*
X8930977Y-13822179D02*
X8940501Y-13860274D01*
X8940501Y-13860274D02*
X8940501Y-13907893D01*
X8940501Y-13907893D02*
X8930977Y-13945988D01*
X8930977Y-13945988D02*
X8921453Y-13965036D01*
X8921453Y-13965036D02*
X8911929Y-13974560D01*
X8911929Y-13974560D02*
X8892882Y-13984084D01*
X8892882Y-13984084D02*
X8873834Y-13984084D01*
X8873834Y-13984084D02*
X8854787Y-13974560D01*
X8854787Y-13974560D02*
X8845263Y-13965036D01*
X8845263Y-13965036D02*
X8835739Y-13945988D01*
X8835739Y-13945988D02*
X8826215Y-13907893D01*
X8826215Y-13907893D02*
X8826215Y-13860274D01*
X8826215Y-13860274D02*
X8835739Y-13822179D01*
X8835739Y-13822179D02*
X8845263Y-13803131D01*
X8845263Y-13803131D02*
X8854787Y-13793608D01*
X8854787Y-13793608D02*
X8873834Y-13784084D01*
X9026215Y-13965036D02*
X9035739Y-13974560D01*
X9035739Y-13974560D02*
X9026215Y-13984084D01*
X9026215Y-13984084D02*
X9016691Y-13974560D01*
X9016691Y-13974560D02*
X9026215Y-13965036D01*
X9026215Y-13965036D02*
X9026215Y-13984084D01*
X9159548Y-13784084D02*
X9178596Y-13784084D01*
X9178596Y-13784084D02*
X9197644Y-13793608D01*
X9197644Y-13793608D02*
X9207168Y-13803131D01*
X9207168Y-13803131D02*
X9216691Y-13822179D01*
X9216691Y-13822179D02*
X9226215Y-13860274D01*
X9226215Y-13860274D02*
X9226215Y-13907893D01*
X9226215Y-13907893D02*
X9216691Y-13945988D01*
X9216691Y-13945988D02*
X9207168Y-13965036D01*
X9207168Y-13965036D02*
X9197644Y-13974560D01*
X9197644Y-13974560D02*
X9178596Y-13984084D01*
X9178596Y-13984084D02*
X9159548Y-13984084D01*
X9159548Y-13984084D02*
X9140501Y-13974560D01*
X9140501Y-13974560D02*
X9130977Y-13965036D01*
X9130977Y-13965036D02*
X9121453Y-13945988D01*
X9121453Y-13945988D02*
X9111929Y-13907893D01*
X9111929Y-13907893D02*
X9111929Y-13860274D01*
X9111929Y-13860274D02*
X9121453Y-13822179D01*
X9121453Y-13822179D02*
X9130977Y-13803131D01*
X9130977Y-13803131D02*
X9140501Y-13793608D01*
X9140501Y-13793608D02*
X9159548Y-13784084D01*
X9407168Y-13784084D02*
X9311929Y-13784084D01*
X9311929Y-13784084D02*
X9302406Y-13879322D01*
X9302406Y-13879322D02*
X9311929Y-13869798D01*
X9311929Y-13869798D02*
X9330977Y-13860274D01*
X9330977Y-13860274D02*
X9378596Y-13860274D01*
X9378596Y-13860274D02*
X9397644Y-13869798D01*
X9397644Y-13869798D02*
X9407168Y-13879322D01*
X9407168Y-13879322D02*
X9416691Y-13898369D01*
X9416691Y-13898369D02*
X9416691Y-13945988D01*
X9416691Y-13945988D02*
X9407168Y-13965036D01*
X9407168Y-13965036D02*
X9397644Y-13974560D01*
X9397644Y-13974560D02*
X9378596Y-13984084D01*
X9378596Y-13984084D02*
X9330977Y-13984084D01*
X9330977Y-13984084D02*
X9311929Y-13974560D01*
X9311929Y-13974560D02*
X9302406Y-13965036D01*
X9511929Y-13984084D02*
X9550025Y-13984084D01*
X9550025Y-13984084D02*
X9569072Y-13974560D01*
X9569072Y-13974560D02*
X9578596Y-13965036D01*
X9578596Y-13965036D02*
X9597644Y-13936465D01*
X9597644Y-13936465D02*
X9607168Y-13898369D01*
X9607168Y-13898369D02*
X9607168Y-13822179D01*
X9607168Y-13822179D02*
X9597644Y-13803131D01*
X9597644Y-13803131D02*
X9588120Y-13793608D01*
X9588120Y-13793608D02*
X9569072Y-13784084D01*
X9569072Y-13784084D02*
X9530977Y-13784084D01*
X9530977Y-13784084D02*
X9511929Y-13793608D01*
X9511929Y-13793608D02*
X9502406Y-13803131D01*
X9502406Y-13803131D02*
X9492882Y-13822179D01*
X9492882Y-13822179D02*
X9492882Y-13869798D01*
X9492882Y-13869798D02*
X9502406Y-13888846D01*
X9502406Y-13888846D02*
X9511929Y-13898369D01*
X9511929Y-13898369D02*
X9530977Y-13907893D01*
X9530977Y-13907893D02*
X9569072Y-13907893D01*
X9569072Y-13907893D02*
X9588120Y-13898369D01*
X9588120Y-13898369D02*
X9597644Y-13888846D01*
X9597644Y-13888846D02*
X9607168Y-13869798D01*
X9797644Y-13984084D02*
X9683358Y-13984084D01*
X9740501Y-13984084D02*
X9740501Y-13784084D01*
X9740501Y-13784084D02*
X9721453Y-13812655D01*
X9721453Y-13812655D02*
X9702406Y-13831703D01*
X9702406Y-13831703D02*
X9683358Y-13841227D01*
X9873834Y-13784084D02*
X9873834Y-13822179D01*
X9950025Y-13784084D02*
X9950025Y-13822179D01*
X10245263Y-14060274D02*
X10235739Y-14050750D01*
X10235739Y-14050750D02*
X10216691Y-14022179D01*
X10216691Y-14022179D02*
X10207168Y-14003131D01*
X10207168Y-14003131D02*
X10197644Y-13974560D01*
X10197644Y-13974560D02*
X10188120Y-13926941D01*
X10188120Y-13926941D02*
X10188120Y-13888846D01*
X10188120Y-13888846D02*
X10197644Y-13841227D01*
X10197644Y-13841227D02*
X10207168Y-13812655D01*
X10207168Y-13812655D02*
X10216691Y-13793608D01*
X10216691Y-13793608D02*
X10235739Y-13765036D01*
X10235739Y-13765036D02*
X10245263Y-13755512D01*
X10311930Y-13803131D02*
X10321453Y-13793608D01*
X10321453Y-13793608D02*
X10340501Y-13784084D01*
X10340501Y-13784084D02*
X10388120Y-13784084D01*
X10388120Y-13784084D02*
X10407168Y-13793608D01*
X10407168Y-13793608D02*
X10416691Y-13803131D01*
X10416691Y-13803131D02*
X10426215Y-13822179D01*
X10426215Y-13822179D02*
X10426215Y-13841227D01*
X10426215Y-13841227D02*
X10416691Y-13869798D01*
X10416691Y-13869798D02*
X10302406Y-13984084D01*
X10302406Y-13984084D02*
X10426215Y-13984084D01*
X10664311Y-13984084D02*
X10664311Y-13784084D01*
X10750025Y-13984084D02*
X10750025Y-13879322D01*
X10750025Y-13879322D02*
X10740501Y-13860274D01*
X10740501Y-13860274D02*
X10721453Y-13850750D01*
X10721453Y-13850750D02*
X10692882Y-13850750D01*
X10692882Y-13850750D02*
X10673834Y-13860274D01*
X10673834Y-13860274D02*
X10664311Y-13869798D01*
X10873834Y-13984084D02*
X10854787Y-13974560D01*
X10854787Y-13974560D02*
X10845263Y-13965036D01*
X10845263Y-13965036D02*
X10835739Y-13945988D01*
X10835739Y-13945988D02*
X10835739Y-13888846D01*
X10835739Y-13888846D02*
X10845263Y-13869798D01*
X10845263Y-13869798D02*
X10854787Y-13860274D01*
X10854787Y-13860274D02*
X10873834Y-13850750D01*
X10873834Y-13850750D02*
X10902406Y-13850750D01*
X10902406Y-13850750D02*
X10921453Y-13860274D01*
X10921453Y-13860274D02*
X10930977Y-13869798D01*
X10930977Y-13869798D02*
X10940501Y-13888846D01*
X10940501Y-13888846D02*
X10940501Y-13945988D01*
X10940501Y-13945988D02*
X10930977Y-13965036D01*
X10930977Y-13965036D02*
X10921453Y-13974560D01*
X10921453Y-13974560D02*
X10902406Y-13984084D01*
X10902406Y-13984084D02*
X10873834Y-13984084D01*
X11054787Y-13984084D02*
X11035739Y-13974560D01*
X11035739Y-13974560D02*
X11026215Y-13955512D01*
X11026215Y-13955512D02*
X11026215Y-13784084D01*
X11207168Y-13974560D02*
X11188120Y-13984084D01*
X11188120Y-13984084D02*
X11150025Y-13984084D01*
X11150025Y-13984084D02*
X11130977Y-13974560D01*
X11130977Y-13974560D02*
X11121453Y-13955512D01*
X11121453Y-13955512D02*
X11121453Y-13879322D01*
X11121453Y-13879322D02*
X11130977Y-13860274D01*
X11130977Y-13860274D02*
X11150025Y-13850750D01*
X11150025Y-13850750D02*
X11188120Y-13850750D01*
X11188120Y-13850750D02*
X11207168Y-13860274D01*
X11207168Y-13860274D02*
X11216691Y-13879322D01*
X11216691Y-13879322D02*
X11216691Y-13898369D01*
X11216691Y-13898369D02*
X11121453Y-13917417D01*
X11292882Y-13974560D02*
X11311930Y-13984084D01*
X11311930Y-13984084D02*
X11350025Y-13984084D01*
X11350025Y-13984084D02*
X11369072Y-13974560D01*
X11369072Y-13974560D02*
X11378596Y-13955512D01*
X11378596Y-13955512D02*
X11378596Y-13945988D01*
X11378596Y-13945988D02*
X11369072Y-13926941D01*
X11369072Y-13926941D02*
X11350025Y-13917417D01*
X11350025Y-13917417D02*
X11321453Y-13917417D01*
X11321453Y-13917417D02*
X11302406Y-13907893D01*
X11302406Y-13907893D02*
X11292882Y-13888846D01*
X11292882Y-13888846D02*
X11292882Y-13879322D01*
X11292882Y-13879322D02*
X11302406Y-13860274D01*
X11302406Y-13860274D02*
X11321453Y-13850750D01*
X11321453Y-13850750D02*
X11350025Y-13850750D01*
X11350025Y-13850750D02*
X11369072Y-13860274D01*
X11445263Y-14060274D02*
X11454787Y-14050750D01*
X11454787Y-14050750D02*
X11473834Y-14022179D01*
X11473834Y-14022179D02*
X11483358Y-14003131D01*
X11483358Y-14003131D02*
X11492882Y-13974560D01*
X11492882Y-13974560D02*
X11502406Y-13926941D01*
X11502406Y-13926941D02*
X11502406Y-13888846D01*
X11502406Y-13888846D02*
X11492882Y-13841227D01*
X11492882Y-13841227D02*
X11483358Y-13812655D01*
X11483358Y-13812655D02*
X11473834Y-13793608D01*
X11473834Y-13793608D02*
X11454787Y-13765036D01*
X11454787Y-13765036D02*
X11445263Y-13755512D01*
D18*
X6510200Y-14082600D02*
X6670200Y-14242600D01*
X6670200Y-14082600D02*
X6510200Y-14242600D01*
X6646769Y-14219169D02*
X6646769Y-14106031D01*
X6533631Y-14106031D01*
X6533631Y-14219169D01*
X6646769Y-14219169D01*
D10*
X7035739Y-14254084D02*
X6921453Y-14254084D01*
X6978596Y-14254084D02*
X6978596Y-14054084D01*
X6978596Y-14054084D02*
X6959548Y-14082655D01*
X6959548Y-14082655D02*
X6940501Y-14101703D01*
X6940501Y-14101703D02*
X6921453Y-14111227D01*
X7121453Y-14235036D02*
X7130977Y-14244560D01*
X7130977Y-14244560D02*
X7121453Y-14254084D01*
X7121453Y-14254084D02*
X7111929Y-14244560D01*
X7111929Y-14244560D02*
X7121453Y-14235036D01*
X7121453Y-14235036D02*
X7121453Y-14254084D01*
X7302405Y-14054084D02*
X7264310Y-14054084D01*
X7264310Y-14054084D02*
X7245262Y-14063608D01*
X7245262Y-14063608D02*
X7235739Y-14073131D01*
X7235739Y-14073131D02*
X7216691Y-14101703D01*
X7216691Y-14101703D02*
X7207167Y-14139798D01*
X7207167Y-14139798D02*
X7207167Y-14215988D01*
X7207167Y-14215988D02*
X7216691Y-14235036D01*
X7216691Y-14235036D02*
X7226215Y-14244560D01*
X7226215Y-14244560D02*
X7245262Y-14254084D01*
X7245262Y-14254084D02*
X7283358Y-14254084D01*
X7283358Y-14254084D02*
X7302405Y-14244560D01*
X7302405Y-14244560D02*
X7311929Y-14235036D01*
X7311929Y-14235036D02*
X7321453Y-14215988D01*
X7321453Y-14215988D02*
X7321453Y-14168369D01*
X7321453Y-14168369D02*
X7311929Y-14149322D01*
X7311929Y-14149322D02*
X7302405Y-14139798D01*
X7302405Y-14139798D02*
X7283358Y-14130274D01*
X7283358Y-14130274D02*
X7245262Y-14130274D01*
X7245262Y-14130274D02*
X7226215Y-14139798D01*
X7226215Y-14139798D02*
X7216691Y-14149322D01*
X7216691Y-14149322D02*
X7207167Y-14168369D01*
X7445262Y-14054084D02*
X7464310Y-14054084D01*
X7464310Y-14054084D02*
X7483358Y-14063608D01*
X7483358Y-14063608D02*
X7492882Y-14073131D01*
X7492882Y-14073131D02*
X7502405Y-14092179D01*
X7502405Y-14092179D02*
X7511929Y-14130274D01*
X7511929Y-14130274D02*
X7511929Y-14177893D01*
X7511929Y-14177893D02*
X7502405Y-14215988D01*
X7502405Y-14215988D02*
X7492882Y-14235036D01*
X7492882Y-14235036D02*
X7483358Y-14244560D01*
X7483358Y-14244560D02*
X7464310Y-14254084D01*
X7464310Y-14254084D02*
X7445262Y-14254084D01*
X7445262Y-14254084D02*
X7426215Y-14244560D01*
X7426215Y-14244560D02*
X7416691Y-14235036D01*
X7416691Y-14235036D02*
X7407167Y-14215988D01*
X7407167Y-14215988D02*
X7397643Y-14177893D01*
X7397643Y-14177893D02*
X7397643Y-14130274D01*
X7397643Y-14130274D02*
X7407167Y-14092179D01*
X7407167Y-14092179D02*
X7416691Y-14073131D01*
X7416691Y-14073131D02*
X7426215Y-14063608D01*
X7426215Y-14063608D02*
X7445262Y-14054084D01*
X7635739Y-14054084D02*
X7654786Y-14054084D01*
X7654786Y-14054084D02*
X7673834Y-14063608D01*
X7673834Y-14063608D02*
X7683358Y-14073131D01*
X7683358Y-14073131D02*
X7692882Y-14092179D01*
X7692882Y-14092179D02*
X7702405Y-14130274D01*
X7702405Y-14130274D02*
X7702405Y-14177893D01*
X7702405Y-14177893D02*
X7692882Y-14215988D01*
X7692882Y-14215988D02*
X7683358Y-14235036D01*
X7683358Y-14235036D02*
X7673834Y-14244560D01*
X7673834Y-14244560D02*
X7654786Y-14254084D01*
X7654786Y-14254084D02*
X7635739Y-14254084D01*
X7635739Y-14254084D02*
X7616691Y-14244560D01*
X7616691Y-14244560D02*
X7607167Y-14235036D01*
X7607167Y-14235036D02*
X7597643Y-14215988D01*
X7597643Y-14215988D02*
X7588120Y-14177893D01*
X7588120Y-14177893D02*
X7588120Y-14130274D01*
X7588120Y-14130274D02*
X7597643Y-14092179D01*
X7597643Y-14092179D02*
X7607167Y-14073131D01*
X7607167Y-14073131D02*
X7616691Y-14063608D01*
X7616691Y-14063608D02*
X7635739Y-14054084D01*
X7788120Y-14254084D02*
X7788120Y-14120750D01*
X7788120Y-14139798D02*
X7797643Y-14130274D01*
X7797643Y-14130274D02*
X7816691Y-14120750D01*
X7816691Y-14120750D02*
X7845263Y-14120750D01*
X7845263Y-14120750D02*
X7864310Y-14130274D01*
X7864310Y-14130274D02*
X7873834Y-14149322D01*
X7873834Y-14149322D02*
X7873834Y-14254084D01*
X7873834Y-14149322D02*
X7883358Y-14130274D01*
X7883358Y-14130274D02*
X7902405Y-14120750D01*
X7902405Y-14120750D02*
X7930977Y-14120750D01*
X7930977Y-14120750D02*
X7950024Y-14130274D01*
X7950024Y-14130274D02*
X7959548Y-14149322D01*
X7959548Y-14149322D02*
X7959548Y-14254084D01*
X8054786Y-14254084D02*
X8054786Y-14120750D01*
X8054786Y-14139798D02*
X8064310Y-14130274D01*
X8064310Y-14130274D02*
X8083358Y-14120750D01*
X8083358Y-14120750D02*
X8111929Y-14120750D01*
X8111929Y-14120750D02*
X8130977Y-14130274D01*
X8130977Y-14130274D02*
X8140501Y-14149322D01*
X8140501Y-14149322D02*
X8140501Y-14254084D01*
X8140501Y-14149322D02*
X8150024Y-14130274D01*
X8150024Y-14130274D02*
X8169072Y-14120750D01*
X8169072Y-14120750D02*
X8197643Y-14120750D01*
X8197643Y-14120750D02*
X8216691Y-14130274D01*
X8216691Y-14130274D02*
X8226215Y-14149322D01*
X8226215Y-14149322D02*
X8226215Y-14254084D01*
X8616691Y-14044560D02*
X8445263Y-14301703D01*
X8873834Y-14054084D02*
X8892882Y-14054084D01*
X8892882Y-14054084D02*
X8911929Y-14063608D01*
X8911929Y-14063608D02*
X8921453Y-14073131D01*
X8921453Y-14073131D02*
X8930977Y-14092179D01*
X8930977Y-14092179D02*
X8940501Y-14130274D01*
X8940501Y-14130274D02*
X8940501Y-14177893D01*
X8940501Y-14177893D02*
X8930977Y-14215988D01*
X8930977Y-14215988D02*
X8921453Y-14235036D01*
X8921453Y-14235036D02*
X8911929Y-14244560D01*
X8911929Y-14244560D02*
X8892882Y-14254084D01*
X8892882Y-14254084D02*
X8873834Y-14254084D01*
X8873834Y-14254084D02*
X8854787Y-14244560D01*
X8854787Y-14244560D02*
X8845263Y-14235036D01*
X8845263Y-14235036D02*
X8835739Y-14215988D01*
X8835739Y-14215988D02*
X8826215Y-14177893D01*
X8826215Y-14177893D02*
X8826215Y-14130274D01*
X8826215Y-14130274D02*
X8835739Y-14092179D01*
X8835739Y-14092179D02*
X8845263Y-14073131D01*
X8845263Y-14073131D02*
X8854787Y-14063608D01*
X8854787Y-14063608D02*
X8873834Y-14054084D01*
X9026215Y-14235036D02*
X9035739Y-14244560D01*
X9035739Y-14244560D02*
X9026215Y-14254084D01*
X9026215Y-14254084D02*
X9016691Y-14244560D01*
X9016691Y-14244560D02*
X9026215Y-14235036D01*
X9026215Y-14235036D02*
X9026215Y-14254084D01*
X9159548Y-14054084D02*
X9178596Y-14054084D01*
X9178596Y-14054084D02*
X9197644Y-14063608D01*
X9197644Y-14063608D02*
X9207168Y-14073131D01*
X9207168Y-14073131D02*
X9216691Y-14092179D01*
X9216691Y-14092179D02*
X9226215Y-14130274D01*
X9226215Y-14130274D02*
X9226215Y-14177893D01*
X9226215Y-14177893D02*
X9216691Y-14215988D01*
X9216691Y-14215988D02*
X9207168Y-14235036D01*
X9207168Y-14235036D02*
X9197644Y-14244560D01*
X9197644Y-14244560D02*
X9178596Y-14254084D01*
X9178596Y-14254084D02*
X9159548Y-14254084D01*
X9159548Y-14254084D02*
X9140501Y-14244560D01*
X9140501Y-14244560D02*
X9130977Y-14235036D01*
X9130977Y-14235036D02*
X9121453Y-14215988D01*
X9121453Y-14215988D02*
X9111929Y-14177893D01*
X9111929Y-14177893D02*
X9111929Y-14130274D01*
X9111929Y-14130274D02*
X9121453Y-14092179D01*
X9121453Y-14092179D02*
X9130977Y-14073131D01*
X9130977Y-14073131D02*
X9140501Y-14063608D01*
X9140501Y-14063608D02*
X9159548Y-14054084D01*
X9397644Y-14054084D02*
X9359548Y-14054084D01*
X9359548Y-14054084D02*
X9340501Y-14063608D01*
X9340501Y-14063608D02*
X9330977Y-14073131D01*
X9330977Y-14073131D02*
X9311929Y-14101703D01*
X9311929Y-14101703D02*
X9302406Y-14139798D01*
X9302406Y-14139798D02*
X9302406Y-14215988D01*
X9302406Y-14215988D02*
X9311929Y-14235036D01*
X9311929Y-14235036D02*
X9321453Y-14244560D01*
X9321453Y-14244560D02*
X9340501Y-14254084D01*
X9340501Y-14254084D02*
X9378596Y-14254084D01*
X9378596Y-14254084D02*
X9397644Y-14244560D01*
X9397644Y-14244560D02*
X9407168Y-14235036D01*
X9407168Y-14235036D02*
X9416691Y-14215988D01*
X9416691Y-14215988D02*
X9416691Y-14168369D01*
X9416691Y-14168369D02*
X9407168Y-14149322D01*
X9407168Y-14149322D02*
X9397644Y-14139798D01*
X9397644Y-14139798D02*
X9378596Y-14130274D01*
X9378596Y-14130274D02*
X9340501Y-14130274D01*
X9340501Y-14130274D02*
X9321453Y-14139798D01*
X9321453Y-14139798D02*
X9311929Y-14149322D01*
X9311929Y-14149322D02*
X9302406Y-14168369D01*
X9483358Y-14054084D02*
X9607168Y-14054084D01*
X9607168Y-14054084D02*
X9540501Y-14130274D01*
X9540501Y-14130274D02*
X9569072Y-14130274D01*
X9569072Y-14130274D02*
X9588120Y-14139798D01*
X9588120Y-14139798D02*
X9597644Y-14149322D01*
X9597644Y-14149322D02*
X9607168Y-14168369D01*
X9607168Y-14168369D02*
X9607168Y-14215988D01*
X9607168Y-14215988D02*
X9597644Y-14235036D01*
X9597644Y-14235036D02*
X9588120Y-14244560D01*
X9588120Y-14244560D02*
X9569072Y-14254084D01*
X9569072Y-14254084D02*
X9511929Y-14254084D01*
X9511929Y-14254084D02*
X9492882Y-14244560D01*
X9492882Y-14244560D02*
X9483358Y-14235036D01*
X9730977Y-14054084D02*
X9750025Y-14054084D01*
X9750025Y-14054084D02*
X9769072Y-14063608D01*
X9769072Y-14063608D02*
X9778596Y-14073131D01*
X9778596Y-14073131D02*
X9788120Y-14092179D01*
X9788120Y-14092179D02*
X9797644Y-14130274D01*
X9797644Y-14130274D02*
X9797644Y-14177893D01*
X9797644Y-14177893D02*
X9788120Y-14215988D01*
X9788120Y-14215988D02*
X9778596Y-14235036D01*
X9778596Y-14235036D02*
X9769072Y-14244560D01*
X9769072Y-14244560D02*
X9750025Y-14254084D01*
X9750025Y-14254084D02*
X9730977Y-14254084D01*
X9730977Y-14254084D02*
X9711929Y-14244560D01*
X9711929Y-14244560D02*
X9702406Y-14235036D01*
X9702406Y-14235036D02*
X9692882Y-14215988D01*
X9692882Y-14215988D02*
X9683358Y-14177893D01*
X9683358Y-14177893D02*
X9683358Y-14130274D01*
X9683358Y-14130274D02*
X9692882Y-14092179D01*
X9692882Y-14092179D02*
X9702406Y-14073131D01*
X9702406Y-14073131D02*
X9711929Y-14063608D01*
X9711929Y-14063608D02*
X9730977Y-14054084D01*
X9873834Y-14054084D02*
X9873834Y-14092179D01*
X9950025Y-14054084D02*
X9950025Y-14092179D01*
X10245263Y-14330274D02*
X10235739Y-14320750D01*
X10235739Y-14320750D02*
X10216691Y-14292179D01*
X10216691Y-14292179D02*
X10207168Y-14273131D01*
X10207168Y-14273131D02*
X10197644Y-14244560D01*
X10197644Y-14244560D02*
X10188120Y-14196941D01*
X10188120Y-14196941D02*
X10188120Y-14158846D01*
X10188120Y-14158846D02*
X10197644Y-14111227D01*
X10197644Y-14111227D02*
X10207168Y-14082655D01*
X10207168Y-14082655D02*
X10216691Y-14063608D01*
X10216691Y-14063608D02*
X10235739Y-14035036D01*
X10235739Y-14035036D02*
X10245263Y-14025512D01*
X10311930Y-14073131D02*
X10321453Y-14063608D01*
X10321453Y-14063608D02*
X10340501Y-14054084D01*
X10340501Y-14054084D02*
X10388120Y-14054084D01*
X10388120Y-14054084D02*
X10407168Y-14063608D01*
X10407168Y-14063608D02*
X10416691Y-14073131D01*
X10416691Y-14073131D02*
X10426215Y-14092179D01*
X10426215Y-14092179D02*
X10426215Y-14111227D01*
X10426215Y-14111227D02*
X10416691Y-14139798D01*
X10416691Y-14139798D02*
X10302406Y-14254084D01*
X10302406Y-14254084D02*
X10426215Y-14254084D01*
X10664311Y-14254084D02*
X10664311Y-14054084D01*
X10750025Y-14254084D02*
X10750025Y-14149322D01*
X10750025Y-14149322D02*
X10740501Y-14130274D01*
X10740501Y-14130274D02*
X10721453Y-14120750D01*
X10721453Y-14120750D02*
X10692882Y-14120750D01*
X10692882Y-14120750D02*
X10673834Y-14130274D01*
X10673834Y-14130274D02*
X10664311Y-14139798D01*
X10873834Y-14254084D02*
X10854787Y-14244560D01*
X10854787Y-14244560D02*
X10845263Y-14235036D01*
X10845263Y-14235036D02*
X10835739Y-14215988D01*
X10835739Y-14215988D02*
X10835739Y-14158846D01*
X10835739Y-14158846D02*
X10845263Y-14139798D01*
X10845263Y-14139798D02*
X10854787Y-14130274D01*
X10854787Y-14130274D02*
X10873834Y-14120750D01*
X10873834Y-14120750D02*
X10902406Y-14120750D01*
X10902406Y-14120750D02*
X10921453Y-14130274D01*
X10921453Y-14130274D02*
X10930977Y-14139798D01*
X10930977Y-14139798D02*
X10940501Y-14158846D01*
X10940501Y-14158846D02*
X10940501Y-14215988D01*
X10940501Y-14215988D02*
X10930977Y-14235036D01*
X10930977Y-14235036D02*
X10921453Y-14244560D01*
X10921453Y-14244560D02*
X10902406Y-14254084D01*
X10902406Y-14254084D02*
X10873834Y-14254084D01*
X11054787Y-14254084D02*
X11035739Y-14244560D01*
X11035739Y-14244560D02*
X11026215Y-14225512D01*
X11026215Y-14225512D02*
X11026215Y-14054084D01*
X11207168Y-14244560D02*
X11188120Y-14254084D01*
X11188120Y-14254084D02*
X11150025Y-14254084D01*
X11150025Y-14254084D02*
X11130977Y-14244560D01*
X11130977Y-14244560D02*
X11121453Y-14225512D01*
X11121453Y-14225512D02*
X11121453Y-14149322D01*
X11121453Y-14149322D02*
X11130977Y-14130274D01*
X11130977Y-14130274D02*
X11150025Y-14120750D01*
X11150025Y-14120750D02*
X11188120Y-14120750D01*
X11188120Y-14120750D02*
X11207168Y-14130274D01*
X11207168Y-14130274D02*
X11216691Y-14149322D01*
X11216691Y-14149322D02*
X11216691Y-14168369D01*
X11216691Y-14168369D02*
X11121453Y-14187417D01*
X11292882Y-14244560D02*
X11311930Y-14254084D01*
X11311930Y-14254084D02*
X11350025Y-14254084D01*
X11350025Y-14254084D02*
X11369072Y-14244560D01*
X11369072Y-14244560D02*
X11378596Y-14225512D01*
X11378596Y-14225512D02*
X11378596Y-14215988D01*
X11378596Y-14215988D02*
X11369072Y-14196941D01*
X11369072Y-14196941D02*
X11350025Y-14187417D01*
X11350025Y-14187417D02*
X11321453Y-14187417D01*
X11321453Y-14187417D02*
X11302406Y-14177893D01*
X11302406Y-14177893D02*
X11292882Y-14158846D01*
X11292882Y-14158846D02*
X11292882Y-14149322D01*
X11292882Y-14149322D02*
X11302406Y-14130274D01*
X11302406Y-14130274D02*
X11321453Y-14120750D01*
X11321453Y-14120750D02*
X11350025Y-14120750D01*
X11350025Y-14120750D02*
X11369072Y-14130274D01*
X11445263Y-14330274D02*
X11454787Y-14320750D01*
X11454787Y-14320750D02*
X11473834Y-14292179D01*
X11473834Y-14292179D02*
X11483358Y-14273131D01*
X11483358Y-14273131D02*
X11492882Y-14244560D01*
X11492882Y-14244560D02*
X11502406Y-14196941D01*
X11502406Y-14196941D02*
X11502406Y-14158846D01*
X11502406Y-14158846D02*
X11492882Y-14111227D01*
X11492882Y-14111227D02*
X11483358Y-14082655D01*
X11483358Y-14082655D02*
X11473834Y-14063608D01*
X11473834Y-14063608D02*
X11454787Y-14035036D01*
X11454787Y-14035036D02*
X11445263Y-14025512D01*
X6470200Y-14342600D02*
X6670200Y-14542600D01*
X6670200Y-14342600D02*
X6470200Y-14542600D01*
X6570200Y-14542600D02*
X6670200Y-14442600D01*
X6570200Y-14342600D01*
X6470200Y-14442600D01*
X6570200Y-14542600D01*
X6921453Y-14353131D02*
X6930977Y-14343608D01*
X6930977Y-14343608D02*
X6950024Y-14334084D01*
X6950024Y-14334084D02*
X6997643Y-14334084D01*
X6997643Y-14334084D02*
X7016691Y-14343608D01*
X7016691Y-14343608D02*
X7026215Y-14353131D01*
X7026215Y-14353131D02*
X7035739Y-14372179D01*
X7035739Y-14372179D02*
X7035739Y-14391227D01*
X7035739Y-14391227D02*
X7026215Y-14419798D01*
X7026215Y-14419798D02*
X6911929Y-14534084D01*
X6911929Y-14534084D02*
X7035739Y-14534084D01*
X7121453Y-14515036D02*
X7130977Y-14524560D01*
X7130977Y-14524560D02*
X7121453Y-14534084D01*
X7121453Y-14534084D02*
X7111929Y-14524560D01*
X7111929Y-14524560D02*
X7121453Y-14515036D01*
X7121453Y-14515036D02*
X7121453Y-14534084D01*
X7254786Y-14334084D02*
X7273834Y-14334084D01*
X7273834Y-14334084D02*
X7292882Y-14343608D01*
X7292882Y-14343608D02*
X7302405Y-14353131D01*
X7302405Y-14353131D02*
X7311929Y-14372179D01*
X7311929Y-14372179D02*
X7321453Y-14410274D01*
X7321453Y-14410274D02*
X7321453Y-14457893D01*
X7321453Y-14457893D02*
X7311929Y-14495988D01*
X7311929Y-14495988D02*
X7302405Y-14515036D01*
X7302405Y-14515036D02*
X7292882Y-14524560D01*
X7292882Y-14524560D02*
X7273834Y-14534084D01*
X7273834Y-14534084D02*
X7254786Y-14534084D01*
X7254786Y-14534084D02*
X7235739Y-14524560D01*
X7235739Y-14524560D02*
X7226215Y-14515036D01*
X7226215Y-14515036D02*
X7216691Y-14495988D01*
X7216691Y-14495988D02*
X7207167Y-14457893D01*
X7207167Y-14457893D02*
X7207167Y-14410274D01*
X7207167Y-14410274D02*
X7216691Y-14372179D01*
X7216691Y-14372179D02*
X7226215Y-14353131D01*
X7226215Y-14353131D02*
X7235739Y-14343608D01*
X7235739Y-14343608D02*
X7254786Y-14334084D01*
X7445262Y-14334084D02*
X7464310Y-14334084D01*
X7464310Y-14334084D02*
X7483358Y-14343608D01*
X7483358Y-14343608D02*
X7492882Y-14353131D01*
X7492882Y-14353131D02*
X7502405Y-14372179D01*
X7502405Y-14372179D02*
X7511929Y-14410274D01*
X7511929Y-14410274D02*
X7511929Y-14457893D01*
X7511929Y-14457893D02*
X7502405Y-14495988D01*
X7502405Y-14495988D02*
X7492882Y-14515036D01*
X7492882Y-14515036D02*
X7483358Y-14524560D01*
X7483358Y-14524560D02*
X7464310Y-14534084D01*
X7464310Y-14534084D02*
X7445262Y-14534084D01*
X7445262Y-14534084D02*
X7426215Y-14524560D01*
X7426215Y-14524560D02*
X7416691Y-14515036D01*
X7416691Y-14515036D02*
X7407167Y-14495988D01*
X7407167Y-14495988D02*
X7397643Y-14457893D01*
X7397643Y-14457893D02*
X7397643Y-14410274D01*
X7397643Y-14410274D02*
X7407167Y-14372179D01*
X7407167Y-14372179D02*
X7416691Y-14353131D01*
X7416691Y-14353131D02*
X7426215Y-14343608D01*
X7426215Y-14343608D02*
X7445262Y-14334084D01*
X7635739Y-14334084D02*
X7654786Y-14334084D01*
X7654786Y-14334084D02*
X7673834Y-14343608D01*
X7673834Y-14343608D02*
X7683358Y-14353131D01*
X7683358Y-14353131D02*
X7692882Y-14372179D01*
X7692882Y-14372179D02*
X7702405Y-14410274D01*
X7702405Y-14410274D02*
X7702405Y-14457893D01*
X7702405Y-14457893D02*
X7692882Y-14495988D01*
X7692882Y-14495988D02*
X7683358Y-14515036D01*
X7683358Y-14515036D02*
X7673834Y-14524560D01*
X7673834Y-14524560D02*
X7654786Y-14534084D01*
X7654786Y-14534084D02*
X7635739Y-14534084D01*
X7635739Y-14534084D02*
X7616691Y-14524560D01*
X7616691Y-14524560D02*
X7607167Y-14515036D01*
X7607167Y-14515036D02*
X7597643Y-14495988D01*
X7597643Y-14495988D02*
X7588120Y-14457893D01*
X7588120Y-14457893D02*
X7588120Y-14410274D01*
X7588120Y-14410274D02*
X7597643Y-14372179D01*
X7597643Y-14372179D02*
X7607167Y-14353131D01*
X7607167Y-14353131D02*
X7616691Y-14343608D01*
X7616691Y-14343608D02*
X7635739Y-14334084D01*
X7788120Y-14534084D02*
X7788120Y-14400750D01*
X7788120Y-14419798D02*
X7797643Y-14410274D01*
X7797643Y-14410274D02*
X7816691Y-14400750D01*
X7816691Y-14400750D02*
X7845263Y-14400750D01*
X7845263Y-14400750D02*
X7864310Y-14410274D01*
X7864310Y-14410274D02*
X7873834Y-14429322D01*
X7873834Y-14429322D02*
X7873834Y-14534084D01*
X7873834Y-14429322D02*
X7883358Y-14410274D01*
X7883358Y-14410274D02*
X7902405Y-14400750D01*
X7902405Y-14400750D02*
X7930977Y-14400750D01*
X7930977Y-14400750D02*
X7950024Y-14410274D01*
X7950024Y-14410274D02*
X7959548Y-14429322D01*
X7959548Y-14429322D02*
X7959548Y-14534084D01*
X8054786Y-14534084D02*
X8054786Y-14400750D01*
X8054786Y-14419798D02*
X8064310Y-14410274D01*
X8064310Y-14410274D02*
X8083358Y-14400750D01*
X8083358Y-14400750D02*
X8111929Y-14400750D01*
X8111929Y-14400750D02*
X8130977Y-14410274D01*
X8130977Y-14410274D02*
X8140501Y-14429322D01*
X8140501Y-14429322D02*
X8140501Y-14534084D01*
X8140501Y-14429322D02*
X8150024Y-14410274D01*
X8150024Y-14410274D02*
X8169072Y-14400750D01*
X8169072Y-14400750D02*
X8197643Y-14400750D01*
X8197643Y-14400750D02*
X8216691Y-14410274D01*
X8216691Y-14410274D02*
X8226215Y-14429322D01*
X8226215Y-14429322D02*
X8226215Y-14534084D01*
X8616691Y-14324560D02*
X8445263Y-14581703D01*
X8873834Y-14334084D02*
X8892882Y-14334084D01*
X8892882Y-14334084D02*
X8911929Y-14343608D01*
X8911929Y-14343608D02*
X8921453Y-14353131D01*
X8921453Y-14353131D02*
X8930977Y-14372179D01*
X8930977Y-14372179D02*
X8940501Y-14410274D01*
X8940501Y-14410274D02*
X8940501Y-14457893D01*
X8940501Y-14457893D02*
X8930977Y-14495988D01*
X8930977Y-14495988D02*
X8921453Y-14515036D01*
X8921453Y-14515036D02*
X8911929Y-14524560D01*
X8911929Y-14524560D02*
X8892882Y-14534084D01*
X8892882Y-14534084D02*
X8873834Y-14534084D01*
X8873834Y-14534084D02*
X8854787Y-14524560D01*
X8854787Y-14524560D02*
X8845263Y-14515036D01*
X8845263Y-14515036D02*
X8835739Y-14495988D01*
X8835739Y-14495988D02*
X8826215Y-14457893D01*
X8826215Y-14457893D02*
X8826215Y-14410274D01*
X8826215Y-14410274D02*
X8835739Y-14372179D01*
X8835739Y-14372179D02*
X8845263Y-14353131D01*
X8845263Y-14353131D02*
X8854787Y-14343608D01*
X8854787Y-14343608D02*
X8873834Y-14334084D01*
X9026215Y-14515036D02*
X9035739Y-14524560D01*
X9035739Y-14524560D02*
X9026215Y-14534084D01*
X9026215Y-14534084D02*
X9016691Y-14524560D01*
X9016691Y-14524560D02*
X9026215Y-14515036D01*
X9026215Y-14515036D02*
X9026215Y-14534084D01*
X9159548Y-14334084D02*
X9178596Y-14334084D01*
X9178596Y-14334084D02*
X9197644Y-14343608D01*
X9197644Y-14343608D02*
X9207168Y-14353131D01*
X9207168Y-14353131D02*
X9216691Y-14372179D01*
X9216691Y-14372179D02*
X9226215Y-14410274D01*
X9226215Y-14410274D02*
X9226215Y-14457893D01*
X9226215Y-14457893D02*
X9216691Y-14495988D01*
X9216691Y-14495988D02*
X9207168Y-14515036D01*
X9207168Y-14515036D02*
X9197644Y-14524560D01*
X9197644Y-14524560D02*
X9178596Y-14534084D01*
X9178596Y-14534084D02*
X9159548Y-14534084D01*
X9159548Y-14534084D02*
X9140501Y-14524560D01*
X9140501Y-14524560D02*
X9130977Y-14515036D01*
X9130977Y-14515036D02*
X9121453Y-14495988D01*
X9121453Y-14495988D02*
X9111929Y-14457893D01*
X9111929Y-14457893D02*
X9111929Y-14410274D01*
X9111929Y-14410274D02*
X9121453Y-14372179D01*
X9121453Y-14372179D02*
X9130977Y-14353131D01*
X9130977Y-14353131D02*
X9140501Y-14343608D01*
X9140501Y-14343608D02*
X9159548Y-14334084D01*
X9292882Y-14334084D02*
X9426215Y-14334084D01*
X9426215Y-14334084D02*
X9340501Y-14534084D01*
X9530977Y-14419798D02*
X9511929Y-14410274D01*
X9511929Y-14410274D02*
X9502406Y-14400750D01*
X9502406Y-14400750D02*
X9492882Y-14381703D01*
X9492882Y-14381703D02*
X9492882Y-14372179D01*
X9492882Y-14372179D02*
X9502406Y-14353131D01*
X9502406Y-14353131D02*
X9511929Y-14343608D01*
X9511929Y-14343608D02*
X9530977Y-14334084D01*
X9530977Y-14334084D02*
X9569072Y-14334084D01*
X9569072Y-14334084D02*
X9588120Y-14343608D01*
X9588120Y-14343608D02*
X9597644Y-14353131D01*
X9597644Y-14353131D02*
X9607168Y-14372179D01*
X9607168Y-14372179D02*
X9607168Y-14381703D01*
X9607168Y-14381703D02*
X9597644Y-14400750D01*
X9597644Y-14400750D02*
X9588120Y-14410274D01*
X9588120Y-14410274D02*
X9569072Y-14419798D01*
X9569072Y-14419798D02*
X9530977Y-14419798D01*
X9530977Y-14419798D02*
X9511929Y-14429322D01*
X9511929Y-14429322D02*
X9502406Y-14438846D01*
X9502406Y-14438846D02*
X9492882Y-14457893D01*
X9492882Y-14457893D02*
X9492882Y-14495988D01*
X9492882Y-14495988D02*
X9502406Y-14515036D01*
X9502406Y-14515036D02*
X9511929Y-14524560D01*
X9511929Y-14524560D02*
X9530977Y-14534084D01*
X9530977Y-14534084D02*
X9569072Y-14534084D01*
X9569072Y-14534084D02*
X9588120Y-14524560D01*
X9588120Y-14524560D02*
X9597644Y-14515036D01*
X9597644Y-14515036D02*
X9607168Y-14495988D01*
X9607168Y-14495988D02*
X9607168Y-14457893D01*
X9607168Y-14457893D02*
X9597644Y-14438846D01*
X9597644Y-14438846D02*
X9588120Y-14429322D01*
X9588120Y-14429322D02*
X9569072Y-14419798D01*
X9673834Y-14334084D02*
X9807168Y-14334084D01*
X9807168Y-14334084D02*
X9721453Y-14534084D01*
X9873834Y-14334084D02*
X9873834Y-14372179D01*
X9950025Y-14334084D02*
X9950025Y-14372179D01*
X10245263Y-14610274D02*
X10235739Y-14600750D01*
X10235739Y-14600750D02*
X10216691Y-14572179D01*
X10216691Y-14572179D02*
X10207168Y-14553131D01*
X10207168Y-14553131D02*
X10197644Y-14524560D01*
X10197644Y-14524560D02*
X10188120Y-14476941D01*
X10188120Y-14476941D02*
X10188120Y-14438846D01*
X10188120Y-14438846D02*
X10197644Y-14391227D01*
X10197644Y-14391227D02*
X10207168Y-14362655D01*
X10207168Y-14362655D02*
X10216691Y-14343608D01*
X10216691Y-14343608D02*
X10235739Y-14315036D01*
X10235739Y-14315036D02*
X10245263Y-14305512D01*
X10359549Y-14334084D02*
X10378596Y-14334084D01*
X10378596Y-14334084D02*
X10397644Y-14343608D01*
X10397644Y-14343608D02*
X10407168Y-14353131D01*
X10407168Y-14353131D02*
X10416691Y-14372179D01*
X10416691Y-14372179D02*
X10426215Y-14410274D01*
X10426215Y-14410274D02*
X10426215Y-14457893D01*
X10426215Y-14457893D02*
X10416691Y-14495988D01*
X10416691Y-14495988D02*
X10407168Y-14515036D01*
X10407168Y-14515036D02*
X10397644Y-14524560D01*
X10397644Y-14524560D02*
X10378596Y-14534084D01*
X10378596Y-14534084D02*
X10359549Y-14534084D01*
X10359549Y-14534084D02*
X10340501Y-14524560D01*
X10340501Y-14524560D02*
X10330977Y-14515036D01*
X10330977Y-14515036D02*
X10321453Y-14495988D01*
X10321453Y-14495988D02*
X10311930Y-14457893D01*
X10311930Y-14457893D02*
X10311930Y-14410274D01*
X10311930Y-14410274D02*
X10321453Y-14372179D01*
X10321453Y-14372179D02*
X10330977Y-14353131D01*
X10330977Y-14353131D02*
X10340501Y-14343608D01*
X10340501Y-14343608D02*
X10359549Y-14334084D01*
X10664311Y-14534084D02*
X10664311Y-14334084D01*
X10750025Y-14534084D02*
X10750025Y-14429322D01*
X10750025Y-14429322D02*
X10740501Y-14410274D01*
X10740501Y-14410274D02*
X10721453Y-14400750D01*
X10721453Y-14400750D02*
X10692882Y-14400750D01*
X10692882Y-14400750D02*
X10673834Y-14410274D01*
X10673834Y-14410274D02*
X10664311Y-14419798D01*
X10873834Y-14534084D02*
X10854787Y-14524560D01*
X10854787Y-14524560D02*
X10845263Y-14515036D01*
X10845263Y-14515036D02*
X10835739Y-14495988D01*
X10835739Y-14495988D02*
X10835739Y-14438846D01*
X10835739Y-14438846D02*
X10845263Y-14419798D01*
X10845263Y-14419798D02*
X10854787Y-14410274D01*
X10854787Y-14410274D02*
X10873834Y-14400750D01*
X10873834Y-14400750D02*
X10902406Y-14400750D01*
X10902406Y-14400750D02*
X10921453Y-14410274D01*
X10921453Y-14410274D02*
X10930977Y-14419798D01*
X10930977Y-14419798D02*
X10940501Y-14438846D01*
X10940501Y-14438846D02*
X10940501Y-14495988D01*
X10940501Y-14495988D02*
X10930977Y-14515036D01*
X10930977Y-14515036D02*
X10921453Y-14524560D01*
X10921453Y-14524560D02*
X10902406Y-14534084D01*
X10902406Y-14534084D02*
X10873834Y-14534084D01*
X11054787Y-14534084D02*
X11035739Y-14524560D01*
X11035739Y-14524560D02*
X11026215Y-14505512D01*
X11026215Y-14505512D02*
X11026215Y-14334084D01*
X11207168Y-14524560D02*
X11188120Y-14534084D01*
X11188120Y-14534084D02*
X11150025Y-14534084D01*
X11150025Y-14534084D02*
X11130977Y-14524560D01*
X11130977Y-14524560D02*
X11121453Y-14505512D01*
X11121453Y-14505512D02*
X11121453Y-14429322D01*
X11121453Y-14429322D02*
X11130977Y-14410274D01*
X11130977Y-14410274D02*
X11150025Y-14400750D01*
X11150025Y-14400750D02*
X11188120Y-14400750D01*
X11188120Y-14400750D02*
X11207168Y-14410274D01*
X11207168Y-14410274D02*
X11216691Y-14429322D01*
X11216691Y-14429322D02*
X11216691Y-14448369D01*
X11216691Y-14448369D02*
X11121453Y-14467417D01*
X11292882Y-14524560D02*
X11311930Y-14534084D01*
X11311930Y-14534084D02*
X11350025Y-14534084D01*
X11350025Y-14534084D02*
X11369072Y-14524560D01*
X11369072Y-14524560D02*
X11378596Y-14505512D01*
X11378596Y-14505512D02*
X11378596Y-14495988D01*
X11378596Y-14495988D02*
X11369072Y-14476941D01*
X11369072Y-14476941D02*
X11350025Y-14467417D01*
X11350025Y-14467417D02*
X11321453Y-14467417D01*
X11321453Y-14467417D02*
X11302406Y-14457893D01*
X11302406Y-14457893D02*
X11292882Y-14438846D01*
X11292882Y-14438846D02*
X11292882Y-14429322D01*
X11292882Y-14429322D02*
X11302406Y-14410274D01*
X11302406Y-14410274D02*
X11321453Y-14400750D01*
X11321453Y-14400750D02*
X11350025Y-14400750D01*
X11350025Y-14400750D02*
X11369072Y-14410274D01*
X11616692Y-14457893D02*
X11769073Y-14457893D01*
X11692882Y-14534084D02*
X11692882Y-14381703D01*
X12007168Y-14353131D02*
X12016692Y-14343608D01*
X12016692Y-14343608D02*
X12035739Y-14334084D01*
X12035739Y-14334084D02*
X12083358Y-14334084D01*
X12083358Y-14334084D02*
X12102406Y-14343608D01*
X12102406Y-14343608D02*
X12111930Y-14353131D01*
X12111930Y-14353131D02*
X12121453Y-14372179D01*
X12121453Y-14372179D02*
X12121453Y-14391227D01*
X12121453Y-14391227D02*
X12111930Y-14419798D01*
X12111930Y-14419798D02*
X11997644Y-14534084D01*
X11997644Y-14534084D02*
X12121453Y-14534084D01*
X12350025Y-14524560D02*
X12369073Y-14534084D01*
X12369073Y-14534084D02*
X12407168Y-14534084D01*
X12407168Y-14534084D02*
X12426215Y-14524560D01*
X12426215Y-14524560D02*
X12435739Y-14505512D01*
X12435739Y-14505512D02*
X12435739Y-14495988D01*
X12435739Y-14495988D02*
X12426215Y-14476941D01*
X12426215Y-14476941D02*
X12407168Y-14467417D01*
X12407168Y-14467417D02*
X12378596Y-14467417D01*
X12378596Y-14467417D02*
X12359549Y-14457893D01*
X12359549Y-14457893D02*
X12350025Y-14438846D01*
X12350025Y-14438846D02*
X12350025Y-14429322D01*
X12350025Y-14429322D02*
X12359549Y-14410274D01*
X12359549Y-14410274D02*
X12378596Y-14400750D01*
X12378596Y-14400750D02*
X12407168Y-14400750D01*
X12407168Y-14400750D02*
X12426215Y-14410274D01*
X12550025Y-14534084D02*
X12530977Y-14524560D01*
X12530977Y-14524560D02*
X12521454Y-14505512D01*
X12521454Y-14505512D02*
X12521454Y-14334084D01*
X12654787Y-14534084D02*
X12635739Y-14524560D01*
X12635739Y-14524560D02*
X12626215Y-14515036D01*
X12626215Y-14515036D02*
X12616692Y-14495988D01*
X12616692Y-14495988D02*
X12616692Y-14438846D01*
X12616692Y-14438846D02*
X12626215Y-14419798D01*
X12626215Y-14419798D02*
X12635739Y-14410274D01*
X12635739Y-14410274D02*
X12654787Y-14400750D01*
X12654787Y-14400750D02*
X12683358Y-14400750D01*
X12683358Y-14400750D02*
X12702406Y-14410274D01*
X12702406Y-14410274D02*
X12711930Y-14419798D01*
X12711930Y-14419798D02*
X12721454Y-14438846D01*
X12721454Y-14438846D02*
X12721454Y-14495988D01*
X12721454Y-14495988D02*
X12711930Y-14515036D01*
X12711930Y-14515036D02*
X12702406Y-14524560D01*
X12702406Y-14524560D02*
X12683358Y-14534084D01*
X12683358Y-14534084D02*
X12654787Y-14534084D01*
X12778596Y-14400750D02*
X12854787Y-14400750D01*
X12807168Y-14334084D02*
X12807168Y-14505512D01*
X12807168Y-14505512D02*
X12816692Y-14524560D01*
X12816692Y-14524560D02*
X12835739Y-14534084D01*
X12835739Y-14534084D02*
X12854787Y-14534084D01*
X12911930Y-14524560D02*
X12930977Y-14534084D01*
X12930977Y-14534084D02*
X12969073Y-14534084D01*
X12969073Y-14534084D02*
X12988120Y-14524560D01*
X12988120Y-14524560D02*
X12997644Y-14505512D01*
X12997644Y-14505512D02*
X12997644Y-14495988D01*
X12997644Y-14495988D02*
X12988120Y-14476941D01*
X12988120Y-14476941D02*
X12969073Y-14467417D01*
X12969073Y-14467417D02*
X12940501Y-14467417D01*
X12940501Y-14467417D02*
X12921454Y-14457893D01*
X12921454Y-14457893D02*
X12911930Y-14438846D01*
X12911930Y-14438846D02*
X12911930Y-14429322D01*
X12911930Y-14429322D02*
X12921454Y-14410274D01*
X12921454Y-14410274D02*
X12940501Y-14400750D01*
X12940501Y-14400750D02*
X12969073Y-14400750D01*
X12969073Y-14400750D02*
X12988120Y-14410274D01*
X13064311Y-14610274D02*
X13073835Y-14600750D01*
X13073835Y-14600750D02*
X13092882Y-14572179D01*
X13092882Y-14572179D02*
X13102406Y-14553131D01*
X13102406Y-14553131D02*
X13111930Y-14524560D01*
X13111930Y-14524560D02*
X13121454Y-14476941D01*
X13121454Y-14476941D02*
X13121454Y-14438846D01*
X13121454Y-14438846D02*
X13111930Y-14391227D01*
X13111930Y-14391227D02*
X13102406Y-14362655D01*
X13102406Y-14362655D02*
X13092882Y-14343608D01*
X13092882Y-14343608D02*
X13073835Y-14315036D01*
X13073835Y-14315036D02*
X13064311Y-14305512D01*
X6570200Y-14662600D02*
X6570200Y-14862600D01*
X6470200Y-14762600D02*
X6670200Y-14762600D01*
X6670200Y-14762600D02*
G75*
G03*
X6670200Y-14762600I-100000J0D01*
G01*
X6911929Y-14654084D02*
X7035739Y-14654084D01*
X7035739Y-14654084D02*
X6969072Y-14730274D01*
X6969072Y-14730274D02*
X6997643Y-14730274D01*
X6997643Y-14730274D02*
X7016691Y-14739798D01*
X7016691Y-14739798D02*
X7026215Y-14749322D01*
X7026215Y-14749322D02*
X7035739Y-14768369D01*
X7035739Y-14768369D02*
X7035739Y-14815988D01*
X7035739Y-14815988D02*
X7026215Y-14835036D01*
X7026215Y-14835036D02*
X7016691Y-14844560D01*
X7016691Y-14844560D02*
X6997643Y-14854084D01*
X6997643Y-14854084D02*
X6940501Y-14854084D01*
X6940501Y-14854084D02*
X6921453Y-14844560D01*
X6921453Y-14844560D02*
X6911929Y-14835036D01*
X7121453Y-14835036D02*
X7130977Y-14844560D01*
X7130977Y-14844560D02*
X7121453Y-14854084D01*
X7121453Y-14854084D02*
X7111929Y-14844560D01*
X7111929Y-14844560D02*
X7121453Y-14835036D01*
X7121453Y-14835036D02*
X7121453Y-14854084D01*
X7207167Y-14673131D02*
X7216691Y-14663608D01*
X7216691Y-14663608D02*
X7235739Y-14654084D01*
X7235739Y-14654084D02*
X7283358Y-14654084D01*
X7283358Y-14654084D02*
X7302405Y-14663608D01*
X7302405Y-14663608D02*
X7311929Y-14673131D01*
X7311929Y-14673131D02*
X7321453Y-14692179D01*
X7321453Y-14692179D02*
X7321453Y-14711227D01*
X7321453Y-14711227D02*
X7311929Y-14739798D01*
X7311929Y-14739798D02*
X7197643Y-14854084D01*
X7197643Y-14854084D02*
X7321453Y-14854084D01*
X7502405Y-14654084D02*
X7407167Y-14654084D01*
X7407167Y-14654084D02*
X7397643Y-14749322D01*
X7397643Y-14749322D02*
X7407167Y-14739798D01*
X7407167Y-14739798D02*
X7426215Y-14730274D01*
X7426215Y-14730274D02*
X7473834Y-14730274D01*
X7473834Y-14730274D02*
X7492882Y-14739798D01*
X7492882Y-14739798D02*
X7502405Y-14749322D01*
X7502405Y-14749322D02*
X7511929Y-14768369D01*
X7511929Y-14768369D02*
X7511929Y-14815988D01*
X7511929Y-14815988D02*
X7502405Y-14835036D01*
X7502405Y-14835036D02*
X7492882Y-14844560D01*
X7492882Y-14844560D02*
X7473834Y-14854084D01*
X7473834Y-14854084D02*
X7426215Y-14854084D01*
X7426215Y-14854084D02*
X7407167Y-14844560D01*
X7407167Y-14844560D02*
X7397643Y-14835036D01*
X7635739Y-14654084D02*
X7654786Y-14654084D01*
X7654786Y-14654084D02*
X7673834Y-14663608D01*
X7673834Y-14663608D02*
X7683358Y-14673131D01*
X7683358Y-14673131D02*
X7692882Y-14692179D01*
X7692882Y-14692179D02*
X7702405Y-14730274D01*
X7702405Y-14730274D02*
X7702405Y-14777893D01*
X7702405Y-14777893D02*
X7692882Y-14815988D01*
X7692882Y-14815988D02*
X7683358Y-14835036D01*
X7683358Y-14835036D02*
X7673834Y-14844560D01*
X7673834Y-14844560D02*
X7654786Y-14854084D01*
X7654786Y-14854084D02*
X7635739Y-14854084D01*
X7635739Y-14854084D02*
X7616691Y-14844560D01*
X7616691Y-14844560D02*
X7607167Y-14835036D01*
X7607167Y-14835036D02*
X7597643Y-14815988D01*
X7597643Y-14815988D02*
X7588120Y-14777893D01*
X7588120Y-14777893D02*
X7588120Y-14730274D01*
X7588120Y-14730274D02*
X7597643Y-14692179D01*
X7597643Y-14692179D02*
X7607167Y-14673131D01*
X7607167Y-14673131D02*
X7616691Y-14663608D01*
X7616691Y-14663608D02*
X7635739Y-14654084D01*
X7788120Y-14854084D02*
X7788120Y-14720750D01*
X7788120Y-14739798D02*
X7797643Y-14730274D01*
X7797643Y-14730274D02*
X7816691Y-14720750D01*
X7816691Y-14720750D02*
X7845263Y-14720750D01*
X7845263Y-14720750D02*
X7864310Y-14730274D01*
X7864310Y-14730274D02*
X7873834Y-14749322D01*
X7873834Y-14749322D02*
X7873834Y-14854084D01*
X7873834Y-14749322D02*
X7883358Y-14730274D01*
X7883358Y-14730274D02*
X7902405Y-14720750D01*
X7902405Y-14720750D02*
X7930977Y-14720750D01*
X7930977Y-14720750D02*
X7950024Y-14730274D01*
X7950024Y-14730274D02*
X7959548Y-14749322D01*
X7959548Y-14749322D02*
X7959548Y-14854084D01*
X8054786Y-14854084D02*
X8054786Y-14720750D01*
X8054786Y-14739798D02*
X8064310Y-14730274D01*
X8064310Y-14730274D02*
X8083358Y-14720750D01*
X8083358Y-14720750D02*
X8111929Y-14720750D01*
X8111929Y-14720750D02*
X8130977Y-14730274D01*
X8130977Y-14730274D02*
X8140501Y-14749322D01*
X8140501Y-14749322D02*
X8140501Y-14854084D01*
X8140501Y-14749322D02*
X8150024Y-14730274D01*
X8150024Y-14730274D02*
X8169072Y-14720750D01*
X8169072Y-14720750D02*
X8197643Y-14720750D01*
X8197643Y-14720750D02*
X8216691Y-14730274D01*
X8216691Y-14730274D02*
X8226215Y-14749322D01*
X8226215Y-14749322D02*
X8226215Y-14854084D01*
X8616691Y-14644560D02*
X8445263Y-14901703D01*
X8873834Y-14654084D02*
X8892882Y-14654084D01*
X8892882Y-14654084D02*
X8911929Y-14663608D01*
X8911929Y-14663608D02*
X8921453Y-14673131D01*
X8921453Y-14673131D02*
X8930977Y-14692179D01*
X8930977Y-14692179D02*
X8940501Y-14730274D01*
X8940501Y-14730274D02*
X8940501Y-14777893D01*
X8940501Y-14777893D02*
X8930977Y-14815988D01*
X8930977Y-14815988D02*
X8921453Y-14835036D01*
X8921453Y-14835036D02*
X8911929Y-14844560D01*
X8911929Y-14844560D02*
X8892882Y-14854084D01*
X8892882Y-14854084D02*
X8873834Y-14854084D01*
X8873834Y-14854084D02*
X8854787Y-14844560D01*
X8854787Y-14844560D02*
X8845263Y-14835036D01*
X8845263Y-14835036D02*
X8835739Y-14815988D01*
X8835739Y-14815988D02*
X8826215Y-14777893D01*
X8826215Y-14777893D02*
X8826215Y-14730274D01*
X8826215Y-14730274D02*
X8835739Y-14692179D01*
X8835739Y-14692179D02*
X8845263Y-14673131D01*
X8845263Y-14673131D02*
X8854787Y-14663608D01*
X8854787Y-14663608D02*
X8873834Y-14654084D01*
X9026215Y-14835036D02*
X9035739Y-14844560D01*
X9035739Y-14844560D02*
X9026215Y-14854084D01*
X9026215Y-14854084D02*
X9016691Y-14844560D01*
X9016691Y-14844560D02*
X9026215Y-14835036D01*
X9026215Y-14835036D02*
X9026215Y-14854084D01*
X9226215Y-14854084D02*
X9111929Y-14854084D01*
X9169072Y-14854084D02*
X9169072Y-14654084D01*
X9169072Y-14654084D02*
X9150025Y-14682655D01*
X9150025Y-14682655D02*
X9130977Y-14701703D01*
X9130977Y-14701703D02*
X9111929Y-14711227D01*
X9302406Y-14673131D02*
X9311929Y-14663608D01*
X9311929Y-14663608D02*
X9330977Y-14654084D01*
X9330977Y-14654084D02*
X9378596Y-14654084D01*
X9378596Y-14654084D02*
X9397644Y-14663608D01*
X9397644Y-14663608D02*
X9407168Y-14673131D01*
X9407168Y-14673131D02*
X9416691Y-14692179D01*
X9416691Y-14692179D02*
X9416691Y-14711227D01*
X9416691Y-14711227D02*
X9407168Y-14739798D01*
X9407168Y-14739798D02*
X9292882Y-14854084D01*
X9292882Y-14854084D02*
X9416691Y-14854084D01*
X9530977Y-14739798D02*
X9511929Y-14730274D01*
X9511929Y-14730274D02*
X9502406Y-14720750D01*
X9502406Y-14720750D02*
X9492882Y-14701703D01*
X9492882Y-14701703D02*
X9492882Y-14692179D01*
X9492882Y-14692179D02*
X9502406Y-14673131D01*
X9502406Y-14673131D02*
X9511929Y-14663608D01*
X9511929Y-14663608D02*
X9530977Y-14654084D01*
X9530977Y-14654084D02*
X9569072Y-14654084D01*
X9569072Y-14654084D02*
X9588120Y-14663608D01*
X9588120Y-14663608D02*
X9597644Y-14673131D01*
X9597644Y-14673131D02*
X9607168Y-14692179D01*
X9607168Y-14692179D02*
X9607168Y-14701703D01*
X9607168Y-14701703D02*
X9597644Y-14720750D01*
X9597644Y-14720750D02*
X9588120Y-14730274D01*
X9588120Y-14730274D02*
X9569072Y-14739798D01*
X9569072Y-14739798D02*
X9530977Y-14739798D01*
X9530977Y-14739798D02*
X9511929Y-14749322D01*
X9511929Y-14749322D02*
X9502406Y-14758846D01*
X9502406Y-14758846D02*
X9492882Y-14777893D01*
X9492882Y-14777893D02*
X9492882Y-14815988D01*
X9492882Y-14815988D02*
X9502406Y-14835036D01*
X9502406Y-14835036D02*
X9511929Y-14844560D01*
X9511929Y-14844560D02*
X9530977Y-14854084D01*
X9530977Y-14854084D02*
X9569072Y-14854084D01*
X9569072Y-14854084D02*
X9588120Y-14844560D01*
X9588120Y-14844560D02*
X9597644Y-14835036D01*
X9597644Y-14835036D02*
X9607168Y-14815988D01*
X9607168Y-14815988D02*
X9607168Y-14777893D01*
X9607168Y-14777893D02*
X9597644Y-14758846D01*
X9597644Y-14758846D02*
X9588120Y-14749322D01*
X9588120Y-14749322D02*
X9569072Y-14739798D01*
X9730977Y-14654084D02*
X9750025Y-14654084D01*
X9750025Y-14654084D02*
X9769072Y-14663608D01*
X9769072Y-14663608D02*
X9778596Y-14673131D01*
X9778596Y-14673131D02*
X9788120Y-14692179D01*
X9788120Y-14692179D02*
X9797644Y-14730274D01*
X9797644Y-14730274D02*
X9797644Y-14777893D01*
X9797644Y-14777893D02*
X9788120Y-14815988D01*
X9788120Y-14815988D02*
X9778596Y-14835036D01*
X9778596Y-14835036D02*
X9769072Y-14844560D01*
X9769072Y-14844560D02*
X9750025Y-14854084D01*
X9750025Y-14854084D02*
X9730977Y-14854084D01*
X9730977Y-14854084D02*
X9711929Y-14844560D01*
X9711929Y-14844560D02*
X9702406Y-14835036D01*
X9702406Y-14835036D02*
X9692882Y-14815988D01*
X9692882Y-14815988D02*
X9683358Y-14777893D01*
X9683358Y-14777893D02*
X9683358Y-14730274D01*
X9683358Y-14730274D02*
X9692882Y-14692179D01*
X9692882Y-14692179D02*
X9702406Y-14673131D01*
X9702406Y-14673131D02*
X9711929Y-14663608D01*
X9711929Y-14663608D02*
X9730977Y-14654084D01*
X9873834Y-14654084D02*
X9873834Y-14692179D01*
X9950025Y-14654084D02*
X9950025Y-14692179D01*
X10245263Y-14930274D02*
X10235739Y-14920750D01*
X10235739Y-14920750D02*
X10216691Y-14892179D01*
X10216691Y-14892179D02*
X10207168Y-14873131D01*
X10207168Y-14873131D02*
X10197644Y-14844560D01*
X10197644Y-14844560D02*
X10188120Y-14796941D01*
X10188120Y-14796941D02*
X10188120Y-14758846D01*
X10188120Y-14758846D02*
X10197644Y-14711227D01*
X10197644Y-14711227D02*
X10207168Y-14682655D01*
X10207168Y-14682655D02*
X10216691Y-14663608D01*
X10216691Y-14663608D02*
X10235739Y-14635036D01*
X10235739Y-14635036D02*
X10245263Y-14625512D01*
X10311930Y-14673131D02*
X10321453Y-14663608D01*
X10321453Y-14663608D02*
X10340501Y-14654084D01*
X10340501Y-14654084D02*
X10388120Y-14654084D01*
X10388120Y-14654084D02*
X10407168Y-14663608D01*
X10407168Y-14663608D02*
X10416691Y-14673131D01*
X10416691Y-14673131D02*
X10426215Y-14692179D01*
X10426215Y-14692179D02*
X10426215Y-14711227D01*
X10426215Y-14711227D02*
X10416691Y-14739798D01*
X10416691Y-14739798D02*
X10302406Y-14854084D01*
X10302406Y-14854084D02*
X10426215Y-14854084D01*
X10664311Y-14854084D02*
X10664311Y-14654084D01*
X10750025Y-14854084D02*
X10750025Y-14749322D01*
X10750025Y-14749322D02*
X10740501Y-14730274D01*
X10740501Y-14730274D02*
X10721453Y-14720750D01*
X10721453Y-14720750D02*
X10692882Y-14720750D01*
X10692882Y-14720750D02*
X10673834Y-14730274D01*
X10673834Y-14730274D02*
X10664311Y-14739798D01*
X10873834Y-14854084D02*
X10854787Y-14844560D01*
X10854787Y-14844560D02*
X10845263Y-14835036D01*
X10845263Y-14835036D02*
X10835739Y-14815988D01*
X10835739Y-14815988D02*
X10835739Y-14758846D01*
X10835739Y-14758846D02*
X10845263Y-14739798D01*
X10845263Y-14739798D02*
X10854787Y-14730274D01*
X10854787Y-14730274D02*
X10873834Y-14720750D01*
X10873834Y-14720750D02*
X10902406Y-14720750D01*
X10902406Y-14720750D02*
X10921453Y-14730274D01*
X10921453Y-14730274D02*
X10930977Y-14739798D01*
X10930977Y-14739798D02*
X10940501Y-14758846D01*
X10940501Y-14758846D02*
X10940501Y-14815988D01*
X10940501Y-14815988D02*
X10930977Y-14835036D01*
X10930977Y-14835036D02*
X10921453Y-14844560D01*
X10921453Y-14844560D02*
X10902406Y-14854084D01*
X10902406Y-14854084D02*
X10873834Y-14854084D01*
X11054787Y-14854084D02*
X11035739Y-14844560D01*
X11035739Y-14844560D02*
X11026215Y-14825512D01*
X11026215Y-14825512D02*
X11026215Y-14654084D01*
X11207168Y-14844560D02*
X11188120Y-14854084D01*
X11188120Y-14854084D02*
X11150025Y-14854084D01*
X11150025Y-14854084D02*
X11130977Y-14844560D01*
X11130977Y-14844560D02*
X11121453Y-14825512D01*
X11121453Y-14825512D02*
X11121453Y-14749322D01*
X11121453Y-14749322D02*
X11130977Y-14730274D01*
X11130977Y-14730274D02*
X11150025Y-14720750D01*
X11150025Y-14720750D02*
X11188120Y-14720750D01*
X11188120Y-14720750D02*
X11207168Y-14730274D01*
X11207168Y-14730274D02*
X11216691Y-14749322D01*
X11216691Y-14749322D02*
X11216691Y-14768369D01*
X11216691Y-14768369D02*
X11121453Y-14787417D01*
X11292882Y-14844560D02*
X11311930Y-14854084D01*
X11311930Y-14854084D02*
X11350025Y-14854084D01*
X11350025Y-14854084D02*
X11369072Y-14844560D01*
X11369072Y-14844560D02*
X11378596Y-14825512D01*
X11378596Y-14825512D02*
X11378596Y-14815988D01*
X11378596Y-14815988D02*
X11369072Y-14796941D01*
X11369072Y-14796941D02*
X11350025Y-14787417D01*
X11350025Y-14787417D02*
X11321453Y-14787417D01*
X11321453Y-14787417D02*
X11302406Y-14777893D01*
X11302406Y-14777893D02*
X11292882Y-14758846D01*
X11292882Y-14758846D02*
X11292882Y-14749322D01*
X11292882Y-14749322D02*
X11302406Y-14730274D01*
X11302406Y-14730274D02*
X11321453Y-14720750D01*
X11321453Y-14720750D02*
X11350025Y-14720750D01*
X11350025Y-14720750D02*
X11369072Y-14730274D01*
X11445263Y-14930274D02*
X11454787Y-14920750D01*
X11454787Y-14920750D02*
X11473834Y-14892179D01*
X11473834Y-14892179D02*
X11483358Y-14873131D01*
X11483358Y-14873131D02*
X11492882Y-14844560D01*
X11492882Y-14844560D02*
X11502406Y-14796941D01*
X11502406Y-14796941D02*
X11502406Y-14758846D01*
X11502406Y-14758846D02*
X11492882Y-14711227D01*
X11492882Y-14711227D02*
X11483358Y-14682655D01*
X11483358Y-14682655D02*
X11473834Y-14663608D01*
X11473834Y-14663608D02*
X11454787Y-14635036D01*
X11454787Y-14635036D02*
X11445263Y-14625512D01*
M02*
