%TF.GenerationSoftware,KiCad,Pcbnew,7.0.7*%
%TF.CreationDate,2023-11-02T15:27:59-05:00*%
%TF.ProjectId,CoreBoard_Rev1,436f7265-426f-4617-9264-5f526576312e,rev?*%
%TF.SameCoordinates,Original*%
%TF.FileFunction,Paste,Top*%
%TF.FilePolarity,Positive*%
%FSLAX46Y46*%
G04 Gerber Fmt 4.6, Leading zero omitted, Abs format (unit mm)*
G04 Created by KiCad (PCBNEW 7.0.7) date 2023-11-02 15:27:59*
%MOMM*%
%LPD*%
G01*
G04 APERTURE LIST*
G04 Aperture macros list*
%AMRoundRect*
0 Rectangle with rounded corners*
0 $1 Rounding radius*
0 $2 $3 $4 $5 $6 $7 $8 $9 X,Y pos of 4 corners*
0 Add a 4 corners polygon primitive as box body*
4,1,4,$2,$3,$4,$5,$6,$7,$8,$9,$2,$3,0*
0 Add four circle primitives for the rounded corners*
1,1,$1+$1,$2,$3*
1,1,$1+$1,$4,$5*
1,1,$1+$1,$6,$7*
1,1,$1+$1,$8,$9*
0 Add four rect primitives between the rounded corners*
20,1,$1+$1,$2,$3,$4,$5,0*
20,1,$1+$1,$4,$5,$6,$7,0*
20,1,$1+$1,$6,$7,$8,$9,0*
20,1,$1+$1,$8,$9,$2,$3,0*%
G04 Aperture macros list end*
%ADD10RoundRect,0.237500X0.287500X0.237500X-0.287500X0.237500X-0.287500X-0.237500X0.287500X-0.237500X0*%
%ADD11RoundRect,0.237500X0.250000X0.237500X-0.250000X0.237500X-0.250000X-0.237500X0.250000X-0.237500X0*%
%ADD12R,1.600000X1.400000*%
%ADD13RoundRect,0.237500X-0.237500X0.250000X-0.237500X-0.250000X0.237500X-0.250000X0.237500X0.250000X0*%
%ADD14RoundRect,0.250000X-0.412500X-0.650000X0.412500X-0.650000X0.412500X0.650000X-0.412500X0.650000X0*%
%ADD15RoundRect,0.237500X0.237500X-0.287500X0.237500X0.287500X-0.237500X0.287500X-0.237500X-0.287500X0*%
%ADD16RoundRect,0.237500X-0.237500X0.300000X-0.237500X-0.300000X0.237500X-0.300000X0.237500X0.300000X0*%
%ADD17RoundRect,0.150000X0.150000X-0.837500X0.150000X0.837500X-0.150000X0.837500X-0.150000X-0.837500X0*%
%ADD18RoundRect,0.237500X0.237500X-0.300000X0.237500X0.300000X-0.237500X0.300000X-0.237500X-0.300000X0*%
%ADD19RoundRect,0.237500X0.237500X-0.250000X0.237500X0.250000X-0.237500X0.250000X-0.237500X-0.250000X0*%
%ADD20RoundRect,0.237500X-0.237500X0.287500X-0.237500X-0.287500X0.237500X-0.287500X0.237500X0.287500X0*%
%ADD21RoundRect,0.137500X-0.662500X-0.137500X0.662500X-0.137500X0.662500X0.137500X-0.662500X0.137500X0*%
%ADD22RoundRect,0.137500X0.662500X0.137500X-0.662500X0.137500X-0.662500X-0.137500X0.662500X-0.137500X0*%
%ADD23C,1.900000*%
G04 APERTURE END LIST*
D10*
%TO.C,D6*%
X155434000Y-47879000D03*
X153684000Y-47879000D03*
%TD*%
D11*
%TO.C,R16*%
X151661500Y-37338000D03*
X149836500Y-37338000D03*
%TD*%
%TO.C,R6*%
X151661500Y-47879000D03*
X149836500Y-47879000D03*
%TD*%
D12*
%TO.C,SW15*%
X99866000Y-63730000D03*
X92666000Y-63730000D03*
X99866000Y-60730000D03*
X92666000Y-60730000D03*
%TD*%
D11*
%TO.C,R5*%
X165656900Y-47879000D03*
X163831900Y-47879000D03*
%TD*%
D10*
%TO.C,D17*%
X109129800Y-37338000D03*
X107379800Y-37338000D03*
%TD*%
D12*
%TO.C,SW14*%
X111042000Y-42648000D03*
X103842000Y-42648000D03*
X111042000Y-39648000D03*
X103842000Y-39648000D03*
%TD*%
D11*
%TO.C,R8*%
X105357300Y-47879000D03*
X103532300Y-47879000D03*
%TD*%
D10*
%TO.C,D9*%
X96252000Y-37338000D03*
X94502000Y-37338000D03*
%TD*%
D12*
%TO.C,SW13*%
X145078000Y-63730000D03*
X137878000Y-63730000D03*
X145078000Y-60730000D03*
X137878000Y-60730000D03*
%TD*%
D11*
%TO.C,R14*%
X92454100Y-37338000D03*
X90629100Y-37338000D03*
%TD*%
D12*
%TO.C,SW12*%
X159048000Y-63730000D03*
X151848000Y-63730000D03*
X159048000Y-60730000D03*
X151848000Y-60730000D03*
%TD*%
D10*
%TO.C,D10*%
X169454800Y-37338000D03*
X167704800Y-37338000D03*
%TD*%
D11*
%TO.C,R9*%
X100175700Y-47879000D03*
X98350700Y-47879000D03*
%TD*%
D13*
%TO.C,R36*%
X133096000Y-94299400D03*
X133096000Y-96124400D03*
%TD*%
D11*
%TO.C,R20*%
X173340400Y-37338000D03*
X171515400Y-37338000D03*
%TD*%
%TO.C,R10*%
X173340400Y-47879000D03*
X171515400Y-47879000D03*
%TD*%
%TO.C,R19*%
X100175700Y-37338000D03*
X98350700Y-37338000D03*
%TD*%
D10*
%TO.C,D12*%
X141514800Y-37338000D03*
X139764800Y-37338000D03*
%TD*%
D11*
%TO.C,R33*%
X100175700Y-58420000D03*
X98350700Y-58420000D03*
%TD*%
D12*
%TO.C,SW4*%
X145078000Y-53189000D03*
X137878000Y-53189000D03*
X145078000Y-50189000D03*
X137878000Y-50189000D03*
%TD*%
D14*
%TO.C,C2*%
X180428500Y-98298000D03*
X183553500Y-98298000D03*
%TD*%
D10*
%TO.C,D16*%
X141514800Y-58420000D03*
X139764800Y-58420000D03*
%TD*%
D11*
%TO.C,R23*%
X113040800Y-58420000D03*
X111215800Y-58420000D03*
%TD*%
%TO.C,R18*%
X105357300Y-58420000D03*
X103532300Y-58420000D03*
%TD*%
%TO.C,R29*%
X173340400Y-58420000D03*
X171515400Y-58420000D03*
%TD*%
D15*
%TO.C,D20*%
X155194000Y-96086900D03*
X155194000Y-94336900D03*
%TD*%
D11*
%TO.C,R28*%
X92454100Y-58420000D03*
X90629100Y-58420000D03*
%TD*%
D16*
%TO.C,C3*%
X183769000Y-100991500D03*
X183769000Y-102716500D03*
%TD*%
D17*
%TO.C,U6*%
X120700800Y-67724500D03*
X121970800Y-67724500D03*
X123240800Y-67724500D03*
X124510800Y-67724500D03*
X125780800Y-67724500D03*
X127050800Y-67724500D03*
X128320800Y-67724500D03*
X128320800Y-60799500D03*
X127050800Y-60799500D03*
X125780800Y-60799500D03*
X124510800Y-60799500D03*
X123240800Y-60799500D03*
X121970800Y-60799500D03*
X120700800Y-60799500D03*
%TD*%
D11*
%TO.C,R21*%
X159357700Y-37338000D03*
X157532700Y-37338000D03*
%TD*%
D10*
%TO.C,D15*%
X155434000Y-58420000D03*
X153684000Y-58420000D03*
%TD*%
%TO.C,D13*%
X109129800Y-58420000D03*
X107379800Y-58420000D03*
%TD*%
D12*
%TO.C,SW9*%
X145078000Y-42648000D03*
X137878000Y-42648000D03*
X145078000Y-39648000D03*
X137878000Y-39648000D03*
%TD*%
%TO.C,SW8*%
X159048000Y-42648000D03*
X151848000Y-42648000D03*
X159048000Y-39648000D03*
X151848000Y-39648000D03*
%TD*%
D18*
%TO.C,C1*%
X92202000Y-90626100D03*
X92202000Y-88901100D03*
%TD*%
D19*
%TO.C,R38*%
X141971500Y-96162500D03*
X141971500Y-94337500D03*
%TD*%
D20*
%TO.C,D21*%
X135128000Y-94375000D03*
X135128000Y-96125000D03*
%TD*%
D11*
%TO.C,R4*%
X92454100Y-47879000D03*
X90629100Y-47879000D03*
%TD*%
D10*
%TO.C,D5*%
X169454800Y-47879000D03*
X167704800Y-47879000D03*
%TD*%
D11*
%TO.C,R30*%
X159357700Y-58420000D03*
X157532700Y-58420000D03*
%TD*%
D10*
%TO.C,D8*%
X109129800Y-47879000D03*
X107379800Y-47879000D03*
%TD*%
D11*
%TO.C,R32*%
X113040800Y-37338000D03*
X111215800Y-37338000D03*
%TD*%
%TO.C,R27*%
X105357300Y-37338000D03*
X103532300Y-37338000D03*
%TD*%
D21*
%TO.C,U4*%
X121260800Y-34163000D03*
X121260800Y-35433000D03*
X121260800Y-36703000D03*
X121260800Y-37973000D03*
X121260800Y-39243000D03*
X121260800Y-40513000D03*
X121260800Y-41783000D03*
X121260800Y-43053000D03*
X127760800Y-43053000D03*
X127760800Y-41783000D03*
X127760800Y-40513000D03*
X127760800Y-39243000D03*
X127760800Y-37973000D03*
X127760800Y-36703000D03*
X127760800Y-35433000D03*
X127760800Y-34163000D03*
%TD*%
D11*
%TO.C,R11*%
X159357700Y-47879000D03*
X157532700Y-47879000D03*
%TD*%
%TO.C,R7*%
X137742300Y-47879000D03*
X135917300Y-47879000D03*
%TD*%
D10*
%TO.C,D11*%
X155434000Y-37338000D03*
X153684000Y-37338000D03*
%TD*%
%TO.C,D7*%
X141514800Y-47879000D03*
X139764800Y-47879000D03*
%TD*%
D11*
%TO.C,R15*%
X165656900Y-37338000D03*
X163831900Y-37338000D03*
%TD*%
D22*
%TO.C,U5*%
X127760800Y-56261000D03*
X127760800Y-54991000D03*
X127760800Y-53721000D03*
X127760800Y-52451000D03*
X127760800Y-51181000D03*
X127760800Y-49911000D03*
X127760800Y-48641000D03*
X127760800Y-47371000D03*
X121260800Y-47371000D03*
X121260800Y-48641000D03*
X121260800Y-49911000D03*
X121260800Y-51181000D03*
X121260800Y-52451000D03*
X121260800Y-53721000D03*
X121260800Y-54991000D03*
X121260800Y-56261000D03*
%TD*%
D12*
%TO.C,SW5*%
X111042000Y-53189000D03*
X103842000Y-53189000D03*
X111042000Y-50189000D03*
X103842000Y-50189000D03*
%TD*%
D10*
%TO.C,D4*%
X96252000Y-47879000D03*
X94502000Y-47879000D03*
%TD*%
D11*
%TO.C,R24*%
X165656900Y-58420000D03*
X163831900Y-58420000D03*
%TD*%
D10*
%TO.C,D14*%
X169454800Y-58420000D03*
X167704800Y-58420000D03*
%TD*%
D12*
%TO.C,SW2*%
X173018000Y-53189000D03*
X165818000Y-53189000D03*
X173018000Y-50189000D03*
X165818000Y-50189000D03*
%TD*%
%TO.C,SW3*%
X159048000Y-53189000D03*
X151848000Y-53189000D03*
X159048000Y-50189000D03*
X151848000Y-50189000D03*
%TD*%
D11*
%TO.C,R13*%
X113040800Y-47879000D03*
X111215800Y-47879000D03*
%TD*%
%TO.C,R17*%
X137742300Y-37338000D03*
X135917300Y-37338000D03*
%TD*%
D12*
%TO.C,SW6*%
X99866000Y-42648000D03*
X92666000Y-42648000D03*
X99866000Y-39648000D03*
X92666000Y-39648000D03*
%TD*%
D20*
%TO.C,D19*%
X75450500Y-100804000D03*
X75450500Y-102554000D03*
%TD*%
D11*
%TO.C,R31*%
X145387700Y-58420000D03*
X143562700Y-58420000D03*
%TD*%
%TO.C,R12*%
X145387700Y-47879000D03*
X143562700Y-47879000D03*
%TD*%
D13*
%TO.C,R34*%
X75450500Y-104567000D03*
X75450500Y-106392000D03*
%TD*%
D19*
%TO.C,R35*%
X153162000Y-96162500D03*
X153162000Y-94337500D03*
%TD*%
D12*
%TO.C,SW11*%
X173018000Y-63730000D03*
X165818000Y-63730000D03*
X173018000Y-60730000D03*
X165818000Y-60730000D03*
%TD*%
D10*
%TO.C,D18*%
X96252000Y-58420000D03*
X94502000Y-58420000D03*
%TD*%
D12*
%TO.C,SW7*%
X173018000Y-42648000D03*
X165818000Y-42648000D03*
X173018000Y-39648000D03*
X165818000Y-39648000D03*
%TD*%
D15*
%TO.C,D23*%
X144003500Y-96086900D03*
X144003500Y-94336900D03*
%TD*%
D11*
%TO.C,R25*%
X151661500Y-58420000D03*
X149836500Y-58420000D03*
%TD*%
D12*
%TO.C,SW10*%
X111042000Y-63730000D03*
X103842000Y-63730000D03*
X111042000Y-60730000D03*
X103842000Y-60730000D03*
%TD*%
D11*
%TO.C,R22*%
X145387700Y-37338000D03*
X143562700Y-37338000D03*
%TD*%
D23*
%TO.C,U3*%
X186322000Y-72068200D03*
X191402000Y-72068200D03*
X199022000Y-72068200D03*
X199022000Y-92388200D03*
X188862000Y-92388200D03*
X178702000Y-92388200D03*
%TD*%
D11*
%TO.C,R26*%
X137742300Y-58420000D03*
X135917300Y-58420000D03*
%TD*%
D12*
%TO.C,SW1*%
X99866000Y-53189000D03*
X92666000Y-53189000D03*
X99866000Y-50189000D03*
X92666000Y-50189000D03*
%TD*%
M02*
