M48
; DRILL file {KiCad 7.0.7} date Tue Mar 26 15:37:11 2024
; FORMAT={-:-/ absolute / inch / decimal}
; #@! TF.CreationDate,2024-03-26T15:37:11-05:00
; #@! TF.GenerationSoftware,Kicad,Pcbnew,7.0.7
; #@! TF.FileFunction,Plated,1,2,PTH
FMAT,2
INCH
; #@! TA.AperFunction,Plated,PTH,ViaDrill
T1C0.0157
; #@! TA.AperFunction,Plated,PTH,ComponentDrill
T2C0.0276
; #@! TA.AperFunction,Plated,PTH,ComponentDrill
T3C0.0315
; #@! TA.AperFunction,Plated,PTH,ComponentDrill
T4C0.0350
; #@! TA.AperFunction,Plated,PTH,ComponentDrill
T5C0.0354
; #@! TA.AperFunction,Plated,PTH,ComponentDrill
T6C0.0402
; #@! TA.AperFunction,Plated,PTH,ComponentDrill
T7C0.0472
; #@! TA.AperFunction,Plated,PTH,ComponentDrill
T8C0.0591
; #@! TA.AperFunction,Plated,PTH,ComponentDrill
T9C0.0630
; #@! TA.AperFunction,Plated,PTH,ComponentDrill
T10C0.0787
; #@! TA.AperFunction,Plated,PTH,ComponentDrill
T11C0.1280
%
G90
G05
T1
X2.79Y-2.75
X3.31Y-2.74
X3.32Y-2.11
X3.43Y-2.24
X3.88Y-2.59
X3.8913Y-2.13
X4.04Y-3.68
X4.04Y-4.09
X4.04Y-4.51
X4.1457Y-2.3845
X4.1558Y-2.435
X4.17Y-3.65
X4.1902Y-2.3885
X4.21Y-3.47
X4.25Y-3.5
X4.39Y-2.47
X4.44Y-3.17
X4.44Y-3.21
X4.47Y-2.86
X4.6Y-3.68
X4.6Y-4.09
X4.6Y-4.5
X4.72Y-3.66
X4.75Y-2.47
X4.8Y-3.5
X5.12Y-2.47
X5.15Y-3.67
X5.15Y-4.08
X5.15Y-4.5
X5.26Y-3.13
X5.28Y-3.5
X5.3Y-3.555
X5.3092Y-4.15
X5.32Y-3.47
X5.37Y-4.48
X5.45Y-3.72
X5.498Y-3.962
X5.54Y-3.44
X5.548Y-3.762
X5.56Y-4.3236
X5.58Y-3.9652
X5.5905Y-4.565
X5.5914Y-4.295
X5.598Y-3.762
X5.6486Y-4.37
X5.6486Y-4.4524
X5.65Y-4.665
X5.69Y-3.4415
X5.698Y-3.762
X5.748Y-3.762
X5.78Y-3.21
X5.83Y-4.48
X5.84Y-3.17
X5.845Y-3.705
X5.8809Y-4.7336
X5.9874Y-4.84
X6.01Y-3.69
X6.01Y-4.11
X6.01Y-4.52
X6.015Y-2.83
X6.08Y-2.93
X6.49Y-3.43
X6.49Y-3.6785
X6.61Y-3.24
X6.75Y-2.69
X6.9698Y-3.6902
X6.97Y-4.11
X6.97Y-4.52
X7.53Y-2.35
T2
X6.0706Y-3.0361
X6.0706Y-3.1148
X6.0706Y-3.1935
X6.1494Y-3.0361
X6.1494Y-3.1148
X6.1494Y-3.1935
T3
X3.72Y-2.7025
X3.72Y-2.8025
X3.72Y-2.9025
X3.72Y-3.0025
X3.72Y-3.1025
X3.72Y-3.2025
X3.72Y-3.3025
X3.72Y-3.4025
X4.36Y-2.69
X4.36Y-3.29
X4.46Y-2.69
X4.46Y-3.29
X4.56Y-2.69
X4.56Y-3.29
X4.66Y-2.69
X4.66Y-3.29
X4.76Y-2.69
X4.76Y-3.29
X4.86Y-2.69
X4.86Y-3.29
X4.96Y-2.69
X4.96Y-3.29
X5.06Y-2.69
X5.06Y-3.29
X5.16Y-2.69
X5.16Y-3.29
X5.26Y-2.69
X5.26Y-3.29
X5.36Y-2.69
X5.36Y-3.29
X5.46Y-2.69
X5.46Y-3.29
X5.56Y-2.69
X5.56Y-3.29
X5.66Y-2.69
X5.66Y-3.29
X5.76Y-2.69
X5.76Y-3.29
X5.86Y-2.69
X5.86Y-3.29
X5.96Y-2.69
X5.96Y-3.29
X6.06Y-2.69
X6.06Y-3.29
X6.16Y-2.69
X6.16Y-3.29
X6.26Y-2.69
X6.26Y-3.29
X6.36Y-2.69
X6.36Y-3.29
X6.46Y-2.69
X6.46Y-3.29
X6.56Y-2.69
X6.56Y-3.29
X6.66Y-2.69
X6.66Y-3.29
X7.7783Y-2.1913
X7.7783Y-2.27
X7.7783Y-2.3487
T4
X3.165Y-2.11
X3.165Y-2.21
X3.165Y-2.31
T5
X3.01Y-1.85
X3.085Y-3.72
X3.085Y-3.82
X3.085Y-3.92
X3.085Y-4.02
X3.085Y-4.12
X3.085Y-4.22
X3.085Y-4.32
X3.085Y-4.42
X3.085Y-4.52
X3.11Y-1.85
X3.21Y-1.85
X4.27Y-2.2
X4.37Y-2.2
X4.47Y-2.2
X4.57Y-2.2
X4.67Y-2.2
X4.77Y-2.2
X4.87Y-2.2
X4.97Y-2.2
X5.07Y-2.2
X5.36Y-2.2
X5.46Y-2.2
X5.56Y-2.2
X5.66Y-2.2
X5.76Y-2.2
X5.86Y-2.2
X5.96Y-2.2
X6.06Y-2.2
X6.16Y-2.2
X6.45Y-2.2
X6.55Y-2.2
X6.65Y-2.2
X6.75Y-2.2
X6.85Y-2.2
X6.95Y-2.2
X7.05Y-2.2
X7.08Y-2.81
X7.08Y-2.91
X7.08Y-3.01
X7.08Y-3.11
X7.15Y-2.2
X7.18Y-2.86
X7.18Y-2.96
X7.18Y-3.06
X7.18Y-3.16
X7.25Y-2.2
X7.33Y-3.7
X7.33Y-3.8
X7.33Y-3.9
X7.33Y-4.0
X7.33Y-4.1
X7.33Y-4.2
X7.33Y-4.3
X7.33Y-4.4
X7.33Y-4.5
T6
X7.5595Y-2.736
X7.5595Y-3.134
X7.63Y-2.836
X7.63Y-3.234
T7
X2.6645Y-2.6227
X2.6645Y-3.4227
X2.9645Y-3.4227
X3.0645Y-2.6227
X3.1645Y-3.4227
X3.4645Y-2.6227
T8
X7.7783Y-2.1086
X7.7783Y-2.4314
T9
X7.3099Y-2.675
X7.3099Y-3.295
T11
X7.43Y-2.76
X7.43Y-3.21
T10
G00X3.6063Y-2.3874
M15
G01X3.5237Y-2.3874
M16
G05
G00X3.9163Y-2.3874
M15
G01X3.8337Y-2.3874
M16
G05
T0
M30
