%TF.GenerationSoftware,KiCad,Pcbnew,7.0.7*%
%TF.CreationDate,2024-03-26T15:37:16-05:00*%
%TF.ProjectId,CoreBoard,436f7265-426f-4617-9264-2e6b69636164,rev?*%
%TF.SameCoordinates,Original*%
%TF.FileFunction,Paste,Top*%
%TF.FilePolarity,Positive*%
%FSLAX46Y46*%
G04 Gerber Fmt 4.6, Leading zero omitted, Abs format (unit mm)*
G04 Created by KiCad (PCBNEW 7.0.7) date 2024-03-26 15:37:16*
%MOMM*%
%LPD*%
G01*
G04 APERTURE LIST*
G04 Aperture macros list*
%AMRoundRect*
0 Rectangle with rounded corners*
0 $1 Rounding radius*
0 $2 $3 $4 $5 $6 $7 $8 $9 X,Y pos of 4 corners*
0 Add a 4 corners polygon primitive as box body*
4,1,4,$2,$3,$4,$5,$6,$7,$8,$9,$2,$3,0*
0 Add four circle primitives for the rounded corners*
1,1,$1+$1,$2,$3*
1,1,$1+$1,$4,$5*
1,1,$1+$1,$6,$7*
1,1,$1+$1,$8,$9*
0 Add four rect primitives between the rounded corners*
20,1,$1+$1,$2,$3,$4,$5,0*
20,1,$1+$1,$4,$5,$6,$7,0*
20,1,$1+$1,$6,$7,$8,$9,0*
20,1,$1+$1,$8,$9,$2,$3,0*%
G04 Aperture macros list end*
%ADD10RoundRect,0.237500X-0.287500X-0.237500X0.287500X-0.237500X0.287500X0.237500X-0.287500X0.237500X0*%
%ADD11RoundRect,0.237500X-0.250000X-0.237500X0.250000X-0.237500X0.250000X0.237500X-0.250000X0.237500X0*%
%ADD12R,1.600000X1.400000*%
%ADD13RoundRect,0.237500X0.237500X-0.250000X0.237500X0.250000X-0.237500X0.250000X-0.237500X-0.250000X0*%
%ADD14RoundRect,0.250000X-0.412500X-0.650000X0.412500X-0.650000X0.412500X0.650000X-0.412500X0.650000X0*%
%ADD15RoundRect,0.237500X-0.237500X0.287500X-0.237500X-0.287500X0.237500X-0.287500X0.237500X0.287500X0*%
%ADD16RoundRect,0.237500X0.237500X-0.300000X0.237500X0.300000X-0.237500X0.300000X-0.237500X-0.300000X0*%
%ADD17RoundRect,0.150000X-0.150000X0.837500X-0.150000X-0.837500X0.150000X-0.837500X0.150000X0.837500X0*%
%ADD18RoundRect,0.237500X-0.300000X-0.237500X0.300000X-0.237500X0.300000X0.237500X-0.300000X0.237500X0*%
%ADD19RoundRect,0.237500X-0.237500X0.250000X-0.237500X-0.250000X0.237500X-0.250000X0.237500X0.250000X0*%
%ADD20RoundRect,0.237500X0.237500X-0.287500X0.237500X0.287500X-0.237500X0.287500X-0.237500X-0.287500X0*%
%ADD21RoundRect,0.137500X0.662500X0.137500X-0.662500X0.137500X-0.662500X-0.137500X0.662500X-0.137500X0*%
%ADD22RoundRect,0.137500X-0.662500X-0.137500X0.662500X-0.137500X0.662500X0.137500X-0.662500X0.137500X0*%
G04 APERTURE END LIST*
D10*
%TO.C,D6*%
X111266000Y-111125000D03*
X113016000Y-111125000D03*
%TD*%
D11*
%TO.C,R16*%
X115038500Y-121666000D03*
X116863500Y-121666000D03*
%TD*%
%TO.C,R6*%
X115038500Y-111125000D03*
X116863500Y-111125000D03*
%TD*%
D12*
%TO.C,SW15*%
X166834000Y-95274000D03*
X174034000Y-95274000D03*
X166834000Y-98274000D03*
X174034000Y-98274000D03*
%TD*%
D11*
%TO.C,R5*%
X101043100Y-111125000D03*
X102868100Y-111125000D03*
%TD*%
D10*
%TO.C,D17*%
X157570200Y-121666000D03*
X159320200Y-121666000D03*
%TD*%
D12*
%TO.C,SW14*%
X155658000Y-116356000D03*
X162858000Y-116356000D03*
X155658000Y-119356000D03*
X162858000Y-119356000D03*
%TD*%
D11*
%TO.C,R8*%
X161342700Y-111125000D03*
X163167700Y-111125000D03*
%TD*%
D10*
%TO.C,D9*%
X170448000Y-121666000D03*
X172198000Y-121666000D03*
%TD*%
D12*
%TO.C,SW13*%
X121622000Y-95274000D03*
X128822000Y-95274000D03*
X121622000Y-98274000D03*
X128822000Y-98274000D03*
%TD*%
D11*
%TO.C,R14*%
X174245900Y-121666000D03*
X176070900Y-121666000D03*
%TD*%
D12*
%TO.C,SW12*%
X107652000Y-95274000D03*
X114852000Y-95274000D03*
X107652000Y-98274000D03*
X114852000Y-98274000D03*
%TD*%
D10*
%TO.C,D10*%
X97245200Y-121666000D03*
X98995200Y-121666000D03*
%TD*%
D11*
%TO.C,R9*%
X166524300Y-111125000D03*
X168349300Y-111125000D03*
%TD*%
D13*
%TO.C,R36*%
X133604000Y-64704600D03*
X133604000Y-62879600D03*
%TD*%
D11*
%TO.C,R20*%
X93359600Y-121666000D03*
X95184600Y-121666000D03*
%TD*%
%TO.C,R10*%
X93359600Y-111125000D03*
X95184600Y-111125000D03*
%TD*%
%TO.C,R19*%
X166524300Y-121666000D03*
X168349300Y-121666000D03*
%TD*%
D10*
%TO.C,D12*%
X125185200Y-121666000D03*
X126935200Y-121666000D03*
%TD*%
D11*
%TO.C,R33*%
X166524300Y-100584000D03*
X168349300Y-100584000D03*
%TD*%
D12*
%TO.C,SW4*%
X121622000Y-105815000D03*
X128822000Y-105815000D03*
X121622000Y-108815000D03*
X128822000Y-108815000D03*
%TD*%
D14*
%TO.C,C2*%
X92671500Y-64516000D03*
X95796500Y-64516000D03*
%TD*%
D10*
%TO.C,D16*%
X125185200Y-100584000D03*
X126935200Y-100584000D03*
%TD*%
D11*
%TO.C,R23*%
X153659200Y-100584000D03*
X155484200Y-100584000D03*
%TD*%
%TO.C,R18*%
X161342700Y-100584000D03*
X163167700Y-100584000D03*
%TD*%
%TO.C,R29*%
X93359600Y-100584000D03*
X95184600Y-100584000D03*
%TD*%
D15*
%TO.C,D20*%
X113118300Y-62867600D03*
X113118300Y-64617600D03*
%TD*%
D11*
%TO.C,R28*%
X174245900Y-100584000D03*
X176070900Y-100584000D03*
%TD*%
D16*
%TO.C,C3*%
X84328000Y-58674000D03*
X84328000Y-56949000D03*
%TD*%
D17*
%TO.C,U6*%
X145999200Y-91279500D03*
X144729200Y-91279500D03*
X143459200Y-91279500D03*
X142189200Y-91279500D03*
X140919200Y-91279500D03*
X139649200Y-91279500D03*
X138379200Y-91279500D03*
X138379200Y-98204500D03*
X139649200Y-98204500D03*
X140919200Y-98204500D03*
X142189200Y-98204500D03*
X143459200Y-98204500D03*
X144729200Y-98204500D03*
X145999200Y-98204500D03*
%TD*%
D11*
%TO.C,R21*%
X107342300Y-121666000D03*
X109167300Y-121666000D03*
%TD*%
D10*
%TO.C,D15*%
X111266000Y-100584000D03*
X113016000Y-100584000D03*
%TD*%
%TO.C,D13*%
X157570200Y-100584000D03*
X159320200Y-100584000D03*
%TD*%
D12*
%TO.C,SW9*%
X121622000Y-116356000D03*
X128822000Y-116356000D03*
X121622000Y-119356000D03*
X128822000Y-119356000D03*
%TD*%
%TO.C,SW8*%
X107652000Y-116356000D03*
X114852000Y-116356000D03*
X107652000Y-119356000D03*
X114852000Y-119356000D03*
%TD*%
D18*
%TO.C,C1*%
X174397500Y-69697600D03*
X176122500Y-69697600D03*
%TD*%
D19*
%TO.C,R38*%
X124728500Y-62841500D03*
X124728500Y-64666500D03*
%TD*%
D20*
%TO.C,D21*%
X131572000Y-64629000D03*
X131572000Y-62879000D03*
%TD*%
D11*
%TO.C,R4*%
X174245900Y-111125000D03*
X176070900Y-111125000D03*
%TD*%
D10*
%TO.C,D5*%
X97245200Y-111125000D03*
X98995200Y-111125000D03*
%TD*%
D11*
%TO.C,R30*%
X107342300Y-100584000D03*
X109167300Y-100584000D03*
%TD*%
D10*
%TO.C,D8*%
X157570200Y-111125000D03*
X159320200Y-111125000D03*
%TD*%
D11*
%TO.C,R32*%
X153659200Y-121666000D03*
X155484200Y-121666000D03*
%TD*%
%TO.C,R27*%
X161342700Y-121666000D03*
X163167700Y-121666000D03*
%TD*%
D21*
%TO.C,U4*%
X145439200Y-124841000D03*
X145439200Y-123571000D03*
X145439200Y-122301000D03*
X145439200Y-121031000D03*
X145439200Y-119761000D03*
X145439200Y-118491000D03*
X145439200Y-117221000D03*
X145439200Y-115951000D03*
X138939200Y-115951000D03*
X138939200Y-117221000D03*
X138939200Y-118491000D03*
X138939200Y-119761000D03*
X138939200Y-121031000D03*
X138939200Y-122301000D03*
X138939200Y-123571000D03*
X138939200Y-124841000D03*
%TD*%
D11*
%TO.C,R11*%
X107342300Y-111125000D03*
X109167300Y-111125000D03*
%TD*%
%TO.C,R7*%
X128957700Y-111125000D03*
X130782700Y-111125000D03*
%TD*%
D10*
%TO.C,D11*%
X111266000Y-121666000D03*
X113016000Y-121666000D03*
%TD*%
%TO.C,D7*%
X125185200Y-111125000D03*
X126935200Y-111125000D03*
%TD*%
D11*
%TO.C,R15*%
X101043100Y-121666000D03*
X102868100Y-121666000D03*
%TD*%
D22*
%TO.C,U5*%
X138939200Y-102743000D03*
X138939200Y-104013000D03*
X138939200Y-105283000D03*
X138939200Y-106553000D03*
X138939200Y-107823000D03*
X138939200Y-109093000D03*
X138939200Y-110363000D03*
X138939200Y-111633000D03*
X145439200Y-111633000D03*
X145439200Y-110363000D03*
X145439200Y-109093000D03*
X145439200Y-107823000D03*
X145439200Y-106553000D03*
X145439200Y-105283000D03*
X145439200Y-104013000D03*
X145439200Y-102743000D03*
%TD*%
D12*
%TO.C,SW5*%
X155658000Y-105815000D03*
X162858000Y-105815000D03*
X155658000Y-108815000D03*
X162858000Y-108815000D03*
%TD*%
D10*
%TO.C,D4*%
X170448000Y-111125000D03*
X172198000Y-111125000D03*
%TD*%
D11*
%TO.C,R24*%
X101043100Y-100584000D03*
X102868100Y-100584000D03*
%TD*%
D10*
%TO.C,D14*%
X97245200Y-100584000D03*
X98995200Y-100584000D03*
%TD*%
D12*
%TO.C,SW2*%
X93682000Y-105815000D03*
X100882000Y-105815000D03*
X93682000Y-108815000D03*
X100882000Y-108815000D03*
%TD*%
%TO.C,SW3*%
X107652000Y-105815000D03*
X114852000Y-105815000D03*
X107652000Y-108815000D03*
X114852000Y-108815000D03*
%TD*%
D11*
%TO.C,R13*%
X153659200Y-111125000D03*
X155484200Y-111125000D03*
%TD*%
%TO.C,R17*%
X128957700Y-121666000D03*
X130782700Y-121666000D03*
%TD*%
D12*
%TO.C,SW6*%
X166834000Y-116356000D03*
X174034000Y-116356000D03*
X166834000Y-119356000D03*
X174034000Y-119356000D03*
%TD*%
D20*
%TO.C,D19*%
X191249500Y-58200000D03*
X191249500Y-56450000D03*
%TD*%
D11*
%TO.C,R31*%
X121312300Y-100584000D03*
X123137300Y-100584000D03*
%TD*%
%TO.C,R12*%
X121312300Y-111125000D03*
X123137300Y-111125000D03*
%TD*%
D13*
%TO.C,R34*%
X191249500Y-54437000D03*
X191249500Y-52612000D03*
%TD*%
D19*
%TO.C,R35*%
X115150300Y-62830100D03*
X115150300Y-64655100D03*
%TD*%
D12*
%TO.C,SW11*%
X93682000Y-95274000D03*
X100882000Y-95274000D03*
X93682000Y-98274000D03*
X100882000Y-98274000D03*
%TD*%
D10*
%TO.C,D18*%
X170448000Y-100584000D03*
X172198000Y-100584000D03*
%TD*%
D12*
%TO.C,SW7*%
X93682000Y-116356000D03*
X100882000Y-116356000D03*
X93682000Y-119356000D03*
X100882000Y-119356000D03*
%TD*%
D15*
%TO.C,D23*%
X122696500Y-62917100D03*
X122696500Y-64667100D03*
%TD*%
D11*
%TO.C,R25*%
X115038500Y-100584000D03*
X116863500Y-100584000D03*
%TD*%
D12*
%TO.C,SW10*%
X155658000Y-95274000D03*
X162858000Y-95274000D03*
X155658000Y-98274000D03*
X162858000Y-98274000D03*
%TD*%
D11*
%TO.C,R22*%
X121312300Y-121666000D03*
X123137300Y-121666000D03*
%TD*%
%TO.C,R26*%
X128957700Y-100584000D03*
X130782700Y-100584000D03*
%TD*%
D12*
%TO.C,SW1*%
X166834000Y-105815000D03*
X174034000Y-105815000D03*
X166834000Y-108815000D03*
X174034000Y-108815000D03*
%TD*%
M02*
