%TF.GenerationSoftware,KiCad,Pcbnew,7.0.7*%
%TF.CreationDate,2024-03-26T15:37:16-05:00*%
%TF.ProjectId,CoreBoard,436f7265-426f-4617-9264-2e6b69636164,rev?*%
%TF.SameCoordinates,Original*%
%TF.FileFunction,Legend,Bot*%
%TF.FilePolarity,Positive*%
%FSLAX46Y46*%
G04 Gerber Fmt 4.6, Leading zero omitted, Abs format (unit mm)*
G04 Created by KiCad (PCBNEW 7.0.7) date 2024-03-26 15:37:16*
%MOMM*%
%LPD*%
G01*
G04 APERTURE LIST*
%ADD10C,0.000254*%
%ADD11C,0.209550*%
%ADD12C,0.010000*%
G04 APERTURE END LIST*
D10*
X181263977Y-115336728D02*
X181251882Y-115328262D01*
X181263977Y-115322214D02*
X181238577Y-115322214D01*
X181238577Y-115322214D02*
X181238577Y-115331890D01*
X181238577Y-115331890D02*
X181239787Y-115334309D01*
X181239787Y-115334309D02*
X181240996Y-115335519D01*
X181240996Y-115335519D02*
X181243415Y-115336728D01*
X181243415Y-115336728D02*
X181247044Y-115336728D01*
X181247044Y-115336728D02*
X181249463Y-115335519D01*
X181249463Y-115335519D02*
X181250672Y-115334309D01*
X181250672Y-115334309D02*
X181251882Y-115331890D01*
X181251882Y-115331890D02*
X181251882Y-115322214D01*
X181263977Y-115347614D02*
X181247044Y-115347614D01*
X181238577Y-115347614D02*
X181239787Y-115346405D01*
X181239787Y-115346405D02*
X181240996Y-115347614D01*
X181240996Y-115347614D02*
X181239787Y-115348824D01*
X181239787Y-115348824D02*
X181238577Y-115347614D01*
X181238577Y-115347614D02*
X181240996Y-115347614D01*
X181263977Y-115363338D02*
X181262768Y-115360919D01*
X181262768Y-115360919D02*
X181260348Y-115359709D01*
X181260348Y-115359709D02*
X181238577Y-115359709D01*
X181262768Y-115382690D02*
X181263977Y-115380271D01*
X181263977Y-115380271D02*
X181263977Y-115375433D01*
X181263977Y-115375433D02*
X181262768Y-115373014D01*
X181262768Y-115373014D02*
X181260348Y-115371805D01*
X181260348Y-115371805D02*
X181250672Y-115371805D01*
X181250672Y-115371805D02*
X181248253Y-115373014D01*
X181248253Y-115373014D02*
X181247044Y-115375433D01*
X181247044Y-115375433D02*
X181247044Y-115380271D01*
X181247044Y-115380271D02*
X181248253Y-115382690D01*
X181248253Y-115382690D02*
X181250672Y-115383900D01*
X181250672Y-115383900D02*
X181253091Y-115383900D01*
X181253091Y-115383900D02*
X181255510Y-115371805D01*
X181247044Y-115392366D02*
X181263977Y-115398414D01*
X181247044Y-115404461D02*
X181263977Y-115398414D01*
X181263977Y-115398414D02*
X181270025Y-115395995D01*
X181270025Y-115395995D02*
X181271234Y-115394785D01*
X181271234Y-115394785D02*
X181272444Y-115392366D01*
X181262768Y-115432280D02*
X181263977Y-115435908D01*
X181263977Y-115435908D02*
X181263977Y-115441956D01*
X181263977Y-115441956D02*
X181262768Y-115444375D01*
X181262768Y-115444375D02*
X181261558Y-115445584D01*
X181261558Y-115445584D02*
X181259139Y-115446794D01*
X181259139Y-115446794D02*
X181256720Y-115446794D01*
X181256720Y-115446794D02*
X181254301Y-115445584D01*
X181254301Y-115445584D02*
X181253091Y-115444375D01*
X181253091Y-115444375D02*
X181251882Y-115441956D01*
X181251882Y-115441956D02*
X181250672Y-115437118D01*
X181250672Y-115437118D02*
X181249463Y-115434699D01*
X181249463Y-115434699D02*
X181248253Y-115433489D01*
X181248253Y-115433489D02*
X181245834Y-115432280D01*
X181245834Y-115432280D02*
X181243415Y-115432280D01*
X181243415Y-115432280D02*
X181240996Y-115433489D01*
X181240996Y-115433489D02*
X181239787Y-115434699D01*
X181239787Y-115434699D02*
X181238577Y-115437118D01*
X181238577Y-115437118D02*
X181238577Y-115443165D01*
X181238577Y-115443165D02*
X181239787Y-115446794D01*
X181263977Y-115457679D02*
X181238577Y-115457679D01*
X181263977Y-115468565D02*
X181250672Y-115468565D01*
X181250672Y-115468565D02*
X181248253Y-115467355D01*
X181248253Y-115467355D02*
X181247044Y-115464936D01*
X181247044Y-115464936D02*
X181247044Y-115461308D01*
X181247044Y-115461308D02*
X181248253Y-115458889D01*
X181248253Y-115458889D02*
X181249463Y-115457679D01*
X181263977Y-115484289D02*
X181262768Y-115481870D01*
X181262768Y-115481870D02*
X181261558Y-115480660D01*
X181261558Y-115480660D02*
X181259139Y-115479451D01*
X181259139Y-115479451D02*
X181251882Y-115479451D01*
X181251882Y-115479451D02*
X181249463Y-115480660D01*
X181249463Y-115480660D02*
X181248253Y-115481870D01*
X181248253Y-115481870D02*
X181247044Y-115484289D01*
X181247044Y-115484289D02*
X181247044Y-115487917D01*
X181247044Y-115487917D02*
X181248253Y-115490336D01*
X181248253Y-115490336D02*
X181249463Y-115491546D01*
X181249463Y-115491546D02*
X181251882Y-115492755D01*
X181251882Y-115492755D02*
X181259139Y-115492755D01*
X181259139Y-115492755D02*
X181261558Y-115491546D01*
X181261558Y-115491546D02*
X181262768Y-115490336D01*
X181262768Y-115490336D02*
X181263977Y-115487917D01*
X181263977Y-115487917D02*
X181263977Y-115484289D01*
X181263977Y-115507270D02*
X181262768Y-115504851D01*
X181262768Y-115504851D02*
X181261558Y-115503641D01*
X181261558Y-115503641D02*
X181259139Y-115502432D01*
X181259139Y-115502432D02*
X181251882Y-115502432D01*
X181251882Y-115502432D02*
X181249463Y-115503641D01*
X181249463Y-115503641D02*
X181248253Y-115504851D01*
X181248253Y-115504851D02*
X181247044Y-115507270D01*
X181247044Y-115507270D02*
X181247044Y-115510898D01*
X181247044Y-115510898D02*
X181248253Y-115513317D01*
X181248253Y-115513317D02*
X181249463Y-115514527D01*
X181249463Y-115514527D02*
X181251882Y-115515736D01*
X181251882Y-115515736D02*
X181259139Y-115515736D01*
X181259139Y-115515736D02*
X181261558Y-115514527D01*
X181261558Y-115514527D02*
X181262768Y-115513317D01*
X181262768Y-115513317D02*
X181263977Y-115510898D01*
X181263977Y-115510898D02*
X181263977Y-115507270D01*
X181247044Y-115526622D02*
X181272444Y-115526622D01*
X181248253Y-115526622D02*
X181247044Y-115529041D01*
X181247044Y-115529041D02*
X181247044Y-115533879D01*
X181247044Y-115533879D02*
X181248253Y-115536298D01*
X181248253Y-115536298D02*
X181249463Y-115537508D01*
X181249463Y-115537508D02*
X181251882Y-115538717D01*
X181251882Y-115538717D02*
X181259139Y-115538717D01*
X181259139Y-115538717D02*
X181261558Y-115537508D01*
X181261558Y-115537508D02*
X181262768Y-115536298D01*
X181262768Y-115536298D02*
X181263977Y-115533879D01*
X181263977Y-115533879D02*
X181263977Y-115529041D01*
X181263977Y-115529041D02*
X181262768Y-115526622D01*
X181254301Y-115549603D02*
X181254301Y-115568956D01*
X181256720Y-115579842D02*
X181256720Y-115591937D01*
X181263977Y-115577423D02*
X181238577Y-115585889D01*
X181238577Y-115585889D02*
X181263977Y-115594356D01*
X181263977Y-115606451D02*
X181262768Y-115604032D01*
X181262768Y-115604032D02*
X181260348Y-115602822D01*
X181260348Y-115602822D02*
X181238577Y-115602822D01*
X181247044Y-115612499D02*
X181247044Y-115622175D01*
X181238577Y-115616127D02*
X181260348Y-115616127D01*
X181260348Y-115616127D02*
X181262768Y-115617337D01*
X181262768Y-115617337D02*
X181263977Y-115619756D01*
X181263977Y-115619756D02*
X181263977Y-115622175D01*
X181263977Y-115634270D02*
X181262768Y-115631851D01*
X181262768Y-115631851D02*
X181261558Y-115630641D01*
X181261558Y-115630641D02*
X181259139Y-115629432D01*
X181259139Y-115629432D02*
X181251882Y-115629432D01*
X181251882Y-115629432D02*
X181249463Y-115630641D01*
X181249463Y-115630641D02*
X181248253Y-115631851D01*
X181248253Y-115631851D02*
X181247044Y-115634270D01*
X181247044Y-115634270D02*
X181247044Y-115637898D01*
X181247044Y-115637898D02*
X181248253Y-115640317D01*
X181248253Y-115640317D02*
X181249463Y-115641527D01*
X181249463Y-115641527D02*
X181251882Y-115642736D01*
X181251882Y-115642736D02*
X181259139Y-115642736D01*
X181259139Y-115642736D02*
X181261558Y-115641527D01*
X181261558Y-115641527D02*
X181262768Y-115640317D01*
X181262768Y-115640317D02*
X181263977Y-115637898D01*
X181263977Y-115637898D02*
X181263977Y-115634270D01*
X181263977Y-115653622D02*
X181247044Y-115653622D01*
X181249463Y-115653622D02*
X181248253Y-115654832D01*
X181248253Y-115654832D02*
X181247044Y-115657251D01*
X181247044Y-115657251D02*
X181247044Y-115660879D01*
X181247044Y-115660879D02*
X181248253Y-115663298D01*
X181248253Y-115663298D02*
X181250672Y-115664508D01*
X181250672Y-115664508D02*
X181263977Y-115664508D01*
X181250672Y-115664508D02*
X181248253Y-115665717D01*
X181248253Y-115665717D02*
X181247044Y-115668136D01*
X181247044Y-115668136D02*
X181247044Y-115671765D01*
X181247044Y-115671765D02*
X181248253Y-115674184D01*
X181248253Y-115674184D02*
X181250672Y-115675394D01*
X181250672Y-115675394D02*
X181263977Y-115675394D01*
D11*
X182063596Y-111556789D02*
X182103510Y-111596704D01*
X182103510Y-111596704D02*
X182223253Y-111636618D01*
X182223253Y-111636618D02*
X182303081Y-111636618D01*
X182303081Y-111636618D02*
X182422824Y-111596704D01*
X182422824Y-111596704D02*
X182502653Y-111516875D01*
X182502653Y-111516875D02*
X182542567Y-111437046D01*
X182542567Y-111437046D02*
X182582481Y-111277389D01*
X182582481Y-111277389D02*
X182582481Y-111157646D01*
X182582481Y-111157646D02*
X182542567Y-110997989D01*
X182542567Y-110997989D02*
X182502653Y-110918161D01*
X182502653Y-110918161D02*
X182422824Y-110838332D01*
X182422824Y-110838332D02*
X182303081Y-110798418D01*
X182303081Y-110798418D02*
X182223253Y-110798418D01*
X182223253Y-110798418D02*
X182103510Y-110838332D01*
X182103510Y-110838332D02*
X182063596Y-110878246D01*
X181584624Y-111636618D02*
X181664453Y-111596704D01*
X181664453Y-111596704D02*
X181704367Y-111556789D01*
X181704367Y-111556789D02*
X181744281Y-111476961D01*
X181744281Y-111476961D02*
X181744281Y-111237475D01*
X181744281Y-111237475D02*
X181704367Y-111157646D01*
X181704367Y-111157646D02*
X181664453Y-111117732D01*
X181664453Y-111117732D02*
X181584624Y-111077818D01*
X181584624Y-111077818D02*
X181464881Y-111077818D01*
X181464881Y-111077818D02*
X181385053Y-111117732D01*
X181385053Y-111117732D02*
X181345139Y-111157646D01*
X181345139Y-111157646D02*
X181305224Y-111237475D01*
X181305224Y-111237475D02*
X181305224Y-111476961D01*
X181305224Y-111476961D02*
X181345139Y-111556789D01*
X181345139Y-111556789D02*
X181385053Y-111596704D01*
X181385053Y-111596704D02*
X181464881Y-111636618D01*
X181464881Y-111636618D02*
X181584624Y-111636618D01*
X180945996Y-111636618D02*
X180945996Y-111077818D01*
X180945996Y-111237475D02*
X180906082Y-111157646D01*
X180906082Y-111157646D02*
X180866168Y-111117732D01*
X180866168Y-111117732D02*
X180786339Y-111077818D01*
X180786339Y-111077818D02*
X180706510Y-111077818D01*
X180107796Y-111596704D02*
X180187624Y-111636618D01*
X180187624Y-111636618D02*
X180347282Y-111636618D01*
X180347282Y-111636618D02*
X180427110Y-111596704D01*
X180427110Y-111596704D02*
X180467024Y-111516875D01*
X180467024Y-111516875D02*
X180467024Y-111197561D01*
X180467024Y-111197561D02*
X180427110Y-111117732D01*
X180427110Y-111117732D02*
X180347282Y-111077818D01*
X180347282Y-111077818D02*
X180187624Y-111077818D01*
X180187624Y-111077818D02*
X180107796Y-111117732D01*
X180107796Y-111117732D02*
X180067882Y-111197561D01*
X180067882Y-111197561D02*
X180067882Y-111277389D01*
X180067882Y-111277389D02*
X180467024Y-111357218D01*
X178790624Y-111197561D02*
X178670881Y-111237475D01*
X178670881Y-111237475D02*
X178630967Y-111277389D01*
X178630967Y-111277389D02*
X178591053Y-111357218D01*
X178591053Y-111357218D02*
X178591053Y-111476961D01*
X178591053Y-111476961D02*
X178630967Y-111556789D01*
X178630967Y-111556789D02*
X178670881Y-111596704D01*
X178670881Y-111596704D02*
X178750710Y-111636618D01*
X178750710Y-111636618D02*
X179070024Y-111636618D01*
X179070024Y-111636618D02*
X179070024Y-110798418D01*
X179070024Y-110798418D02*
X178790624Y-110798418D01*
X178790624Y-110798418D02*
X178710796Y-110838332D01*
X178710796Y-110838332D02*
X178670881Y-110878246D01*
X178670881Y-110878246D02*
X178630967Y-110958075D01*
X178630967Y-110958075D02*
X178630967Y-111037904D01*
X178630967Y-111037904D02*
X178670881Y-111117732D01*
X178670881Y-111117732D02*
X178710796Y-111157646D01*
X178710796Y-111157646D02*
X178790624Y-111197561D01*
X178790624Y-111197561D02*
X179070024Y-111197561D01*
X178112081Y-111636618D02*
X178191910Y-111596704D01*
X178191910Y-111596704D02*
X178231824Y-111556789D01*
X178231824Y-111556789D02*
X178271738Y-111476961D01*
X178271738Y-111476961D02*
X178271738Y-111237475D01*
X178271738Y-111237475D02*
X178231824Y-111157646D01*
X178231824Y-111157646D02*
X178191910Y-111117732D01*
X178191910Y-111117732D02*
X178112081Y-111077818D01*
X178112081Y-111077818D02*
X177992338Y-111077818D01*
X177992338Y-111077818D02*
X177912510Y-111117732D01*
X177912510Y-111117732D02*
X177872596Y-111157646D01*
X177872596Y-111157646D02*
X177832681Y-111237475D01*
X177832681Y-111237475D02*
X177832681Y-111476961D01*
X177832681Y-111476961D02*
X177872596Y-111556789D01*
X177872596Y-111556789D02*
X177912510Y-111596704D01*
X177912510Y-111596704D02*
X177992338Y-111636618D01*
X177992338Y-111636618D02*
X178112081Y-111636618D01*
X177114225Y-111636618D02*
X177114225Y-111197561D01*
X177114225Y-111197561D02*
X177154139Y-111117732D01*
X177154139Y-111117732D02*
X177233967Y-111077818D01*
X177233967Y-111077818D02*
X177393625Y-111077818D01*
X177393625Y-111077818D02*
X177473453Y-111117732D01*
X177114225Y-111596704D02*
X177194053Y-111636618D01*
X177194053Y-111636618D02*
X177393625Y-111636618D01*
X177393625Y-111636618D02*
X177473453Y-111596704D01*
X177473453Y-111596704D02*
X177513367Y-111516875D01*
X177513367Y-111516875D02*
X177513367Y-111437046D01*
X177513367Y-111437046D02*
X177473453Y-111357218D01*
X177473453Y-111357218D02*
X177393625Y-111317304D01*
X177393625Y-111317304D02*
X177194053Y-111317304D01*
X177194053Y-111317304D02*
X177114225Y-111277389D01*
X176715082Y-111636618D02*
X176715082Y-111077818D01*
X176715082Y-111237475D02*
X176675168Y-111157646D01*
X176675168Y-111157646D02*
X176635254Y-111117732D01*
X176635254Y-111117732D02*
X176555425Y-111077818D01*
X176555425Y-111077818D02*
X176475596Y-111077818D01*
X175836968Y-111636618D02*
X175836968Y-110798418D01*
X175836968Y-111596704D02*
X175916796Y-111636618D01*
X175916796Y-111636618D02*
X176076453Y-111636618D01*
X176076453Y-111636618D02*
X176156282Y-111596704D01*
X176156282Y-111596704D02*
X176196196Y-111556789D01*
X176196196Y-111556789D02*
X176236110Y-111476961D01*
X176236110Y-111476961D02*
X176236110Y-111237475D01*
X176236110Y-111237475D02*
X176196196Y-111157646D01*
X176196196Y-111157646D02*
X176156282Y-111117732D01*
X176156282Y-111117732D02*
X176076453Y-111077818D01*
X176076453Y-111077818D02*
X175916796Y-111077818D01*
X175916796Y-111077818D02*
X175836968Y-111117732D01*
X175397911Y-111596704D02*
X175397911Y-111636618D01*
X175397911Y-111636618D02*
X175437825Y-111716446D01*
X175437825Y-111716446D02*
X175477739Y-111756361D01*
X173921082Y-111636618D02*
X174200482Y-111237475D01*
X174400053Y-111636618D02*
X174400053Y-110798418D01*
X174400053Y-110798418D02*
X174080739Y-110798418D01*
X174080739Y-110798418D02*
X174000910Y-110838332D01*
X174000910Y-110838332D02*
X173960996Y-110878246D01*
X173960996Y-110878246D02*
X173921082Y-110958075D01*
X173921082Y-110958075D02*
X173921082Y-111077818D01*
X173921082Y-111077818D02*
X173960996Y-111157646D01*
X173960996Y-111157646D02*
X174000910Y-111197561D01*
X174000910Y-111197561D02*
X174080739Y-111237475D01*
X174080739Y-111237475D02*
X174400053Y-111237475D01*
X173242539Y-111596704D02*
X173322367Y-111636618D01*
X173322367Y-111636618D02*
X173482025Y-111636618D01*
X173482025Y-111636618D02*
X173561853Y-111596704D01*
X173561853Y-111596704D02*
X173601767Y-111516875D01*
X173601767Y-111516875D02*
X173601767Y-111197561D01*
X173601767Y-111197561D02*
X173561853Y-111117732D01*
X173561853Y-111117732D02*
X173482025Y-111077818D01*
X173482025Y-111077818D02*
X173322367Y-111077818D01*
X173322367Y-111077818D02*
X173242539Y-111117732D01*
X173242539Y-111117732D02*
X173202625Y-111197561D01*
X173202625Y-111197561D02*
X173202625Y-111277389D01*
X173202625Y-111277389D02*
X173601767Y-111357218D01*
X172923225Y-111077818D02*
X172723653Y-111636618D01*
X172723653Y-111636618D02*
X172524082Y-111077818D01*
X172244681Y-110878246D02*
X172204767Y-110838332D01*
X172204767Y-110838332D02*
X172124939Y-110798418D01*
X172124939Y-110798418D02*
X171925367Y-110798418D01*
X171925367Y-110798418D02*
X171845539Y-110838332D01*
X171845539Y-110838332D02*
X171805624Y-110878246D01*
X171805624Y-110878246D02*
X171765710Y-110958075D01*
X171765710Y-110958075D02*
X171765710Y-111037904D01*
X171765710Y-111037904D02*
X171805624Y-111157646D01*
X171805624Y-111157646D02*
X172284596Y-111636618D01*
X172284596Y-111636618D02*
X171765710Y-111636618D01*
X182542567Y-112986120D02*
X182542567Y-112147920D01*
X182542567Y-112147920D02*
X182263167Y-112746634D01*
X182263167Y-112746634D02*
X181983767Y-112147920D01*
X181983767Y-112147920D02*
X181983767Y-112986120D01*
X181225396Y-112986120D02*
X181225396Y-112547063D01*
X181225396Y-112547063D02*
X181265310Y-112467234D01*
X181265310Y-112467234D02*
X181345138Y-112427320D01*
X181345138Y-112427320D02*
X181504796Y-112427320D01*
X181504796Y-112427320D02*
X181584624Y-112467234D01*
X181225396Y-112946206D02*
X181305224Y-112986120D01*
X181305224Y-112986120D02*
X181504796Y-112986120D01*
X181504796Y-112986120D02*
X181584624Y-112946206D01*
X181584624Y-112946206D02*
X181624538Y-112866377D01*
X181624538Y-112866377D02*
X181624538Y-112786548D01*
X181624538Y-112786548D02*
X181584624Y-112706720D01*
X181584624Y-112706720D02*
X181504796Y-112666806D01*
X181504796Y-112666806D02*
X181305224Y-112666806D01*
X181305224Y-112666806D02*
X181225396Y-112626891D01*
X180826253Y-112986120D02*
X180826253Y-112427320D01*
X180826253Y-112586977D02*
X180786339Y-112507148D01*
X180786339Y-112507148D02*
X180746425Y-112467234D01*
X180746425Y-112467234D02*
X180666596Y-112427320D01*
X180666596Y-112427320D02*
X180586767Y-112427320D01*
X180347281Y-112946206D02*
X180267453Y-112986120D01*
X180267453Y-112986120D02*
X180107796Y-112986120D01*
X180107796Y-112986120D02*
X180027967Y-112946206D01*
X180027967Y-112946206D02*
X179988053Y-112866377D01*
X179988053Y-112866377D02*
X179988053Y-112826463D01*
X179988053Y-112826463D02*
X180027967Y-112746634D01*
X180027967Y-112746634D02*
X180107796Y-112706720D01*
X180107796Y-112706720D02*
X180227539Y-112706720D01*
X180227539Y-112706720D02*
X180307367Y-112666806D01*
X180307367Y-112666806D02*
X180347281Y-112586977D01*
X180347281Y-112586977D02*
X180347281Y-112547063D01*
X180347281Y-112547063D02*
X180307367Y-112467234D01*
X180307367Y-112467234D02*
X180227539Y-112427320D01*
X180227539Y-112427320D02*
X180107796Y-112427320D01*
X180107796Y-112427320D02*
X180027967Y-112467234D01*
X178511224Y-112986120D02*
X178790624Y-112586977D01*
X178990195Y-112986120D02*
X178990195Y-112147920D01*
X178990195Y-112147920D02*
X178670881Y-112147920D01*
X178670881Y-112147920D02*
X178591052Y-112187834D01*
X178591052Y-112187834D02*
X178551138Y-112227748D01*
X178551138Y-112227748D02*
X178511224Y-112307577D01*
X178511224Y-112307577D02*
X178511224Y-112427320D01*
X178511224Y-112427320D02*
X178551138Y-112507148D01*
X178551138Y-112507148D02*
X178591052Y-112547063D01*
X178591052Y-112547063D02*
X178670881Y-112586977D01*
X178670881Y-112586977D02*
X178990195Y-112586977D01*
X178032252Y-112986120D02*
X178112081Y-112946206D01*
X178112081Y-112946206D02*
X178151995Y-112906291D01*
X178151995Y-112906291D02*
X178191909Y-112826463D01*
X178191909Y-112826463D02*
X178191909Y-112586977D01*
X178191909Y-112586977D02*
X178151995Y-112507148D01*
X178151995Y-112507148D02*
X178112081Y-112467234D01*
X178112081Y-112467234D02*
X178032252Y-112427320D01*
X178032252Y-112427320D02*
X177912509Y-112427320D01*
X177912509Y-112427320D02*
X177832681Y-112467234D01*
X177832681Y-112467234D02*
X177792767Y-112507148D01*
X177792767Y-112507148D02*
X177752852Y-112586977D01*
X177752852Y-112586977D02*
X177752852Y-112826463D01*
X177752852Y-112826463D02*
X177792767Y-112906291D01*
X177792767Y-112906291D02*
X177832681Y-112946206D01*
X177832681Y-112946206D02*
X177912509Y-112986120D01*
X177912509Y-112986120D02*
X178032252Y-112986120D01*
X177473453Y-112427320D02*
X177273881Y-112986120D01*
X177273881Y-112986120D02*
X177074310Y-112427320D01*
X176435681Y-112946206D02*
X176515509Y-112986120D01*
X176515509Y-112986120D02*
X176675167Y-112986120D01*
X176675167Y-112986120D02*
X176754995Y-112946206D01*
X176754995Y-112946206D02*
X176794909Y-112866377D01*
X176794909Y-112866377D02*
X176794909Y-112547063D01*
X176794909Y-112547063D02*
X176754995Y-112467234D01*
X176754995Y-112467234D02*
X176675167Y-112427320D01*
X176675167Y-112427320D02*
X176515509Y-112427320D01*
X176515509Y-112427320D02*
X176435681Y-112467234D01*
X176435681Y-112467234D02*
X176395767Y-112547063D01*
X176395767Y-112547063D02*
X176395767Y-112626891D01*
X176395767Y-112626891D02*
X176794909Y-112706720D01*
X176036538Y-112986120D02*
X176036538Y-112427320D01*
X176036538Y-112586977D02*
X175996624Y-112507148D01*
X175996624Y-112507148D02*
X175956710Y-112467234D01*
X175956710Y-112467234D02*
X175876881Y-112427320D01*
X175876881Y-112427320D02*
X175797052Y-112427320D01*
X174879023Y-112986120D02*
X174879023Y-112147920D01*
X174879023Y-112147920D02*
X174679452Y-112147920D01*
X174679452Y-112147920D02*
X174559709Y-112187834D01*
X174559709Y-112187834D02*
X174479880Y-112267663D01*
X174479880Y-112267663D02*
X174439966Y-112347491D01*
X174439966Y-112347491D02*
X174400052Y-112507148D01*
X174400052Y-112507148D02*
X174400052Y-112626891D01*
X174400052Y-112626891D02*
X174439966Y-112786548D01*
X174439966Y-112786548D02*
X174479880Y-112866377D01*
X174479880Y-112866377D02*
X174559709Y-112946206D01*
X174559709Y-112946206D02*
X174679452Y-112986120D01*
X174679452Y-112986120D02*
X174879023Y-112986120D01*
X173721509Y-112946206D02*
X173801337Y-112986120D01*
X173801337Y-112986120D02*
X173960995Y-112986120D01*
X173960995Y-112986120D02*
X174040823Y-112946206D01*
X174040823Y-112946206D02*
X174080737Y-112866377D01*
X174080737Y-112866377D02*
X174080737Y-112547063D01*
X174080737Y-112547063D02*
X174040823Y-112467234D01*
X174040823Y-112467234D02*
X173960995Y-112427320D01*
X173960995Y-112427320D02*
X173801337Y-112427320D01*
X173801337Y-112427320D02*
X173721509Y-112467234D01*
X173721509Y-112467234D02*
X173681595Y-112547063D01*
X173681595Y-112547063D02*
X173681595Y-112626891D01*
X173681595Y-112626891D02*
X174080737Y-112706720D01*
X173362280Y-112946206D02*
X173282452Y-112986120D01*
X173282452Y-112986120D02*
X173122795Y-112986120D01*
X173122795Y-112986120D02*
X173042966Y-112946206D01*
X173042966Y-112946206D02*
X173003052Y-112866377D01*
X173003052Y-112866377D02*
X173003052Y-112826463D01*
X173003052Y-112826463D02*
X173042966Y-112746634D01*
X173042966Y-112746634D02*
X173122795Y-112706720D01*
X173122795Y-112706720D02*
X173242538Y-112706720D01*
X173242538Y-112706720D02*
X173322366Y-112666806D01*
X173322366Y-112666806D02*
X173362280Y-112586977D01*
X173362280Y-112586977D02*
X173362280Y-112547063D01*
X173362280Y-112547063D02*
X173322366Y-112467234D01*
X173322366Y-112467234D02*
X173242538Y-112427320D01*
X173242538Y-112427320D02*
X173122795Y-112427320D01*
X173122795Y-112427320D02*
X173042966Y-112467234D01*
X172643823Y-112986120D02*
X172643823Y-112427320D01*
X172643823Y-112147920D02*
X172683737Y-112187834D01*
X172683737Y-112187834D02*
X172643823Y-112227748D01*
X172643823Y-112227748D02*
X172603909Y-112187834D01*
X172603909Y-112187834D02*
X172643823Y-112147920D01*
X172643823Y-112147920D02*
X172643823Y-112227748D01*
X171885452Y-112427320D02*
X171885452Y-113105863D01*
X171885452Y-113105863D02*
X171925366Y-113185691D01*
X171925366Y-113185691D02*
X171965280Y-113225606D01*
X171965280Y-113225606D02*
X172045109Y-113265520D01*
X172045109Y-113265520D02*
X172164852Y-113265520D01*
X172164852Y-113265520D02*
X172244680Y-113225606D01*
X171885452Y-112946206D02*
X171965280Y-112986120D01*
X171965280Y-112986120D02*
X172124937Y-112986120D01*
X172124937Y-112986120D02*
X172204766Y-112946206D01*
X172204766Y-112946206D02*
X172244680Y-112906291D01*
X172244680Y-112906291D02*
X172284594Y-112826463D01*
X172284594Y-112826463D02*
X172284594Y-112586977D01*
X172284594Y-112586977D02*
X172244680Y-112507148D01*
X172244680Y-112507148D02*
X172204766Y-112467234D01*
X172204766Y-112467234D02*
X172124937Y-112427320D01*
X172124937Y-112427320D02*
X171965280Y-112427320D01*
X171965280Y-112427320D02*
X171885452Y-112467234D01*
X171486309Y-112427320D02*
X171486309Y-112986120D01*
X171486309Y-112507148D02*
X171446395Y-112467234D01*
X171446395Y-112467234D02*
X171366566Y-112427320D01*
X171366566Y-112427320D02*
X171246823Y-112427320D01*
X171246823Y-112427320D02*
X171166995Y-112467234D01*
X171166995Y-112467234D02*
X171127081Y-112547063D01*
X171127081Y-112547063D02*
X171127081Y-112986120D01*
X170209052Y-112147920D02*
X169730081Y-112147920D01*
X169969566Y-112986120D02*
X169969566Y-112147920D01*
X169131366Y-112946206D02*
X169211194Y-112986120D01*
X169211194Y-112986120D02*
X169370852Y-112986120D01*
X169370852Y-112986120D02*
X169450680Y-112946206D01*
X169450680Y-112946206D02*
X169490594Y-112866377D01*
X169490594Y-112866377D02*
X169490594Y-112547063D01*
X169490594Y-112547063D02*
X169450680Y-112467234D01*
X169450680Y-112467234D02*
X169370852Y-112427320D01*
X169370852Y-112427320D02*
X169211194Y-112427320D01*
X169211194Y-112427320D02*
X169131366Y-112467234D01*
X169131366Y-112467234D02*
X169091452Y-112547063D01*
X169091452Y-112547063D02*
X169091452Y-112626891D01*
X169091452Y-112626891D02*
X169490594Y-112706720D01*
X168372995Y-112986120D02*
X168372995Y-112547063D01*
X168372995Y-112547063D02*
X168412909Y-112467234D01*
X168412909Y-112467234D02*
X168492737Y-112427320D01*
X168492737Y-112427320D02*
X168652395Y-112427320D01*
X168652395Y-112427320D02*
X168732223Y-112467234D01*
X168372995Y-112946206D02*
X168452823Y-112986120D01*
X168452823Y-112986120D02*
X168652395Y-112986120D01*
X168652395Y-112986120D02*
X168732223Y-112946206D01*
X168732223Y-112946206D02*
X168772137Y-112866377D01*
X168772137Y-112866377D02*
X168772137Y-112786548D01*
X168772137Y-112786548D02*
X168732223Y-112706720D01*
X168732223Y-112706720D02*
X168652395Y-112666806D01*
X168652395Y-112666806D02*
X168452823Y-112666806D01*
X168452823Y-112666806D02*
X168372995Y-112626891D01*
X167973852Y-112986120D02*
X167973852Y-112427320D01*
X167973852Y-112507148D02*
X167933938Y-112467234D01*
X167933938Y-112467234D02*
X167854109Y-112427320D01*
X167854109Y-112427320D02*
X167734366Y-112427320D01*
X167734366Y-112427320D02*
X167654538Y-112467234D01*
X167654538Y-112467234D02*
X167614624Y-112547063D01*
X167614624Y-112547063D02*
X167614624Y-112986120D01*
X167614624Y-112547063D02*
X167574709Y-112467234D01*
X167574709Y-112467234D02*
X167494881Y-112427320D01*
X167494881Y-112427320D02*
X167375138Y-112427320D01*
X167375138Y-112427320D02*
X167295309Y-112467234D01*
X167295309Y-112467234D02*
X167255395Y-112547063D01*
X167255395Y-112547063D02*
X167255395Y-112986120D01*
X182542567Y-114335622D02*
X182542567Y-113497422D01*
X182542567Y-113497422D02*
X182263167Y-114096136D01*
X182263167Y-114096136D02*
X181983767Y-113497422D01*
X181983767Y-113497422D02*
X181983767Y-114335622D01*
X181584624Y-114335622D02*
X181584624Y-113776822D01*
X181584624Y-113497422D02*
X181624538Y-113537336D01*
X181624538Y-113537336D02*
X181584624Y-113577250D01*
X181584624Y-113577250D02*
X181544710Y-113537336D01*
X181544710Y-113537336D02*
X181584624Y-113497422D01*
X181584624Y-113497422D02*
X181584624Y-113577250D01*
X181225395Y-114295708D02*
X181145567Y-114335622D01*
X181145567Y-114335622D02*
X180985910Y-114335622D01*
X180985910Y-114335622D02*
X180906081Y-114295708D01*
X180906081Y-114295708D02*
X180866167Y-114215879D01*
X180866167Y-114215879D02*
X180866167Y-114175965D01*
X180866167Y-114175965D02*
X180906081Y-114096136D01*
X180906081Y-114096136D02*
X180985910Y-114056222D01*
X180985910Y-114056222D02*
X181105653Y-114056222D01*
X181105653Y-114056222D02*
X181185481Y-114016308D01*
X181185481Y-114016308D02*
X181225395Y-113936479D01*
X181225395Y-113936479D02*
X181225395Y-113896565D01*
X181225395Y-113896565D02*
X181185481Y-113816736D01*
X181185481Y-113816736D02*
X181105653Y-113776822D01*
X181105653Y-113776822D02*
X180985910Y-113776822D01*
X180985910Y-113776822D02*
X180906081Y-113816736D01*
X180546852Y-114295708D02*
X180467024Y-114335622D01*
X180467024Y-114335622D02*
X180307367Y-114335622D01*
X180307367Y-114335622D02*
X180227538Y-114295708D01*
X180227538Y-114295708D02*
X180187624Y-114215879D01*
X180187624Y-114215879D02*
X180187624Y-114175965D01*
X180187624Y-114175965D02*
X180227538Y-114096136D01*
X180227538Y-114096136D02*
X180307367Y-114056222D01*
X180307367Y-114056222D02*
X180427110Y-114056222D01*
X180427110Y-114056222D02*
X180506938Y-114016308D01*
X180506938Y-114016308D02*
X180546852Y-113936479D01*
X180546852Y-113936479D02*
X180546852Y-113896565D01*
X180546852Y-113896565D02*
X180506938Y-113816736D01*
X180506938Y-113816736D02*
X180427110Y-113776822D01*
X180427110Y-113776822D02*
X180307367Y-113776822D01*
X180307367Y-113776822D02*
X180227538Y-113816736D01*
X179708652Y-114335622D02*
X179788481Y-114295708D01*
X179788481Y-114295708D02*
X179828395Y-114255793D01*
X179828395Y-114255793D02*
X179868309Y-114175965D01*
X179868309Y-114175965D02*
X179868309Y-113936479D01*
X179868309Y-113936479D02*
X179828395Y-113856650D01*
X179828395Y-113856650D02*
X179788481Y-113816736D01*
X179788481Y-113816736D02*
X179708652Y-113776822D01*
X179708652Y-113776822D02*
X179588909Y-113776822D01*
X179588909Y-113776822D02*
X179509081Y-113816736D01*
X179509081Y-113816736D02*
X179469167Y-113856650D01*
X179469167Y-113856650D02*
X179429252Y-113936479D01*
X179429252Y-113936479D02*
X179429252Y-114175965D01*
X179429252Y-114175965D02*
X179469167Y-114255793D01*
X179469167Y-114255793D02*
X179509081Y-114295708D01*
X179509081Y-114295708D02*
X179588909Y-114335622D01*
X179588909Y-114335622D02*
X179708652Y-114335622D01*
X178710796Y-113776822D02*
X178710796Y-114335622D01*
X179070024Y-113776822D02*
X179070024Y-114215879D01*
X179070024Y-114215879D02*
X179030110Y-114295708D01*
X179030110Y-114295708D02*
X178950281Y-114335622D01*
X178950281Y-114335622D02*
X178830538Y-114335622D01*
X178830538Y-114335622D02*
X178750710Y-114295708D01*
X178750710Y-114295708D02*
X178710796Y-114255793D01*
X178311653Y-114335622D02*
X178311653Y-113776822D01*
X178311653Y-113936479D02*
X178271739Y-113856650D01*
X178271739Y-113856650D02*
X178231825Y-113816736D01*
X178231825Y-113816736D02*
X178151996Y-113776822D01*
X178151996Y-113776822D02*
X178072167Y-113776822D01*
X177792767Y-114335622D02*
X177792767Y-113776822D01*
X177792767Y-113497422D02*
X177832681Y-113537336D01*
X177832681Y-113537336D02*
X177792767Y-113577250D01*
X177792767Y-113577250D02*
X177752853Y-113537336D01*
X177752853Y-113537336D02*
X177792767Y-113497422D01*
X177792767Y-113497422D02*
X177792767Y-113577250D01*
X176794909Y-114295708D02*
X176675167Y-114335622D01*
X176675167Y-114335622D02*
X176475595Y-114335622D01*
X176475595Y-114335622D02*
X176395767Y-114295708D01*
X176395767Y-114295708D02*
X176355852Y-114255793D01*
X176355852Y-114255793D02*
X176315938Y-114175965D01*
X176315938Y-114175965D02*
X176315938Y-114096136D01*
X176315938Y-114096136D02*
X176355852Y-114016308D01*
X176355852Y-114016308D02*
X176395767Y-113976393D01*
X176395767Y-113976393D02*
X176475595Y-113936479D01*
X176475595Y-113936479D02*
X176635252Y-113896565D01*
X176635252Y-113896565D02*
X176715081Y-113856650D01*
X176715081Y-113856650D02*
X176754995Y-113816736D01*
X176754995Y-113816736D02*
X176794909Y-113736908D01*
X176794909Y-113736908D02*
X176794909Y-113657079D01*
X176794909Y-113657079D02*
X176754995Y-113577250D01*
X176754995Y-113577250D02*
X176715081Y-113537336D01*
X176715081Y-113537336D02*
X176635252Y-113497422D01*
X176635252Y-113497422D02*
X176435681Y-113497422D01*
X176435681Y-113497422D02*
X176315938Y-113537336D01*
X175278166Y-114335622D02*
X175318081Y-114335622D01*
X175318081Y-114335622D02*
X175397909Y-114295708D01*
X175397909Y-114295708D02*
X175517652Y-114175965D01*
X175517652Y-114175965D02*
X175717223Y-113936479D01*
X175717223Y-113936479D02*
X175797052Y-113816736D01*
X175797052Y-113816736D02*
X175836966Y-113696993D01*
X175836966Y-113696993D02*
X175836966Y-113617165D01*
X175836966Y-113617165D02*
X175797052Y-113537336D01*
X175797052Y-113537336D02*
X175717223Y-113497422D01*
X175717223Y-113497422D02*
X175677309Y-113497422D01*
X175677309Y-113497422D02*
X175597481Y-113537336D01*
X175597481Y-113537336D02*
X175557566Y-113617165D01*
X175557566Y-113617165D02*
X175557566Y-113657079D01*
X175557566Y-113657079D02*
X175597481Y-113736908D01*
X175597481Y-113736908D02*
X175637395Y-113776822D01*
X175637395Y-113776822D02*
X175876881Y-113936479D01*
X175876881Y-113936479D02*
X175916795Y-113976393D01*
X175916795Y-113976393D02*
X175956709Y-114056222D01*
X175956709Y-114056222D02*
X175956709Y-114175965D01*
X175956709Y-114175965D02*
X175916795Y-114255793D01*
X175916795Y-114255793D02*
X175876881Y-114295708D01*
X175876881Y-114295708D02*
X175797052Y-114335622D01*
X175797052Y-114335622D02*
X175677309Y-114335622D01*
X175677309Y-114335622D02*
X175597481Y-114295708D01*
X175597481Y-114295708D02*
X175557566Y-114255793D01*
X175557566Y-114255793D02*
X175437823Y-114096136D01*
X175437823Y-114096136D02*
X175397909Y-113976393D01*
X175397909Y-113976393D02*
X175397909Y-113896565D01*
X175038681Y-113497422D02*
X174559710Y-113497422D01*
X174799195Y-114335622D02*
X174799195Y-113497422D01*
X174240395Y-114295708D02*
X174240395Y-114335622D01*
X174240395Y-114335622D02*
X174280309Y-114415450D01*
X174280309Y-114415450D02*
X174320223Y-114455365D01*
X173282451Y-113577250D02*
X173242537Y-113537336D01*
X173242537Y-113537336D02*
X173162709Y-113497422D01*
X173162709Y-113497422D02*
X172963137Y-113497422D01*
X172963137Y-113497422D02*
X172883309Y-113537336D01*
X172883309Y-113537336D02*
X172843394Y-113577250D01*
X172843394Y-113577250D02*
X172803480Y-113657079D01*
X172803480Y-113657079D02*
X172803480Y-113736908D01*
X172803480Y-113736908D02*
X172843394Y-113856650D01*
X172843394Y-113856650D02*
X173322366Y-114335622D01*
X173322366Y-114335622D02*
X172803480Y-114335622D01*
X172284594Y-113497422D02*
X172204765Y-113497422D01*
X172204765Y-113497422D02*
X172124937Y-113537336D01*
X172124937Y-113537336D02*
X172085023Y-113577250D01*
X172085023Y-113577250D02*
X172045108Y-113657079D01*
X172045108Y-113657079D02*
X172005194Y-113816736D01*
X172005194Y-113816736D02*
X172005194Y-114016308D01*
X172005194Y-114016308D02*
X172045108Y-114175965D01*
X172045108Y-114175965D02*
X172085023Y-114255793D01*
X172085023Y-114255793D02*
X172124937Y-114295708D01*
X172124937Y-114295708D02*
X172204765Y-114335622D01*
X172204765Y-114335622D02*
X172284594Y-114335622D01*
X172284594Y-114335622D02*
X172364423Y-114295708D01*
X172364423Y-114295708D02*
X172404337Y-114255793D01*
X172404337Y-114255793D02*
X172444251Y-114175965D01*
X172444251Y-114175965D02*
X172484165Y-114016308D01*
X172484165Y-114016308D02*
X172484165Y-113816736D01*
X172484165Y-113816736D02*
X172444251Y-113657079D01*
X172444251Y-113657079D02*
X172404337Y-113577250D01*
X172404337Y-113577250D02*
X172364423Y-113537336D01*
X172364423Y-113537336D02*
X172284594Y-113497422D01*
X171685879Y-113577250D02*
X171645965Y-113537336D01*
X171645965Y-113537336D02*
X171566137Y-113497422D01*
X171566137Y-113497422D02*
X171366565Y-113497422D01*
X171366565Y-113497422D02*
X171286737Y-113537336D01*
X171286737Y-113537336D02*
X171246822Y-113577250D01*
X171246822Y-113577250D02*
X171206908Y-113657079D01*
X171206908Y-113657079D02*
X171206908Y-113736908D01*
X171206908Y-113736908D02*
X171246822Y-113856650D01*
X171246822Y-113856650D02*
X171725794Y-114335622D01*
X171725794Y-114335622D02*
X171206908Y-114335622D01*
X170488451Y-113776822D02*
X170488451Y-114335622D01*
X170688022Y-113457508D02*
X170887593Y-114056222D01*
X170887593Y-114056222D02*
X170368708Y-114056222D01*
X182542567Y-115685124D02*
X182542567Y-114846924D01*
X182542567Y-114846924D02*
X182342996Y-114846924D01*
X182342996Y-114846924D02*
X182223253Y-114886838D01*
X182223253Y-114886838D02*
X182143424Y-114966667D01*
X182143424Y-114966667D02*
X182103510Y-115046495D01*
X182103510Y-115046495D02*
X182063596Y-115206152D01*
X182063596Y-115206152D02*
X182063596Y-115325895D01*
X182063596Y-115325895D02*
X182103510Y-115485552D01*
X182103510Y-115485552D02*
X182143424Y-115565381D01*
X182143424Y-115565381D02*
X182223253Y-115645210D01*
X182223253Y-115645210D02*
X182342996Y-115685124D01*
X182342996Y-115685124D02*
X182542567Y-115685124D01*
X181345139Y-115126324D02*
X181345139Y-115685124D01*
X181704367Y-115126324D02*
X181704367Y-115565381D01*
X181704367Y-115565381D02*
X181664453Y-115645210D01*
X181664453Y-115645210D02*
X181584624Y-115685124D01*
X181584624Y-115685124D02*
X181464881Y-115685124D01*
X181464881Y-115685124D02*
X181385053Y-115645210D01*
X181385053Y-115645210D02*
X181345139Y-115605295D01*
X180945996Y-115126324D02*
X180945996Y-115685124D01*
X180945996Y-115206152D02*
X180906082Y-115166238D01*
X180906082Y-115166238D02*
X180826253Y-115126324D01*
X180826253Y-115126324D02*
X180706510Y-115126324D01*
X180706510Y-115126324D02*
X180626682Y-115166238D01*
X180626682Y-115166238D02*
X180586768Y-115246067D01*
X180586768Y-115246067D02*
X180586768Y-115685124D01*
X179828397Y-115645210D02*
X179908225Y-115685124D01*
X179908225Y-115685124D02*
X180067882Y-115685124D01*
X180067882Y-115685124D02*
X180147711Y-115645210D01*
X180147711Y-115645210D02*
X180187625Y-115605295D01*
X180187625Y-115605295D02*
X180227539Y-115525467D01*
X180227539Y-115525467D02*
X180227539Y-115285981D01*
X180227539Y-115285981D02*
X180187625Y-115206152D01*
X180187625Y-115206152D02*
X180147711Y-115166238D01*
X180147711Y-115166238D02*
X180067882Y-115126324D01*
X180067882Y-115126324D02*
X179908225Y-115126324D01*
X179908225Y-115126324D02*
X179828397Y-115166238D01*
X179109940Y-115685124D02*
X179109940Y-115246067D01*
X179109940Y-115246067D02*
X179149854Y-115166238D01*
X179149854Y-115166238D02*
X179229682Y-115126324D01*
X179229682Y-115126324D02*
X179389340Y-115126324D01*
X179389340Y-115126324D02*
X179469168Y-115166238D01*
X179109940Y-115645210D02*
X179189768Y-115685124D01*
X179189768Y-115685124D02*
X179389340Y-115685124D01*
X179389340Y-115685124D02*
X179469168Y-115645210D01*
X179469168Y-115645210D02*
X179509082Y-115565381D01*
X179509082Y-115565381D02*
X179509082Y-115485552D01*
X179509082Y-115485552D02*
X179469168Y-115405724D01*
X179469168Y-115405724D02*
X179389340Y-115365810D01*
X179389340Y-115365810D02*
X179189768Y-115365810D01*
X179189768Y-115365810D02*
X179109940Y-115325895D01*
X178710797Y-115126324D02*
X178710797Y-115685124D01*
X178710797Y-115206152D02*
X178670883Y-115166238D01*
X178670883Y-115166238D02*
X178591054Y-115126324D01*
X178591054Y-115126324D02*
X178471311Y-115126324D01*
X178471311Y-115126324D02*
X178391483Y-115166238D01*
X178391483Y-115166238D02*
X178351569Y-115246067D01*
X178351569Y-115246067D02*
X178351569Y-115685124D01*
X177313797Y-115685124D02*
X177313797Y-114846924D01*
X176834826Y-115685124D02*
X177194054Y-115206152D01*
X176834826Y-114846924D02*
X177313797Y-115325895D01*
X176156283Y-115645210D02*
X176236111Y-115685124D01*
X176236111Y-115685124D02*
X176395769Y-115685124D01*
X176395769Y-115685124D02*
X176475597Y-115645210D01*
X176475597Y-115645210D02*
X176515511Y-115565381D01*
X176515511Y-115565381D02*
X176515511Y-115246067D01*
X176515511Y-115246067D02*
X176475597Y-115166238D01*
X176475597Y-115166238D02*
X176395769Y-115126324D01*
X176395769Y-115126324D02*
X176236111Y-115126324D01*
X176236111Y-115126324D02*
X176156283Y-115166238D01*
X176156283Y-115166238D02*
X176116369Y-115246067D01*
X176116369Y-115246067D02*
X176116369Y-115325895D01*
X176116369Y-115325895D02*
X176515511Y-115405724D01*
X175637397Y-115685124D02*
X175717226Y-115645210D01*
X175717226Y-115645210D02*
X175757140Y-115565381D01*
X175757140Y-115565381D02*
X175757140Y-114846924D01*
X175198340Y-115685124D02*
X175278169Y-115645210D01*
X175278169Y-115645210D02*
X175318083Y-115565381D01*
X175318083Y-115565381D02*
X175318083Y-114846924D01*
X174559712Y-115645210D02*
X174639540Y-115685124D01*
X174639540Y-115685124D02*
X174799198Y-115685124D01*
X174799198Y-115685124D02*
X174879026Y-115645210D01*
X174879026Y-115645210D02*
X174918940Y-115565381D01*
X174918940Y-115565381D02*
X174918940Y-115246067D01*
X174918940Y-115246067D02*
X174879026Y-115166238D01*
X174879026Y-115166238D02*
X174799198Y-115126324D01*
X174799198Y-115126324D02*
X174639540Y-115126324D01*
X174639540Y-115126324D02*
X174559712Y-115166238D01*
X174559712Y-115166238D02*
X174519798Y-115246067D01*
X174519798Y-115246067D02*
X174519798Y-115325895D01*
X174519798Y-115325895D02*
X174918940Y-115405724D01*
X174240398Y-115126324D02*
X174040826Y-115685124D01*
X173841255Y-115126324D02*
X174040826Y-115685124D01*
X174040826Y-115685124D02*
X174120655Y-115884695D01*
X174120655Y-115884695D02*
X174160569Y-115924610D01*
X174160569Y-115924610D02*
X174240398Y-115964524D01*
%TO.C,G\u002A\u002A\u002A*%
G36*
X177645469Y-121128894D02*
G01*
X177637968Y-121136396D01*
X177630466Y-121128894D01*
X177637968Y-121121393D01*
X177645469Y-121128894D01*
G37*
G36*
X180738076Y-117123692D02*
G01*
X180827891Y-117128881D01*
X180901110Y-117138288D01*
X180920476Y-117141853D01*
X180982500Y-117153123D01*
X181034261Y-117162320D01*
X181066143Y-117167727D01*
X181124633Y-117179827D01*
X181202366Y-117201298D01*
X181286331Y-117228632D01*
X181369456Y-117259212D01*
X181444670Y-117290422D01*
X181504902Y-117319644D01*
X181543082Y-117344261D01*
X181562604Y-117358500D01*
X181602986Y-117383915D01*
X181651258Y-117411615D01*
X181702856Y-117444282D01*
X181763919Y-117489983D01*
X181818969Y-117537492D01*
X181823703Y-117541963D01*
X181870344Y-117584681D01*
X181912861Y-117621555D01*
X181942575Y-117645032D01*
X181963872Y-117665712D01*
X181995775Y-117711337D01*
X182025621Y-117766947D01*
X182047709Y-117821559D01*
X182056338Y-117864194D01*
X182052366Y-117894966D01*
X182034653Y-117939002D01*
X182008254Y-117972479D01*
X181979268Y-117985775D01*
X181960712Y-117983147D01*
X181953395Y-117968667D01*
X181957728Y-117933802D01*
X181959475Y-117893768D01*
X181941630Y-117832919D01*
X181898614Y-117765803D01*
X181829108Y-117689920D01*
X181732458Y-117602156D01*
X181632436Y-117526130D01*
X181525237Y-117460594D01*
X181405168Y-117402457D01*
X181266536Y-117348628D01*
X181103650Y-117296016D01*
X181046510Y-117281592D01*
X180929861Y-117263054D01*
X180797329Y-117252737D01*
X180657197Y-117250899D01*
X180517749Y-117257797D01*
X180387266Y-117273691D01*
X180349482Y-117280766D01*
X180235440Y-117311287D01*
X180125369Y-117353417D01*
X180023557Y-117404509D01*
X179934293Y-117461916D01*
X179861865Y-117522993D01*
X179810560Y-117585093D01*
X179784668Y-117645570D01*
X179781453Y-117664347D01*
X179779372Y-117755303D01*
X179798072Y-117857170D01*
X179838103Y-117971109D01*
X179900016Y-118098287D01*
X179984362Y-118239867D01*
X180091692Y-118397014D01*
X180222557Y-118570891D01*
X180225728Y-118574944D01*
X180261254Y-118619953D01*
X180296970Y-118664292D01*
X180335347Y-118710846D01*
X180378856Y-118762499D01*
X180429968Y-118822136D01*
X180491153Y-118892641D01*
X180564882Y-118976900D01*
X180653625Y-119077797D01*
X180759855Y-119198217D01*
X180813556Y-119259454D01*
X180866734Y-119321005D01*
X180910325Y-119372442D01*
X180940866Y-119409674D01*
X180954893Y-119428608D01*
X180958400Y-119434316D01*
X180982768Y-119466425D01*
X181023119Y-119514282D01*
X181075563Y-119573472D01*
X181136210Y-119639578D01*
X181201169Y-119708184D01*
X181237678Y-119746399D01*
X181298088Y-119810609D01*
X181360199Y-119877598D01*
X181420294Y-119943266D01*
X181474655Y-120003515D01*
X181519566Y-120054244D01*
X181551311Y-120091355D01*
X181566171Y-120110748D01*
X181567029Y-120112118D01*
X181584420Y-120133150D01*
X181618051Y-120169901D01*
X181663464Y-120217596D01*
X181716201Y-120271460D01*
X181772703Y-120329344D01*
X181829990Y-120389747D01*
X181879249Y-120443368D01*
X181913810Y-120483065D01*
X181935101Y-120508134D01*
X182002606Y-120581608D01*
X182092892Y-120673370D01*
X182206238Y-120783706D01*
X182217974Y-120794952D01*
X182234078Y-120809477D01*
X182241711Y-120812687D01*
X182240038Y-120801405D01*
X182228225Y-120772449D01*
X182205438Y-120722641D01*
X182170842Y-120648800D01*
X182163405Y-120632944D01*
X182133583Y-120569301D01*
X182106269Y-120510925D01*
X182086587Y-120468764D01*
X182082097Y-120458852D01*
X182060573Y-120405127D01*
X182044603Y-120356242D01*
X182044364Y-120355355D01*
X182031512Y-120314556D01*
X182010821Y-120255645D01*
X181985750Y-120187965D01*
X181959758Y-120120863D01*
X181936305Y-120063685D01*
X181931775Y-120052463D01*
X181923870Y-120030146D01*
X181913215Y-119996814D01*
X181898440Y-119948008D01*
X181878174Y-119879266D01*
X181851047Y-119786130D01*
X181840921Y-119751841D01*
X181826396Y-119704544D01*
X181816194Y-119673608D01*
X181811653Y-119659893D01*
X181799496Y-119618320D01*
X181786229Y-119568587D01*
X181765868Y-119490551D01*
X181738898Y-119392184D01*
X181711455Y-119296731D01*
X181685122Y-119209423D01*
X181661485Y-119135490D01*
X181642130Y-119080163D01*
X181628641Y-119048670D01*
X181612264Y-119008277D01*
X181607425Y-118961946D01*
X181616283Y-118923396D01*
X181636098Y-118898154D01*
X181664127Y-118891742D01*
X181697626Y-118909687D01*
X181717594Y-118930849D01*
X181741024Y-118967517D01*
X181762603Y-119018455D01*
X181784410Y-119088800D01*
X181808524Y-119183691D01*
X181826104Y-119256194D01*
X181846992Y-119337827D01*
X181868378Y-119414925D01*
X181892247Y-119494021D01*
X181920589Y-119581648D01*
X181955391Y-119684342D01*
X181998640Y-119808634D01*
X182002107Y-119819175D01*
X182015451Y-119868047D01*
X182027096Y-119921156D01*
X182027490Y-119923250D01*
X182053932Y-120034234D01*
X182090236Y-120133119D01*
X182095832Y-120146168D01*
X182117089Y-120197716D01*
X182138240Y-120251221D01*
X182147312Y-120274121D01*
X182172975Y-120335195D01*
X182199146Y-120393749D01*
X182227338Y-120454583D01*
X182261485Y-120529275D01*
X182288043Y-120588623D01*
X182305260Y-120628702D01*
X182311388Y-120645587D01*
X182315837Y-120655720D01*
X182332126Y-120687573D01*
X182357504Y-120735509D01*
X182388940Y-120793903D01*
X182423401Y-120857128D01*
X182457853Y-120919560D01*
X182489264Y-120975570D01*
X182505986Y-121006581D01*
X182518998Y-121041570D01*
X182515250Y-121065198D01*
X182495174Y-121085505D01*
X182476186Y-121096814D01*
X182444901Y-121105913D01*
X182439749Y-121105447D01*
X182405089Y-121090036D01*
X182352890Y-121054089D01*
X182284946Y-120999301D01*
X182203048Y-120927366D01*
X182108989Y-120839978D01*
X182004560Y-120738831D01*
X181891555Y-120625621D01*
X181771764Y-120502041D01*
X181646981Y-120369786D01*
X181518997Y-120230550D01*
X181497102Y-120206441D01*
X181418484Y-120120123D01*
X181333269Y-120026874D01*
X181250362Y-119936427D01*
X181178665Y-119858513D01*
X181162685Y-119841188D01*
X181104563Y-119777963D01*
X181051058Y-119719309D01*
X180998113Y-119660696D01*
X180941671Y-119597593D01*
X180877676Y-119525470D01*
X180802070Y-119439796D01*
X180710797Y-119336041D01*
X180692658Y-119315404D01*
X180637571Y-119252744D01*
X180583279Y-119191008D01*
X180539287Y-119141003D01*
X180494898Y-119090475D01*
X180407984Y-118990954D01*
X180333610Y-118904954D01*
X180273656Y-118834670D01*
X180230005Y-118782302D01*
X180204537Y-118750046D01*
X180196888Y-118739893D01*
X180167220Y-118702190D01*
X180127263Y-118652779D01*
X180083449Y-118599647D01*
X180040995Y-118547902D01*
X179960876Y-118444248D01*
X179889905Y-118342193D01*
X179823332Y-118234253D01*
X179756408Y-118112941D01*
X179684381Y-117970773D01*
X179665223Y-117929271D01*
X179646409Y-117875331D01*
X179635493Y-117817335D01*
X179629357Y-117742331D01*
X179628624Y-117728352D01*
X179626795Y-117664257D01*
X179629850Y-117618163D01*
X179639106Y-117580030D01*
X179655875Y-117539816D01*
X179681345Y-117495581D01*
X179741293Y-117422040D01*
X179817368Y-117352272D01*
X179901579Y-117293251D01*
X179985930Y-117251946D01*
X180047813Y-117228409D01*
X180108559Y-117202654D01*
X180167066Y-117174172D01*
X180192455Y-117164413D01*
X180253677Y-117150564D01*
X180334922Y-117139142D01*
X180430088Y-117130446D01*
X180533072Y-117124773D01*
X180637769Y-117122422D01*
X180738076Y-117123692D01*
G37*
G36*
X179502989Y-119300641D02*
G01*
X179532535Y-119310776D01*
X179577954Y-119331478D01*
X179644700Y-119364231D01*
X179701719Y-119391678D01*
X179758645Y-119417285D01*
X179801731Y-119434660D01*
X179824552Y-119441062D01*
X179837245Y-119443201D01*
X179861410Y-119460296D01*
X179865303Y-119464740D01*
X179891023Y-119485012D01*
X179933511Y-119513604D01*
X179985930Y-119545821D01*
X180000272Y-119554351D01*
X180058532Y-119590467D01*
X180110258Y-119624606D01*
X180145662Y-119650361D01*
X180158555Y-119660591D01*
X180205876Y-119696253D01*
X180254433Y-119730842D01*
X180269977Y-119741948D01*
X180305721Y-119775342D01*
X180314416Y-119802987D01*
X180297241Y-119827545D01*
X180296364Y-119828218D01*
X180266881Y-119836634D01*
X180227182Y-119834241D01*
X180190584Y-119823296D01*
X180170401Y-119806054D01*
X180154629Y-119789077D01*
X180118056Y-119760777D01*
X180066378Y-119724867D01*
X180005217Y-119684857D01*
X179940193Y-119644254D01*
X179876927Y-119606566D01*
X179821039Y-119575303D01*
X179778152Y-119553973D01*
X179753886Y-119546083D01*
X179753147Y-119549395D01*
X179764832Y-119569441D01*
X179789176Y-119602489D01*
X179821450Y-119642547D01*
X179856927Y-119683622D01*
X179890879Y-119719721D01*
X179891835Y-119720686D01*
X179915940Y-119751989D01*
X179925918Y-119778561D01*
X179930073Y-119796188D01*
X179945630Y-119835526D01*
X179968734Y-119885456D01*
X179995125Y-119937313D01*
X180020545Y-119982431D01*
X180040734Y-120012145D01*
X180051318Y-120027892D01*
X180073916Y-120066883D01*
X180103294Y-120120908D01*
X180135769Y-120183333D01*
X180177458Y-120272819D01*
X180204805Y-120354703D01*
X180211209Y-120418518D01*
X180196475Y-120466259D01*
X180160410Y-120499923D01*
X180102817Y-120521508D01*
X180091391Y-120523995D01*
X180007858Y-120533370D01*
X179912455Y-120532377D01*
X179819195Y-120521039D01*
X179759814Y-120504571D01*
X179677502Y-120472678D01*
X179582399Y-120429288D01*
X179480487Y-120377583D01*
X179377750Y-120320749D01*
X179280171Y-120261968D01*
X179193733Y-120204426D01*
X179124418Y-120151306D01*
X179101898Y-120133095D01*
X179073013Y-120113027D01*
X179058944Y-120107996D01*
X179058268Y-120110751D01*
X179065633Y-120132295D01*
X179084057Y-120165962D01*
X179106467Y-120225441D01*
X179100815Y-120285545D01*
X179067111Y-120341958D01*
X179006314Y-120391885D01*
X179005749Y-120392231D01*
X178976126Y-120403057D01*
X178931722Y-120406007D01*
X178865326Y-120401577D01*
X178791832Y-120389018D01*
X178670351Y-120349180D01*
X178543925Y-120286908D01*
X178417698Y-120204879D01*
X178296814Y-120105769D01*
X178265616Y-120079227D01*
X178239936Y-120060760D01*
X178239716Y-120060630D01*
X178222027Y-120046302D01*
X178186534Y-120014800D01*
X178137013Y-119969572D01*
X178077242Y-119914066D01*
X178010996Y-119851731D01*
X177983734Y-119825968D01*
X177890932Y-119739170D01*
X177812563Y-119667333D01*
X177749648Y-119611298D01*
X177703206Y-119571908D01*
X177674261Y-119550002D01*
X177663831Y-119546423D01*
X177672938Y-119562011D01*
X177702603Y-119597607D01*
X177713638Y-119610825D01*
X177741991Y-119651079D01*
X177758392Y-119683874D01*
X177770618Y-119711652D01*
X177795834Y-119748623D01*
X177802196Y-119756294D01*
X177828062Y-119793967D01*
X177853691Y-119838640D01*
X177870847Y-119865820D01*
X177906772Y-119913174D01*
X177953473Y-119968882D01*
X178005171Y-120025804D01*
X178038077Y-120060895D01*
X178088370Y-120117477D01*
X178119837Y-120159115D01*
X178134568Y-120189475D01*
X178134655Y-120212222D01*
X178122186Y-120231023D01*
X178120199Y-120232950D01*
X178101857Y-120243698D01*
X178074810Y-120243760D01*
X178029299Y-120233385D01*
X178006011Y-120225987D01*
X177965857Y-120207078D01*
X177943673Y-120187743D01*
X177929002Y-120172121D01*
X177896241Y-120160847D01*
X177895104Y-120160814D01*
X177869541Y-120150344D01*
X177837925Y-120119011D01*
X177796997Y-120063623D01*
X177790864Y-120054757D01*
X177755878Y-120008636D01*
X177724620Y-119974061D01*
X177703228Y-119957949D01*
X177687768Y-119950815D01*
X177675475Y-119936094D01*
X177668181Y-119923024D01*
X177637442Y-119896554D01*
X177586509Y-119861998D01*
X177519552Y-119821656D01*
X177440742Y-119777824D01*
X177354248Y-119732802D01*
X177264239Y-119688889D01*
X177174887Y-119648382D01*
X177090360Y-119613580D01*
X177070515Y-119605897D01*
X177024882Y-119588120D01*
X176992841Y-119575489D01*
X176991935Y-119575132D01*
X176955420Y-119564637D01*
X176910325Y-119556057D01*
X176907971Y-119555718D01*
X176864374Y-119547504D01*
X176831559Y-119538252D01*
X176809839Y-119532963D01*
X176807668Y-119543724D01*
X176829082Y-119572269D01*
X176874180Y-119618727D01*
X176943060Y-119683226D01*
X177042368Y-119773708D01*
X177124632Y-119849048D01*
X177189007Y-119908806D01*
X177237686Y-119955308D01*
X177272860Y-119990880D01*
X177296723Y-120017847D01*
X177311467Y-120038536D01*
X177319283Y-120055272D01*
X177322366Y-120070381D01*
X177322906Y-120086189D01*
X177320387Y-120117382D01*
X177305647Y-120143221D01*
X177270396Y-120165502D01*
X177241213Y-120177922D01*
X177205741Y-120185239D01*
X177158434Y-120186556D01*
X177090360Y-120182729D01*
X177065502Y-120180510D01*
X176986671Y-120170033D01*
X176903573Y-120154930D01*
X176824742Y-120137066D01*
X176758713Y-120118306D01*
X176714021Y-120100514D01*
X176684338Y-120088213D01*
X176662086Y-120092744D01*
X176655274Y-120121081D01*
X176642572Y-120164390D01*
X176605072Y-120199681D01*
X176546588Y-120224808D01*
X176470948Y-120239360D01*
X176381984Y-120242926D01*
X176283523Y-120235094D01*
X176179397Y-120215452D01*
X176073435Y-120183590D01*
X176032626Y-120169955D01*
X175981447Y-120158359D01*
X175926917Y-120154638D01*
X175855892Y-120157197D01*
X175839972Y-120158275D01*
X175780846Y-120163936D01*
X175733615Y-120170937D01*
X175707324Y-120178012D01*
X175695316Y-120183440D01*
X175634373Y-120192816D01*
X175566748Y-120180001D01*
X175500346Y-120147406D01*
X175443075Y-120097441D01*
X175438313Y-120092082D01*
X175411450Y-120066563D01*
X175392897Y-120056183D01*
X175387056Y-120054828D01*
X175359911Y-120041546D01*
X175323234Y-120018676D01*
X175297972Y-120003510D01*
X175240133Y-119984555D01*
X175173874Y-119985555D01*
X175091856Y-120006112D01*
X175057482Y-120016216D01*
X175014764Y-120023179D01*
X174966771Y-120022489D01*
X174901501Y-120014686D01*
X174898715Y-120014286D01*
X174802461Y-119999470D01*
X174729441Y-119985555D01*
X174673164Y-119970854D01*
X174627136Y-119953678D01*
X174584867Y-119932338D01*
X174561923Y-119919925D01*
X174515148Y-119897269D01*
X174479846Y-119883476D01*
X174473569Y-119881400D01*
X174434271Y-119862388D01*
X174392594Y-119835384D01*
X174380280Y-119826500D01*
X174351086Y-119808640D01*
X174336309Y-119804643D01*
X174336061Y-119809539D01*
X174347913Y-119833508D01*
X174372678Y-119870985D01*
X174405731Y-119915826D01*
X174442446Y-119961890D01*
X174478197Y-120003034D01*
X174508358Y-120033115D01*
X174526219Y-120048712D01*
X174574313Y-120091717D01*
X174604684Y-120122075D01*
X174621374Y-120144978D01*
X174628424Y-120165616D01*
X174629876Y-120189179D01*
X174628674Y-120212623D01*
X174618421Y-120231841D01*
X174591382Y-120236218D01*
X174561903Y-120232691D01*
X174520118Y-120218473D01*
X174493489Y-120208509D01*
X174449840Y-120203369D01*
X174431710Y-120200448D01*
X174394939Y-120182617D01*
X174356813Y-120155027D01*
X174326910Y-120125019D01*
X174314814Y-120099931D01*
X174305815Y-120080435D01*
X174276792Y-120046712D01*
X174233090Y-120005218D01*
X174180247Y-119960600D01*
X174123802Y-119917505D01*
X174069292Y-119880580D01*
X174022256Y-119854471D01*
X174008025Y-119847837D01*
X173967056Y-119828123D01*
X173939740Y-119814096D01*
X173873040Y-119777045D01*
X173813119Y-119745234D01*
X173758875Y-119718607D01*
X173699693Y-119691754D01*
X173664216Y-119676291D01*
X173596828Y-119648736D01*
X173552114Y-119633951D01*
X173527311Y-119631133D01*
X173519657Y-119639482D01*
X173528664Y-119663084D01*
X173557651Y-119704733D01*
X173603945Y-119759438D01*
X173664783Y-119823689D01*
X173664876Y-119823783D01*
X173703496Y-119864893D01*
X173733460Y-119900658D01*
X173748287Y-119923346D01*
X173752224Y-119930279D01*
X173777370Y-119955210D01*
X173814896Y-119980931D01*
X173821854Y-119985240D01*
X173859425Y-120014850D01*
X173902892Y-120056087D01*
X173944997Y-120101266D01*
X173978483Y-120142705D01*
X173996090Y-120172722D01*
X173991304Y-120192363D01*
X173972583Y-120221437D01*
X173953359Y-120242733D01*
X173935327Y-120246973D01*
X173908328Y-120231048D01*
X173875454Y-120204478D01*
X173826747Y-120160007D01*
X173767028Y-120102383D01*
X173700382Y-120035845D01*
X173630894Y-119964631D01*
X173562650Y-119892980D01*
X173499733Y-119825132D01*
X173446230Y-119765324D01*
X173406225Y-119717795D01*
X173383802Y-119686784D01*
X173382498Y-119684510D01*
X173352720Y-119625793D01*
X173342016Y-119582837D01*
X173350096Y-119548717D01*
X173376671Y-119516507D01*
X173390192Y-119505863D01*
X173445255Y-119487310D01*
X173518368Y-119491471D01*
X173608527Y-119518196D01*
X173714728Y-119567333D01*
X173718100Y-119569119D01*
X173817075Y-119621410D01*
X173893384Y-119661423D01*
X173950700Y-119690992D01*
X173992698Y-119711953D01*
X174023050Y-119726138D01*
X174045431Y-119735384D01*
X174063514Y-119741526D01*
X174092423Y-119748389D01*
X174104772Y-119747445D01*
X174101676Y-119740777D01*
X174085373Y-119715258D01*
X174059764Y-119678728D01*
X174028715Y-119625218D01*
X174014755Y-119564373D01*
X174014771Y-119556850D01*
X174017597Y-119526329D01*
X174031628Y-119516781D01*
X174065891Y-119520449D01*
X174072662Y-119521949D01*
X174113079Y-119538269D01*
X174165261Y-119566889D01*
X174219672Y-119602709D01*
X174313929Y-119667853D01*
X174394863Y-119716927D01*
X174466882Y-119752015D01*
X174536346Y-119776609D01*
X174567704Y-119786197D01*
X174609444Y-119800490D01*
X174633231Y-119810708D01*
X174655854Y-119820709D01*
X174718733Y-119831923D01*
X174808442Y-119833856D01*
X174821720Y-119833586D01*
X174867949Y-119835904D01*
X174898356Y-119846644D01*
X174924348Y-119869295D01*
X174931498Y-119876693D01*
X174963134Y-119897929D01*
X174997777Y-119897229D01*
X175014633Y-119892369D01*
X175026978Y-119881819D01*
X175016048Y-119863094D01*
X174984026Y-119813557D01*
X174965677Y-119760640D01*
X174964157Y-119714232D01*
X174981010Y-119682300D01*
X174999508Y-119672627D01*
X175039546Y-119675973D01*
X175091252Y-119704822D01*
X175155793Y-119759692D01*
X175212482Y-119808477D01*
X175294103Y-119867427D01*
X175381410Y-119921025D01*
X175465521Y-119963896D01*
X175537554Y-119990669D01*
X175565779Y-119998174D01*
X175601342Y-120007342D01*
X175617175Y-120010996D01*
X175616945Y-120010203D01*
X175603553Y-119996018D01*
X175574344Y-119967726D01*
X175534219Y-119930107D01*
X175527233Y-119923580D01*
X175483135Y-119879725D01*
X175447189Y-119839744D01*
X175426609Y-119811580D01*
X175422701Y-119805056D01*
X175383124Y-119768835D01*
X175315400Y-119737484D01*
X175218742Y-119710619D01*
X175179310Y-119699088D01*
X175144770Y-119677476D01*
X175139074Y-119651146D01*
X175162722Y-119620897D01*
X175165398Y-119619078D01*
X175196034Y-119611651D01*
X175243029Y-119610215D01*
X175295320Y-119614046D01*
X175341843Y-119622417D01*
X175371534Y-119634601D01*
X175376199Y-119637651D01*
X175405980Y-119651345D01*
X175447537Y-119666234D01*
X175449272Y-119666791D01*
X175496979Y-119686255D01*
X175544659Y-119711907D01*
X175582969Y-119738137D01*
X175602567Y-119759333D01*
X175616214Y-119767370D01*
X175647576Y-119771737D01*
X175658801Y-119773206D01*
X175698709Y-119789118D01*
X175739528Y-119816746D01*
X175754778Y-119829228D01*
X175787202Y-119852084D01*
X175807444Y-119861145D01*
X175819421Y-119866649D01*
X175847822Y-119888841D01*
X175883025Y-119922240D01*
X175897507Y-119937040D01*
X175948351Y-119987422D01*
X175987555Y-120021619D01*
X176022096Y-120044434D01*
X176058952Y-120060671D01*
X176105102Y-120075135D01*
X176117741Y-120078643D01*
X176194564Y-120095870D01*
X176268832Y-120106374D01*
X176336065Y-120110308D01*
X176391782Y-120107827D01*
X176431502Y-120099085D01*
X176450744Y-120084237D01*
X176445027Y-120063436D01*
X176432814Y-120051508D01*
X176411798Y-120041180D01*
X176405129Y-120039331D01*
X176378118Y-120024134D01*
X176342371Y-119998608D01*
X176339207Y-119996205D01*
X176295788Y-119968677D01*
X176237199Y-119937632D01*
X176175180Y-119909342D01*
X176157858Y-119902098D01*
X176057548Y-119858033D01*
X175963302Y-119813263D01*
X175880624Y-119770606D01*
X175815020Y-119732880D01*
X175771993Y-119702904D01*
X175761252Y-119693103D01*
X175731967Y-119651201D01*
X175726360Y-119610522D01*
X175745795Y-119577583D01*
X175747798Y-119576191D01*
X175776999Y-119569219D01*
X175824136Y-119567874D01*
X175879157Y-119571542D01*
X175932009Y-119579608D01*
X175972640Y-119591457D01*
X175990059Y-119598903D01*
X176031998Y-119616554D01*
X176081412Y-119637144D01*
X176114609Y-119652141D01*
X176147463Y-119670541D01*
X176160177Y-119682957D01*
X176162810Y-119689074D01*
X176182980Y-119696112D01*
X176191932Y-119697668D01*
X176224786Y-119711031D01*
X176265198Y-119733620D01*
X176283911Y-119745155D01*
X176316646Y-119763778D01*
X176333639Y-119771127D01*
X176337921Y-119772864D01*
X176360953Y-119788346D01*
X176396444Y-119815213D01*
X176437188Y-119847766D01*
X176475979Y-119880305D01*
X176505608Y-119907131D01*
X176507779Y-119909029D01*
X176536853Y-119925483D01*
X176584388Y-119945387D01*
X176641249Y-119964853D01*
X176701937Y-119983723D01*
X176768522Y-120005516D01*
X176812999Y-120021980D01*
X176839418Y-120034660D01*
X176851828Y-120045098D01*
X176856975Y-120048106D01*
X176885913Y-120053473D01*
X176931726Y-120057009D01*
X176985420Y-120058552D01*
X177038003Y-120057940D01*
X177080480Y-120055014D01*
X177103859Y-120049611D01*
X177110505Y-120031695D01*
X177102685Y-120003477D01*
X177085601Y-119977540D01*
X177064977Y-119966165D01*
X177055681Y-119964281D01*
X177036509Y-119945577D01*
X177027365Y-119933230D01*
X176999016Y-119903885D01*
X176956757Y-119864038D01*
X176905704Y-119818653D01*
X176826417Y-119748752D01*
X176748245Y-119675682D01*
X176682609Y-119608520D01*
X176623060Y-119540927D01*
X176598180Y-119508599D01*
X176585209Y-119480320D01*
X176589872Y-119459183D01*
X176590192Y-119458680D01*
X176609310Y-119438567D01*
X176638952Y-119425246D01*
X176682914Y-119418448D01*
X176744993Y-119417904D01*
X176828986Y-119423347D01*
X176938689Y-119434507D01*
X176939428Y-119434592D01*
X176982419Y-119445418D01*
X177014885Y-119463150D01*
X177033301Y-119476847D01*
X177056651Y-119486071D01*
X177066235Y-119487928D01*
X177100101Y-119498604D01*
X177149078Y-119516122D01*
X177205230Y-119537437D01*
X177260616Y-119559505D01*
X177307298Y-119579280D01*
X177337337Y-119593719D01*
X177350026Y-119600764D01*
X177388867Y-119621884D01*
X177434605Y-119646387D01*
X177456493Y-119658606D01*
X177501355Y-119686906D01*
X177532901Y-119711072D01*
X177537929Y-119715479D01*
X177575603Y-119740883D01*
X177620780Y-119763680D01*
X177625183Y-119765509D01*
X177654218Y-119776217D01*
X177666793Y-119775829D01*
X177662124Y-119761439D01*
X177639425Y-119730140D01*
X177597912Y-119679027D01*
X177572901Y-119646514D01*
X177549488Y-119610118D01*
X177540449Y-119587282D01*
X177540448Y-119587153D01*
X177531577Y-119560318D01*
X177510443Y-119526986D01*
X177502735Y-119515785D01*
X177484148Y-119463405D01*
X177484077Y-119406980D01*
X177503108Y-119359854D01*
X177516077Y-119347398D01*
X177558151Y-119332803D01*
X177611860Y-119335447D01*
X177669757Y-119353422D01*
X177724395Y-119384823D01*
X177768324Y-119427743D01*
X177784049Y-119447134D01*
X177826518Y-119494336D01*
X177884940Y-119555569D01*
X177955327Y-119626968D01*
X178033692Y-119704669D01*
X178116048Y-119784804D01*
X178198407Y-119863510D01*
X178276782Y-119936920D01*
X178347186Y-120001170D01*
X178405630Y-120052393D01*
X178448127Y-120086726D01*
X178469997Y-120102888D01*
X178544070Y-120156693D01*
X178597248Y-120193444D01*
X178631558Y-120214499D01*
X178649029Y-120221216D01*
X178650340Y-120221315D01*
X178673116Y-120228812D01*
X178707886Y-120244575D01*
X178746306Y-120257285D01*
X178798017Y-120265606D01*
X178851504Y-120268409D01*
X178896456Y-120265175D01*
X178922560Y-120255384D01*
X178924955Y-120251656D01*
X178925683Y-120222917D01*
X178913510Y-120177030D01*
X178907763Y-120159843D01*
X178895572Y-120115509D01*
X178890715Y-120084665D01*
X178888602Y-120064789D01*
X178880544Y-120041722D01*
X178864388Y-120013527D01*
X178837985Y-119977487D01*
X178799185Y-119930883D01*
X178745838Y-119870997D01*
X178675794Y-119795111D01*
X178586905Y-119700507D01*
X178541368Y-119651564D01*
X178489267Y-119593538D01*
X178447842Y-119545032D01*
X178420492Y-119510055D01*
X178410620Y-119492619D01*
X178416770Y-119471741D01*
X178436459Y-119441233D01*
X178440936Y-119436297D01*
X178468251Y-119415988D01*
X178491078Y-119411883D01*
X178500638Y-119426059D01*
X178502270Y-119432009D01*
X178520425Y-119441062D01*
X178536442Y-119449503D01*
X178569449Y-119475286D01*
X178613868Y-119513879D01*
X178664799Y-119560672D01*
X178717341Y-119611054D01*
X178766592Y-119660413D01*
X178807652Y-119704137D01*
X178835618Y-119737616D01*
X178846995Y-119751682D01*
X178885906Y-119793209D01*
X178939614Y-119845605D01*
X179002224Y-119903484D01*
X179067837Y-119961463D01*
X179130559Y-120014157D01*
X179184493Y-120056183D01*
X179215935Y-120079657D01*
X179252105Y-120107806D01*
X179272920Y-120125502D01*
X179275772Y-120128104D01*
X179303281Y-120147235D01*
X179341537Y-120168928D01*
X179373130Y-120186582D01*
X179424194Y-120217757D01*
X179476670Y-120251972D01*
X179555583Y-120301695D01*
X179668968Y-120357537D01*
X179778249Y-120390489D01*
X179889444Y-120402749D01*
X179943529Y-120402169D01*
X180009292Y-120392733D01*
X180048165Y-120372528D01*
X180060945Y-120341267D01*
X180058489Y-120321214D01*
X180043902Y-120271304D01*
X180019621Y-120210788D01*
X179989613Y-120149114D01*
X179957846Y-120095733D01*
X179946602Y-120078584D01*
X179915585Y-120028306D01*
X179878810Y-119965975D01*
X179842027Y-119901245D01*
X179821893Y-119865057D01*
X179790742Y-119809155D01*
X179766053Y-119764954D01*
X179751879Y-119739719D01*
X179747827Y-119733037D01*
X179720778Y-119695197D01*
X179680188Y-119643835D01*
X179631665Y-119585579D01*
X179580817Y-119527055D01*
X179533254Y-119474890D01*
X179494583Y-119435711D01*
X179488715Y-119430155D01*
X179450643Y-119390646D01*
X179434399Y-119362339D01*
X179438200Y-119338912D01*
X179460264Y-119314046D01*
X179469700Y-119306137D01*
X179483862Y-119299589D01*
X179502989Y-119300641D01*
G37*
G36*
X170850843Y-119156006D02*
G01*
X170851061Y-119156196D01*
X170863356Y-119172022D01*
X170888592Y-119207449D01*
X170920521Y-119253525D01*
X170923206Y-119257399D01*
X170963637Y-119316794D01*
X171009901Y-119382253D01*
X171088609Y-119477901D01*
X171167778Y-119553091D01*
X171186801Y-119568566D01*
X171231443Y-119603109D01*
X171265678Y-119627109D01*
X171283295Y-119636100D01*
X171288453Y-119637377D01*
X171313800Y-119652027D01*
X171347458Y-119677790D01*
X171367142Y-119694013D01*
X171420108Y-119734187D01*
X171470765Y-119768405D01*
X171512233Y-119792207D01*
X171537636Y-119801133D01*
X171539570Y-119801325D01*
X171564642Y-119810386D01*
X171606381Y-119830307D01*
X171656853Y-119857348D01*
X171725812Y-119894443D01*
X171793322Y-119925022D01*
X171855296Y-119944890D01*
X171921825Y-119957877D01*
X171940689Y-119961210D01*
X171978384Y-119971422D01*
X171997393Y-119982035D01*
X172007968Y-119988700D01*
X172041987Y-119994648D01*
X172088291Y-119995418D01*
X172136420Y-119991039D01*
X172175916Y-119981540D01*
X172199012Y-119966738D01*
X172213678Y-119931787D01*
X172204888Y-119884850D01*
X172172725Y-119829844D01*
X172141956Y-119793794D01*
X172084837Y-119736611D01*
X172016226Y-119675041D01*
X171943876Y-119615962D01*
X171875540Y-119566251D01*
X171842638Y-119542291D01*
X171796988Y-119503235D01*
X171765110Y-119468939D01*
X171745515Y-119439260D01*
X171739831Y-119414253D01*
X171750185Y-119386915D01*
X171751286Y-119384858D01*
X171765371Y-119361651D01*
X171780217Y-119353631D01*
X171804482Y-119360273D01*
X171846828Y-119381050D01*
X171860420Y-119387568D01*
X171905017Y-119404336D01*
X171939405Y-119411056D01*
X171952093Y-119413227D01*
X171991029Y-119426581D01*
X172044332Y-119449408D01*
X172104331Y-119478569D01*
X172118143Y-119485584D01*
X172190475Y-119518858D01*
X172248311Y-119539508D01*
X172288775Y-119546945D01*
X172308991Y-119540581D01*
X172306083Y-119519827D01*
X172295875Y-119506612D01*
X172265944Y-119473277D01*
X172219703Y-119424135D01*
X172160017Y-119362094D01*
X172089754Y-119290060D01*
X172011783Y-119210941D01*
X171928970Y-119127643D01*
X171844183Y-119043073D01*
X171760291Y-118960139D01*
X171680159Y-118881746D01*
X171606657Y-118810803D01*
X171528114Y-118736209D01*
X171422457Y-118638293D01*
X171330511Y-118556575D01*
X171248261Y-118487518D01*
X171171695Y-118427587D01*
X171162606Y-118420739D01*
X171080842Y-118358868D01*
X171020182Y-118312188D01*
X170977865Y-118278283D01*
X170951131Y-118254741D01*
X170937221Y-118239145D01*
X170933374Y-118229083D01*
X170936831Y-118222140D01*
X170937532Y-118221528D01*
X170960064Y-118222230D01*
X171005144Y-118241744D01*
X171073080Y-118280202D01*
X171096754Y-118294483D01*
X171156719Y-118330577D01*
X171209549Y-118362272D01*
X171245975Y-118384004D01*
X171261392Y-118393780D01*
X171308665Y-118428330D01*
X171354015Y-118466520D01*
X171370973Y-118481866D01*
X171415427Y-118520264D01*
X171452948Y-118550470D01*
X171469452Y-118563862D01*
X171508461Y-118598117D01*
X171557651Y-118643228D01*
X171610184Y-118692998D01*
X171645895Y-118726922D01*
X171692724Y-118769899D01*
X171729835Y-118802192D01*
X171751396Y-118818614D01*
X171751921Y-118818924D01*
X171772457Y-118835212D01*
X171808421Y-118867465D01*
X171855671Y-118911625D01*
X171910064Y-118963635D01*
X171967455Y-119019435D01*
X172023703Y-119074970D01*
X172074663Y-119126181D01*
X172116193Y-119169010D01*
X172144149Y-119199399D01*
X172154388Y-119213292D01*
X172155696Y-119216481D01*
X172172099Y-119237449D01*
X172203342Y-119271663D01*
X172244406Y-119313537D01*
X172261696Y-119330381D01*
X172298854Y-119364490D01*
X172324585Y-119385044D01*
X172334124Y-119388082D01*
X172334009Y-119387020D01*
X172325726Y-119364978D01*
X172306955Y-119325387D01*
X172281361Y-119276029D01*
X172280795Y-119274977D01*
X172252433Y-119220777D01*
X172228186Y-119171926D01*
X172213248Y-119138883D01*
X172212605Y-119137301D01*
X172199790Y-119109268D01*
X172176016Y-119059853D01*
X172143651Y-118993888D01*
X172105065Y-118916207D01*
X172062627Y-118831642D01*
X172040198Y-118787023D01*
X171999212Y-118704055D01*
X171970139Y-118642155D01*
X171951490Y-118597559D01*
X171941774Y-118566502D01*
X171939501Y-118545221D01*
X171943181Y-118529952D01*
X171951982Y-118513810D01*
X171971484Y-118497261D01*
X171995033Y-118501882D01*
X172023911Y-118529062D01*
X172059401Y-118580194D01*
X172102788Y-118656666D01*
X172155354Y-118759871D01*
X172175929Y-118802137D01*
X172208997Y-118872169D01*
X172235468Y-118930959D01*
X172253040Y-118973321D01*
X172259409Y-118994074D01*
X172260619Y-119001574D01*
X172273833Y-119033203D01*
X172296917Y-119072062D01*
X172307170Y-119087580D01*
X172326654Y-119120085D01*
X172334357Y-119137918D01*
X172336017Y-119144627D01*
X172343691Y-119163590D01*
X172358728Y-119196580D01*
X172382349Y-119246155D01*
X172415778Y-119314871D01*
X172460234Y-119405284D01*
X172516942Y-119519952D01*
X172540740Y-119569010D01*
X172565951Y-119623738D01*
X172583127Y-119664434D01*
X172589474Y-119684747D01*
X172592423Y-119698113D01*
X172605587Y-119733462D01*
X172625730Y-119778391D01*
X172667608Y-119866908D01*
X172720595Y-119986169D01*
X172758539Y-120083181D01*
X172781993Y-120159879D01*
X172791507Y-120218199D01*
X172787635Y-120260076D01*
X172770927Y-120287446D01*
X172766895Y-120290844D01*
X172726201Y-120308554D01*
X172682228Y-120307359D01*
X172648281Y-120287277D01*
X172645438Y-120283769D01*
X172636949Y-120264105D01*
X172653945Y-120249024D01*
X172663533Y-120242774D01*
X172675998Y-120227393D01*
X172679733Y-120204408D01*
X172673884Y-120169932D01*
X172657600Y-120120076D01*
X172630029Y-120050949D01*
X172590319Y-119958664D01*
X172566530Y-119904408D01*
X172532627Y-119830100D01*
X172503156Y-119775418D01*
X172473079Y-119735496D01*
X172437359Y-119705471D01*
X172390960Y-119680479D01*
X172328844Y-119655655D01*
X172245975Y-119626135D01*
X172231990Y-119621208D01*
X172173422Y-119600982D01*
X172138293Y-119590314D01*
X172122594Y-119588624D01*
X172122317Y-119595331D01*
X172133453Y-119609857D01*
X172157930Y-119636227D01*
X172185326Y-119661085D01*
X172195865Y-119670945D01*
X172222892Y-119702808D01*
X172252797Y-119743748D01*
X172269540Y-119768084D01*
X172292606Y-119800340D01*
X172305168Y-119816136D01*
X172307959Y-119818852D01*
X172329983Y-119849116D01*
X172353346Y-119891566D01*
X172371884Y-119933933D01*
X172379433Y-119963949D01*
X172378776Y-119970307D01*
X172364741Y-120004261D01*
X172338175Y-120040825D01*
X172330308Y-120049258D01*
X172307419Y-120069383D01*
X172281454Y-120080822D01*
X172243438Y-120086376D01*
X172184394Y-120088850D01*
X172179037Y-120088969D01*
X172120285Y-120087987D01*
X172071177Y-120083371D01*
X172041866Y-120076034D01*
X172029010Y-120070797D01*
X171987210Y-120059956D01*
X171936846Y-120051854D01*
X171931680Y-120051224D01*
X171853606Y-120033989D01*
X171758727Y-120001878D01*
X171653665Y-119957876D01*
X171545039Y-119904969D01*
X171439469Y-119846141D01*
X171343577Y-119784377D01*
X171300440Y-119755099D01*
X171266959Y-119734121D01*
X171250574Y-119726118D01*
X171249022Y-119727271D01*
X171251140Y-119745663D01*
X171262983Y-119779354D01*
X171272634Y-119804152D01*
X171276674Y-119830348D01*
X171267476Y-119856810D01*
X171242957Y-119895627D01*
X171224998Y-119919694D01*
X171166968Y-119970735D01*
X171091045Y-120003858D01*
X170992758Y-120021307D01*
X170954779Y-120023157D01*
X170868443Y-120014781D01*
X170773364Y-119988055D01*
X170663366Y-119941484D01*
X170608600Y-119915368D01*
X170567584Y-119962685D01*
X170567282Y-119963033D01*
X170534459Y-119993234D01*
X170493163Y-120013345D01*
X170432629Y-120028628D01*
X170396278Y-120035376D01*
X170357123Y-120039451D01*
X170320762Y-120036577D01*
X170276861Y-120025661D01*
X170215086Y-120005608D01*
X170192905Y-119998113D01*
X170137712Y-119979272D01*
X170095498Y-119964586D01*
X170074002Y-119956736D01*
X170060106Y-119960400D01*
X170046061Y-119984093D01*
X170045037Y-119987170D01*
X170025927Y-120022778D01*
X169996972Y-120059934D01*
X169971134Y-120083196D01*
X169936824Y-120097545D01*
X169886691Y-120101192D01*
X169885738Y-120101190D01*
X169796097Y-120088295D01*
X169690556Y-120050279D01*
X169569439Y-119987256D01*
X169545061Y-119973235D01*
X169508177Y-119954358D01*
X169491379Y-119950898D01*
X169491456Y-119961809D01*
X169497171Y-119976702D01*
X169508248Y-120037984D01*
X169496873Y-120086965D01*
X169464959Y-120119438D01*
X169414420Y-120131198D01*
X169413622Y-120131196D01*
X169370361Y-120126987D01*
X169337380Y-120117112D01*
X169318553Y-120107512D01*
X169277752Y-120087680D01*
X169228813Y-120064546D01*
X169223328Y-120061960D01*
X169166310Y-120032135D01*
X169111111Y-119998758D01*
X169063967Y-119966114D01*
X169031109Y-119938488D01*
X169018771Y-119920165D01*
X169018343Y-119916843D01*
X169003768Y-119906154D01*
X169002271Y-119906184D01*
X168990216Y-119913300D01*
X168995046Y-119934690D01*
X169017928Y-119972935D01*
X169060029Y-120030616D01*
X169063085Y-120034629D01*
X169108667Y-120096116D01*
X169159523Y-120166956D01*
X169205206Y-120232612D01*
X169209997Y-120239613D01*
X169253027Y-120297539D01*
X169285711Y-120330681D01*
X169310175Y-120341239D01*
X169313262Y-120341370D01*
X169345906Y-120347109D01*
X169395920Y-120359650D01*
X169453806Y-120376651D01*
X169519114Y-120396984D01*
X169603365Y-120422827D01*
X169678901Y-120445635D01*
X169700049Y-120452104D01*
X169843014Y-120504814D01*
X169970670Y-120567660D01*
X170080579Y-120638596D01*
X170170305Y-120715576D01*
X170237413Y-120796551D01*
X170279464Y-120879477D01*
X170294022Y-120962306D01*
X170292357Y-120981588D01*
X170291003Y-120997273D01*
X170275314Y-121032648D01*
X170240444Y-121070862D01*
X170202205Y-121102413D01*
X170165128Y-121117702D01*
X170115303Y-121121393D01*
X170082090Y-121120057D01*
X169994883Y-121103985D01*
X169903125Y-121068661D01*
X169804681Y-121012765D01*
X169697417Y-120934975D01*
X169579197Y-120833971D01*
X169447887Y-120708432D01*
X169390549Y-120651705D01*
X169326829Y-120590666D01*
X169277036Y-120546281D01*
X169259703Y-120532794D01*
X169474854Y-120532794D01*
X169491993Y-120558165D01*
X169524431Y-120596135D01*
X169568373Y-120642704D01*
X169620024Y-120693874D01*
X169675589Y-120745643D01*
X169731273Y-120794013D01*
X169751659Y-120811070D01*
X169790988Y-120844443D01*
X169818908Y-120868732D01*
X169841324Y-120885301D01*
X169883713Y-120911849D01*
X169933669Y-120939996D01*
X169967894Y-120956593D01*
X170027467Y-120978259D01*
X170074829Y-120986366D01*
X170083081Y-120986310D01*
X170115751Y-120984709D01*
X170128990Y-120981588D01*
X170127416Y-120974518D01*
X170119423Y-120945440D01*
X170106940Y-120902561D01*
X170093779Y-120866424D01*
X170059750Y-120808876D01*
X170008955Y-120756346D01*
X169938187Y-120706334D01*
X169844240Y-120656339D01*
X169723910Y-120603863D01*
X169711801Y-120598969D01*
X169618033Y-120562374D01*
X169548801Y-120538166D01*
X169501922Y-120525644D01*
X169475213Y-120524108D01*
X169474854Y-120532794D01*
X169259703Y-120532794D01*
X169237424Y-120515459D01*
X169204246Y-120495107D01*
X169173757Y-120482130D01*
X169149403Y-120472956D01*
X169109056Y-120453367D01*
X169086141Y-120436025D01*
X169079669Y-120430045D01*
X169047575Y-120415414D01*
X169003242Y-120405431D01*
X168987389Y-120402925D01*
X168939332Y-120390925D01*
X168904782Y-120376192D01*
X168900717Y-120373772D01*
X168861824Y-120358948D01*
X168814765Y-120349617D01*
X168808808Y-120348942D01*
X168765354Y-120343014D01*
X168699946Y-120333166D01*
X168618825Y-120320393D01*
X168528238Y-120305691D01*
X168434428Y-120290056D01*
X168343638Y-120274483D01*
X168341452Y-120274106D01*
X168296617Y-120268028D01*
X168261122Y-120265770D01*
X168241628Y-120264986D01*
X168192466Y-120258863D01*
X168132948Y-120248201D01*
X168071081Y-120234798D01*
X168014869Y-120220456D01*
X167972319Y-120206973D01*
X167951435Y-120196149D01*
X167943409Y-120184026D01*
X167941469Y-120168296D01*
X167955050Y-120166846D01*
X167993884Y-120166972D01*
X168052527Y-120168673D01*
X168125633Y-120171670D01*
X168207858Y-120175682D01*
X168293856Y-120180430D01*
X168378282Y-120185632D01*
X168455792Y-120191009D01*
X168521041Y-120196282D01*
X168568683Y-120201168D01*
X168602686Y-120205133D01*
X168641499Y-120208855D01*
X168660310Y-120209526D01*
X168661477Y-120209481D01*
X168683686Y-120212232D01*
X168728518Y-120219334D01*
X168790173Y-120229837D01*
X168862850Y-120242787D01*
X168877471Y-120245423D01*
X168948076Y-120257546D01*
X169006274Y-120266557D01*
X169046374Y-120271626D01*
X169062686Y-120271923D01*
X169063229Y-120270281D01*
X169054288Y-120252800D01*
X169031568Y-120224810D01*
X169011932Y-120201888D01*
X168979087Y-120159850D01*
X168944857Y-120113008D01*
X168914231Y-120068456D01*
X168892198Y-120033287D01*
X168883745Y-120014595D01*
X168883545Y-120013442D01*
X168872791Y-119993731D01*
X168848895Y-119958099D01*
X168816389Y-119913360D01*
X168811746Y-119907133D01*
X168779950Y-119861987D01*
X168757455Y-119825721D01*
X168748876Y-119805695D01*
X168746997Y-119799791D01*
X168732335Y-119771797D01*
X168706115Y-119727336D01*
X168671924Y-119672065D01*
X168633351Y-119611644D01*
X168593982Y-119551732D01*
X168557406Y-119497986D01*
X168527209Y-119456065D01*
X168518944Y-119444591D01*
X168491289Y-119402029D01*
X168463453Y-119354741D01*
X168446658Y-119323729D01*
X168436794Y-119298645D01*
X168440508Y-119283468D01*
X168457118Y-119268951D01*
X168479517Y-119255500D01*
X168509083Y-119246501D01*
X168525406Y-119249325D01*
X168558098Y-119265065D01*
X168586536Y-119287438D01*
X168598689Y-119308163D01*
X168600754Y-119313771D01*
X168617944Y-119339338D01*
X168648784Y-119378348D01*
X168688706Y-119424878D01*
X168707990Y-119446895D01*
X168744251Y-119490325D01*
X168769347Y-119523271D01*
X168778724Y-119539916D01*
X168788704Y-119555337D01*
X168816461Y-119586774D01*
X168857506Y-119629726D01*
X168907348Y-119679812D01*
X168961495Y-119732648D01*
X169015455Y-119783854D01*
X169064736Y-119829048D01*
X169104846Y-119863846D01*
X169131293Y-119883867D01*
X169172780Y-119912246D01*
X169213810Y-119944812D01*
X169252465Y-119970234D01*
X169299324Y-119988115D01*
X169303495Y-119988991D01*
X169333424Y-119993311D01*
X169341547Y-119983892D01*
X169334699Y-119954180D01*
X169326406Y-119932156D01*
X169296985Y-119877396D01*
X169253775Y-119811924D01*
X169201558Y-119742733D01*
X169145114Y-119676819D01*
X169142839Y-119674331D01*
X169095935Y-119614600D01*
X169069649Y-119562892D01*
X169064401Y-119522224D01*
X169080607Y-119495612D01*
X169118685Y-119486071D01*
X169136912Y-119489487D01*
X169163280Y-119503765D01*
X169198593Y-119531902D01*
X169246448Y-119576813D01*
X169310444Y-119641410D01*
X169327354Y-119658657D01*
X169385535Y-119715743D01*
X169439362Y-119765390D01*
X169483461Y-119802767D01*
X169512457Y-119823041D01*
X169516941Y-119825390D01*
X169558811Y-119850576D01*
X169590920Y-119874825D01*
X169615948Y-119891062D01*
X169660051Y-119913228D01*
X169713818Y-119937174D01*
X169768149Y-119959047D01*
X169813946Y-119974996D01*
X169842108Y-119981168D01*
X169852254Y-119974698D01*
X169858937Y-119949378D01*
X169858565Y-119946371D01*
X169843063Y-119918427D01*
X169805133Y-119871850D01*
X169745253Y-119807189D01*
X169663898Y-119724993D01*
X169615498Y-119676805D01*
X169553131Y-119612432D01*
X169509808Y-119563309D01*
X169483525Y-119526422D01*
X169472277Y-119498760D01*
X169474058Y-119477312D01*
X169486863Y-119459066D01*
X169489882Y-119456176D01*
X169515379Y-119441570D01*
X169546155Y-119442260D01*
X169584928Y-119459855D01*
X169634418Y-119495960D01*
X169697342Y-119552180D01*
X169776420Y-119630122D01*
X169808574Y-119661899D01*
X169858429Y-119706060D01*
X169910280Y-119743581D01*
X169972737Y-119780418D01*
X170054409Y-119822532D01*
X170077821Y-119834064D01*
X170156283Y-119870622D01*
X170218102Y-119894902D01*
X170270503Y-119909462D01*
X170320712Y-119916861D01*
X170334384Y-119918088D01*
X170379565Y-119921157D01*
X170403312Y-119918711D01*
X170412510Y-119908699D01*
X170414046Y-119889071D01*
X170413795Y-119882088D01*
X170406132Y-119850728D01*
X170385091Y-119811722D01*
X170347056Y-119757990D01*
X170327225Y-119733851D01*
X170280292Y-119683193D01*
X170218941Y-119621743D01*
X170148479Y-119554632D01*
X170074218Y-119486992D01*
X170001465Y-119423955D01*
X169999804Y-119422558D01*
X169913277Y-119348183D01*
X169836275Y-119278895D01*
X169771579Y-119217425D01*
X169721969Y-119166506D01*
X169690226Y-119128870D01*
X169679131Y-119107250D01*
X169680607Y-119093707D01*
X169700873Y-119063180D01*
X169746906Y-119044892D01*
X169784671Y-119043493D01*
X169851003Y-119062738D01*
X169929079Y-119106097D01*
X170017347Y-119172245D01*
X170114254Y-119259854D01*
X170218248Y-119367598D01*
X170327775Y-119494150D01*
X170441283Y-119638183D01*
X170477323Y-119681422D01*
X170525357Y-119730246D01*
X170568364Y-119765666D01*
X170591023Y-119781312D01*
X170623227Y-119804718D01*
X170639090Y-119817961D01*
X170640894Y-119819914D01*
X170668049Y-119836454D01*
X170714729Y-119856137D01*
X170772406Y-119875988D01*
X170832552Y-119893034D01*
X170886639Y-119904300D01*
X170909972Y-119907223D01*
X170989582Y-119906275D01*
X171054231Y-119887792D01*
X171098362Y-119853116D01*
X171105625Y-119835734D01*
X171101998Y-119791734D01*
X171079046Y-119734271D01*
X171038668Y-119667564D01*
X170982758Y-119595834D01*
X170963639Y-119573514D01*
X170928049Y-119530514D01*
X170903412Y-119498689D01*
X170894192Y-119483690D01*
X170893392Y-119481778D01*
X170877132Y-119464563D01*
X170844232Y-119435498D01*
X170800372Y-119399672D01*
X170754365Y-119361169D01*
X170693559Y-119306975D01*
X170636027Y-119253525D01*
X170759114Y-119253525D01*
X170766615Y-119261027D01*
X170774117Y-119253525D01*
X170766615Y-119246024D01*
X170759114Y-119253525D01*
X170636027Y-119253525D01*
X170627467Y-119245572D01*
X170564075Y-119184244D01*
X170529794Y-119149855D01*
X170475083Y-119091856D01*
X170466188Y-119081000D01*
X170615023Y-119081000D01*
X170617735Y-119092287D01*
X170632968Y-119118498D01*
X170650300Y-119143032D01*
X170664691Y-119155086D01*
X170669096Y-119142075D01*
X170667988Y-119137108D01*
X170653829Y-119114638D01*
X170632380Y-119091579D01*
X170615168Y-119080991D01*
X170615023Y-119081000D01*
X170466188Y-119081000D01*
X170437020Y-119045403D01*
X170411468Y-119005176D01*
X170394290Y-118965853D01*
X170389144Y-118951011D01*
X170377118Y-118908478D01*
X170376566Y-118880459D01*
X170386788Y-118856792D01*
X170406984Y-118834151D01*
X170454265Y-118814167D01*
X170513199Y-118817509D01*
X170519708Y-118819605D01*
X170558805Y-118842368D01*
X170609413Y-118883125D01*
X170666231Y-118936931D01*
X170723958Y-118998840D01*
X170777291Y-119063905D01*
X170779170Y-119066376D01*
X170812029Y-119108943D01*
X170837727Y-119141082D01*
X170838600Y-119142075D01*
X170850843Y-119156006D01*
G37*
D12*
X172005111Y-98482035D02*
X171995087Y-98492059D01*
X171985063Y-98482035D01*
X171995087Y-98472012D01*
X172005111Y-98482035D01*
G36*
X172005111Y-98482035D02*
G01*
X171995087Y-98492059D01*
X171985063Y-98482035D01*
X171995087Y-98472012D01*
X172005111Y-98482035D01*
G37*
X163821659Y-89306679D02*
X163842833Y-89309279D01*
X163966078Y-89329193D01*
X164083285Y-89358091D01*
X164204324Y-89399257D01*
X164339065Y-89455975D01*
X164497376Y-89531529D01*
X164498774Y-89532224D01*
X164711154Y-89648762D01*
X164932170Y-89791801D01*
X165162578Y-89962128D01*
X165403137Y-90160534D01*
X165654601Y-90387807D01*
X165917728Y-90644736D01*
X166193275Y-90932110D01*
X166481998Y-91250718D01*
X166784655Y-91601350D01*
X167102000Y-91984794D01*
X167434793Y-92401839D01*
X167783788Y-92853274D01*
X168149743Y-93339888D01*
X168170900Y-93368523D01*
X168245896Y-93471508D01*
X168339891Y-93602246D01*
X168450137Y-93756812D01*
X168573886Y-93931281D01*
X168708391Y-94121725D01*
X168850903Y-94324221D01*
X168998675Y-94534841D01*
X169148960Y-94749659D01*
X169299008Y-94964751D01*
X169446073Y-95176190D01*
X169587407Y-95380050D01*
X169720261Y-95572405D01*
X169841888Y-95749331D01*
X169949540Y-95906900D01*
X170040470Y-96041187D01*
X170095017Y-96121958D01*
X170165261Y-96225057D01*
X170225676Y-96312660D01*
X170273153Y-96380307D01*
X170304582Y-96423534D01*
X170316856Y-96437879D01*
X170316096Y-96433635D01*
X170303142Y-96399166D01*
X170275779Y-96332911D01*
X170235475Y-96238170D01*
X170183698Y-96118241D01*
X170121914Y-95976424D01*
X170051591Y-95816018D01*
X169974197Y-95640322D01*
X169891200Y-95452637D01*
X169804066Y-95256261D01*
X169714264Y-95054493D01*
X169623260Y-94850634D01*
X169532522Y-94647981D01*
X169443519Y-94449836D01*
X169357716Y-94259496D01*
X169276582Y-94080261D01*
X169201585Y-93915431D01*
X169134191Y-93768305D01*
X169075868Y-93642182D01*
X169028084Y-93540362D01*
X168979564Y-93438522D01*
X168843607Y-93157958D01*
X168717717Y-92905521D01*
X168602526Y-92682335D01*
X168498670Y-92489527D01*
X168406782Y-92328221D01*
X168327496Y-92199541D01*
X168261446Y-92104614D01*
X168209266Y-92044564D01*
X168171590Y-92020515D01*
X168171114Y-92020430D01*
X168135173Y-92033563D01*
X168096488Y-92080550D01*
X168091364Y-92088682D01*
X168067080Y-92116969D01*
X168055785Y-92112765D01*
X168059201Y-92081281D01*
X168079047Y-92027730D01*
X168100458Y-91996126D01*
X168146534Y-91976966D01*
X168207284Y-91992797D01*
X168281286Y-92042827D01*
X168367117Y-92126260D01*
X168463355Y-92242303D01*
X168532059Y-92337026D01*
X168623020Y-92471979D01*
X168728965Y-92637052D01*
X168848166Y-92829346D01*
X168978895Y-93045962D01*
X169119424Y-93283999D01*
X169268024Y-93540559D01*
X169422967Y-93812741D01*
X169582525Y-94097646D01*
X169744968Y-94392375D01*
X169779920Y-94456269D01*
X169880177Y-94639289D01*
X169986721Y-94833465D01*
X170094454Y-95029526D01*
X170198281Y-95218200D01*
X170293104Y-95390217D01*
X170373827Y-95536305D01*
X170429436Y-95637017D01*
X170521051Y-95803770D01*
X170615828Y-95977138D01*
X170708095Y-96146714D01*
X170792180Y-96302087D01*
X170862412Y-96432851D01*
X170892234Y-96488459D01*
X170951177Y-96596939D01*
X171002837Y-96690134D01*
X171044361Y-96763000D01*
X171072897Y-96810489D01*
X171085590Y-96827555D01*
X171087675Y-96826712D01*
X171107924Y-96804624D01*
X171142006Y-96758621D01*
X171183822Y-96696819D01*
X171195093Y-96679849D01*
X171235540Y-96624479D01*
X171267255Y-96589386D01*
X171284164Y-96581546D01*
X171285024Y-96582931D01*
X171297181Y-96611222D01*
X171321287Y-96672030D01*
X171355744Y-96761105D01*
X171398959Y-96874198D01*
X171449335Y-97007057D01*
X171505277Y-97155433D01*
X171565188Y-97315076D01*
X171627474Y-97481736D01*
X171690539Y-97651163D01*
X171752786Y-97819107D01*
X171812620Y-97981317D01*
X171868446Y-98133544D01*
X171918668Y-98271538D01*
X171939348Y-98330184D01*
X171960025Y-98393615D01*
X171970681Y-98433140D01*
X171969291Y-98441940D01*
X171967579Y-98439708D01*
X171948974Y-98409564D01*
X171914106Y-98349510D01*
X171865371Y-98263855D01*
X171805166Y-98156907D01*
X171735887Y-98032974D01*
X171659932Y-97896364D01*
X171579697Y-97751386D01*
X171497578Y-97602346D01*
X171415972Y-97453554D01*
X171337277Y-97309318D01*
X171263888Y-97173945D01*
X171218437Y-97090734D01*
X171168637Y-97001947D01*
X171127612Y-96931461D01*
X171098696Y-96884984D01*
X171085226Y-96868223D01*
X171079676Y-96870577D01*
X171054129Y-96900025D01*
X171015598Y-96959235D01*
X170966629Y-97043212D01*
X170909767Y-97146962D01*
X170847559Y-97265490D01*
X170782550Y-97393801D01*
X170717287Y-97526899D01*
X170654316Y-97659792D01*
X170596182Y-97787482D01*
X170545432Y-97904977D01*
X170504612Y-98007280D01*
X170426785Y-98214135D01*
X170376355Y-98127564D01*
X170375524Y-98126135D01*
X170349118Y-98079974D01*
X170307436Y-98006244D01*
X170254481Y-97912068D01*
X170194262Y-97804571D01*
X170130785Y-97690879D01*
X170128430Y-97686655D01*
X170054827Y-97555754D01*
X169968086Y-97403192D01*
X169875291Y-97241325D01*
X169783523Y-97082510D01*
X169699865Y-96939103D01*
X169615873Y-96795373D01*
X169520147Y-96630458D01*
X169421828Y-96460150D01*
X169328591Y-96297746D01*
X169248114Y-96156542D01*
X169159063Y-96000254D01*
X168805230Y-95392898D01*
X168430496Y-94770057D01*
X168040886Y-94141783D01*
X167870035Y-93870793D01*
X167666730Y-93549876D01*
X167480716Y-93258377D01*
X167310076Y-92993524D01*
X167152893Y-92752545D01*
X167007249Y-92532669D01*
X166871227Y-92331123D01*
X166742908Y-92145136D01*
X166620377Y-91971936D01*
X166501714Y-91808751D01*
X166385003Y-91652810D01*
X166268326Y-91501339D01*
X166149766Y-91351569D01*
X166027405Y-91200726D01*
X165899326Y-91046039D01*
X165761078Y-90882949D01*
X165483640Y-90571476D01*
X165219049Y-90296738D01*
X164966584Y-90058149D01*
X164725524Y-89855123D01*
X164495150Y-89687073D01*
X164274741Y-89553412D01*
X164063576Y-89453555D01*
X163860937Y-89386916D01*
X163853756Y-89385134D01*
X163679863Y-89358629D01*
X163483804Y-89357066D01*
X163274487Y-89380541D01*
X163214345Y-89390715D01*
X163279747Y-89360407D01*
X163296044Y-89353351D01*
X163402883Y-89322290D01*
X163534104Y-89303364D01*
X163677699Y-89297764D01*
X163821659Y-89306679D01*
G36*
X163821659Y-89306679D02*
G01*
X163842833Y-89309279D01*
X163966078Y-89329193D01*
X164083285Y-89358091D01*
X164204324Y-89399257D01*
X164339065Y-89455975D01*
X164497376Y-89531529D01*
X164498774Y-89532224D01*
X164711154Y-89648762D01*
X164932170Y-89791801D01*
X165162578Y-89962128D01*
X165403137Y-90160534D01*
X165654601Y-90387807D01*
X165917728Y-90644736D01*
X166193275Y-90932110D01*
X166481998Y-91250718D01*
X166784655Y-91601350D01*
X167102000Y-91984794D01*
X167434793Y-92401839D01*
X167783788Y-92853274D01*
X168149743Y-93339888D01*
X168170900Y-93368523D01*
X168245896Y-93471508D01*
X168339891Y-93602246D01*
X168450137Y-93756812D01*
X168573886Y-93931281D01*
X168708391Y-94121725D01*
X168850903Y-94324221D01*
X168998675Y-94534841D01*
X169148960Y-94749659D01*
X169299008Y-94964751D01*
X169446073Y-95176190D01*
X169587407Y-95380050D01*
X169720261Y-95572405D01*
X169841888Y-95749331D01*
X169949540Y-95906900D01*
X170040470Y-96041187D01*
X170095017Y-96121958D01*
X170165261Y-96225057D01*
X170225676Y-96312660D01*
X170273153Y-96380307D01*
X170304582Y-96423534D01*
X170316856Y-96437879D01*
X170316096Y-96433635D01*
X170303142Y-96399166D01*
X170275779Y-96332911D01*
X170235475Y-96238170D01*
X170183698Y-96118241D01*
X170121914Y-95976424D01*
X170051591Y-95816018D01*
X169974197Y-95640322D01*
X169891200Y-95452637D01*
X169804066Y-95256261D01*
X169714264Y-95054493D01*
X169623260Y-94850634D01*
X169532522Y-94647981D01*
X169443519Y-94449836D01*
X169357716Y-94259496D01*
X169276582Y-94080261D01*
X169201585Y-93915431D01*
X169134191Y-93768305D01*
X169075868Y-93642182D01*
X169028084Y-93540362D01*
X168979564Y-93438522D01*
X168843607Y-93157958D01*
X168717717Y-92905521D01*
X168602526Y-92682335D01*
X168498670Y-92489527D01*
X168406782Y-92328221D01*
X168327496Y-92199541D01*
X168261446Y-92104614D01*
X168209266Y-92044564D01*
X168171590Y-92020515D01*
X168171114Y-92020430D01*
X168135173Y-92033563D01*
X168096488Y-92080550D01*
X168091364Y-92088682D01*
X168067080Y-92116969D01*
X168055785Y-92112765D01*
X168059201Y-92081281D01*
X168079047Y-92027730D01*
X168100458Y-91996126D01*
X168146534Y-91976966D01*
X168207284Y-91992797D01*
X168281286Y-92042827D01*
X168367117Y-92126260D01*
X168463355Y-92242303D01*
X168532059Y-92337026D01*
X168623020Y-92471979D01*
X168728965Y-92637052D01*
X168848166Y-92829346D01*
X168978895Y-93045962D01*
X169119424Y-93283999D01*
X169268024Y-93540559D01*
X169422967Y-93812741D01*
X169582525Y-94097646D01*
X169744968Y-94392375D01*
X169779920Y-94456269D01*
X169880177Y-94639289D01*
X169986721Y-94833465D01*
X170094454Y-95029526D01*
X170198281Y-95218200D01*
X170293104Y-95390217D01*
X170373827Y-95536305D01*
X170429436Y-95637017D01*
X170521051Y-95803770D01*
X170615828Y-95977138D01*
X170708095Y-96146714D01*
X170792180Y-96302087D01*
X170862412Y-96432851D01*
X170892234Y-96488459D01*
X170951177Y-96596939D01*
X171002837Y-96690134D01*
X171044361Y-96763000D01*
X171072897Y-96810489D01*
X171085590Y-96827555D01*
X171087675Y-96826712D01*
X171107924Y-96804624D01*
X171142006Y-96758621D01*
X171183822Y-96696819D01*
X171195093Y-96679849D01*
X171235540Y-96624479D01*
X171267255Y-96589386D01*
X171284164Y-96581546D01*
X171285024Y-96582931D01*
X171297181Y-96611222D01*
X171321287Y-96672030D01*
X171355744Y-96761105D01*
X171398959Y-96874198D01*
X171449335Y-97007057D01*
X171505277Y-97155433D01*
X171565188Y-97315076D01*
X171627474Y-97481736D01*
X171690539Y-97651163D01*
X171752786Y-97819107D01*
X171812620Y-97981317D01*
X171868446Y-98133544D01*
X171918668Y-98271538D01*
X171939348Y-98330184D01*
X171960025Y-98393615D01*
X171970681Y-98433140D01*
X171969291Y-98441940D01*
X171967579Y-98439708D01*
X171948974Y-98409564D01*
X171914106Y-98349510D01*
X171865371Y-98263855D01*
X171805166Y-98156907D01*
X171735887Y-98032974D01*
X171659932Y-97896364D01*
X171579697Y-97751386D01*
X171497578Y-97602346D01*
X171415972Y-97453554D01*
X171337277Y-97309318D01*
X171263888Y-97173945D01*
X171218437Y-97090734D01*
X171168637Y-97001947D01*
X171127612Y-96931461D01*
X171098696Y-96884984D01*
X171085226Y-96868223D01*
X171079676Y-96870577D01*
X171054129Y-96900025D01*
X171015598Y-96959235D01*
X170966629Y-97043212D01*
X170909767Y-97146962D01*
X170847559Y-97265490D01*
X170782550Y-97393801D01*
X170717287Y-97526899D01*
X170654316Y-97659792D01*
X170596182Y-97787482D01*
X170545432Y-97904977D01*
X170504612Y-98007280D01*
X170426785Y-98214135D01*
X170376355Y-98127564D01*
X170375524Y-98126135D01*
X170349118Y-98079974D01*
X170307436Y-98006244D01*
X170254481Y-97912068D01*
X170194262Y-97804571D01*
X170130785Y-97690879D01*
X170128430Y-97686655D01*
X170054827Y-97555754D01*
X169968086Y-97403192D01*
X169875291Y-97241325D01*
X169783523Y-97082510D01*
X169699865Y-96939103D01*
X169615873Y-96795373D01*
X169520147Y-96630458D01*
X169421828Y-96460150D01*
X169328591Y-96297746D01*
X169248114Y-96156542D01*
X169159063Y-96000254D01*
X168805230Y-95392898D01*
X168430496Y-94770057D01*
X168040886Y-94141783D01*
X167870035Y-93870793D01*
X167666730Y-93549876D01*
X167480716Y-93258377D01*
X167310076Y-92993524D01*
X167152893Y-92752545D01*
X167007249Y-92532669D01*
X166871227Y-92331123D01*
X166742908Y-92145136D01*
X166620377Y-91971936D01*
X166501714Y-91808751D01*
X166385003Y-91652810D01*
X166268326Y-91501339D01*
X166149766Y-91351569D01*
X166027405Y-91200726D01*
X165899326Y-91046039D01*
X165761078Y-90882949D01*
X165483640Y-90571476D01*
X165219049Y-90296738D01*
X164966584Y-90058149D01*
X164725524Y-89855123D01*
X164495150Y-89687073D01*
X164274741Y-89553412D01*
X164063576Y-89453555D01*
X163860937Y-89386916D01*
X163853756Y-89385134D01*
X163679863Y-89358629D01*
X163483804Y-89357066D01*
X163274487Y-89380541D01*
X163214345Y-89390715D01*
X163279747Y-89360407D01*
X163296044Y-89353351D01*
X163402883Y-89322290D01*
X163534104Y-89303364D01*
X163677699Y-89297764D01*
X163821659Y-89306679D01*
G37*
X182160129Y-104626550D02*
X182157798Y-104828458D01*
X182153038Y-105041546D01*
X182145627Y-105227006D01*
X182135007Y-105391645D01*
X182120620Y-105542269D01*
X182101907Y-105685685D01*
X182078310Y-105828699D01*
X182049270Y-105978117D01*
X182048379Y-105982470D01*
X182030042Y-106093780D01*
X182020871Y-106196958D01*
X182020880Y-106284283D01*
X182030085Y-106348033D01*
X182048500Y-106380485D01*
X182050539Y-106380418D01*
X182064364Y-106357781D01*
X182085626Y-106303668D01*
X182112470Y-106224041D01*
X182143043Y-106124857D01*
X182175488Y-106012077D01*
X182207953Y-105891659D01*
X182238584Y-105769564D01*
X182255166Y-105696639D01*
X182289416Y-105522981D01*
X182323259Y-105323566D01*
X182355510Y-105107662D01*
X182384983Y-104884543D01*
X182410494Y-104663477D01*
X182430856Y-104453738D01*
X182444884Y-104264594D01*
X182451392Y-104105319D01*
X182452611Y-104054642D01*
X182455566Y-104023337D01*
X182461705Y-104024873D01*
X182472755Y-104055200D01*
X182475610Y-104066385D01*
X182483141Y-104125127D01*
X182488806Y-104215861D01*
X182492648Y-104332503D01*
X182494710Y-104468973D01*
X182495033Y-104619188D01*
X182493661Y-104777066D01*
X182490636Y-104936526D01*
X182486000Y-105091484D01*
X182479797Y-105235861D01*
X182472069Y-105363573D01*
X182462858Y-105468539D01*
X182420630Y-105804862D01*
X182366514Y-106137288D01*
X182303316Y-106444068D01*
X182242096Y-106681404D01*
X182232000Y-106720547D01*
X182153530Y-106962067D01*
X182150574Y-106970236D01*
X182120248Y-107067630D01*
X182095474Y-107169851D01*
X182081368Y-107256057D01*
X182079737Y-107271891D01*
X182039371Y-107509610D01*
X181972320Y-107723931D01*
X181879927Y-107912581D01*
X181763532Y-108073286D01*
X181624739Y-108203529D01*
X181624479Y-108203773D01*
X181464109Y-108301769D01*
X181452449Y-108307247D01*
X181372507Y-108342128D01*
X181299141Y-108370140D01*
X181246942Y-108385648D01*
X181207365Y-108398141D01*
X181139509Y-108429361D01*
X181070476Y-108469527D01*
X181010790Y-108507030D01*
X180781769Y-108625794D01*
X180528984Y-108722775D01*
X180326504Y-108777729D01*
X180261672Y-108795325D01*
X179989070Y-108840796D01*
X179720411Y-108856542D01*
X179682187Y-108857373D01*
X179628405Y-108865942D01*
X179581101Y-108889432D01*
X179522988Y-108934686D01*
X179447699Y-108995139D01*
X179230200Y-109137947D01*
X179002512Y-109242122D01*
X178764943Y-109307514D01*
X178636802Y-109323757D01*
X178462881Y-109327585D01*
X178284981Y-109314605D01*
X178120578Y-109285416D01*
X178017798Y-109253996D01*
X177886273Y-109202296D01*
X177746900Y-109138152D01*
X177612433Y-109067470D01*
X177495628Y-108996152D01*
X177363098Y-108901649D01*
X177187490Y-108758962D01*
X177010127Y-108594275D01*
X176828750Y-108405079D01*
X176667837Y-108219667D01*
X177593386Y-108219667D01*
X177597620Y-108229608D01*
X177625890Y-108261955D01*
X177674588Y-108312744D01*
X177740107Y-108378013D01*
X177784504Y-108420788D01*
X177909736Y-108531888D01*
X178027583Y-108619152D01*
X178148856Y-108690008D01*
X178284368Y-108751881D01*
X178367206Y-108780855D01*
X178463701Y-108800279D01*
X178580644Y-108808723D01*
X178606143Y-108809388D01*
X178687350Y-108809793D01*
X178753117Y-108807649D01*
X178791141Y-108803275D01*
X178817198Y-108795137D01*
X178844952Y-108777729D01*
X178832935Y-108761821D01*
X178781367Y-108748647D01*
X178727034Y-108737591D01*
X178623799Y-108709923D01*
X178502759Y-108672021D01*
X178375058Y-108627635D01*
X178251843Y-108580511D01*
X178144259Y-108534399D01*
X178136965Y-108531013D01*
X177984569Y-108453580D01*
X177805531Y-108350954D01*
X177598323Y-108222261D01*
X177593386Y-108219667D01*
X176667837Y-108219667D01*
X176641102Y-108188862D01*
X176556290Y-108082619D01*
X178746463Y-108082619D01*
X178759537Y-108092443D01*
X178804214Y-108109911D01*
X178873238Y-108132877D01*
X178959353Y-108159195D01*
X179055304Y-108186720D01*
X179153835Y-108213304D01*
X179247691Y-108236803D01*
X179329614Y-108255070D01*
X179339462Y-108257069D01*
X179441290Y-108277204D01*
X179512264Y-108288835D01*
X179560135Y-108291725D01*
X179592657Y-108285643D01*
X179617582Y-108270352D01*
X179642662Y-108245621D01*
X179647084Y-108240913D01*
X179665823Y-108219423D01*
X179672473Y-108203529D01*
X179662388Y-108191754D01*
X179630924Y-108182619D01*
X179573434Y-108174648D01*
X179485273Y-108166362D01*
X179361797Y-108156285D01*
X179245652Y-108145733D01*
X179122336Y-108132382D01*
X179009588Y-108118192D01*
X178922129Y-108104886D01*
X178891532Y-108099648D01*
X178819698Y-108088607D01*
X178768162Y-108082521D01*
X178746479Y-108082604D01*
X178746463Y-108082619D01*
X176556290Y-108082619D01*
X176456059Y-107957060D01*
X180723086Y-107957060D01*
X180727381Y-107962457D01*
X180748084Y-107967965D01*
X180798165Y-107975428D01*
X180866042Y-107982929D01*
X180996350Y-107995355D01*
X181116634Y-107897911D01*
X181200746Y-107826115D01*
X181401860Y-107621078D01*
X181587074Y-107381385D01*
X181757662Y-107105459D01*
X181782792Y-107058613D01*
X181815788Y-106983708D01*
X181833832Y-106912117D01*
X181842693Y-106824796D01*
X181851438Y-106681404D01*
X181751792Y-106876328D01*
X181621075Y-107109448D01*
X181459460Y-107342798D01*
X181281885Y-107544005D01*
X181085146Y-107716640D01*
X180866042Y-107864275D01*
X180850143Y-107873643D01*
X180784139Y-107912696D01*
X180745163Y-107936642D01*
X180726913Y-107949942D01*
X180723086Y-107957060D01*
X176456059Y-107957060D01*
X176444927Y-107943115D01*
X176237966Y-107665328D01*
X176017963Y-107352990D01*
X175958995Y-107267293D01*
X175942074Y-107242730D01*
X178159649Y-107242730D01*
X178169673Y-107252753D01*
X178179696Y-107242730D01*
X178169673Y-107232706D01*
X178159649Y-107242730D01*
X175942074Y-107242730D01*
X175884258Y-107158800D01*
X175818519Y-107063504D01*
X175765203Y-106986366D01*
X175727739Y-106932349D01*
X175709553Y-106906416D01*
X175676756Y-106883486D01*
X175608759Y-106861362D01*
X175503374Y-106839912D01*
X175455328Y-106831467D01*
X175002636Y-106731282D01*
X174549104Y-106594636D01*
X174101401Y-106424039D01*
X173666195Y-106222005D01*
X173250155Y-105991046D01*
X173128253Y-105915448D01*
X172710341Y-105626537D01*
X172317797Y-105307726D01*
X171952033Y-104960941D01*
X171614461Y-104588108D01*
X171306493Y-104191154D01*
X171029541Y-103772005D01*
X170785016Y-103332586D01*
X170574330Y-102874823D01*
X170398896Y-102400644D01*
X170260125Y-101911974D01*
X170196664Y-101627150D01*
X170147947Y-101352661D01*
X170113596Y-101080867D01*
X170092572Y-100801401D01*
X170083836Y-100503895D01*
X170086348Y-100177984D01*
X170087033Y-100148971D01*
X170095140Y-99913466D01*
X170107912Y-99705305D01*
X170126661Y-99513155D01*
X170152697Y-99325681D01*
X170187330Y-99131550D01*
X170231871Y-98919429D01*
X170286093Y-98675212D01*
X170241908Y-98619039D01*
X170228199Y-98602530D01*
X170186409Y-98554532D01*
X170124102Y-98484347D01*
X170045390Y-98396507D01*
X169954388Y-98295542D01*
X169855208Y-98185985D01*
X169751965Y-98072369D01*
X169648772Y-97959224D01*
X169549742Y-97851082D01*
X169458988Y-97752476D01*
X169380625Y-97667938D01*
X169318765Y-97601999D01*
X169244281Y-97526355D01*
X169144322Y-97430707D01*
X169035533Y-97331348D01*
X168925304Y-97234736D01*
X168821024Y-97147331D01*
X168730081Y-97075593D01*
X168659864Y-97025981D01*
X168655916Y-97023497D01*
X168567238Y-96981078D01*
X168477863Y-96967822D01*
X168444417Y-96967382D01*
X168409241Y-96964250D01*
X168405257Y-96955095D01*
X168426658Y-96936350D01*
X168434462Y-96930970D01*
X168499296Y-96914069D01*
X168589765Y-96927026D01*
X168705174Y-96969596D01*
X168844827Y-97041532D01*
X169008031Y-97142588D01*
X169017156Y-97148641D01*
X169140290Y-97234162D01*
X169273252Y-97333680D01*
X169419030Y-97449687D01*
X169580609Y-97584674D01*
X169760976Y-97741130D01*
X169963118Y-97921548D01*
X170190020Y-98128417D01*
X170202883Y-98140240D01*
X170279391Y-98209968D01*
X170332449Y-98256025D01*
X170367210Y-98281635D01*
X170388827Y-98290017D01*
X170402453Y-98284396D01*
X170413243Y-98267994D01*
X170424752Y-98248436D01*
X170437963Y-98241523D01*
X170454741Y-98261491D01*
X170482099Y-98312915D01*
X170495703Y-98339222D01*
X170530184Y-98403229D01*
X170558212Y-98451964D01*
X170559317Y-98453787D01*
X170563516Y-98468625D01*
X170541858Y-98454811D01*
X170495593Y-98413120D01*
X170448944Y-98370839D01*
X170411328Y-98341048D01*
X170393824Y-98332930D01*
X170390898Y-98338006D01*
X170377723Y-98373308D01*
X170359265Y-98431138D01*
X170338948Y-98499712D01*
X170320196Y-98567247D01*
X170306434Y-98621958D01*
X170301086Y-98652063D01*
X170304239Y-98660336D01*
X170327934Y-98696716D01*
X170371040Y-98754515D01*
X170429026Y-98827771D01*
X170497364Y-98910517D01*
X170511240Y-98927013D01*
X170595171Y-99027400D01*
X170681265Y-99131251D01*
X170760151Y-99227224D01*
X170822456Y-99303977D01*
X170848345Y-99336057D01*
X170910540Y-99412553D01*
X170989685Y-99509412D01*
X171080303Y-99619944D01*
X171176915Y-99737462D01*
X171274043Y-99855279D01*
X171344419Y-99940972D01*
X171443109Y-100063791D01*
X171524651Y-100170058D01*
X171594953Y-100268144D01*
X171659922Y-100366420D01*
X171725468Y-100473258D01*
X171797497Y-100597031D01*
X171917534Y-100805105D01*
X172175856Y-101239860D01*
X172431097Y-101650427D01*
X172689481Y-102046454D01*
X172957233Y-102437587D01*
X173240578Y-102833473D01*
X173372895Y-103017700D01*
X173488693Y-103186514D01*
X173592053Y-103346793D01*
X173690025Y-103509471D01*
X173789654Y-103685485D01*
X173797773Y-103700158D01*
X173878922Y-103843162D01*
X173968426Y-103995431D01*
X174059521Y-104145784D01*
X174145443Y-104283036D01*
X174219428Y-104396005D01*
X174268878Y-104471083D01*
X174346655Y-104594399D01*
X174434051Y-104737549D01*
X174525776Y-104891722D01*
X174616538Y-105048109D01*
X174701046Y-105197899D01*
X174754301Y-105293349D01*
X174852460Y-105466689D01*
X174954589Y-105644130D01*
X175058527Y-105822130D01*
X175162110Y-105997147D01*
X175263178Y-106165640D01*
X175359567Y-106324066D01*
X175449118Y-106468885D01*
X175529667Y-106596553D01*
X175599052Y-106703531D01*
X175655112Y-106786275D01*
X175695685Y-106841244D01*
X175718608Y-106864897D01*
X175754458Y-106877943D01*
X175837197Y-106894733D01*
X175950738Y-106908611D01*
X176089608Y-106919540D01*
X176248333Y-106927477D01*
X176421440Y-106932383D01*
X176603455Y-106934218D01*
X176788904Y-106932942D01*
X176972316Y-106928515D01*
X177148215Y-106920897D01*
X177311129Y-106910047D01*
X177455584Y-106895926D01*
X177576107Y-106878494D01*
X177576828Y-106878365D01*
X177685366Y-106878365D01*
X177691228Y-106888239D01*
X177722599Y-106918310D01*
X177775125Y-106962869D01*
X177842638Y-107016497D01*
X177896406Y-107057849D01*
X178002429Y-107137841D01*
X178078470Y-107192612D01*
X178124277Y-107221984D01*
X178139602Y-107225781D01*
X178139301Y-107224787D01*
X178120621Y-107205659D01*
X178077868Y-107169350D01*
X178017955Y-107121149D01*
X177947798Y-107066344D01*
X177874312Y-107010224D01*
X177804411Y-106958078D01*
X177745010Y-106915193D01*
X177703023Y-106886860D01*
X177685366Y-106878365D01*
X177576828Y-106878365D01*
X177644104Y-106866325D01*
X177327684Y-106567885D01*
X177484040Y-106693314D01*
X177527872Y-106728805D01*
X177588122Y-106778821D01*
X177631461Y-106816377D01*
X177650614Y-106835274D01*
X177655454Y-106840538D01*
X177688138Y-106850031D01*
X177749684Y-106848502D01*
X177843253Y-106835716D01*
X177972004Y-106811439D01*
X178002439Y-106804986D01*
X178081215Y-106787077D01*
X178175713Y-106764494D01*
X178278114Y-106739229D01*
X178380599Y-106713276D01*
X178475350Y-106688626D01*
X178554550Y-106667274D01*
X178610379Y-106651212D01*
X178635020Y-106642433D01*
X178633687Y-106640799D01*
X178664818Y-106640799D01*
X178667111Y-106645996D01*
X178692472Y-106673480D01*
X178741515Y-106720591D01*
X178809650Y-106783265D01*
X178892286Y-106857435D01*
X178984833Y-106939038D01*
X179082700Y-107024008D01*
X179181298Y-107108280D01*
X179276036Y-107187790D01*
X179322415Y-107225781D01*
X179343106Y-107242730D01*
X179362323Y-107258472D01*
X179391959Y-107282188D01*
X179498218Y-107364988D01*
X179607602Y-107447341D01*
X179708805Y-107520836D01*
X179790523Y-107577062D01*
X179846199Y-107612151D01*
X179920271Y-107654295D01*
X179980139Y-107683117D01*
X180016473Y-107693795D01*
X180027156Y-107692900D01*
X180049794Y-107683974D01*
X180075358Y-107662377D01*
X180106500Y-107624322D01*
X180145869Y-107566020D01*
X180196117Y-107483685D01*
X180259896Y-107373527D01*
X180339855Y-107231761D01*
X180348744Y-107215868D01*
X180431017Y-107066660D01*
X180504305Y-106928868D01*
X180571876Y-106795490D01*
X180637001Y-106659521D01*
X180702950Y-106513959D01*
X180772991Y-106351799D01*
X180850396Y-106166039D01*
X180938434Y-105949675D01*
X180980425Y-105846274D01*
X181035898Y-105711766D01*
X181085186Y-105594692D01*
X181126564Y-105499018D01*
X181158310Y-105428710D01*
X181178699Y-105387733D01*
X181186008Y-105380052D01*
X181185183Y-105391479D01*
X181176096Y-105443049D01*
X181158291Y-105524186D01*
X181133391Y-105628589D01*
X181103017Y-105749956D01*
X181068792Y-105881986D01*
X181032337Y-106018378D01*
X180995276Y-106152832D01*
X180959230Y-106279045D01*
X180925821Y-106390717D01*
X180906500Y-106451645D01*
X180853932Y-106607005D01*
X180791323Y-106781537D01*
X180723032Y-106963739D01*
X180653417Y-107142110D01*
X180586836Y-107305149D01*
X180527649Y-107441355D01*
X180521550Y-107454908D01*
X180494097Y-107519744D01*
X180476762Y-107567328D01*
X180473071Y-107588170D01*
X180473558Y-107588559D01*
X180498395Y-107585032D01*
X180549220Y-107565320D01*
X180618028Y-107533474D01*
X180696812Y-107493542D01*
X180777566Y-107449573D01*
X180852283Y-107405615D01*
X180912958Y-107365717D01*
X180929636Y-107353523D01*
X181050007Y-107253321D01*
X181174276Y-107131695D01*
X181290287Y-107001266D01*
X181385885Y-106874655D01*
X181423489Y-106815284D01*
X181490846Y-106695626D01*
X181562071Y-106555783D01*
X181631854Y-106406799D01*
X181694888Y-106259721D01*
X181745863Y-106125597D01*
X181806782Y-105950690D01*
X181767754Y-105711468D01*
X181754912Y-105635576D01*
X181729948Y-105497090D01*
X181702686Y-105354071D01*
X181677089Y-105227678D01*
X181675210Y-105218747D01*
X181656572Y-105126154D01*
X181642598Y-105049427D01*
X181634613Y-104996329D01*
X181633939Y-104974622D01*
X181637665Y-104974661D01*
X181654537Y-104999897D01*
X181680755Y-105058209D01*
X181714793Y-105145757D01*
X181755126Y-105258700D01*
X181800227Y-105393198D01*
X181803890Y-105404351D01*
X181833666Y-105489557D01*
X181859838Y-105555399D01*
X181879693Y-105595553D01*
X181890517Y-105603695D01*
X181898235Y-105580264D01*
X181911589Y-105521418D01*
X181927864Y-105437018D01*
X181945744Y-105334937D01*
X181963912Y-105223044D01*
X181981053Y-105109212D01*
X181995850Y-105001311D01*
X182006986Y-104907213D01*
X182012507Y-104850757D01*
X182021202Y-104746978D01*
X182029240Y-104634457D01*
X182036273Y-104520151D01*
X182041953Y-104411022D01*
X182045930Y-104314029D01*
X182047855Y-104236131D01*
X182047381Y-104184288D01*
X182044157Y-104165461D01*
X182037202Y-104171043D01*
X182010015Y-104202130D01*
X181968264Y-104254388D01*
X181917641Y-104320828D01*
X181734593Y-104553895D01*
X181405422Y-104922152D01*
X181046524Y-105266059D01*
X180660605Y-105583616D01*
X180250373Y-105872823D01*
X179818536Y-106131678D01*
X179367800Y-106358180D01*
X178900874Y-106550330D01*
X178896364Y-106551988D01*
X178808117Y-106584742D01*
X178735129Y-106612371D01*
X178684872Y-106632011D01*
X178664818Y-106640799D01*
X178633687Y-106640799D01*
X178626843Y-106632413D01*
X178594274Y-106597264D01*
X178540353Y-106540543D01*
X178468778Y-106466109D01*
X178383243Y-106377821D01*
X178287448Y-106279540D01*
X178259124Y-106250519D01*
X178086027Y-106071465D01*
X177900875Y-105877353D01*
X177707678Y-105672552D01*
X177510449Y-105461433D01*
X177313200Y-105248364D01*
X177119943Y-105037716D01*
X176934689Y-104833856D01*
X176761450Y-104641156D01*
X176604239Y-104463984D01*
X176467066Y-104306710D01*
X176353945Y-104173703D01*
X176312351Y-104126453D01*
X176240895Y-104049656D01*
X176147539Y-103952220D01*
X176036029Y-103837953D01*
X175910108Y-103710661D01*
X175773521Y-103574150D01*
X175630012Y-103432227D01*
X175483327Y-103288697D01*
X175402003Y-103209667D01*
X175227864Y-103040987D01*
X175078056Y-102896020D01*
X174949930Y-102771325D01*
X174840840Y-102663461D01*
X174748137Y-102568984D01*
X174669174Y-102484454D01*
X174601304Y-102406429D01*
X174541878Y-102331466D01*
X174488250Y-102256124D01*
X174437772Y-102176960D01*
X174387796Y-102090534D01*
X174335674Y-101993404D01*
X174278759Y-101882126D01*
X174214404Y-101753261D01*
X174139960Y-101603365D01*
X174052781Y-101428997D01*
X173988457Y-101300917D01*
X173875455Y-101075013D01*
X173758615Y-100840275D01*
X173636722Y-100594216D01*
X173508557Y-100334347D01*
X173372904Y-100058179D01*
X173228545Y-99763225D01*
X173074264Y-99446995D01*
X172908843Y-99107002D01*
X172731065Y-98740756D01*
X172539714Y-98345769D01*
X172333572Y-97919554D01*
X172111422Y-97459620D01*
X172072836Y-97379723D01*
X171976145Y-97179841D01*
X171884925Y-96991729D01*
X171800665Y-96818431D01*
X171724854Y-96662994D01*
X171658983Y-96528461D01*
X171604540Y-96417877D01*
X171563016Y-96334287D01*
X171535900Y-96280736D01*
X171524681Y-96260269D01*
X171516592Y-96261335D01*
X171488155Y-96285788D01*
X171446173Y-96333314D01*
X171396456Y-96397688D01*
X171284010Y-96551663D01*
X171262369Y-96494434D01*
X171250687Y-96463596D01*
X171191973Y-96309893D01*
X171123545Y-96132441D01*
X171048074Y-95938041D01*
X170968232Y-95733491D01*
X170886690Y-95525592D01*
X170806120Y-95321142D01*
X170729194Y-95126941D01*
X170658583Y-94949788D01*
X170596959Y-94796483D01*
X170546994Y-94673824D01*
X170488245Y-94531770D01*
X170422255Y-94374788D01*
X170366788Y-94246823D01*
X170319592Y-94143130D01*
X170278413Y-94058959D01*
X170241000Y-93989563D01*
X170205099Y-93930196D01*
X170168457Y-93876109D01*
X170148869Y-93848375D01*
X170114728Y-93796974D01*
X170104230Y-93772811D01*
X170116716Y-93772666D01*
X170151528Y-93793320D01*
X170171660Y-93809859D01*
X170222814Y-93868354D01*
X170289065Y-93960055D01*
X170369213Y-94082887D01*
X170462059Y-94234774D01*
X170566406Y-94413643D01*
X170681054Y-94617419D01*
X170804804Y-94844027D01*
X170936458Y-95091393D01*
X171074817Y-95357442D01*
X171218682Y-95640100D01*
X171265081Y-95731958D01*
X171333003Y-95865465D01*
X171393931Y-95984075D01*
X171445678Y-96083596D01*
X171486059Y-96159833D01*
X171512886Y-96208592D01*
X171523974Y-96225681D01*
X171539160Y-96212157D01*
X171571774Y-96174745D01*
X171614187Y-96121909D01*
X171654552Y-96072996D01*
X171732386Y-95986261D01*
X171829852Y-95883326D01*
X171940867Y-95770192D01*
X172059346Y-95652860D01*
X172179207Y-95537332D01*
X172294367Y-95429609D01*
X172398741Y-95335693D01*
X172486247Y-95261585D01*
X172714368Y-95084639D01*
X173143119Y-94789368D01*
X173585871Y-94531634D01*
X174043051Y-94311261D01*
X174515088Y-94128072D01*
X175002408Y-93981891D01*
X175505438Y-93872541D01*
X176024606Y-93799846D01*
X176106193Y-93792790D01*
X176271151Y-93783912D01*
X176459497Y-93778965D01*
X176660825Y-93777868D01*
X176864728Y-93780540D01*
X177060800Y-93786902D01*
X177238635Y-93796873D01*
X177387826Y-93810372D01*
X177751644Y-93862438D01*
X178256450Y-93968478D01*
X178748122Y-94111844D01*
X179225140Y-94291872D01*
X179685984Y-94507899D01*
X180129131Y-94759264D01*
X180553062Y-95045304D01*
X180956255Y-95365355D01*
X181012612Y-95414916D01*
X181141659Y-95534901D01*
X181282171Y-95672621D01*
X181425716Y-95819369D01*
X181563863Y-95966438D01*
X181688182Y-96105120D01*
X181790241Y-96226708D01*
X181904518Y-96373503D01*
X182200195Y-96796448D01*
X182459610Y-97236421D01*
X182682800Y-97693514D01*
X182869803Y-98167817D01*
X183020657Y-98659422D01*
X183135398Y-99168419D01*
X183214064Y-99694900D01*
X183221186Y-99773821D01*
X183228752Y-99909098D01*
X183233902Y-100068483D01*
X183236636Y-100242815D01*
X183236953Y-100422932D01*
X183234855Y-100599673D01*
X183230341Y-100763877D01*
X183223410Y-100906382D01*
X183214064Y-101018026D01*
X183165699Y-101370996D01*
X183063683Y-101884065D01*
X182926118Y-102378725D01*
X182752930Y-102855201D01*
X182544043Y-103313715D01*
X182299383Y-103754490D01*
X182165344Y-103975011D01*
X182163253Y-104236131D01*
X182160129Y-104626550D01*
G36*
X182160129Y-104626550D02*
G01*
X182157798Y-104828458D01*
X182153038Y-105041546D01*
X182145627Y-105227006D01*
X182135007Y-105391645D01*
X182120620Y-105542269D01*
X182101907Y-105685685D01*
X182078310Y-105828699D01*
X182049270Y-105978117D01*
X182048379Y-105982470D01*
X182030042Y-106093780D01*
X182020871Y-106196958D01*
X182020880Y-106284283D01*
X182030085Y-106348033D01*
X182048500Y-106380485D01*
X182050539Y-106380418D01*
X182064364Y-106357781D01*
X182085626Y-106303668D01*
X182112470Y-106224041D01*
X182143043Y-106124857D01*
X182175488Y-106012077D01*
X182207953Y-105891659D01*
X182238584Y-105769564D01*
X182255166Y-105696639D01*
X182289416Y-105522981D01*
X182323259Y-105323566D01*
X182355510Y-105107662D01*
X182384983Y-104884543D01*
X182410494Y-104663477D01*
X182430856Y-104453738D01*
X182444884Y-104264594D01*
X182451392Y-104105319D01*
X182452611Y-104054642D01*
X182455566Y-104023337D01*
X182461705Y-104024873D01*
X182472755Y-104055200D01*
X182475610Y-104066385D01*
X182483141Y-104125127D01*
X182488806Y-104215861D01*
X182492648Y-104332503D01*
X182494710Y-104468973D01*
X182495033Y-104619188D01*
X182493661Y-104777066D01*
X182490636Y-104936526D01*
X182486000Y-105091484D01*
X182479797Y-105235861D01*
X182472069Y-105363573D01*
X182462858Y-105468539D01*
X182420630Y-105804862D01*
X182366514Y-106137288D01*
X182303316Y-106444068D01*
X182242096Y-106681404D01*
X182232000Y-106720547D01*
X182153530Y-106962067D01*
X182150574Y-106970236D01*
X182120248Y-107067630D01*
X182095474Y-107169851D01*
X182081368Y-107256057D01*
X182079737Y-107271891D01*
X182039371Y-107509610D01*
X181972320Y-107723931D01*
X181879927Y-107912581D01*
X181763532Y-108073286D01*
X181624739Y-108203529D01*
X181624479Y-108203773D01*
X181464109Y-108301769D01*
X181452449Y-108307247D01*
X181372507Y-108342128D01*
X181299141Y-108370140D01*
X181246942Y-108385648D01*
X181207365Y-108398141D01*
X181139509Y-108429361D01*
X181070476Y-108469527D01*
X181010790Y-108507030D01*
X180781769Y-108625794D01*
X180528984Y-108722775D01*
X180326504Y-108777729D01*
X180261672Y-108795325D01*
X179989070Y-108840796D01*
X179720411Y-108856542D01*
X179682187Y-108857373D01*
X179628405Y-108865942D01*
X179581101Y-108889432D01*
X179522988Y-108934686D01*
X179447699Y-108995139D01*
X179230200Y-109137947D01*
X179002512Y-109242122D01*
X178764943Y-109307514D01*
X178636802Y-109323757D01*
X178462881Y-109327585D01*
X178284981Y-109314605D01*
X178120578Y-109285416D01*
X178017798Y-109253996D01*
X177886273Y-109202296D01*
X177746900Y-109138152D01*
X177612433Y-109067470D01*
X177495628Y-108996152D01*
X177363098Y-108901649D01*
X177187490Y-108758962D01*
X177010127Y-108594275D01*
X176828750Y-108405079D01*
X176667837Y-108219667D01*
X177593386Y-108219667D01*
X177597620Y-108229608D01*
X177625890Y-108261955D01*
X177674588Y-108312744D01*
X177740107Y-108378013D01*
X177784504Y-108420788D01*
X177909736Y-108531888D01*
X178027583Y-108619152D01*
X178148856Y-108690008D01*
X178284368Y-108751881D01*
X178367206Y-108780855D01*
X178463701Y-108800279D01*
X178580644Y-108808723D01*
X178606143Y-108809388D01*
X178687350Y-108809793D01*
X178753117Y-108807649D01*
X178791141Y-108803275D01*
X178817198Y-108795137D01*
X178844952Y-108777729D01*
X178832935Y-108761821D01*
X178781367Y-108748647D01*
X178727034Y-108737591D01*
X178623799Y-108709923D01*
X178502759Y-108672021D01*
X178375058Y-108627635D01*
X178251843Y-108580511D01*
X178144259Y-108534399D01*
X178136965Y-108531013D01*
X177984569Y-108453580D01*
X177805531Y-108350954D01*
X177598323Y-108222261D01*
X177593386Y-108219667D01*
X176667837Y-108219667D01*
X176641102Y-108188862D01*
X176556290Y-108082619D01*
X178746463Y-108082619D01*
X178759537Y-108092443D01*
X178804214Y-108109911D01*
X178873238Y-108132877D01*
X178959353Y-108159195D01*
X179055304Y-108186720D01*
X179153835Y-108213304D01*
X179247691Y-108236803D01*
X179329614Y-108255070D01*
X179339462Y-108257069D01*
X179441290Y-108277204D01*
X179512264Y-108288835D01*
X179560135Y-108291725D01*
X179592657Y-108285643D01*
X179617582Y-108270352D01*
X179642662Y-108245621D01*
X179647084Y-108240913D01*
X179665823Y-108219423D01*
X179672473Y-108203529D01*
X179662388Y-108191754D01*
X179630924Y-108182619D01*
X179573434Y-108174648D01*
X179485273Y-108166362D01*
X179361797Y-108156285D01*
X179245652Y-108145733D01*
X179122336Y-108132382D01*
X179009588Y-108118192D01*
X178922129Y-108104886D01*
X178891532Y-108099648D01*
X178819698Y-108088607D01*
X178768162Y-108082521D01*
X178746479Y-108082604D01*
X178746463Y-108082619D01*
X176556290Y-108082619D01*
X176456059Y-107957060D01*
X180723086Y-107957060D01*
X180727381Y-107962457D01*
X180748084Y-107967965D01*
X180798165Y-107975428D01*
X180866042Y-107982929D01*
X180996350Y-107995355D01*
X181116634Y-107897911D01*
X181200746Y-107826115D01*
X181401860Y-107621078D01*
X181587074Y-107381385D01*
X181757662Y-107105459D01*
X181782792Y-107058613D01*
X181815788Y-106983708D01*
X181833832Y-106912117D01*
X181842693Y-106824796D01*
X181851438Y-106681404D01*
X181751792Y-106876328D01*
X181621075Y-107109448D01*
X181459460Y-107342798D01*
X181281885Y-107544005D01*
X181085146Y-107716640D01*
X180866042Y-107864275D01*
X180850143Y-107873643D01*
X180784139Y-107912696D01*
X180745163Y-107936642D01*
X180726913Y-107949942D01*
X180723086Y-107957060D01*
X176456059Y-107957060D01*
X176444927Y-107943115D01*
X176237966Y-107665328D01*
X176017963Y-107352990D01*
X175958995Y-107267293D01*
X175942074Y-107242730D01*
X178159649Y-107242730D01*
X178169673Y-107252753D01*
X178179696Y-107242730D01*
X178169673Y-107232706D01*
X178159649Y-107242730D01*
X175942074Y-107242730D01*
X175884258Y-107158800D01*
X175818519Y-107063504D01*
X175765203Y-106986366D01*
X175727739Y-106932349D01*
X175709553Y-106906416D01*
X175676756Y-106883486D01*
X175608759Y-106861362D01*
X175503374Y-106839912D01*
X175455328Y-106831467D01*
X175002636Y-106731282D01*
X174549104Y-106594636D01*
X174101401Y-106424039D01*
X173666195Y-106222005D01*
X173250155Y-105991046D01*
X173128253Y-105915448D01*
X172710341Y-105626537D01*
X172317797Y-105307726D01*
X171952033Y-104960941D01*
X171614461Y-104588108D01*
X171306493Y-104191154D01*
X171029541Y-103772005D01*
X170785016Y-103332586D01*
X170574330Y-102874823D01*
X170398896Y-102400644D01*
X170260125Y-101911974D01*
X170196664Y-101627150D01*
X170147947Y-101352661D01*
X170113596Y-101080867D01*
X170092572Y-100801401D01*
X170083836Y-100503895D01*
X170086348Y-100177984D01*
X170087033Y-100148971D01*
X170095140Y-99913466D01*
X170107912Y-99705305D01*
X170126661Y-99513155D01*
X170152697Y-99325681D01*
X170187330Y-99131550D01*
X170231871Y-98919429D01*
X170286093Y-98675212D01*
X170241908Y-98619039D01*
X170228199Y-98602530D01*
X170186409Y-98554532D01*
X170124102Y-98484347D01*
X170045390Y-98396507D01*
X169954388Y-98295542D01*
X169855208Y-98185985D01*
X169751965Y-98072369D01*
X169648772Y-97959224D01*
X169549742Y-97851082D01*
X169458988Y-97752476D01*
X169380625Y-97667938D01*
X169318765Y-97601999D01*
X169244281Y-97526355D01*
X169144322Y-97430707D01*
X169035533Y-97331348D01*
X168925304Y-97234736D01*
X168821024Y-97147331D01*
X168730081Y-97075593D01*
X168659864Y-97025981D01*
X168655916Y-97023497D01*
X168567238Y-96981078D01*
X168477863Y-96967822D01*
X168444417Y-96967382D01*
X168409241Y-96964250D01*
X168405257Y-96955095D01*
X168426658Y-96936350D01*
X168434462Y-96930970D01*
X168499296Y-96914069D01*
X168589765Y-96927026D01*
X168705174Y-96969596D01*
X168844827Y-97041532D01*
X169008031Y-97142588D01*
X169017156Y-97148641D01*
X169140290Y-97234162D01*
X169273252Y-97333680D01*
X169419030Y-97449687D01*
X169580609Y-97584674D01*
X169760976Y-97741130D01*
X169963118Y-97921548D01*
X170190020Y-98128417D01*
X170202883Y-98140240D01*
X170279391Y-98209968D01*
X170332449Y-98256025D01*
X170367210Y-98281635D01*
X170388827Y-98290017D01*
X170402453Y-98284396D01*
X170413243Y-98267994D01*
X170424752Y-98248436D01*
X170437963Y-98241523D01*
X170454741Y-98261491D01*
X170482099Y-98312915D01*
X170495703Y-98339222D01*
X170530184Y-98403229D01*
X170558212Y-98451964D01*
X170559317Y-98453787D01*
X170563516Y-98468625D01*
X170541858Y-98454811D01*
X170495593Y-98413120D01*
X170448944Y-98370839D01*
X170411328Y-98341048D01*
X170393824Y-98332930D01*
X170390898Y-98338006D01*
X170377723Y-98373308D01*
X170359265Y-98431138D01*
X170338948Y-98499712D01*
X170320196Y-98567247D01*
X170306434Y-98621958D01*
X170301086Y-98652063D01*
X170304239Y-98660336D01*
X170327934Y-98696716D01*
X170371040Y-98754515D01*
X170429026Y-98827771D01*
X170497364Y-98910517D01*
X170511240Y-98927013D01*
X170595171Y-99027400D01*
X170681265Y-99131251D01*
X170760151Y-99227224D01*
X170822456Y-99303977D01*
X170848345Y-99336057D01*
X170910540Y-99412553D01*
X170989685Y-99509412D01*
X171080303Y-99619944D01*
X171176915Y-99737462D01*
X171274043Y-99855279D01*
X171344419Y-99940972D01*
X171443109Y-100063791D01*
X171524651Y-100170058D01*
X171594953Y-100268144D01*
X171659922Y-100366420D01*
X171725468Y-100473258D01*
X171797497Y-100597031D01*
X171917534Y-100805105D01*
X172175856Y-101239860D01*
X172431097Y-101650427D01*
X172689481Y-102046454D01*
X172957233Y-102437587D01*
X173240578Y-102833473D01*
X173372895Y-103017700D01*
X173488693Y-103186514D01*
X173592053Y-103346793D01*
X173690025Y-103509471D01*
X173789654Y-103685485D01*
X173797773Y-103700158D01*
X173878922Y-103843162D01*
X173968426Y-103995431D01*
X174059521Y-104145784D01*
X174145443Y-104283036D01*
X174219428Y-104396005D01*
X174268878Y-104471083D01*
X174346655Y-104594399D01*
X174434051Y-104737549D01*
X174525776Y-104891722D01*
X174616538Y-105048109D01*
X174701046Y-105197899D01*
X174754301Y-105293349D01*
X174852460Y-105466689D01*
X174954589Y-105644130D01*
X175058527Y-105822130D01*
X175162110Y-105997147D01*
X175263178Y-106165640D01*
X175359567Y-106324066D01*
X175449118Y-106468885D01*
X175529667Y-106596553D01*
X175599052Y-106703531D01*
X175655112Y-106786275D01*
X175695685Y-106841244D01*
X175718608Y-106864897D01*
X175754458Y-106877943D01*
X175837197Y-106894733D01*
X175950738Y-106908611D01*
X176089608Y-106919540D01*
X176248333Y-106927477D01*
X176421440Y-106932383D01*
X176603455Y-106934218D01*
X176788904Y-106932942D01*
X176972316Y-106928515D01*
X177148215Y-106920897D01*
X177311129Y-106910047D01*
X177455584Y-106895926D01*
X177576107Y-106878494D01*
X177576828Y-106878365D01*
X177685366Y-106878365D01*
X177691228Y-106888239D01*
X177722599Y-106918310D01*
X177775125Y-106962869D01*
X177842638Y-107016497D01*
X177896406Y-107057849D01*
X178002429Y-107137841D01*
X178078470Y-107192612D01*
X178124277Y-107221984D01*
X178139602Y-107225781D01*
X178139301Y-107224787D01*
X178120621Y-107205659D01*
X178077868Y-107169350D01*
X178017955Y-107121149D01*
X177947798Y-107066344D01*
X177874312Y-107010224D01*
X177804411Y-106958078D01*
X177745010Y-106915193D01*
X177703023Y-106886860D01*
X177685366Y-106878365D01*
X177576828Y-106878365D01*
X177644104Y-106866325D01*
X177327684Y-106567885D01*
X177484040Y-106693314D01*
X177527872Y-106728805D01*
X177588122Y-106778821D01*
X177631461Y-106816377D01*
X177650614Y-106835274D01*
X177655454Y-106840538D01*
X177688138Y-106850031D01*
X177749684Y-106848502D01*
X177843253Y-106835716D01*
X177972004Y-106811439D01*
X178002439Y-106804986D01*
X178081215Y-106787077D01*
X178175713Y-106764494D01*
X178278114Y-106739229D01*
X178380599Y-106713276D01*
X178475350Y-106688626D01*
X178554550Y-106667274D01*
X178610379Y-106651212D01*
X178635020Y-106642433D01*
X178633687Y-106640799D01*
X178664818Y-106640799D01*
X178667111Y-106645996D01*
X178692472Y-106673480D01*
X178741515Y-106720591D01*
X178809650Y-106783265D01*
X178892286Y-106857435D01*
X178984833Y-106939038D01*
X179082700Y-107024008D01*
X179181298Y-107108280D01*
X179276036Y-107187790D01*
X179322415Y-107225781D01*
X179343106Y-107242730D01*
X179362323Y-107258472D01*
X179391959Y-107282188D01*
X179498218Y-107364988D01*
X179607602Y-107447341D01*
X179708805Y-107520836D01*
X179790523Y-107577062D01*
X179846199Y-107612151D01*
X179920271Y-107654295D01*
X179980139Y-107683117D01*
X180016473Y-107693795D01*
X180027156Y-107692900D01*
X180049794Y-107683974D01*
X180075358Y-107662377D01*
X180106500Y-107624322D01*
X180145869Y-107566020D01*
X180196117Y-107483685D01*
X180259896Y-107373527D01*
X180339855Y-107231761D01*
X180348744Y-107215868D01*
X180431017Y-107066660D01*
X180504305Y-106928868D01*
X180571876Y-106795490D01*
X180637001Y-106659521D01*
X180702950Y-106513959D01*
X180772991Y-106351799D01*
X180850396Y-106166039D01*
X180938434Y-105949675D01*
X180980425Y-105846274D01*
X181035898Y-105711766D01*
X181085186Y-105594692D01*
X181126564Y-105499018D01*
X181158310Y-105428710D01*
X181178699Y-105387733D01*
X181186008Y-105380052D01*
X181185183Y-105391479D01*
X181176096Y-105443049D01*
X181158291Y-105524186D01*
X181133391Y-105628589D01*
X181103017Y-105749956D01*
X181068792Y-105881986D01*
X181032337Y-106018378D01*
X180995276Y-106152832D01*
X180959230Y-106279045D01*
X180925821Y-106390717D01*
X180906500Y-106451645D01*
X180853932Y-106607005D01*
X180791323Y-106781537D01*
X180723032Y-106963739D01*
X180653417Y-107142110D01*
X180586836Y-107305149D01*
X180527649Y-107441355D01*
X180521550Y-107454908D01*
X180494097Y-107519744D01*
X180476762Y-107567328D01*
X180473071Y-107588170D01*
X180473558Y-107588559D01*
X180498395Y-107585032D01*
X180549220Y-107565320D01*
X180618028Y-107533474D01*
X180696812Y-107493542D01*
X180777566Y-107449573D01*
X180852283Y-107405615D01*
X180912958Y-107365717D01*
X180929636Y-107353523D01*
X181050007Y-107253321D01*
X181174276Y-107131695D01*
X181290287Y-107001266D01*
X181385885Y-106874655D01*
X181423489Y-106815284D01*
X181490846Y-106695626D01*
X181562071Y-106555783D01*
X181631854Y-106406799D01*
X181694888Y-106259721D01*
X181745863Y-106125597D01*
X181806782Y-105950690D01*
X181767754Y-105711468D01*
X181754912Y-105635576D01*
X181729948Y-105497090D01*
X181702686Y-105354071D01*
X181677089Y-105227678D01*
X181675210Y-105218747D01*
X181656572Y-105126154D01*
X181642598Y-105049427D01*
X181634613Y-104996329D01*
X181633939Y-104974622D01*
X181637665Y-104974661D01*
X181654537Y-104999897D01*
X181680755Y-105058209D01*
X181714793Y-105145757D01*
X181755126Y-105258700D01*
X181800227Y-105393198D01*
X181803890Y-105404351D01*
X181833666Y-105489557D01*
X181859838Y-105555399D01*
X181879693Y-105595553D01*
X181890517Y-105603695D01*
X181898235Y-105580264D01*
X181911589Y-105521418D01*
X181927864Y-105437018D01*
X181945744Y-105334937D01*
X181963912Y-105223044D01*
X181981053Y-105109212D01*
X181995850Y-105001311D01*
X182006986Y-104907213D01*
X182012507Y-104850757D01*
X182021202Y-104746978D01*
X182029240Y-104634457D01*
X182036273Y-104520151D01*
X182041953Y-104411022D01*
X182045930Y-104314029D01*
X182047855Y-104236131D01*
X182047381Y-104184288D01*
X182044157Y-104165461D01*
X182037202Y-104171043D01*
X182010015Y-104202130D01*
X181968264Y-104254388D01*
X181917641Y-104320828D01*
X181734593Y-104553895D01*
X181405422Y-104922152D01*
X181046524Y-105266059D01*
X180660605Y-105583616D01*
X180250373Y-105872823D01*
X179818536Y-106131678D01*
X179367800Y-106358180D01*
X178900874Y-106550330D01*
X178896364Y-106551988D01*
X178808117Y-106584742D01*
X178735129Y-106612371D01*
X178684872Y-106632011D01*
X178664818Y-106640799D01*
X178633687Y-106640799D01*
X178626843Y-106632413D01*
X178594274Y-106597264D01*
X178540353Y-106540543D01*
X178468778Y-106466109D01*
X178383243Y-106377821D01*
X178287448Y-106279540D01*
X178259124Y-106250519D01*
X178086027Y-106071465D01*
X177900875Y-105877353D01*
X177707678Y-105672552D01*
X177510449Y-105461433D01*
X177313200Y-105248364D01*
X177119943Y-105037716D01*
X176934689Y-104833856D01*
X176761450Y-104641156D01*
X176604239Y-104463984D01*
X176467066Y-104306710D01*
X176353945Y-104173703D01*
X176312351Y-104126453D01*
X176240895Y-104049656D01*
X176147539Y-103952220D01*
X176036029Y-103837953D01*
X175910108Y-103710661D01*
X175773521Y-103574150D01*
X175630012Y-103432227D01*
X175483327Y-103288697D01*
X175402003Y-103209667D01*
X175227864Y-103040987D01*
X175078056Y-102896020D01*
X174949930Y-102771325D01*
X174840840Y-102663461D01*
X174748137Y-102568984D01*
X174669174Y-102484454D01*
X174601304Y-102406429D01*
X174541878Y-102331466D01*
X174488250Y-102256124D01*
X174437772Y-102176960D01*
X174387796Y-102090534D01*
X174335674Y-101993404D01*
X174278759Y-101882126D01*
X174214404Y-101753261D01*
X174139960Y-101603365D01*
X174052781Y-101428997D01*
X173988457Y-101300917D01*
X173875455Y-101075013D01*
X173758615Y-100840275D01*
X173636722Y-100594216D01*
X173508557Y-100334347D01*
X173372904Y-100058179D01*
X173228545Y-99763225D01*
X173074264Y-99446995D01*
X172908843Y-99107002D01*
X172731065Y-98740756D01*
X172539714Y-98345769D01*
X172333572Y-97919554D01*
X172111422Y-97459620D01*
X172072836Y-97379723D01*
X171976145Y-97179841D01*
X171884925Y-96991729D01*
X171800665Y-96818431D01*
X171724854Y-96662994D01*
X171658983Y-96528461D01*
X171604540Y-96417877D01*
X171563016Y-96334287D01*
X171535900Y-96280736D01*
X171524681Y-96260269D01*
X171516592Y-96261335D01*
X171488155Y-96285788D01*
X171446173Y-96333314D01*
X171396456Y-96397688D01*
X171284010Y-96551663D01*
X171262369Y-96494434D01*
X171250687Y-96463596D01*
X171191973Y-96309893D01*
X171123545Y-96132441D01*
X171048074Y-95938041D01*
X170968232Y-95733491D01*
X170886690Y-95525592D01*
X170806120Y-95321142D01*
X170729194Y-95126941D01*
X170658583Y-94949788D01*
X170596959Y-94796483D01*
X170546994Y-94673824D01*
X170488245Y-94531770D01*
X170422255Y-94374788D01*
X170366788Y-94246823D01*
X170319592Y-94143130D01*
X170278413Y-94058959D01*
X170241000Y-93989563D01*
X170205099Y-93930196D01*
X170168457Y-93876109D01*
X170148869Y-93848375D01*
X170114728Y-93796974D01*
X170104230Y-93772811D01*
X170116716Y-93772666D01*
X170151528Y-93793320D01*
X170171660Y-93809859D01*
X170222814Y-93868354D01*
X170289065Y-93960055D01*
X170369213Y-94082887D01*
X170462059Y-94234774D01*
X170566406Y-94413643D01*
X170681054Y-94617419D01*
X170804804Y-94844027D01*
X170936458Y-95091393D01*
X171074817Y-95357442D01*
X171218682Y-95640100D01*
X171265081Y-95731958D01*
X171333003Y-95865465D01*
X171393931Y-95984075D01*
X171445678Y-96083596D01*
X171486059Y-96159833D01*
X171512886Y-96208592D01*
X171523974Y-96225681D01*
X171539160Y-96212157D01*
X171571774Y-96174745D01*
X171614187Y-96121909D01*
X171654552Y-96072996D01*
X171732386Y-95986261D01*
X171829852Y-95883326D01*
X171940867Y-95770192D01*
X172059346Y-95652860D01*
X172179207Y-95537332D01*
X172294367Y-95429609D01*
X172398741Y-95335693D01*
X172486247Y-95261585D01*
X172714368Y-95084639D01*
X173143119Y-94789368D01*
X173585871Y-94531634D01*
X174043051Y-94311261D01*
X174515088Y-94128072D01*
X175002408Y-93981891D01*
X175505438Y-93872541D01*
X176024606Y-93799846D01*
X176106193Y-93792790D01*
X176271151Y-93783912D01*
X176459497Y-93778965D01*
X176660825Y-93777868D01*
X176864728Y-93780540D01*
X177060800Y-93786902D01*
X177238635Y-93796873D01*
X177387826Y-93810372D01*
X177751644Y-93862438D01*
X178256450Y-93968478D01*
X178748122Y-94111844D01*
X179225140Y-94291872D01*
X179685984Y-94507899D01*
X180129131Y-94759264D01*
X180553062Y-95045304D01*
X180956255Y-95365355D01*
X181012612Y-95414916D01*
X181141659Y-95534901D01*
X181282171Y-95672621D01*
X181425716Y-95819369D01*
X181563863Y-95966438D01*
X181688182Y-96105120D01*
X181790241Y-96226708D01*
X181904518Y-96373503D01*
X182200195Y-96796448D01*
X182459610Y-97236421D01*
X182682800Y-97693514D01*
X182869803Y-98167817D01*
X183020657Y-98659422D01*
X183135398Y-99168419D01*
X183214064Y-99694900D01*
X183221186Y-99773821D01*
X183228752Y-99909098D01*
X183233902Y-100068483D01*
X183236636Y-100242815D01*
X183236953Y-100422932D01*
X183234855Y-100599673D01*
X183230341Y-100763877D01*
X183223410Y-100906382D01*
X183214064Y-101018026D01*
X183165699Y-101370996D01*
X183063683Y-101884065D01*
X182926118Y-102378725D01*
X182752930Y-102855201D01*
X182544043Y-103313715D01*
X182299383Y-103754490D01*
X182165344Y-103975011D01*
X182163253Y-104236131D01*
X182160129Y-104626550D01*
G37*
%TD*%
M02*
