%TF.GenerationSoftware,KiCad,Pcbnew,7.0.7*%
%TF.CreationDate,2024-03-26T15:37:16-05:00*%
%TF.ProjectId,CoreBoard,436f7265-426f-4617-9264-2e6b69636164,rev?*%
%TF.SameCoordinates,Original*%
%TF.FileFunction,Soldermask,Bot*%
%TF.FilePolarity,Negative*%
%FSLAX46Y46*%
G04 Gerber Fmt 4.6, Leading zero omitted, Abs format (unit mm)*
G04 Created by KiCad (PCBNEW 7.0.7) date 2024-03-26 15:37:16*
%MOMM*%
%LPD*%
G01*
G04 APERTURE LIST*
%ADD10C,3.450000*%
%ADD11C,1.524000*%
%ADD12O,3.500000X2.200000*%
%ADD13R,2.500000X1.500000*%
%ADD14O,2.500000X1.500000*%
%ADD15C,2.946400*%
%ADD16C,1.308000*%
%ADD17C,1.208000*%
%ADD18O,3.760000X1.982000*%
%ADD19C,1.100000*%
%ADD20C,1.400000*%
%ADD21C,4.000000*%
%ADD22C,2.000000*%
%ADD23O,5.100000X3.000000*%
%ADD24C,3.500000*%
G04 APERTURE END LIST*
D10*
%TO.C,Conn2*%
X69723000Y-116078000D03*
X69723000Y-93218000D03*
D11*
X78359000Y-114808000D03*
X78359000Y-112268000D03*
X78359000Y-109728000D03*
X78359000Y-107188000D03*
X78359000Y-104648000D03*
X78359000Y-102108000D03*
X78359000Y-99568000D03*
X78359000Y-97028000D03*
X78359000Y-94488000D03*
%TD*%
%TO.C,U7*%
X80391000Y-53594000D03*
X80391000Y-56134000D03*
X80391000Y-58674000D03*
%TD*%
D12*
%TO.C,SW16*%
X197568500Y-53558000D03*
X197568500Y-61758000D03*
D13*
X197568500Y-55658000D03*
D14*
X197568500Y-57658000D03*
X197568500Y-59658000D03*
%TD*%
D10*
%TO.C,Conn5*%
X134874000Y-47244000D03*
X157734000Y-47244000D03*
D11*
X136144000Y-55880000D03*
X138684000Y-55880000D03*
X141224000Y-55880000D03*
X143764000Y-55880000D03*
X146304000Y-55880000D03*
X148844000Y-55880000D03*
X151384000Y-55880000D03*
X153924000Y-55880000D03*
X156464000Y-55880000D03*
%TD*%
D15*
%TO.C,REF\u002A\u002A*%
X68834000Y-46482000D03*
%TD*%
%TO.C,REF\u002A\u002A*%
X195834000Y-46482000D03*
%TD*%
D10*
%TO.C,Conn4*%
X162560000Y-47244000D03*
X185420000Y-47244000D03*
D11*
X163830000Y-55880000D03*
X166370000Y-55880000D03*
X168910000Y-55880000D03*
X171450000Y-55880000D03*
X173990000Y-55880000D03*
X176530000Y-55880000D03*
X179070000Y-55880000D03*
X181610000Y-55880000D03*
X184150000Y-55880000D03*
%TD*%
D15*
%TO.C,REF\u002A\u002A*%
X68834000Y-122682000D03*
%TD*%
D16*
%TO.C,U1*%
X166624000Y-68326000D03*
X164084000Y-68326000D03*
X161544000Y-68326000D03*
X159004000Y-68326000D03*
X133604000Y-68326000D03*
X164084000Y-83566000D03*
X156464000Y-68326000D03*
X153924000Y-68326000D03*
X151384000Y-68326000D03*
X148844000Y-68326000D03*
X146304000Y-68326000D03*
X143764000Y-68326000D03*
X141224000Y-68326000D03*
X138684000Y-68326000D03*
X136144000Y-68326000D03*
X136144000Y-83566000D03*
X138684000Y-83566000D03*
X141224000Y-83566000D03*
X143764000Y-83566000D03*
X146304000Y-83566000D03*
X148844000Y-83566000D03*
X151384000Y-83566000D03*
X153924000Y-83566000D03*
X156464000Y-83566000D03*
X159004000Y-83566000D03*
X161544000Y-83566000D03*
X131064000Y-68326000D03*
X128524000Y-68326000D03*
X125984000Y-68326000D03*
X123444000Y-68326000D03*
X120904000Y-68326000D03*
X118364000Y-68326000D03*
X115824000Y-68326000D03*
X113284000Y-68326000D03*
X110744000Y-68326000D03*
X110744000Y-83566000D03*
X113284000Y-83566000D03*
X115824000Y-83566000D03*
X118364000Y-83566000D03*
X120904000Y-83566000D03*
X123444000Y-83566000D03*
X125984000Y-83566000D03*
X128524000Y-83566000D03*
X131064000Y-83566000D03*
X169164000Y-68326000D03*
X133604000Y-83566000D03*
X166624000Y-83566000D03*
D17*
X154194000Y-79116000D03*
X156194000Y-79116000D03*
X156194000Y-81116000D03*
X154194000Y-81116000D03*
X154194000Y-77116000D03*
X156194000Y-77116000D03*
D16*
X169164000Y-83566000D03*
%TD*%
D11*
%TO.C,Conn7*%
X76454000Y-46990000D03*
X78994000Y-46990000D03*
X81534000Y-46990000D03*
%TD*%
D18*
%TO.C,U2*%
X94488000Y-83883500D03*
X94488000Y-71183500D03*
X94488000Y-86423500D03*
X94488000Y-73723500D03*
X94488000Y-76263500D03*
X94488000Y-68643500D03*
X94488000Y-81343500D03*
X94488000Y-78803500D03*
%TD*%
D19*
%TO.C,J1*%
X182372000Y-80264000D03*
X179832000Y-78994000D03*
X182372000Y-77724000D03*
X179832000Y-76454000D03*
X182372000Y-75184000D03*
X179832000Y-73914000D03*
X182372000Y-72644000D03*
X179832000Y-71374000D03*
D20*
X193802000Y-82144000D03*
X192012000Y-79604000D03*
X193802000Y-72034000D03*
X192012000Y-69494000D03*
D21*
X188722000Y-81534000D03*
X188722000Y-70104000D03*
D22*
X185672000Y-83694000D03*
X185672000Y-67944000D03*
%TD*%
D23*
%TO.C,Conn1*%
X98425000Y-60641200D03*
X90551000Y-60641200D03*
%TD*%
D10*
%TO.C,Conn6*%
X107188000Y-47244000D03*
X130048000Y-47244000D03*
D11*
X108458000Y-55880000D03*
X110998000Y-55880000D03*
X113538000Y-55880000D03*
X116078000Y-55880000D03*
X118618000Y-55880000D03*
X121158000Y-55880000D03*
X123698000Y-55880000D03*
X126238000Y-55880000D03*
X128778000Y-55880000D03*
%TD*%
D15*
%TO.C,REF\u002A\u002A*%
X195834000Y-122682000D03*
%TD*%
D10*
%TO.C,Conn3*%
X194818000Y-92710000D03*
X194818000Y-115570000D03*
D11*
X186182000Y-93980000D03*
X186182000Y-96520000D03*
X186182000Y-99060000D03*
X186182000Y-101600000D03*
X186182000Y-104140000D03*
X186182000Y-106680000D03*
X186182000Y-109220000D03*
X186182000Y-111760000D03*
X186182000Y-114300000D03*
%TD*%
D24*
%TO.C,U3*%
X80378000Y-86935800D03*
X75298000Y-86935800D03*
X67678000Y-86935800D03*
X67678000Y-66615800D03*
X77838000Y-66615800D03*
X87998000Y-66615800D03*
%TD*%
M02*
