%TF.GenerationSoftware,KiCad,Pcbnew,7.0.7*%
%TF.CreationDate,2024-03-26T15:37:16-05:00*%
%TF.ProjectId,CoreBoard,436f7265-426f-4617-9264-2e6b69636164,rev?*%
%TF.SameCoordinates,Original*%
%TF.FileFunction,Soldermask,Top*%
%TF.FilePolarity,Negative*%
%FSLAX46Y46*%
G04 Gerber Fmt 4.6, Leading zero omitted, Abs format (unit mm)*
G04 Created by KiCad (PCBNEW 7.0.7) date 2024-03-26 15:37:16*
%MOMM*%
%LPD*%
G01*
G04 APERTURE LIST*
G04 Aperture macros list*
%AMRoundRect*
0 Rectangle with rounded corners*
0 $1 Rounding radius*
0 $2 $3 $4 $5 $6 $7 $8 $9 X,Y pos of 4 corners*
0 Add a 4 corners polygon primitive as box body*
4,1,4,$2,$3,$4,$5,$6,$7,$8,$9,$2,$3,0*
0 Add four circle primitives for the rounded corners*
1,1,$1+$1,$2,$3*
1,1,$1+$1,$4,$5*
1,1,$1+$1,$6,$7*
1,1,$1+$1,$8,$9*
0 Add four rect primitives between the rounded corners*
20,1,$1+$1,$2,$3,$4,$5,0*
20,1,$1+$1,$4,$5,$6,$7,0*
20,1,$1+$1,$6,$7,$8,$9,0*
20,1,$1+$1,$8,$9,$2,$3,0*%
G04 Aperture macros list end*
%ADD10RoundRect,0.237500X-0.287500X-0.237500X0.287500X-0.237500X0.287500X0.237500X-0.287500X0.237500X0*%
%ADD11C,3.450000*%
%ADD12C,1.524000*%
%ADD13RoundRect,0.237500X-0.250000X-0.237500X0.250000X-0.237500X0.250000X0.237500X-0.250000X0.237500X0*%
%ADD14O,3.500000X2.200000*%
%ADD15R,2.500000X1.500000*%
%ADD16O,2.500000X1.500000*%
%ADD17R,1.600000X1.400000*%
%ADD18C,2.946400*%
%ADD19RoundRect,0.237500X0.237500X-0.250000X0.237500X0.250000X-0.237500X0.250000X-0.237500X-0.250000X0*%
%ADD20RoundRect,0.250000X-0.412500X-0.650000X0.412500X-0.650000X0.412500X0.650000X-0.412500X0.650000X0*%
%ADD21RoundRect,0.237500X-0.237500X0.287500X-0.237500X-0.287500X0.237500X-0.287500X0.237500X0.287500X0*%
%ADD22C,1.308000*%
%ADD23C,1.208000*%
%ADD24RoundRect,0.237500X0.237500X-0.300000X0.237500X0.300000X-0.237500X0.300000X-0.237500X-0.300000X0*%
%ADD25RoundRect,0.150000X-0.150000X0.837500X-0.150000X-0.837500X0.150000X-0.837500X0.150000X0.837500X0*%
%ADD26RoundRect,0.237500X-0.300000X-0.237500X0.300000X-0.237500X0.300000X0.237500X-0.300000X0.237500X0*%
%ADD27RoundRect,0.237500X-0.237500X0.250000X-0.237500X-0.250000X0.237500X-0.250000X0.237500X0.250000X0*%
%ADD28RoundRect,0.237500X0.237500X-0.287500X0.237500X0.287500X-0.237500X0.287500X-0.237500X-0.287500X0*%
%ADD29RoundRect,0.137500X0.662500X0.137500X-0.662500X0.137500X-0.662500X-0.137500X0.662500X-0.137500X0*%
%ADD30RoundRect,0.137500X-0.662500X-0.137500X0.662500X-0.137500X0.662500X0.137500X-0.662500X0.137500X0*%
%ADD31O,3.760000X1.982000*%
%ADD32C,1.100000*%
%ADD33C,1.400000*%
%ADD34C,4.000000*%
%ADD35C,2.000000*%
%ADD36O,5.100000X3.000000*%
%ADD37C,3.500000*%
G04 APERTURE END LIST*
D10*
%TO.C,D6*%
X111266000Y-111125000D03*
X113016000Y-111125000D03*
%TD*%
D11*
%TO.C,Conn2*%
X69723000Y-116078000D03*
X69723000Y-93218000D03*
D12*
X78359000Y-114808000D03*
X78359000Y-112268000D03*
X78359000Y-109728000D03*
X78359000Y-107188000D03*
X78359000Y-104648000D03*
X78359000Y-102108000D03*
X78359000Y-99568000D03*
X78359000Y-97028000D03*
X78359000Y-94488000D03*
%TD*%
%TO.C,U7*%
X80391000Y-53594000D03*
X80391000Y-56134000D03*
X80391000Y-58674000D03*
%TD*%
D13*
%TO.C,R16*%
X115038500Y-121666000D03*
X116863500Y-121666000D03*
%TD*%
%TO.C,R6*%
X115038500Y-111125000D03*
X116863500Y-111125000D03*
%TD*%
D14*
%TO.C,SW16*%
X197568500Y-53558000D03*
X197568500Y-61758000D03*
D15*
X197568500Y-55658000D03*
D16*
X197568500Y-57658000D03*
X197568500Y-59658000D03*
%TD*%
D17*
%TO.C,SW15*%
X166834000Y-95274000D03*
X174034000Y-95274000D03*
X166834000Y-98274000D03*
X174034000Y-98274000D03*
%TD*%
D13*
%TO.C,R5*%
X101043100Y-111125000D03*
X102868100Y-111125000D03*
%TD*%
D11*
%TO.C,Conn5*%
X134874000Y-47244000D03*
X157734000Y-47244000D03*
D12*
X136144000Y-55880000D03*
X138684000Y-55880000D03*
X141224000Y-55880000D03*
X143764000Y-55880000D03*
X146304000Y-55880000D03*
X148844000Y-55880000D03*
X151384000Y-55880000D03*
X153924000Y-55880000D03*
X156464000Y-55880000D03*
%TD*%
D10*
%TO.C,D17*%
X157570200Y-121666000D03*
X159320200Y-121666000D03*
%TD*%
D17*
%TO.C,SW14*%
X155658000Y-116356000D03*
X162858000Y-116356000D03*
X155658000Y-119356000D03*
X162858000Y-119356000D03*
%TD*%
D13*
%TO.C,R8*%
X161342700Y-111125000D03*
X163167700Y-111125000D03*
%TD*%
D10*
%TO.C,D9*%
X170448000Y-121666000D03*
X172198000Y-121666000D03*
%TD*%
D18*
%TO.C,REF\u002A\u002A*%
X68834000Y-46482000D03*
%TD*%
D17*
%TO.C,SW13*%
X121622000Y-95274000D03*
X128822000Y-95274000D03*
X121622000Y-98274000D03*
X128822000Y-98274000D03*
%TD*%
D18*
%TO.C,REF\u002A\u002A*%
X195834000Y-46482000D03*
%TD*%
D11*
%TO.C,Conn4*%
X162560000Y-47244000D03*
X185420000Y-47244000D03*
D12*
X163830000Y-55880000D03*
X166370000Y-55880000D03*
X168910000Y-55880000D03*
X171450000Y-55880000D03*
X173990000Y-55880000D03*
X176530000Y-55880000D03*
X179070000Y-55880000D03*
X181610000Y-55880000D03*
X184150000Y-55880000D03*
%TD*%
D18*
%TO.C,REF\u002A\u002A*%
X68834000Y-122682000D03*
%TD*%
D13*
%TO.C,R14*%
X174245900Y-121666000D03*
X176070900Y-121666000D03*
%TD*%
D17*
%TO.C,SW12*%
X107652000Y-95274000D03*
X114852000Y-95274000D03*
X107652000Y-98274000D03*
X114852000Y-98274000D03*
%TD*%
D10*
%TO.C,D10*%
X97245200Y-121666000D03*
X98995200Y-121666000D03*
%TD*%
D13*
%TO.C,R9*%
X166524300Y-111125000D03*
X168349300Y-111125000D03*
%TD*%
D19*
%TO.C,R36*%
X133604000Y-64704600D03*
X133604000Y-62879600D03*
%TD*%
D13*
%TO.C,R20*%
X93359600Y-121666000D03*
X95184600Y-121666000D03*
%TD*%
%TO.C,R10*%
X93359600Y-111125000D03*
X95184600Y-111125000D03*
%TD*%
%TO.C,R19*%
X166524300Y-121666000D03*
X168349300Y-121666000D03*
%TD*%
D10*
%TO.C,D12*%
X125185200Y-121666000D03*
X126935200Y-121666000D03*
%TD*%
D13*
%TO.C,R33*%
X166524300Y-100584000D03*
X168349300Y-100584000D03*
%TD*%
D17*
%TO.C,SW4*%
X121622000Y-105815000D03*
X128822000Y-105815000D03*
X121622000Y-108815000D03*
X128822000Y-108815000D03*
%TD*%
D20*
%TO.C,C2*%
X92671500Y-64516000D03*
X95796500Y-64516000D03*
%TD*%
D10*
%TO.C,D16*%
X125185200Y-100584000D03*
X126935200Y-100584000D03*
%TD*%
D13*
%TO.C,R23*%
X153659200Y-100584000D03*
X155484200Y-100584000D03*
%TD*%
%TO.C,R18*%
X161342700Y-100584000D03*
X163167700Y-100584000D03*
%TD*%
%TO.C,R29*%
X93359600Y-100584000D03*
X95184600Y-100584000D03*
%TD*%
D21*
%TO.C,D20*%
X113118300Y-62867600D03*
X113118300Y-64617600D03*
%TD*%
D22*
%TO.C,U1*%
X166624000Y-68326000D03*
X164084000Y-68326000D03*
X161544000Y-68326000D03*
X159004000Y-68326000D03*
X133604000Y-68326000D03*
X164084000Y-83566000D03*
X156464000Y-68326000D03*
X153924000Y-68326000D03*
X151384000Y-68326000D03*
X148844000Y-68326000D03*
X146304000Y-68326000D03*
X143764000Y-68326000D03*
X141224000Y-68326000D03*
X138684000Y-68326000D03*
X136144000Y-68326000D03*
X136144000Y-83566000D03*
X138684000Y-83566000D03*
X141224000Y-83566000D03*
X143764000Y-83566000D03*
X146304000Y-83566000D03*
X148844000Y-83566000D03*
X151384000Y-83566000D03*
X153924000Y-83566000D03*
X156464000Y-83566000D03*
X159004000Y-83566000D03*
X161544000Y-83566000D03*
X131064000Y-68326000D03*
X128524000Y-68326000D03*
X125984000Y-68326000D03*
X123444000Y-68326000D03*
X120904000Y-68326000D03*
X118364000Y-68326000D03*
X115824000Y-68326000D03*
X113284000Y-68326000D03*
X110744000Y-68326000D03*
X110744000Y-83566000D03*
X113284000Y-83566000D03*
X115824000Y-83566000D03*
X118364000Y-83566000D03*
X120904000Y-83566000D03*
X123444000Y-83566000D03*
X125984000Y-83566000D03*
X128524000Y-83566000D03*
X131064000Y-83566000D03*
X169164000Y-68326000D03*
X133604000Y-83566000D03*
X166624000Y-83566000D03*
D23*
X154194000Y-79116000D03*
X156194000Y-79116000D03*
X156194000Y-81116000D03*
X154194000Y-81116000D03*
X154194000Y-77116000D03*
X156194000Y-77116000D03*
D22*
X169164000Y-83566000D03*
%TD*%
D13*
%TO.C,R28*%
X174245900Y-100584000D03*
X176070900Y-100584000D03*
%TD*%
D24*
%TO.C,C3*%
X84328000Y-58674000D03*
X84328000Y-56949000D03*
%TD*%
D25*
%TO.C,U6*%
X145999200Y-91279500D03*
X144729200Y-91279500D03*
X143459200Y-91279500D03*
X142189200Y-91279500D03*
X140919200Y-91279500D03*
X139649200Y-91279500D03*
X138379200Y-91279500D03*
X138379200Y-98204500D03*
X139649200Y-98204500D03*
X140919200Y-98204500D03*
X142189200Y-98204500D03*
X143459200Y-98204500D03*
X144729200Y-98204500D03*
X145999200Y-98204500D03*
%TD*%
D13*
%TO.C,R21*%
X107342300Y-121666000D03*
X109167300Y-121666000D03*
%TD*%
D10*
%TO.C,D15*%
X111266000Y-100584000D03*
X113016000Y-100584000D03*
%TD*%
%TO.C,D13*%
X157570200Y-100584000D03*
X159320200Y-100584000D03*
%TD*%
D17*
%TO.C,SW9*%
X121622000Y-116356000D03*
X128822000Y-116356000D03*
X121622000Y-119356000D03*
X128822000Y-119356000D03*
%TD*%
%TO.C,SW8*%
X107652000Y-116356000D03*
X114852000Y-116356000D03*
X107652000Y-119356000D03*
X114852000Y-119356000D03*
%TD*%
D26*
%TO.C,C1*%
X174397500Y-69697600D03*
X176122500Y-69697600D03*
%TD*%
D27*
%TO.C,R38*%
X124728500Y-62841500D03*
X124728500Y-64666500D03*
%TD*%
D28*
%TO.C,D21*%
X131572000Y-64629000D03*
X131572000Y-62879000D03*
%TD*%
D13*
%TO.C,R4*%
X174245900Y-111125000D03*
X176070900Y-111125000D03*
%TD*%
D10*
%TO.C,D5*%
X97245200Y-111125000D03*
X98995200Y-111125000D03*
%TD*%
D13*
%TO.C,R30*%
X107342300Y-100584000D03*
X109167300Y-100584000D03*
%TD*%
D10*
%TO.C,D8*%
X157570200Y-111125000D03*
X159320200Y-111125000D03*
%TD*%
D13*
%TO.C,R32*%
X153659200Y-121666000D03*
X155484200Y-121666000D03*
%TD*%
%TO.C,R27*%
X161342700Y-121666000D03*
X163167700Y-121666000D03*
%TD*%
D29*
%TO.C,U4*%
X145439200Y-124841000D03*
X145439200Y-123571000D03*
X145439200Y-122301000D03*
X145439200Y-121031000D03*
X145439200Y-119761000D03*
X145439200Y-118491000D03*
X145439200Y-117221000D03*
X145439200Y-115951000D03*
X138939200Y-115951000D03*
X138939200Y-117221000D03*
X138939200Y-118491000D03*
X138939200Y-119761000D03*
X138939200Y-121031000D03*
X138939200Y-122301000D03*
X138939200Y-123571000D03*
X138939200Y-124841000D03*
%TD*%
D13*
%TO.C,R11*%
X107342300Y-111125000D03*
X109167300Y-111125000D03*
%TD*%
%TO.C,R7*%
X128957700Y-111125000D03*
X130782700Y-111125000D03*
%TD*%
D10*
%TO.C,D11*%
X111266000Y-121666000D03*
X113016000Y-121666000D03*
%TD*%
%TO.C,D7*%
X125185200Y-111125000D03*
X126935200Y-111125000D03*
%TD*%
D13*
%TO.C,R15*%
X101043100Y-121666000D03*
X102868100Y-121666000D03*
%TD*%
D12*
%TO.C,Conn7*%
X76454000Y-46990000D03*
X78994000Y-46990000D03*
X81534000Y-46990000D03*
%TD*%
D30*
%TO.C,U5*%
X138939200Y-102743000D03*
X138939200Y-104013000D03*
X138939200Y-105283000D03*
X138939200Y-106553000D03*
X138939200Y-107823000D03*
X138939200Y-109093000D03*
X138939200Y-110363000D03*
X138939200Y-111633000D03*
X145439200Y-111633000D03*
X145439200Y-110363000D03*
X145439200Y-109093000D03*
X145439200Y-107823000D03*
X145439200Y-106553000D03*
X145439200Y-105283000D03*
X145439200Y-104013000D03*
X145439200Y-102743000D03*
%TD*%
D31*
%TO.C,U2*%
X94488000Y-83883500D03*
X94488000Y-71183500D03*
X94488000Y-86423500D03*
X94488000Y-73723500D03*
X94488000Y-76263500D03*
X94488000Y-68643500D03*
X94488000Y-81343500D03*
X94488000Y-78803500D03*
%TD*%
D17*
%TO.C,SW5*%
X155658000Y-105815000D03*
X162858000Y-105815000D03*
X155658000Y-108815000D03*
X162858000Y-108815000D03*
%TD*%
D10*
%TO.C,D4*%
X170448000Y-111125000D03*
X172198000Y-111125000D03*
%TD*%
D13*
%TO.C,R24*%
X101043100Y-100584000D03*
X102868100Y-100584000D03*
%TD*%
D10*
%TO.C,D14*%
X97245200Y-100584000D03*
X98995200Y-100584000D03*
%TD*%
D17*
%TO.C,SW2*%
X93682000Y-105815000D03*
X100882000Y-105815000D03*
X93682000Y-108815000D03*
X100882000Y-108815000D03*
%TD*%
%TO.C,SW3*%
X107652000Y-105815000D03*
X114852000Y-105815000D03*
X107652000Y-108815000D03*
X114852000Y-108815000D03*
%TD*%
D13*
%TO.C,R13*%
X153659200Y-111125000D03*
X155484200Y-111125000D03*
%TD*%
%TO.C,R17*%
X128957700Y-121666000D03*
X130782700Y-121666000D03*
%TD*%
D32*
%TO.C,J1*%
X182372000Y-80264000D03*
X179832000Y-78994000D03*
X182372000Y-77724000D03*
X179832000Y-76454000D03*
X182372000Y-75184000D03*
X179832000Y-73914000D03*
X182372000Y-72644000D03*
X179832000Y-71374000D03*
D33*
X193802000Y-82144000D03*
X192012000Y-79604000D03*
X193802000Y-72034000D03*
X192012000Y-69494000D03*
D34*
X188722000Y-81534000D03*
X188722000Y-70104000D03*
D35*
X185672000Y-83694000D03*
X185672000Y-67944000D03*
%TD*%
D36*
%TO.C,Conn1*%
X98425000Y-60641200D03*
X90551000Y-60641200D03*
%TD*%
D17*
%TO.C,SW6*%
X166834000Y-116356000D03*
X174034000Y-116356000D03*
X166834000Y-119356000D03*
X174034000Y-119356000D03*
%TD*%
D11*
%TO.C,Conn6*%
X107188000Y-47244000D03*
X130048000Y-47244000D03*
D12*
X108458000Y-55880000D03*
X110998000Y-55880000D03*
X113538000Y-55880000D03*
X116078000Y-55880000D03*
X118618000Y-55880000D03*
X121158000Y-55880000D03*
X123698000Y-55880000D03*
X126238000Y-55880000D03*
X128778000Y-55880000D03*
%TD*%
D28*
%TO.C,D19*%
X191249500Y-58200000D03*
X191249500Y-56450000D03*
%TD*%
D13*
%TO.C,R31*%
X121312300Y-100584000D03*
X123137300Y-100584000D03*
%TD*%
%TO.C,R12*%
X121312300Y-111125000D03*
X123137300Y-111125000D03*
%TD*%
D19*
%TO.C,R34*%
X191249500Y-54437000D03*
X191249500Y-52612000D03*
%TD*%
D18*
%TO.C,REF\u002A\u002A*%
X195834000Y-122682000D03*
%TD*%
D27*
%TO.C,R35*%
X115150300Y-62830100D03*
X115150300Y-64655100D03*
%TD*%
D17*
%TO.C,SW11*%
X93682000Y-95274000D03*
X100882000Y-95274000D03*
X93682000Y-98274000D03*
X100882000Y-98274000D03*
%TD*%
D10*
%TO.C,D18*%
X170448000Y-100584000D03*
X172198000Y-100584000D03*
%TD*%
D17*
%TO.C,SW7*%
X93682000Y-116356000D03*
X100882000Y-116356000D03*
X93682000Y-119356000D03*
X100882000Y-119356000D03*
%TD*%
D21*
%TO.C,D23*%
X122696500Y-62917100D03*
X122696500Y-64667100D03*
%TD*%
D13*
%TO.C,R25*%
X115038500Y-100584000D03*
X116863500Y-100584000D03*
%TD*%
D17*
%TO.C,SW10*%
X155658000Y-95274000D03*
X162858000Y-95274000D03*
X155658000Y-98274000D03*
X162858000Y-98274000D03*
%TD*%
D13*
%TO.C,R22*%
X121312300Y-121666000D03*
X123137300Y-121666000D03*
%TD*%
D11*
%TO.C,Conn3*%
X194818000Y-92710000D03*
X194818000Y-115570000D03*
D12*
X186182000Y-93980000D03*
X186182000Y-96520000D03*
X186182000Y-99060000D03*
X186182000Y-101600000D03*
X186182000Y-104140000D03*
X186182000Y-106680000D03*
X186182000Y-109220000D03*
X186182000Y-111760000D03*
X186182000Y-114300000D03*
%TD*%
D37*
%TO.C,U3*%
X80378000Y-86935800D03*
X75298000Y-86935800D03*
X67678000Y-86935800D03*
X67678000Y-66615800D03*
X77838000Y-66615800D03*
X87998000Y-66615800D03*
%TD*%
D13*
%TO.C,R26*%
X128957700Y-100584000D03*
X130782700Y-100584000D03*
%TD*%
D17*
%TO.C,SW1*%
X166834000Y-105815000D03*
X174034000Y-105815000D03*
X166834000Y-108815000D03*
X174034000Y-108815000D03*
%TD*%
M02*
